<?xml version="1.0" encoding="UTF-8" standalone="no"?>
<svg
   xmlns:dc="http://purl.org/dc/elements/1.1/"
   xmlns:cc="http://creativecommons.org/ns#"
   xmlns:rdf="http://www.w3.org/1999/02/22-rdf-syntax-ns#"
   xmlns:svg="http://www.w3.org/2000/svg"
   xmlns="http://www.w3.org/2000/svg"
   id="svg1233"
   version="1.1"
   viewBox="0 0 104.60947 100"
   height="100mm"
   width="104.60947mm">
  <defs
     id="defs1227" />
  <metadata
     id="metadata1230">
    <rdf:RDF>
      <cc:Work
         rdf:about="">
        <dc:format>image/svg+xml</dc:format>
        <dc:type
           rdf:resource="http://purl.org/dc/dcmitype/StillImage" />
        <dc:title></dc:title>
      </cc:Work>
    </rdf:RDF>
  </metadata>
  <g
     transform="translate(3.1678317,-124.625)"
     id="layer1">
    <g
       id="g1592"
       transform="matrix(0.84256396,0,0,0.84256396,61.28211,-146.48841)">
      <g
         id="g1480"
         transform="translate(19.471695,101.4097)">
        <path
           d="m -48.154171,231.30422 c -9.194178,-10e-5 -17.243914,6.11186 -19.766751,14.90917 -12.52965,4.51658 -20.925512,16.40769 -20.92534,29.76407 1.78e-4,7.47392 2.6635,14.68741 7.472413,20.39101 -1.14699,2.60837 -1.765155,5.41981 -1.765266,8.27391 0,11.35372 9.225389,20.57911 20.579104,20.57911 0.565938,-1e-5 1.12622,-0.0254 1.681035,-0.0703 -0.567716,1.59015 -0.57826,2.92695 -0.57826,2.92695 l 1.99988,0.0274 c 0,0 0.03583,-1.56882 0.816485,-3.10937 0.780656,-1.54055 2.117072,-2.99982 5.279266,-2.99982 h 10.57765 c 0.312044,0.17456 0.848688,0.44569 1.629357,0.70487 1.237866,0.41095 3.083428,0.80667 5.58002,0.80667 2.496593,0 4.344218,-0.39572 5.582089,-0.80667 0.780669,-0.25918 1.317313,-0.53031 1.629357,-0.70487 h 10.575581 c 3.162192,0 4.500674,1.45927 5.281332,2.99982 0.780651,1.54055 0.816489,3.10937 0.816489,3.10937 l 1.9978101,-0.0274 c 0,0 -0.012436,-1.78993 -0.8883171,-3.69177 15.5227465,-2.02981 27.513483,-15.31676 27.513565,-31.38412 -5.8e-5,-7.35709 -2.579058,-14.46812 -7.2538218,-20.13418 0.9523938,-3.05175 1.4536528,-6.22675 1.4536578,-9.42578 -8.5e-5,-17.47068 -14.1842355,-31.65483 -31.654914,-31.65491 -5.26407,3e-5 -10.435497,1.32624 -15.05903,3.82819 -3.598338,-2.78083 -8.013022,-4.31135 -12.573391,-4.31137 z m 0,1.99988 c 4.322622,2e-5 8.50955,1.50694 11.84062,4.26176 l 0.531752,0.43976 0.599963,-0.34106 c 4.468183,-2.54116 9.519838,-3.87725 14.660086,-3.87728 16.3898027,8e-5 29.6549552,13.26523 29.6550372,29.65503 -1.06e-5,3.16866 -0.5079365,6.31708 -1.5043018,9.32501 l -0.1772496,0.53537 0.366387,0.42892 c 4.5920502,5.37096 7.1152732,12.20424 7.1153282,19.27066 -8.2e-5,15.40283 -11.722994,28.04354 -26.731184,29.51189 -1.235382,-1.39206 -3.173199,-2.51819 -5.989818,-2.51819 h -9.841775 v -2.9993 c 11.387341,-1.67078 20.9331667,-8.88962 25.8196133,-18.84227 0.7891939,-0.2815 2.12334741,-0.78701 3.5672236,-1.55752 1.4115785,-0.75327 2.8707371,-1.66113 3.7098499,-2.9683 0.4706461,0.3278 0.9527407,0.64047 1.4479746,0.93328 0.4754668,0.28121 1.0888742,0.12363 1.369941,-0.35192 0.2808552,-0.47535 0.1233197,-1.08837 -0.3519143,-1.36942 -6.2313819,-3.68436 -10.4116636,-10.465 -10.4117694,-18.23661 6.35e-5,-2.91923 0.603922,-5.80699 1.77353641,-8.48166 l 0.83043976,-1.89962 -2.00349637,0.53278 c -1.7735338,0.4713 -3.6007543,0.70994 -5.4358434,0.71003 -9.2330111,-1.3e-4 -17.3929781,-5.97492 -20.1811971,-14.77687 l -0.589626,-1.86087 -1.16582,1.56528 c -3.995555,5.36451 -10.2888,8.52443 -16.977776,8.52455 -1.249349,-5e-5 -2.496034,-0.1108 -3.72587,-0.33073 l -0.724506,-0.12919 -0.338997,0.65267 c -2.930287,5.63757 -8.236045,9.65983 -14.455447,10.95902 l -0.852144,0.17777 0.05891,0.86868 c 0.03224,0.47596 0.04857,0.95277 0.04858,1.42988 2.7e-5,2.7786 -0.53695,5.42968 -1.508437,7.85896 -0.05438,-0.049 -0.109045,-0.098 -0.161745,-0.14883 0.03836,0.0914 0.0743,0.18418 0.109035,0.27802 -2.0691,5.0759 -6.048248,9.16608 -11.045836,11.37915 -0.505036,0.22359 -0.733165,0.81428 -0.509529,1.3193 0.223594,0.50503 0.814282,0.73316 1.319297,0.50953 0.39002,-0.17271 0.772504,-0.35916 1.150835,-0.55243 0.771988,1.54802 2.395024,2.57272 3.959449,3.40755 1.443877,0.77051 2.778028,1.27602 3.567224,1.55752 4.886153,9.95206 14.431095,17.17093 25.817544,18.84227 v 2.9993 h -9.841775 c -3.148827,0 -5.199695,1.40606 -6.397027,3.01945 l -0.361217,0.0475 c -0.798253,0.10471 -1.612643,0.15864 -2.440162,0.15865 -10.272834,0 -18.579227,-8.30639 -18.579227,-18.57923 1.09e-4,-2.77138 0.62021,-5.50763 1.814878,-8.00829 l 0.284218,-0.59532 -0.435115,-0.49557 c -4.751115,-5.41097 -7.370956,-12.36493 -7.371125,-19.56574 -1.67e-4,-12.68501 8.059777,-23.95818 20.062856,-28.06133 l 0.50953,-0.17415 0.134876,-0.5209 c 2.125634,-8.19928 9.514613,-13.91707 17.984949,-13.91698 z m 19.355408,19.65461 c 3.507439,8.70562 11.983114,14.50647 21.4849921,14.50661 1.3874194,-7e-5 2.7626363,-0.17041 4.1253304,-0.41754 -0.838835,2.42892 -1.2897882,4.97788 -1.2898438,7.55613 9.79e-5,7.14853 3.2429476,13.54987 8.3395423,17.80149 -0.4720617,0.75456 -1.7041548,1.71105 -3.04529332,2.42673 -1.48194711,0.79082 -3.03650908,1.36145 -3.66179098,1.57665 l -0.396875,0.13694 -0.1803506,0.37879 c -5.1982395,10.92341 -16.3137081,18.44177 -29.2736641,18.44177 h -5.753655 c -12.959964,0 -24.075427,-7.51836 -29.273664,-18.44177 l -0.18035,-0.37879 -0.396875,-0.13694 c -0.625282,-0.2152 -2.179847,-0.78583 -3.661794,-1.57665 -1.463678,-0.78108 -2.798818,-1.84919 -3.155878,-2.62826 3.555542,-2.22424 6.462146,-5.38769 8.377782,-9.14001 0.412237,0.57407 1.028327,1.02013 2.073775,1.19217 -0.481105,0.68937 -0.787548,1.20768 -0.787548,1.20768 0,0 3.195362,-1.57602 4.784204,-2.65255 0.505335,-0.3424 1.100166,-0.68011 1.793689,-0.9741 -0.265715,0.99943 -0.306276,2.0556 -0.10542,3.09076 0.724307,3.73261 4.362982,6.18889 8.095631,5.46479 3.104218,-0.60238 5.321993,-3.2207 5.565034,-6.23218 1.226849,0.97186 2.729031,1.67638 2.729031,1.67638 0,0 -0.305049,-2.09599 -1.881539,-3.58169 -0.351878,-0.33161 -0.760794,-0.66399 -1.223698,-0.98495 l -0.0036,-0.0124 -0.30644,-0.19896 c -0.03511,-0.0227 -0.07487,-0.0441 -0.110588,-0.0667 -0.118822,-0.0747 -0.24129,-0.14801 -0.366903,-0.22066 -0.07198,-0.0417 -0.142275,-0.0841 -0.216525,-0.12505 -0.167042,-0.0919 -0.340164,-0.18138 -0.518832,-0.26872 -0.794739,-0.389 -1.704316,-0.72821 -2.743501,-0.98185 -0.01892,-0.005 -0.03785,-0.009 -0.05684,-0.014 -0.406914,-0.0977 -0.832599,-0.18227 -1.278991,-0.25166 -0.0339,-0.005 -0.0687,-0.01 -0.102838,-0.015 -0.183335,-0.0274 -0.370102,-0.0523 -0.560171,-0.0744 -0.04904,-0.006 -0.09779,-0.0117 -0.147277,-0.0171 -0.226558,-0.0244 -0.456351,-0.0459 -0.692465,-0.0625 -0.238345,-0.0168 -0.471522,-0.0275 -0.702284,-0.0346 -0.0505,-0.002 -0.100248,-0.002 -0.150378,-0.003 -0.185558,-0.004 -0.368729,-0.005 -0.54932,-0.004 -0.04599,5.3e-4 -0.09232,8e-4 -0.137975,0.002 -0.938189,0.017 -1.809544,0.11053 -2.612245,0.26407 -5.29e-4,1.1e-4 -0.0016,-1.1e-4 -0.0021,0 l -0.896588,0.17208 0.0036,0.0372 c -0.09208,0.024 -0.186396,0.0463 -0.276471,0.0718 -1.233974,0.34947 -2.277194,0.83315 -3.140376,1.35392 -1.689719,-0.39752 -2.948244,-0.88735 -3.935677,-1.57768 0.639754,-2.12103 0.984975,-4.36919 0.984953,-6.69727 -2e-6,-0.2465 -0.01693,-0.49262 -0.02479,-0.73897 6.212856,-1.53843 11.505083,-5.56977 14.633731,-11.15797 1.119822,0.16532 2.248082,0.26867 3.380674,0.26871 6.717778,-1.1e-4 13.04976,-2.94101 17.429427,-7.95869 z m -14.120069,10.77454 c 0,0 3.347683,2.54932 4.367692,2.75074 1.007623,0.19897 2.001803,0.29848 2.977597,0.31729 v -2.00039 c -0.852874,-0.0184 -1.714953,-0.10616 -2.590541,-0.27906 -0.899049,-0.17754 -4.754748,-0.78858 -4.754748,-0.78858 z m 7.345289,4.59714 c -0.179377,0.0317 -0.427292,0.0729 -0.534334,0.094 -0.899052,0.17753 -1.784051,0.26656 -2.659269,0.28163 -0.875229,0.0151 -1.741294,-0.0443 -2.594674,-0.16278 -0.853403,-0.11847 -3.872116,-0.1297 -3.872116,-0.1297 0,0 2.650215,1.9801 3.59668,2.11149 0.94647,0.13139 1.915337,0.19735 2.902664,0.18035 0.987343,-0.017 1.993233,-0.11742 3.013252,-0.31884 0.04339,-0.009 0.09641,-0.0267 0.147797,-0.0434 z m -18.271236,3.48454 c -0.425402,0.002 -0.843703,0.0399 -1.24437,0.12454 -3.205334,0.67685 -7.61452,4.52685 -7.61452,4.52685 0,0 4.977407,-1.9256 8.02845,-2.56986 3.051038,-0.64427 7.130312,-0.33642 7.130312,-0.33642 0,0 -3.322055,-1.75882 -6.299872,-1.74511 z m 36.542471,0 c -2.977813,-0.0137 -6.299874,1.74511 -6.299874,1.74511 0,0 4.079274,-0.30785 7.130314,0.33642 3.05104,0.64426 8.0284506,2.56986 8.0284506,2.56986 0,0 -4.4091836,-3.85 -7.6145226,-4.52685 -0.400667,-0.0846 -0.818965,-0.12258 -1.244368,-0.12454 z m 11.7553558,8.17107 c -1.1144356,1.03951 -2.586347,1.68375 -4.7816218,2.16215 -0.854395,-0.53481 -1.889823,-1.0354 -3.117638,-1.40508 -1.488101,-0.44805 -3.254544,-0.70391 -5.314405,-0.59325 -4.108698,0.22079 -6.781167,1.69688 -8.381918,3.1564 -1.60075,1.45953 -1.940448,3.55017 -1.940448,3.55017 0,0 1.997646,-0.8965 3.287138,-2.07223 1.2895,-1.17573 3.456376,-2.43948 7.142715,-2.63756 3.675301,-0.19749 6.124766,0.87973 7.695655,1.98231 1.5708895,1.10257 4.7397617,2.73109 4.7397617,2.73109 0,0 -0.2976827,-0.52335 -0.7673948,-1.22059 2.5315201,-0.3738 2.5961948,-2.3773 3.2855878,-3.94653 -1.0787327,1.0062 -2.4919648,1.64194 -4.5718147,2.11563 1.9796945,-0.57315 2.0906158,-2.37991 2.7243828,-3.82251 z m -59.9343258,0.12093 c 0.34825,1.00589 0.822907,1.93667 2.128036,2.33887 -1.049648,-0.25742 -1.927098,-0.55547 -2.673739,-0.9188 0.196283,-0.46615 0.379632,-0.93903 0.545703,-1.42007 z m 11.596708,0.81494 c 0.146365,5.2e-4 0.29531,0.004 0.446485,0.009 0.0534,0.002 0.107815,0.006 0.161745,0.008 0.110167,0.005 0.219985,0.01 0.332798,0.0176 0.117819,0.008 0.22557,0.0231 0.340029,0.0336 -0.03508,0.005 -0.07006,0.011 -0.104902,0.0176 -1.438124,0.27914 -2.377681,1.67124 -2.09858,3.10937 0.279144,1.43812 1.671241,2.37768 3.109371,2.09858 1.43788,-0.27915 2.377357,-1.6709 2.098579,-3.10885 -0.163205,-0.84099 -0.722513,-1.55138 -1.501717,-1.90738 1.55388,0.30472 2.744981,0.8197 3.692282,1.3901 0.0063,0.0296 0.01593,0.0582 0.0217,0.0878 0.518271,2.67159 -1.209342,5.23162 -3.880901,5.75003 -2.671585,0.51827 -5.233691,-1.20934 -5.752102,-3.8809 -0.229373,-1.18213 0.04025,-2.37904 0.648539,-3.40806 0.757838,-0.13326 1.576953,-0.22042 2.48667,-0.21704 z m -14.07356,8.36383 c 0,0 0.333298,3.60348 1.497584,4.96869 1.164283,1.36521 2.836637,3.0332 4.937683,4.24625 2.203802,1.27236 4.423569,1.26505 6.036839,0.93948 1.613268,-0.32557 3.378605,-3.01636 3.378605,-3.01636 0,0 -2.491687,0.79626 -3.774961,1.05524 -1.283272,0.25896 -2.936944,0.27251 -4.640546,-0.71107 -1.806363,-1.04291 -3.346294,-2.55814 -4.41575,-3.81217 -1.069456,-1.25402 -3.019454,-3.67006 -3.019454,-3.67006 z m 19.160072,4.5191 c 0,0 -1.956975,4.07387 -2.081528,5.7428 -0.12455,1.66894 3.095419,4.62349 3.095419,4.62349 0,0 -1.201396,-3.12653 -1.100709,-4.47569 0.100687,-1.34917 0.08682,-5.8906 0.08682,-5.8906 z m 24.270869,5.86889 c 0,0 -1.614803,1.31212 -2.638084,2.23449 -1.023289,0.92237 -2.388746,1.7601 -3.743957,1.7601 -1.532459,0 -2.473071,-0.46243 -3.060793,-0.89659 -0.587724,-0.43414 -0.761711,-0.77359 -0.761711,-0.77359 l -0.791168,-1.42007 -0.912088,1.34617 c 0,0 -1.100214,1.74408 -3.866948,1.74408 -1.19157,0 -2.592917,-0.83721 -3.658175,-1.76992 -1.065254,-0.9327 -2.659784,-2.15852 -2.659784,-2.15852 0,0 0.104695,2.57809 1.343586,3.66282 1.238892,1.08474 2.947117,2.2655 4.974373,2.2655 2.524413,0 3.86434,-1.02994 4.658113,-1.80454 0.204534,0.22495 0.157705,0.27609 0.484209,0.51728 0.889765,0.65726 2.300097,1.28726 4.250386,1.28726 2.127562,0 3.869039,-1.18024 5.083929,-2.27531 1.214879,-1.09508 1.298112,-3.71916 1.298112,-3.71916 z m -16.992761,17.55294 c 1.011523,0.0889 2.03436,0.13952 3.069579,0.13952 h 5.753655 c 1.034519,0 2.056654,-0.0508 3.067511,-0.13952 v 3.13882 c -0.17825,0.10466 -0.267915,0.19605 -0.994254,0.43718 -1.03918,0.34501 -2.665286,0.70539 -4.951119,0.70539 -2.285833,0 -3.909869,-0.36038 -4.949052,-0.70539 -0.728062,-0.24171 -0.818722,-0.33484 -0.99632,-0.43924 z"
           style="color:#000000;font-style:normal;font-variant:normal;font-weight:normal;font-stretch:normal;font-size:medium;line-height:normal;font-family:sans-serif;font-variant-ligatures:normal;font-variant-position:normal;font-variant-caps:normal;font-variant-numeric:normal;font-variant-alternates:normal;font-variant-east-asian:normal;font-feature-settings:normal;font-variation-settings:normal;text-indent:0;text-align:start;text-decoration:none;text-decoration-line:none;text-decoration-style:solid;text-decoration-color:#000000;letter-spacing:normal;word-spacing:normal;text-transform:none;writing-mode:lr-tb;direction:ltr;text-orientation:mixed;dominant-baseline:auto;baseline-shift:baseline;text-anchor:start;white-space:normal;shape-padding:0;shape-margin:0;inline-size:0;clip-rule:nonzero;display:inline;overflow:visible;visibility:visible;isolation:auto;mix-blend-mode:normal;color-interpolation:sRGB;color-interpolation-filters:linearRGB;solid-color:#000000;solid-opacity:1;vector-effect:none;fill:#30414d;fill-opacity:1;fill-rule:nonzero;stroke:none;stroke-width:2;stroke-linecap:round;stroke-linejoin:miter;stroke-miterlimit:4;stroke-dasharray:none;stroke-dashoffset:0;stroke-opacity:1;color-rendering:auto;image-rendering:auto;shape-rendering:auto;text-rendering:auto;enable-background:accumulate;stop-color:#000000"
           id="path1156" />
        <path
           d="m -48.154171,231.30422 c -9.194178,-10e-5 -17.243914,6.11186 -19.766751,14.90917 -12.52965,4.51658 -20.925509,16.40769 -20.92534,29.76407 1.78e-4,7.47392 2.6635,14.68741 7.472413,20.39101 -1.14699,2.60837 -1.765155,5.41981 -1.765266,8.27391 0,11.35372 9.225389,20.57911 20.579104,20.57911 0.565938,-1e-5 1.12622,-0.0254 1.681035,-0.0703 -0.567716,1.59015 -0.57826,2.92695 -0.57826,2.92695 l 1.99988,0.0274 c 0,0 0.03583,-1.56882 0.816485,-3.10937 0.780656,-1.54055 2.117072,-2.99982 5.279266,-2.99982 h 10.57765 c 0.312042,0.17456 0.848688,0.44569 1.629357,0.70487 1.237866,0.41095 3.083428,0.80667 5.58002,0.80667 h 0.0011 v -1.99988 h -0.0011 c -2.285833,0 -3.909869,-0.36038 -4.949052,-0.70539 -0.728062,-0.24171 -0.818722,-0.33484 -0.99632,-0.43924 v -3.13676 c 1.011523,0.0889 2.03436,0.13952 3.069579,0.13952 h 2.876828 v -1.99987 h -2.876828 c -12.959964,0 -24.075427,-7.51836 -29.273664,-18.44177 l -0.18035,-0.37879 -0.396875,-0.13694 c -0.625282,-0.2152 -2.179847,-0.78583 -3.661794,-1.57665 -1.463678,-0.78108 -2.798818,-1.84919 -3.155878,-2.62826 3.555542,-2.22424 6.462146,-5.38769 8.377782,-9.14001 0.412237,0.57407 1.028327,1.02013 2.073775,1.19217 -0.481105,0.68937 -0.787548,1.20768 -0.787548,1.20768 0,0 3.195362,-1.57602 4.784204,-2.65255 0.505335,-0.3424 1.100166,-0.68011 1.793689,-0.9741 -0.265715,0.99943 -0.306276,2.0556 -0.10542,3.09076 0.724307,3.73261 4.362982,6.18888 8.095631,5.46479 3.104216,-0.60238 5.321993,-3.2207 5.565034,-6.23218 1.226849,0.97186 2.729031,1.67638 2.729031,1.67638 0,0 -0.305049,-2.09599 -1.881539,-3.58169 -0.351878,-0.33161 -0.760794,-0.66399 -1.223698,-0.98495 l -0.0036,-0.0124 -0.30644,-0.19896 c -0.03511,-0.0227 -0.07487,-0.0441 -0.110588,-0.0667 -0.118822,-0.0747 -0.24129,-0.14801 -0.366903,-0.22066 -0.07198,-0.0417 -0.142275,-0.0841 -0.216525,-0.12505 -0.167042,-0.0919 -0.340164,-0.18138 -0.518832,-0.26872 -0.794739,-0.389 -1.704316,-0.72821 -2.743501,-0.98185 -0.01892,-0.005 -0.03785,-0.009 -0.05684,-0.014 -0.406914,-0.0977 -0.832602,-0.18227 -1.278991,-0.25166 -0.0339,-0.005 -0.0687,-0.01 -0.102838,-0.015 -0.183335,-0.0274 -0.370102,-0.0523 -0.560171,-0.0744 -0.04904,-0.006 -0.09779,-0.0117 -0.147277,-0.0171 -0.226558,-0.0244 -0.456351,-0.0459 -0.692465,-0.0625 -0.238345,-0.0168 -0.471522,-0.0275 -0.702284,-0.0346 -0.0505,-0.002 -0.100248,-0.002 -0.150378,-0.003 -0.185558,-0.004 -0.368729,-0.005 -0.54932,-0.004 -0.04599,5.3e-4 -0.09232,8e-4 -0.137975,0.002 -0.938189,0.017 -1.809544,0.11053 -2.612245,0.26407 -5.29e-4,1.1e-4 -0.0016,-1.1e-4 -0.0021,0 l -0.896588,0.17208 0.0036,0.0372 c -0.09208,0.024 -0.186396,0.0463 -0.276471,0.0718 -1.233974,0.34947 -2.277194,0.83315 -3.140376,1.35392 -1.689719,-0.39752 -2.948244,-0.88735 -3.935677,-1.57768 0.639754,-2.12103 0.984975,-4.36919 0.984953,-6.69727 -2e-6,-0.2465 -0.01693,-0.49262 -0.02479,-0.73897 6.212856,-1.53843 11.505083,-5.56977 14.633731,-11.15797 1.119822,0.16532 2.248082,0.26867 3.380674,0.26871 3.764653,-6e-5 7.408007,-0.92436 10.654646,-2.61948 v -2.25826 c -3.192849,1.85975 -6.859728,2.8778 -10.654646,2.87786 -1.24935,-4e-5 -2.496034,-0.11079 -3.725871,-0.33072 l -0.724506,-0.12919 -0.338997,0.65267 c -2.930287,5.63757 -8.236045,9.65983 -14.455447,10.95902 l -0.852143,0.17777 0.05891,0.86868 c 0.03224,0.47596 0.04857,0.95277 0.04858,1.42988 2.6e-5,2.7786 -0.536951,5.42968 -1.508437,7.85896 -0.05438,-0.0491 -0.109046,-0.098 -0.161746,-0.14883 0.03836,0.0914 0.0743,0.18418 0.109035,0.27802 -2.069097,5.0759 -6.048248,9.16608 -11.045835,11.37915 -0.505037,0.22359 -0.733166,0.81428 -0.509529,1.3193 0.223594,0.50503 0.814281,0.73316 1.319297,0.50953 0.390019,-0.17271 0.772504,-0.35916 1.150834,-0.55243 0.771988,1.54802 2.395024,2.57271 3.95945,3.40755 1.443876,0.77051 2.778027,1.27602 3.567223,1.55752 4.886153,9.95206 14.431098,17.17093 25.817544,18.84227 v 2.99929 h -9.841775 c -3.148827,0 -5.199694,1.40607 -6.397027,3.01946 l -0.361217,0.0475 c -0.798253,0.10471 -1.612643,0.15864 -2.440162,0.15865 -10.272834,0 -18.579226,-8.30639 -18.579226,-18.57923 1.08e-4,-2.77138 0.620209,-5.50763 1.814877,-8.00829 l 0.284218,-0.59532 -0.435115,-0.49558 c -4.751115,-5.41096 -7.370956,-12.36492 -7.371125,-19.56573 -1.67e-4,-12.68502 8.059777,-23.95818 20.062857,-28.06133 l 0.509529,-0.17415 0.134877,-0.5209 c 2.125673,-8.19932 9.514652,-13.91711 17.984988,-13.91702 4.322622,2e-5 8.50955,1.50694 11.84062,4.26176 l 0.531752,0.43976 0.208256,-0.11834 v -2.27531 c -0.0024,0.001 -0.0049,0.002 -0.0072,0.004 -3.598325,-2.78083 -8.013009,-4.31135 -12.573378,-4.31137 z m 5.235339,32.42903 c 0,0 3.347683,2.54932 4.367692,2.75074 1.007623,0.19897 2.001803,0.29848 2.977597,0.31729 v -2.00039 c -0.852874,-0.0184 -1.714953,-0.10616 -2.590541,-0.27906 -0.899049,-0.17754 -4.754748,-0.78858 -4.754748,-0.78858 z m 7.345289,4.59714 c -0.179377,0.0317 -0.427292,0.0729 -0.534334,0.094 -0.899052,0.17753 -1.784051,0.26656 -2.659269,0.28163 -0.875229,0.0151 -1.741297,-0.0443 -2.594674,-0.16278 -0.853403,-0.11847 -3.872116,-0.1297 -3.872116,-0.1297 0,0 2.650215,1.9801 3.59668,2.11149 0.94647,0.13139 1.915337,0.19735 2.902664,0.18035 0.987343,-0.017 1.993233,-0.11742 3.013252,-0.31884 0.04339,-0.009 0.09641,-0.0267 0.147797,-0.0434 z m -18.271236,3.48454 c -0.425402,0.002 -0.843703,0.0399 -1.24437,0.12454 -3.205334,0.67685 -7.61452,4.52685 -7.61452,4.52685 0,0 4.977407,-1.9256 8.02845,-2.56986 3.051038,-0.64427 7.130312,-0.33642 7.130312,-0.33642 0,0 -3.322055,-1.75882 -6.299872,-1.74511 z m -11.636499,8.292 c 0.34825,1.00589 0.822907,1.93667 2.128036,2.33887 -1.049648,-0.25742 -1.927098,-0.55547 -2.673739,-0.9188 0.196283,-0.46615 0.379632,-0.93904 0.545703,-1.42007 z m 11.596708,0.81494 c 0.146365,5.2e-4 0.29531,0.004 0.446485,0.009 0.0534,0.002 0.107817,0.006 0.161745,0.008 0.110167,0.005 0.219985,0.01 0.332798,0.0176 0.117819,0.008 0.22557,0.0231 0.340029,0.0336 -0.03508,0.005 -0.07006,0.011 -0.104902,0.0176 -1.438124,0.27914 -2.377681,1.67124 -2.09858,3.10937 0.279144,1.43812 1.671241,2.37768 3.109371,2.09858 1.43788,-0.27915 2.377357,-1.6709 2.098579,-3.10885 -0.163205,-0.84099 -0.722513,-1.55138 -1.501717,-1.90738 1.55388,0.30472 2.744981,0.8197 3.692282,1.3901 0.0063,0.0296 0.01593,0.0582 0.0217,0.0878 0.518271,2.67159 -1.209342,5.23162 -3.880901,5.75003 -2.671585,0.51827 -5.233691,-1.20934 -5.752102,-3.8809 -0.229373,-1.18213 0.04025,-2.37904 0.648539,-3.40806 0.757838,-0.13326 1.576953,-0.22042 2.48667,-0.21704 z m 16.23735,2.32182 c 0,0 -0.940472,3.21434 -1.838648,4.2261 -0.898176,1.01177 -3.641122,4.63176 -3.641122,4.63176 0,0 4.026614,-2.05315 5.137671,-3.30471 1.111049,-1.25157 0.342099,-5.55315 0.342099,-5.55315 z m -30.31091,6.04201 c 0,0 0.333298,3.60348 1.497584,4.96869 1.164283,1.36521 2.836637,3.0332 4.937683,4.24625 2.203802,1.27236 4.423569,1.26505 6.036839,0.93948 1.613268,-0.32557 3.378605,-3.01636 3.378605,-3.01636 0,0 -2.491687,0.79626 -3.774961,1.05524 -1.283272,0.25896 -2.936944,0.27251 -4.640546,-0.71107 -1.806363,-1.04291 -3.346294,-2.55815 -4.41575,-3.81217 -1.069456,-1.25402 -3.019454,-3.67006 -3.019454,-3.67006 z m 19.160072,4.5191 c 0,0 -1.956975,4.07387 -2.081528,5.7428 -0.12455,1.66894 3.095419,4.62349 3.095419,4.62349 0,0 -1.201396,-3.12653 -1.100709,-4.47569 0.100687,-1.34917 0.08682,-5.8906 0.08682,-5.8906 z m 2.178161,5.93504 c 0,0 0.104695,2.57809 1.343586,3.66282 1.238892,1.08474 2.947117,2.2655 4.974373,2.2655 2.524413,0 3.86434,-1.02994 4.658113,-1.80454 0.03095,0.034 0.04868,0.0584 0.07028,0.0858 v -3.29644 l -0.861447,1.27124 c 0,0 -1.100214,1.74408 -3.866948,1.74408 -1.19157,0 -2.592917,-0.83721 -3.658175,-1.76992 -1.065254,-0.9327 -2.659784,-2.15852 -2.659784,-2.15852 z"
           style="color:#000000;font-style:normal;font-variant:normal;font-weight:normal;font-stretch:normal;font-size:medium;line-height:normal;font-family:sans-serif;font-variant-ligatures:normal;font-variant-position:normal;font-variant-caps:normal;font-variant-numeric:normal;font-variant-alternates:normal;font-variant-east-asian:normal;font-feature-settings:normal;font-variation-settings:normal;text-indent:0;text-align:start;text-decoration:none;text-decoration-line:none;text-decoration-style:solid;text-decoration-color:#000000;letter-spacing:normal;word-spacing:normal;text-transform:none;writing-mode:lr-tb;direction:ltr;text-orientation:mixed;dominant-baseline:auto;baseline-shift:baseline;text-anchor:start;white-space:normal;shape-padding:0;shape-margin:0;inline-size:0;clip-rule:nonzero;display:inline;overflow:visible;visibility:visible;isolation:auto;mix-blend-mode:normal;color-interpolation:sRGB;color-interpolation-filters:linearRGB;solid-color:#000000;solid-opacity:1;vector-effect:none;fill:#608199;fill-opacity:1;fill-rule:nonzero;stroke:none;stroke-width:2;stroke-linecap:round;stroke-linejoin:miter;stroke-miterlimit:4;stroke-dasharray:none;stroke-dashoffset:0;stroke-opacity:1;color-rendering:auto;image-rendering:auto;shape-rendering:auto;text-rendering:auto;enable-background:accumulate;stop-color:#000000"
           id="path1183" />
        <path
           id="path1874"
           d="M -35.957031 220.36133 A 2 2 0 0 0 -37.957031 222.36133 L -37.957031 337.04688 A 2 2 0 0 0 -35.957031 339.04688 A 2 2 0 0 0 -33.957031 337.04688 L -33.957031 222.36133 A 2 2 0 0 0 -35.957031 220.36133 z "
           style="color:#000000;font-style:normal;font-variant:normal;font-weight:normal;font-stretch:normal;font-size:medium;line-height:normal;font-family:sans-serif;font-variant-ligatures:normal;font-variant-position:normal;font-variant-caps:normal;font-variant-numeric:normal;font-variant-alternates:normal;font-variant-east-asian:normal;font-feature-settings:normal;font-variation-settings:normal;text-indent:0;text-align:start;text-decoration:none;text-decoration-line:none;text-decoration-style:solid;text-decoration-color:#000000;letter-spacing:normal;word-spacing:normal;text-transform:none;writing-mode:lr-tb;direction:ltr;text-orientation:mixed;dominant-baseline:auto;baseline-shift:baseline;text-anchor:start;white-space:normal;shape-padding:0;shape-margin:0;inline-size:0;clip-rule:nonzero;display:inline;overflow:visible;visibility:visible;isolation:auto;mix-blend-mode:normal;color-interpolation:sRGB;color-interpolation-filters:linearRGB;solid-color:#000000;solid-opacity:1;vector-effect:none;fill:#15e7be;fill-opacity:1;fill-rule:nonzero;stroke:none;stroke-width:4;stroke-linecap:round;stroke-linejoin:miter;stroke-miterlimit:4;stroke-dasharray:none;stroke-dashoffset:0;stroke-opacity:1;color-rendering:auto;image-rendering:auto;shape-rendering:auto;text-rendering:auto;enable-background:accumulate;stop-color:#000000;stop-opacity:1;opacity:1" />
      </g>
      <path
         id="path1870"
         d="M -45.263672 328.94141 A 1 1 0 0 0 -46.263672 329.94141 A 1 1 0 0 0 -45.263672 330.94141 L -23.554688 330.94141 A 1 1 0 0 0 -22.554688 329.94141 A 1 1 0 0 0 -23.554688 328.94141 L -45.263672 328.94141 z "
         style="color:#000000;font-style:normal;font-variant:normal;font-weight:normal;font-stretch:normal;font-size:medium;line-height:normal;font-family:sans-serif;font-variant-ligatures:normal;font-variant-position:normal;font-variant-caps:normal;font-variant-numeric:normal;font-variant-alternates:normal;font-variant-east-asian:normal;font-feature-settings:normal;font-variation-settings:normal;text-indent:0;text-align:start;text-decoration:none;text-decoration-line:none;text-decoration-style:solid;text-decoration-color:#000000;letter-spacing:normal;word-spacing:normal;text-transform:none;writing-mode:lr-tb;direction:ltr;text-orientation:mixed;dominant-baseline:auto;baseline-shift:baseline;text-anchor:start;white-space:normal;shape-padding:0;shape-margin:0;inline-size:0;clip-rule:nonzero;display:inline;overflow:visible;visibility:visible;isolation:auto;mix-blend-mode:normal;color-interpolation:sRGB;color-interpolation-filters:linearRGB;solid-color:#000000;solid-opacity:1;vector-effect:none;fill:#15e7be;fill-opacity:1;fill-rule:nonzero;stroke:none;stroke-width:2;stroke-linecap:round;stroke-linejoin:miter;stroke-miterlimit:4;stroke-dasharray:none;stroke-dashoffset:0;stroke-opacity:1;color-rendering:auto;image-rendering:auto;shape-rendering:auto;text-rendering:auto;enable-background:accumulate;stop-color:#000000;stop-opacity:1;opacity:1" />
      <path
         id="path1866"
         d="M -57.369141 339.39258 A 1 1 0 0 0 -58.369141 340.39258 A 1 1 0 0 0 -57.369141 341.39258 L -48.269531 341.39258 A 1 1 0 0 0 -47.269531 340.39258 A 1 1 0 0 0 -48.269531 339.39258 L -57.369141 339.39258 z M -38.820312 339.39258 A 1 1 0 0 0 -39.820312 340.39258 A 1 1 0 0 0 -38.820312 341.39258 L -24.84375 341.39258 A 1 1 0 0 0 -23.84375 340.39258 A 1 1 0 0 0 -24.84375 339.39258 L -38.820312 339.39258 z "
         style="color:#000000;font-style:normal;font-variant:normal;font-weight:normal;font-stretch:normal;font-size:medium;line-height:normal;font-family:sans-serif;font-variant-ligatures:normal;font-variant-position:normal;font-variant-caps:normal;font-variant-numeric:normal;font-variant-alternates:normal;font-variant-east-asian:normal;font-feature-settings:normal;font-variation-settings:normal;text-indent:0;text-align:start;text-decoration:none;text-decoration-line:none;text-decoration-style:solid;text-decoration-color:#000000;letter-spacing:normal;word-spacing:normal;text-transform:none;writing-mode:lr-tb;direction:ltr;text-orientation:mixed;dominant-baseline:auto;baseline-shift:baseline;text-anchor:start;white-space:normal;shape-padding:0;shape-margin:0;inline-size:0;clip-rule:nonzero;display:inline;overflow:visible;visibility:visible;isolation:auto;mix-blend-mode:normal;color-interpolation:sRGB;color-interpolation-filters:linearRGB;solid-color:#000000;solid-opacity:1;vector-effect:none;fill:#15e7be;fill-opacity:1;fill-rule:nonzero;stroke:none;stroke-width:2;stroke-linecap:round;stroke-linejoin:miter;stroke-miterlimit:4;stroke-dasharray:none;stroke-dashoffset:0;stroke-opacity:1;color-rendering:auto;image-rendering:auto;shape-rendering:auto;text-rendering:auto;enable-background:accumulate;stop-color:#000000;stop-opacity:1;opacity:1" />
      <path
         id="path1862"
         d="M -72.318359 343.89062 A 1 1 0 0 0 -73.318359 344.89062 A 1 1 0 0 0 -72.318359 345.89062 L -46.339844 345.89062 A 1 1 0 0 0 -45.339844 344.89062 A 1 1 0 0 0 -46.339844 343.89062 L -72.318359 343.89062 z "
         style="color:#000000;font-style:normal;font-variant:normal;font-weight:normal;font-stretch:normal;font-size:medium;line-height:normal;font-family:sans-serif;font-variant-ligatures:normal;font-variant-position:normal;font-variant-caps:normal;font-variant-numeric:normal;font-variant-alternates:normal;font-variant-east-asian:normal;font-feature-settings:normal;font-variation-settings:normal;text-indent:0;text-align:start;text-decoration:none;text-decoration-line:none;text-decoration-style:solid;text-decoration-color:#000000;letter-spacing:normal;word-spacing:normal;text-transform:none;writing-mode:lr-tb;direction:ltr;text-orientation:mixed;dominant-baseline:auto;baseline-shift:baseline;text-anchor:start;white-space:normal;shape-padding:0;shape-margin:0;inline-size:0;clip-rule:nonzero;display:inline;overflow:visible;visibility:visible;isolation:auto;mix-blend-mode:normal;color-interpolation:sRGB;color-interpolation-filters:linearRGB;solid-color:#000000;solid-opacity:1;vector-effect:none;fill:#15e7be;fill-opacity:1;fill-rule:nonzero;stroke:none;stroke-width:2;stroke-linecap:round;stroke-linejoin:miter;stroke-miterlimit:4;stroke-dasharray:none;stroke-dashoffset:0;stroke-opacity:1;color-rendering:auto;image-rendering:auto;shape-rendering:auto;text-rendering:auto;enable-background:accumulate;stop-color:#000000;stop-opacity:1;opacity:1" />
      <path
         id="path1854"
         d="M -69.935547 366.37891 A 1 1 0 0 0 -70.935547 367.37891 A 1 1 0 0 0 -69.935547 368.37891 L -58.371094 368.37891 A 1 1 0 0 0 -57.371094 367.37891 A 1 1 0 0 0 -58.371094 366.37891 L -69.935547 366.37891 z M -49.765625 366.37891 A 1 1 0 0 0 -50.765625 367.37891 A 1 1 0 0 0 -49.765625 368.37891 L -42.650391 368.37891 A 1 1 0 0 0 -41.650391 367.37891 A 1 1 0 0 0 -42.650391 366.37891 L -49.765625 366.37891 z "
         style="color:#000000;font-style:normal;font-variant:normal;font-weight:normal;font-stretch:normal;font-size:medium;line-height:normal;font-family:sans-serif;font-variant-ligatures:normal;font-variant-position:normal;font-variant-caps:normal;font-variant-numeric:normal;font-variant-alternates:normal;font-variant-east-asian:normal;font-feature-settings:normal;font-variation-settings:normal;text-indent:0;text-align:start;text-decoration:none;text-decoration-line:none;text-decoration-style:solid;text-decoration-color:#000000;letter-spacing:normal;word-spacing:normal;text-transform:none;writing-mode:lr-tb;direction:ltr;text-orientation:mixed;dominant-baseline:auto;baseline-shift:baseline;text-anchor:start;white-space:normal;shape-padding:0;shape-margin:0;inline-size:0;clip-rule:nonzero;display:inline;overflow:visible;visibility:visible;isolation:auto;mix-blend-mode:normal;color-interpolation:sRGB;color-interpolation-filters:linearRGB;solid-color:#000000;solid-opacity:1;vector-effect:none;fill:#15e7be;fill-opacity:1;fill-rule:nonzero;stroke:none;stroke-width:2;stroke-linecap:round;stroke-linejoin:miter;stroke-miterlimit:4;stroke-dasharray:none;stroke-dashoffset:0;stroke-opacity:1;color-rendering:auto;image-rendering:auto;shape-rendering:auto;text-rendering:auto;enable-background:accumulate;stop-color:#000000;stop-opacity:1;opacity:1" />
      <path
         id="path1858"
         d="M -75.492188 371.93555 A 1 1 0 0 0 -76.492188 372.93555 A 1 1 0 0 0 -75.492188 373.93555 L -51.759766 373.93555 A 1 1 0 0 0 -50.759766 372.93555 A 1 1 0 0 0 -51.759766 371.93555 L -75.492188 371.93555 z "
         style="color:#000000;font-style:normal;font-variant:normal;font-weight:normal;font-stretch:normal;font-size:medium;line-height:normal;font-family:sans-serif;font-variant-ligatures:normal;font-variant-position:normal;font-variant-caps:normal;font-variant-numeric:normal;font-variant-alternates:normal;font-variant-east-asian:normal;font-feature-settings:normal;font-variation-settings:normal;text-indent:0;text-align:start;text-decoration:none;text-decoration-line:none;text-decoration-style:solid;text-decoration-color:#000000;letter-spacing:normal;word-spacing:normal;text-transform:none;writing-mode:lr-tb;direction:ltr;text-orientation:mixed;dominant-baseline:auto;baseline-shift:baseline;text-anchor:start;white-space:normal;shape-padding:0;shape-margin:0;inline-size:0;clip-rule:nonzero;display:inline;overflow:visible;visibility:visible;isolation:auto;mix-blend-mode:normal;color-interpolation:sRGB;color-interpolation-filters:linearRGB;solid-color:#000000;solid-opacity:1;vector-effect:none;fill:#15e7be;fill-opacity:1;fill-rule:nonzero;stroke:none;stroke-width:2;stroke-linecap:round;stroke-linejoin:miter;stroke-miterlimit:4;stroke-dasharray:none;stroke-dashoffset:0;stroke-opacity:1;color-rendering:auto;image-rendering:auto;shape-rendering:auto;text-rendering:auto;enable-background:accumulate;stop-color:#000000;stop-opacity:1;opacity:1" />
      <path
         id="path1878"
         d="M -75.470703 407.91992 A 1 1 0 0 0 -76.470703 408.91992 A 1 1 0 0 0 -75.470703 409.91992 L -66.884766 409.91992 A 1 1 0 0 0 -65.884766 408.91992 A 1 1 0 0 0 -66.884766 407.91992 L -75.470703 407.91992 z M -56.59375 407.91992 A 1 1 0 0 0 -57.59375 408.91992 A 1 1 0 0 0 -56.59375 409.91992 L -49.681641 409.91992 A 1 1 0 0 0 -48.681641 408.91992 A 1 1 0 0 0 -49.681641 407.91992 L -56.59375 407.91992 z "
         style="color:#000000;font-style:normal;font-variant:normal;font-weight:normal;font-stretch:normal;font-size:medium;line-height:normal;font-family:sans-serif;font-variant-ligatures:normal;font-variant-position:normal;font-variant-caps:normal;font-variant-numeric:normal;font-variant-alternates:normal;font-variant-east-asian:normal;font-feature-settings:normal;font-variation-settings:normal;text-indent:0;text-align:start;text-decoration:none;text-decoration-line:none;text-decoration-style:solid;text-decoration-color:#000000;letter-spacing:normal;word-spacing:normal;text-transform:none;writing-mode:lr-tb;direction:ltr;text-orientation:mixed;dominant-baseline:auto;baseline-shift:baseline;text-anchor:start;white-space:normal;shape-padding:0;shape-margin:0;inline-size:0;clip-rule:nonzero;display:inline;overflow:visible;visibility:visible;isolation:auto;mix-blend-mode:normal;color-interpolation:sRGB;color-interpolation-filters:linearRGB;solid-color:#000000;solid-opacity:1;vector-effect:none;fill:#15e7be;fill-opacity:1;fill-rule:nonzero;stroke:none;stroke-width:2;stroke-linecap:round;stroke-linejoin:miter;stroke-miterlimit:4;stroke-dasharray:none;stroke-dashoffset:0;stroke-opacity:1;color-rendering:auto;image-rendering:auto;shape-rendering:auto;text-rendering:auto;enable-background:accumulate;stop-color:#000000;stop-opacity:1;opacity:1" />
      <path
         id="path1882"
         d="M -68.076172 417.44336 A 1 1 0 0 0 -69.076172 418.44336 A 1 1 0 0 0 -68.076172 419.44336 L -40.416016 419.44336 A 1 1 0 0 0 -39.416016 418.44336 A 1 1 0 0 0 -40.416016 417.44336 L -68.076172 417.44336 z "
         style="color:#000000;font-style:normal;font-variant:normal;font-weight:normal;font-stretch:normal;font-size:medium;line-height:normal;font-family:sans-serif;font-variant-ligatures:normal;font-variant-position:normal;font-variant-caps:normal;font-variant-numeric:normal;font-variant-alternates:normal;font-variant-east-asian:normal;font-feature-settings:normal;font-variation-settings:normal;text-indent:0;text-align:start;text-decoration:none;text-decoration-line:none;text-decoration-style:solid;text-decoration-color:#000000;letter-spacing:normal;word-spacing:normal;text-transform:none;writing-mode:lr-tb;direction:ltr;text-orientation:mixed;dominant-baseline:auto;baseline-shift:baseline;text-anchor:start;white-space:normal;shape-padding:0;shape-margin:0;inline-size:0;clip-rule:nonzero;display:inline;overflow:visible;visibility:visible;isolation:auto;mix-blend-mode:normal;color-interpolation:sRGB;color-interpolation-filters:linearRGB;solid-color:#000000;solid-opacity:1;vector-effect:none;fill:#15e7be;fill-opacity:1;fill-rule:nonzero;stroke:none;stroke-width:2;stroke-linecap:round;stroke-linejoin:miter;stroke-miterlimit:4;stroke-dasharray:none;stroke-dashoffset:0;stroke-opacity:1;color-rendering:auto;image-rendering:auto;shape-rendering:auto;text-rendering:auto;enable-background:accumulate;stop-color:#000000;stop-opacity:1;opacity:1" />
      <path
         id="path1846"
         d="M 3.4375 341.55078 A 1.0001 1.0001 0 0 0 2.4804688 342.57422 L 2.5722656 346.60547 L 0.4765625 350.05078 A 1.0001 1.0001 0 0 0 1.3535156 351.57031 L 5.3867188 351.47656 L 8.8320312 353.57422 A 1.0001 1.0001 0 0 0 10.351562 352.69727 L 10.257812 348.66406 L 12.355469 345.21875 A 1.0001 1.0001 0 0 0 11.476562 343.69922 L 7.4453125 343.79297 L 4 341.69531 A 1.0001 1.0001 0 0 0 3.4375 341.55078 z M 4.5214844 344.35547 L 6.65625 345.6543 A 1.0001 1.0001 0 0 0 7.1992188 345.79883 L 9.6953125 345.74219 L 8.3964844 347.875 A 1.0001 1.0001 0 0 0 8.2519531 348.41797 L 8.3085938 350.91602 L 6.1757812 349.61719 A 1.0001 1.0001 0 0 0 5.6328125 349.4707 L 3.1347656 349.5293 L 4.4335938 347.39453 A 1.0001 1.0001 0 0 0 4.5800781 346.85156 L 4.5214844 344.35547 z "
         style="color:#000000;font-style:normal;font-variant:normal;font-weight:normal;font-stretch:normal;font-size:medium;line-height:normal;font-family:sans-serif;font-variant-ligatures:normal;font-variant-position:normal;font-variant-caps:normal;font-variant-numeric:normal;font-variant-alternates:normal;font-variant-east-asian:normal;font-feature-settings:normal;font-variation-settings:normal;text-indent:0;text-align:start;text-decoration:none;text-decoration-line:none;text-decoration-style:solid;text-decoration-color:#000000;letter-spacing:normal;word-spacing:normal;text-transform:none;writing-mode:lr-tb;direction:ltr;text-orientation:mixed;dominant-baseline:auto;baseline-shift:baseline;text-anchor:start;white-space:normal;shape-padding:0;shape-margin:0;inline-size:0;clip-rule:nonzero;display:inline;overflow:visible;visibility:visible;isolation:auto;mix-blend-mode:normal;color-interpolation:sRGB;color-interpolation-filters:linearRGB;solid-color:#000000;solid-opacity:1;vector-effect:none;fill:#15e7be;fill-opacity:1;fill-rule:nonzero;stroke:none;stroke-width:2;stroke-linecap:round;stroke-linejoin:round;stroke-miterlimit:4;stroke-dasharray:none;stroke-dashoffset:0;stroke-opacity:1;color-rendering:auto;image-rendering:auto;shape-rendering:auto;text-rendering:auto;enable-background:accumulate;stop-color:#000000;stop-opacity:1;opacity:1" />
      <path
         id="path1850"
         d="M 18.544922 327.2793 C 16.908539 327.2793 15.560543 328.62729 15.560547 330.26367 C 15.560551 331.90005 16.908545 333.24805 18.544922 333.24805 C 19.905839 333.24805 20.88191 332.22785 21.234375 330.97266 A 1 1 0 0 0 21.529297 330.26367 A 1 1 0 0 0 21.232422 329.55273 C 20.87911 328.29881 19.904927 327.2793 18.544922 327.2793 z M 18.544922 329.2793 C 19.100423 329.2793 19.529298 329.70817 19.529297 330.26367 C 19.529295 330.81917 19.100421 331.24805 18.544922 331.24805 C 17.989423 331.24805 17.560548 330.81917 17.560547 330.26367 C 17.560545 329.70817 17.989421 329.2793 18.544922 329.2793 z "
         style="color:#000000;font-style:normal;font-variant:normal;font-weight:normal;font-stretch:normal;font-size:medium;line-height:normal;font-family:sans-serif;font-variant-ligatures:normal;font-variant-position:normal;font-variant-caps:normal;font-variant-numeric:normal;font-variant-alternates:normal;font-variant-east-asian:normal;font-feature-settings:normal;font-variation-settings:normal;text-indent:0;text-align:start;text-decoration:none;text-decoration-line:none;text-decoration-style:solid;text-decoration-color:#000000;letter-spacing:normal;word-spacing:normal;text-transform:none;writing-mode:lr-tb;direction:ltr;text-orientation:mixed;dominant-baseline:auto;baseline-shift:baseline;text-anchor:start;white-space:normal;shape-padding:0;shape-margin:0;inline-size:0;clip-rule:nonzero;display:inline;overflow:visible;visibility:visible;isolation:auto;mix-blend-mode:normal;color-interpolation:sRGB;color-interpolation-filters:linearRGB;solid-color:#000000;solid-opacity:1;vector-effect:none;fill:#15e7be;fill-opacity:1;fill-rule:nonzero;stroke:none;stroke-width:2;stroke-linecap:round;stroke-linejoin:round;stroke-miterlimit:4;stroke-dasharray:none;stroke-dashoffset:0;stroke-opacity:1;color-rendering:auto;image-rendering:auto;shape-rendering:auto;text-rendering:auto;enable-background:accumulate;stop-color:#000000;stop-opacity:1;opacity:1" />
      <path
         id="path1838"
         d="M 22.474609 406.04297 C 20.838226 406.04297 19.49023 407.39096 19.490234 409.02734 C 19.490238 410.66372 20.838232 412.01172 22.474609 412.01172 C 23.835617 412.01172 24.811682 410.99165 25.164062 409.73633 A 1 1 0 0 0 25.458984 409.02734 A 1 1 0 0 0 25.164062 408.32031 C 24.812287 407.06408 23.836268 406.04297 22.474609 406.04297 z M 22.474609 408.04297 C 23.03011 408.04297 23.458986 408.47184 23.458984 409.02734 C 23.458983 409.58284 23.030108 410.01172 22.474609 410.01172 C 21.919111 410.01172 21.490236 409.58284 21.490234 409.02734 C 21.490233 408.47184 21.919108 408.04297 22.474609 408.04297 z "
         style="color:#000000;font-style:normal;font-variant:normal;font-weight:normal;font-stretch:normal;font-size:medium;line-height:normal;font-family:sans-serif;font-variant-ligatures:normal;font-variant-position:normal;font-variant-caps:normal;font-variant-numeric:normal;font-variant-alternates:normal;font-variant-east-asian:normal;font-feature-settings:normal;font-variation-settings:normal;text-indent:0;text-align:start;text-decoration:none;text-decoration-line:none;text-decoration-style:solid;text-decoration-color:#000000;letter-spacing:normal;word-spacing:normal;text-transform:none;writing-mode:lr-tb;direction:ltr;text-orientation:mixed;dominant-baseline:auto;baseline-shift:baseline;text-anchor:start;white-space:normal;shape-padding:0;shape-margin:0;inline-size:0;clip-rule:nonzero;display:inline;overflow:visible;visibility:visible;isolation:auto;mix-blend-mode:normal;color-interpolation:sRGB;color-interpolation-filters:linearRGB;solid-color:#000000;solid-opacity:1;vector-effect:none;fill:#15e7be;fill-opacity:1;fill-rule:nonzero;stroke:none;stroke-width:2;stroke-linecap:round;stroke-linejoin:round;stroke-miterlimit:4;stroke-dasharray:none;stroke-dashoffset:0;stroke-opacity:1;color-rendering:auto;image-rendering:auto;shape-rendering:auto;text-rendering:auto;enable-background:accumulate;stop-color:#000000;stop-opacity:1;opacity:1" />
      <path
         transform="rotate(80.246367,1.1381584,256.74102)"
         id="path1842"
         d="M 155.16602 236.0332 A 1.0001 1.0001 0 0 0 154.20898 237.05469 L 154.30273 241.08789 L 152.20508 244.5332 A 1.0001 1.0001 0 0 0 153.08203 246.05273 L 157.11523 245.95898 L 160.56055 248.05664 A 1.0001 1.0001 0 0 0 162.08008 247.17969 L 161.98633 243.14648 L 164.08398 239.70117 A 1.0001 1.0001 0 0 0 163.20703 238.18164 L 159.17383 238.27539 L 155.72852 236.17773 A 1.0001 1.0001 0 0 0 155.16602 236.0332 z M 156.25195 238.83594 L 158.38477 240.13477 A 1.0001 1.0001 0 0 0 158.92773 240.28125 L 161.42383 240.22461 L 160.125 242.35742 A 1.0001 1.0001 0 0 0 159.98047 242.90039 L 160.03711 245.39844 L 157.9043 244.09961 A 1.0001 1.0001 0 0 0 157.36133 243.95312 L 154.86328 244.00977 L 156.16211 241.87695 A 1.0001 1.0001 0 0 0 156.30859 241.33398 L 156.25195 238.83594 z "
         style="color:#000000;font-style:normal;font-variant:normal;font-weight:normal;font-stretch:normal;font-size:medium;line-height:normal;font-family:sans-serif;font-variant-ligatures:normal;font-variant-position:normal;font-variant-caps:normal;font-variant-numeric:normal;font-variant-alternates:normal;font-variant-east-asian:normal;font-feature-settings:normal;font-variation-settings:normal;text-indent:0;text-align:start;text-decoration:none;text-decoration-line:none;text-decoration-style:solid;text-decoration-color:#000000;letter-spacing:normal;word-spacing:normal;text-transform:none;writing-mode:lr-tb;direction:ltr;text-orientation:mixed;dominant-baseline:auto;baseline-shift:baseline;text-anchor:start;white-space:normal;shape-padding:0;shape-margin:0;inline-size:0;clip-rule:nonzero;display:inline;overflow:visible;visibility:visible;isolation:auto;mix-blend-mode:normal;color-interpolation:sRGB;color-interpolation-filters:linearRGB;solid-color:#000000;solid-opacity:1;vector-effect:none;fill:#15e7be;fill-opacity:1;fill-rule:nonzero;stroke:none;stroke-width:2;stroke-linecap:round;stroke-linejoin:round;stroke-miterlimit:4;stroke-dasharray:none;stroke-dashoffset:0;stroke-opacity:1;color-rendering:auto;image-rendering:auto;shape-rendering:auto;text-rendering:auto;enable-background:accumulate;stop-color:#000000;stop-opacity:1;opacity:1" />
    </g>
  </g>
</svg>
