<?xml version="1.0" encoding="UTF-8" standalone="no"?>
<svg
   xmlns:dc="http://purl.org/dc/elements/1.1/"
   xmlns:cc="http://creativecommons.org/ns#"
   xmlns:rdf="http://www.w3.org/1999/02/22-rdf-syntax-ns#"
   xmlns:svg="http://www.w3.org/2000/svg"
   xmlns="http://www.w3.org/2000/svg"
   id="svg1233"
   version="1.1"
   viewBox="0 0 102.68985 100"
   height="100mm"
   width="102.68985mm">
  <defs
     id="defs1227" />
  <metadata
     id="metadata1230">
    <rdf:RDF>
      <cc:Work
         rdf:about="">
        <dc:format>image/svg+xml</dc:format>
        <dc:type
           rdf:resource="http://purl.org/dc/dcmitype/StillImage" />
        <dc:title></dc:title>
      </cc:Work>
    </rdf:RDF>
  </metadata>
  <g
     transform="translate(-38.847362,-155.70089)"
     id="layer1">
    <g
       id="g1575"
       transform="matrix(0.84256396,0,0,0.84256396,-18.364754,-111.34385)">
      <g
         id="g1475"
         transform="translate(33.981377,248.26428)">
        <path
           id="path1436"
           style="color:#000000;font-style:normal;font-variant:normal;font-weight:normal;font-stretch:normal;font-size:medium;line-height:normal;font-family:sans-serif;font-variant-ligatures:normal;font-variant-position:normal;font-variant-caps:normal;font-variant-numeric:normal;font-variant-alternates:normal;font-variant-east-asian:normal;font-feature-settings:normal;font-variation-settings:normal;text-indent:0;text-align:start;text-decoration:none;text-decoration-line:none;text-decoration-style:solid;text-decoration-color:#000000;letter-spacing:normal;word-spacing:normal;text-transform:none;writing-mode:lr-tb;direction:ltr;text-orientation:mixed;dominant-baseline:auto;baseline-shift:baseline;text-anchor:start;white-space:normal;shape-padding:0;shape-margin:0;inline-size:0;clip-rule:nonzero;display:inline;overflow:visible;visibility:visible;opacity:1;isolation:auto;mix-blend-mode:normal;color-interpolation:sRGB;color-interpolation-filters:linearRGB;solid-color:#000000;solid-opacity:1;vector-effect:none;fill:#30414d;fill-opacity:1;fill-rule:nonzero;stroke:none;stroke-width:7.55906;stroke-linecap:round;stroke-linejoin:miter;stroke-miterlimit:4;stroke-dasharray:none;stroke-dashoffset:0;stroke-opacity:1;color-rendering:auto;image-rendering:auto;shape-rendering:auto;text-rendering:auto;enable-background:accumulate;stop-color:#000000;stop-opacity:1"
           d="m 367.49023,833.63672 -7.09375,2.77539 c -5.87939,2.30227 -12.34941,3.17028 -19.24414,5.51562 -6.39564,2.17558 -13.02213,6.17875 -19.09765,13.39844 -44.24742,2.05865 -89.42566,3.82083 -132.69531,30.90039 l -10.12891,6.33985 11.9375,0.64257 c 8.79417,0.47082 16.44222,1.17641 24.28515,1.84571 -23.65914,13.61565 -85.14257,56.6618 -85.14257,142.16011 0,52.8168 32.22486,83.4251 63.88281,100.1504 31.65795,16.7254 63.21094,20.2774 63.21094,20.2774 l 0.0371,-0.3184 c 11.18358,5.2217 23.23541,8.9041 35.89843,10.7637 v 11.3457 h -37.19726 c -14.5057,0 -22.8547,7.8937 -26.69922,15.4805 -3.84452,7.5868 -3.89844,15.0664 -3.89844,15.0664 l 7.5586,0.1035 c 0,0 0.13543,-5.9294 3.08593,-11.752 2.95051,-5.8225 8.00153,-11.3379 19.95313,-11.3379 h 39.97851 c 1.17938,0.6598 3.20765,1.6846 6.15821,2.6641 4.67855,1.5532 11.6539,3.0488 21.08984,3.0488 9.43592,0 16.41913,-1.4956 21.09766,-3.0488 2.95056,-0.9795 4.97882,-2.0043 6.1582,-2.6641 h 39.9707 c 11.95163,0 17.01045,5.5154 19.96094,11.3379 2.95053,5.8226 3.07813,11.752 3.07813,11.752 l 7.56054,-0.1035 c 0,0 -0.0461,-7.4796 -3.89062,-15.0664 -3.84454,-7.5868 -12.20327,-15.4805 -26.70899,-15.4805 h -37.19726 v -11.3457 c 14.20556,-2.0861 27.6443,-6.4651 39.94726,-12.7402 l 0.13672,0.8632 c 0,0 29.60917,-4.6943 59.16602,-24.8183 29.55689,-20.124 59.2832,-56.1857 59.2832,-117.5117 0,-61.22113 -27.21838,-95.48136 -56.68555,-114.2266 -14.73358,-9.37263 -29.97097,-14.96702 -42.68164,-18.5 -12.71062,-3.53299 -23.11483,-5.05794 -27.32031,-6.01563 -16.23409,-3.69686 -23.41289,-21.52323 -19.82812,-34.17187 z m -9.79492,11.39062 c -1.36505,15.71618 7.48981,33.30006 25.87305,37.48633 5.04839,1.14964 14.7404,2.52935 26.9668,5.92774 12.22643,3.39838 26.76348,8.75456 40.65234,17.58984 27.77775,17.67058 53.18555,48.83384 53.18555,107.84965 0,58.9107 -27.90424,92.1465 -55.97657,111.2597 -12.69007,8.6402 -25.34423,14.2702 -35.43164,17.8692 17.90088,-13.6292 32.15304,-31.7949 41.03516,-52.8301 8.74307,-5.5116 20.80491,-14.3146 25.98438,-26.3379 4.46816,-10.3721 7.36759,-25.3587 6.44921,-38.2559 5.58384,-12.1867 9.08594,-22.0781 9.08594,-22.0781 0,-1.1706 -27.30736,32.2187 -36.43359,50.627 -9.8123,-68.70221 -15.14841,-74.91526 -20.90625,-91.3516 l -4.07422,-11.61914 -3.14453,11.90039 c -1.1455,4.32862 -2.0836,9.99184 -3.12305,15.52344 -0.4523,2.40699 -1.00723,3.95438 -1.50586,6.14258 -9.03904,-12.66202 -15.80518,-26.91441 -20.63281,-42.66797 l -3.19531,-10.42383 -3.94336,10.16602 c -2.20301,5.68392 -4.65902,13.89732 -5.875,23.54687 -26.23903,-5.01789 -47.22772,-21.13692 -67.59571,-39.8164 l -2.55468,-2.33985 -2.55469,2.33985 c -20.36647,18.67812 -41.35941,34.79719 -67.5957,39.8164 -1.21599,-9.64955 -3.67197,-17.86295 -5.875,-23.54687 l -3.94141,-10.16602 -3.19727,10.42383 c -4.82673,15.75054 -11.59663,29.99983 -20.63281,42.66016 -0.49801,-2.18616 -1.05407,-3.7305 -1.50586,-6.13477 -1.03945,-5.5316 -1.97758,-11.19482 -3.12304,-15.52344 l -3.1504,-11.90039 -4.06836,11.61914 c -5.75788,16.43634 -11.09399,22.64939 -20.90624,91.3516 -14.18547,-13.7442 -29.72957,-45.3977 -29.33594,-45.2403 0.29594,8.8887 1.50981,16.3382 3.50781,22.7852 0.20195,11.3153 2.8285,23.3899 6.60742,32.1621 5.17947,12.0233 17.23937,20.8263 25.98242,26.3379 9.5527,22.6232 25.31155,41.9296 45.14649,55.8379 -11.18391,-2.9082 -25.66652,-7.6758 -40.16211,-15.334 -30.2139,-15.9624 -59.86133,-43.6911 -59.86133,-93.4688 0,-100.28449 91.81641,-141.50972 91.81641,-141.50972 l 10.60742,-4.77735 -11.38867,-2.36914 c -6.63371,-1.3803 -15.23864,-1.87686 -24.0293,-2.27343 38.32961,-19.89648 78.2302,-21.58194 118.89258,-23.48243 l 1.75781,-0.0801 1.07031,-1.39649 c 5.54378,-7.2257 11.00058,-10.20014 16.99219,-12.23828 4.31913,-1.46921 9.24393,-2.67378 14.10742,-4.06055 z m -35.16015,88.29493 c 20.8887,18.92209 43.37938,36.17639 72.63867,40.46679 l 4.05273,0.5918 0.26563,-4.08203 c 0.39878,-6.06233 1.53202,-11.26965 2.86328,-15.95313 5.4678,15.23906 12.19074,29.81618 22.65625,42.17969 l 4.08203,4.82811 2.31641,-5.8828 c 1.67833,-4.2686 2.79581,-9.85943 3.85351,-15.48828 0.11679,-0.62124 0.21751,-1.03326 0.33203,-1.65234 4.53993,11.86658 9.17717,26.12232 17.19336,84.50002 l 0.98828,7.1972 c 8.71729,-3.6079 17.23984,-15.2588 24.28711,-27.8242 -1.05251,6.9253 -2.87313,13.6478 -5.02734,18.6485 -4.07864,9.4679 -15.76275,18.5127 -24.00586,23.6289 l -1.0332,0.6425 -0.46485,1.1309 c -18.31135,44.4963 -61.97795,75.6777 -113.29101,75.6777 h -21.7461 c -51.31307,0 -94.97185,-31.1814 -113.2832,-75.6777 l -0.46484,-1.1309 -1.03321,-0.6425 c -8.2431,-5.1162 -19.93502,-14.161 -24.01367,-23.6289 -1.19786,-2.7807 -2.29233,-6.1026 -3.21484,-9.6856 5.59985,6.9719 12.67123,12.7825 20.80664,18.8613 l 0.98828,-7.1972 c 8.0193,-58.4002 12.6518,-72.64729 17.19336,-84.51565 0.1155,0.62431 0.2143,1.04148 0.33203,1.66797 1.05773,5.62885 2.17518,11.21968 3.85352,15.48828 l 2.31054,5.8828 4.08985,-4.82811 c 10.46342,-12.36106 17.17908,-26.93622 22.64648,-42.17187 1.33038,4.68181 2.47445,9.88605 2.87305,15.94531 l 0.26562,4.08203 4.05274,-0.5918 c 29.25929,-4.2904 51.74803,-21.5447 72.63672,-40.46679 z m -2.83789,37.30273 c -18.45175,-0.27905 -34.97657,9.89648 -34.97657,9.89648 0,0 20.85684,-5.35738 38.65235,-2.2871 v -7.4004 c -1.23067,-0.11546 -2.45771,-0.19056 -3.67578,-0.20898 z m -48.17774,26.51172 c -12.16679,-0.16677 -28.2168,5.24808 -28.2168,5.24808 0,0 20.1658,0.4708 31.75196,2.6308 11.58612,2.1601 25.38672,9.1309 25.38672,9.1309 0,0 -11.83185,-14.29513 -24.00391,-16.56447 -1.52151,-0.28367 -3.17986,-0.42149 -4.91797,-0.44531 z m 103.70508,0 c -1.73811,0.0238 -3.39646,0.16164 -4.91797,0.44531 -12.17204,2.26934 -24.00391,16.56447 -24.00391,16.56447 0,0 13.80062,-6.9708 25.38672,-9.1309 11.58618,-2.16 31.75196,-2.6308 31.75196,-2.6308 0,0 -16.05,-5.41485 -28.2168,-5.24808 z m 14.50977,16.27928 c -1.56685,0.01 -3.17593,0.092 -4.83008,0.2578 -17.42196,1.749 -27.03597,10.115 -31.69922,18.086 -4.66326,7.9709 -0.42969,16.1113 -0.42969,16.1113 0,0 3.3268,-6.0839 6.95703,-12.2891 3.45116,-5.8991 9.86476,-12.1766 23.72266,-14.1113 -8.35666,6.6718 -10.83964,18.6992 -5.33789,28.2285 6.0609,10.4978 19.594,14.1234 30.09179,8.0625 8.71229,-5.03 12.30791,-15.134 9.89454,-24.4414 6.48581,6.6203 11.8789,12.291 11.8789,12.291 3.75938,-2.0476 10.99831,-0.6165 17.42188,0 -6.35223,-4.3839 -12.70441,-8.9099 -19.05664,-9.7109 -0.003,-0.01 -0.006,-0.018 -0.01,-0.027 3.93274,-0.459 9.25524,0.4713 14.11328,0.9375 -6.65301,-4.5915 -13.30597,-9.3355 -19.95898,-9.7949 -7.10267,-7.0276 -17.98693,-13.67 -32.75781,-13.5996 z m 7.08398,10.7852 c 5.12693,-0.143 10.14368,2.4651 12.90625,7.25 4.01831,6.9599 1.66302,15.7454 -5.29688,19.7636 -6.95989,4.0183 -15.74537,1.6631 -19.76367,-5.2968 -4.01827,-6.9599 -1.66301,-15.7454 5.29688,-19.7637 2.17496,-1.2557 4.527,-1.8881 6.85742,-1.9531 z m 0.35156,7.5703 c -3.80813,0.014 -6.88741,3.1059 -6.88672,6.914 3.8e-4,3.3959 2.45147,6.2146 5.67969,6.7969 a 6,6 0 0 1 -0.33789,-1.9824 6,6 0 0 1 6,-6 6,6 0 0 1 2.44922,0.5234 c -0.33286,-3.5073 -3.28433,-6.2515 -6.87891,-6.2519 -0.008,0 -0.0169,0 -0.0254,0 z m -102.32031,28.5742 c 0,0 -9.54749,6.8193 -14.71289,10.3008 -5.16539,3.4815 -12.30896,7.4386 -19.94336,9.4043 -7.20009,1.8538 -13.20742,0.1269 -17.61719,-2.1172 -4.4098,-2.2441 -12.67578,-7.6699 -12.67578,-7.6699 0,0 3.69844,11.587 9.24219,14.4082 5.54378,2.821 13.61947,5.0972 22.93359,2.6992 8.87983,-2.2863 16.65979,-6.663 22.28321,-10.4531 5.6234,-3.7902 10.49023,-16.5723 10.49023,-16.5723 z m 17.00391,26.9824 c -3.14961,-0.094 -16.71016,0.3207 -32.08985,12.9473 -18.6181,15.2853 -18.88281,44.6797 -18.88281,44.6797 0,0 8.39679,-26.2872 23.68164,-38.836 16.32619,-13.4036 27.97852,-18.7539 27.97852,-18.7539 0,0 -0.23756,-0.024 -0.6875,-0.037 z m -23.30664,32.2657 c 0,0 15.71025,8.5292 34.82421,8.5292 19.11397,0 34.82813,-8.5292 34.82813,-8.5292 0,0 -17.01042,0.9707 -34.82813,0.9707 -17.81768,0 -34.82422,-0.9708 -34.82421,-0.9707 z m 12.35156,49.371 c 3.82153,0.3359 7.68625,0.5254 11.59765,0.5254 h 21.7461 c 3.91119,0 7.77624,-0.1896 11.59765,-0.5254 v 11.8653 c -0.67373,0.3955 -1.01259,0.741 -3.75781,1.6523 -3.92765,1.304 -10.07351,2.666 -18.71289,2.666 -8.63937,0 -14.77746,-1.362 -18.70508,-2.666 -2.75174,-0.9135 -3.09439,-1.2656 -3.76562,-1.6601 z"
           transform="matrix(0.26458333,0,0,0.26458333,14.2875,-142.34583)" />
        <path
           transform="scale(0.26458333)"
           d="m 377.37305,315.82422 c -0.44197,0.48608 -0.8818,0.98317 -1.31836,1.50195 -44.24742,2.05865 -89.42566,3.82083 -132.69531,30.90039 l -10.12891,6.33985 11.9375,0.64257 c 8.79417,0.47082 16.44222,1.17641 24.28515,1.84571 -23.65914,13.61565 -85.14257,56.6618 -85.14257,142.16015 0,52.81671 32.22486,83.42508 63.88281,100.15039 31.65795,16.72532 63.21094,20.27735 63.21094,20.27735 l 0.0371,-0.31836 c 11.18358,5.22167 23.23541,8.90405 35.89843,10.76367 v 11.3457 h -37.19726 c -14.5057,0 -22.8547,7.89368 -26.69922,15.48047 -3.84452,7.58684 -3.89844,15.06641 -3.89844,15.06641 l 7.5586,0.10351 c 0,0 0.13543,-5.9294 3.08593,-11.75195 2.95051,-5.82255 8.00153,-11.33789 19.95313,-11.33789 h 39.97851 c 1.17938,0.65975 3.20765,1.68451 6.15821,2.66406 4.67855,1.5532 11.6539,3.04883 21.08984,3.04883 h 0.004 v -7.55859 h -0.004 c -8.63937,0 -14.77746,-1.36208 -18.70508,-2.66602 -2.75174,-0.91355 -3.09439,-1.26557 -3.76562,-1.66015 v -11.85743 c 3.82153,0.33584 7.68625,0.52539 11.59765,0.52539 h 10.87696 v -7.55859 h -10.87696 c -51.31307,0 -94.97185,-31.18139 -113.2832,-75.67773 l -0.46484,-1.13086 -1.03321,-0.64258 c -8.2431,-5.1162 -19.93502,-14.16096 -24.01367,-23.62891 -1.19786,-2.78064 -2.29233,-6.10259 -3.21484,-9.68554 5.59985,6.9719 12.67123,12.78247 20.80664,18.86132 l 0.98828,-7.19726 c 8.0193,-58.4002 12.6518,-72.64727 17.19336,-84.51563 0.1155,0.62431 0.2143,1.04148 0.33203,1.66797 1.05773,5.62885 2.17518,11.21968 3.85352,15.48828 l 2.31054,5.88282 4.08985,-4.82813 c 10.46342,-12.36106 17.17908,-26.93622 22.64648,-42.17187 1.33038,4.68181 2.47445,9.88605 2.87305,15.94531 l 0.26562,4.08203 4.05274,-0.5918 c 29.25929,-4.2904 51.74803,-21.5447 72.63672,-40.46679 0.27778,0.25163 0.55952,0.49898 0.83789,0.75 v -10.10938 l -0.83789,-0.76758 -2.55469,2.33985 c -20.36647,18.67812 -41.35941,34.79719 -67.5957,39.8164 -1.21599,-9.64955 -3.67197,-17.86295 -5.875,-23.54687 l -3.94141,-10.16602 -3.19727,10.42383 c -4.82673,15.75054 -11.59663,29.99983 -20.63281,42.66016 -0.49801,-2.18616 -1.05407,-3.7305 -1.50586,-6.13477 -1.03945,-5.5316 -1.97758,-11.19482 -3.12304,-15.52344 l -3.1504,-11.90039 -4.06836,11.61914 c -5.75788,16.43634 -11.09399,22.64939 -20.90624,91.35157 -14.18547,-13.74414 -29.72957,-45.39769 -29.33594,-45.24024 0.29594,8.88869 1.50981,16.33821 3.50781,22.78516 0.20195,11.31527 2.8285,23.3899 6.60742,32.16211 5.17947,12.02332 17.23937,20.82628 25.98242,26.33789 9.5527,22.62324 25.31155,41.92958 45.14649,55.83789 -11.18391,-2.9082 -25.66652,-7.67576 -40.16211,-15.33399 -30.2139,-15.96242 -59.86133,-43.69112 -59.86133,-93.46875 0,-100.28453 91.81641,-141.50976 91.81641,-141.50976 l 10.60742,-4.77735 -11.38867,-2.36914 c -6.63371,-1.3803 -15.23864,-1.87686 -24.0293,-2.27343 38.20533,-19.83197 77.97244,-21.56976 118.49805,-23.46289 z M 373.69727,432.625 c -18.45175,-0.27905 -34.97657,9.89648 -34.97657,9.89648 0,0 20.85684,-5.35738 38.65235,-2.2871 v -7.4004 c -1.23067,-0.11546 -2.45771,-0.19056 -3.67578,-0.20898 z m -48.17774,26.51172 c -12.16679,-0.16677 -28.2168,5.24805 -28.2168,5.24805 0,0 20.1658,0.47083 31.75196,2.63085 11.58612,2.16012 25.38672,9.13086 25.38672,9.13086 0,0 -11.83185,-14.29511 -24.00391,-16.56445 -1.52151,-0.28367 -3.17986,-0.42149 -4.91797,-0.44531 z m -14.50976,16.2793 c -14.7709,-0.0705 -25.65318,6.57199 -32.75586,13.5996 -6.65302,0.45937 -13.30597,5.20342 -19.95899,9.79493 4.85797,-0.46623 10.1786,-1.39652 14.11133,-0.9375 -0.003,0.009 -0.006,0.0182 -0.01,0.0273 -6.35159,0.80163 -12.70309,5.32745 -19.05468,9.71094 6.42355,-0.61648 13.66053,-2.04767 17.41992,0 0,0 5.61684,-5.91299 12.3418,-12.76758 5.18751,-5.28751 12.38353,-10.23939 22.36523,-11.53516 -5.18254,4.03838 -8.53321,10.32979 -8.5332,17.375 1e-5,12.12178 9.9075,22.02735 22.02929,22.02735 14.80546,0 22.03321,-11.50563 22.03321,-25.1543 0.005,0.008 0.0107,0.017 0.0156,0.0254 3.63024,6.20519 6.95508,12.28906 6.95508,12.28906 0,0 4.23358,-8.14034 -0.42969,-16.11132 -4.66326,-7.97095 -14.27532,-16.33697 -31.69726,-18.08594 -1.65415,-0.16606 -3.26519,-0.25034 -4.83203,-0.25781 z m 7.95507,10.79882 c 8.0366,0 14.47462,6.43216 14.47461,14.46875 0,8.03656 -6.43803,14.46875 -14.47461,14.46875 -8.03658,0 -14.46873,-6.43219 -14.46875,-14.46875 0,-8.03659 6.43216,-14.46875 14.46875,-14.46875 z m -0.0234,7.55664 c -3.80889,0.0133 -6.88937,3.10515 -6.88868,6.91407 4.2e-4,3.81805 3.09602,6.91278 6.91407,6.91211 3.81728,-4.2e-4 6.91169,-3.09483 6.91211,-6.91211 6.7e-4,-3.81805 -3.09406,-6.91365 -6.91211,-6.91407 -0.008,-2e-5 -0.0169,-2e-5 -0.0254,0 z m 29.9082,28.57422 c 0,0 -9.54749,6.81931 -14.71289,10.30078 -5.16539,3.48152 -12.30896,7.43864 -19.94336,9.4043 -7.20009,1.85378 -13.20742,0.12691 -17.61719,-2.11719 -4.4098,-2.24409 -12.67578,-7.66992 -12.67578,-7.66992 0,0 3.69844,11.58701 9.24219,14.40821 5.54378,2.82106 13.61947,5.09725 22.93359,2.69921 8.87983,-2.28631 16.65979,-6.66294 22.28321,-10.45312 5.6234,-3.79015 10.49023,-16.57227 10.49023,-16.57227 z m 17.00391,26.98242 c -3.14961,-0.0938 -16.71016,0.32068 -32.08985,12.94727 -18.6181,15.28535 -18.88281,44.67969 -18.88281,44.67969 0,0 8.39679,-26.28715 23.68164,-38.83594 16.32619,-13.40368 27.97852,-18.75391 27.97852,-18.75391 0,0 -0.23756,-0.0237 -0.6875,-0.0371 z m -23.30664,32.26563 c 0,0 15.71025,8.5293 34.82421,8.5293 h 0.002 v -7.5586 h -0.002 c -17.81768,0 -34.82421,-0.9707 -34.82421,-0.9707 z"
           style="color:#000000;font-style:normal;font-variant:normal;font-weight:normal;font-stretch:normal;font-size:medium;line-height:normal;font-family:sans-serif;font-variant-ligatures:normal;font-variant-position:normal;font-variant-caps:normal;font-variant-numeric:normal;font-variant-alternates:normal;font-variant-east-asian:normal;font-feature-settings:normal;font-variation-settings:normal;text-indent:0;text-align:start;text-decoration:none;text-decoration-line:none;text-decoration-style:solid;text-decoration-color:#000000;letter-spacing:normal;word-spacing:normal;text-transform:none;writing-mode:lr-tb;direction:ltr;text-orientation:mixed;dominant-baseline:auto;baseline-shift:baseline;text-anchor:start;white-space:normal;shape-padding:0;shape-margin:0;inline-size:0;clip-rule:nonzero;display:inline;overflow:visible;visibility:visible;opacity:1;isolation:auto;mix-blend-mode:normal;color-interpolation:sRGB;color-interpolation-filters:linearRGB;solid-color:#000000;solid-opacity:1;vector-effect:none;fill:#608199;fill-opacity:1;fill-rule:nonzero;stroke:none;stroke-width:7.55906;stroke-linecap:round;stroke-linejoin:miter;stroke-miterlimit:4;stroke-dasharray:none;stroke-dashoffset:0;stroke-opacity:1;color-rendering:auto;image-rendering:auto;shape-rendering:auto;text-rendering:auto;enable-background:accumulate;stop-color:#000000;stop-opacity:1"
           id="path1455" />
        <path
           id="path1972"
           d="M 99.25 68.677734 A 2 2 0 0 0 97.25 70.677734 L 97.25 185.36328 A 2 2 0 0 0 99.25 187.36328 A 2 2 0 0 0 101.25 185.36328 L 101.25 70.677734 A 2 2 0 0 0 99.25 68.677734 z "
           style="color:#000000;font-style:normal;font-variant:normal;font-weight:normal;font-stretch:normal;font-size:medium;line-height:normal;font-family:sans-serif;font-variant-ligatures:normal;font-variant-position:normal;font-variant-caps:normal;font-variant-numeric:normal;font-variant-alternates:normal;font-variant-east-asian:normal;font-feature-settings:normal;font-variation-settings:normal;text-indent:0;text-align:start;text-decoration:none;text-decoration-line:none;text-decoration-style:solid;text-decoration-color:#000000;letter-spacing:normal;word-spacing:normal;text-transform:none;writing-mode:lr-tb;direction:ltr;text-orientation:mixed;dominant-baseline:auto;baseline-shift:baseline;text-anchor:start;white-space:normal;shape-padding:0;shape-margin:0;inline-size:0;clip-rule:nonzero;display:inline;overflow:visible;visibility:visible;isolation:auto;mix-blend-mode:normal;color-interpolation:sRGB;color-interpolation-filters:linearRGB;solid-color:#000000;solid-opacity:1;vector-effect:none;fill:#15e7be;fill-opacity:1;fill-rule:nonzero;stroke:none;stroke-width:4;stroke-linecap:round;stroke-linejoin:miter;stroke-miterlimit:4;stroke-dasharray:none;stroke-dashoffset:0;stroke-opacity:1;color-rendering:auto;image-rendering:auto;shape-rendering:auto;text-rendering:auto;enable-background:accumulate;stop-color:#000000;stop-opacity:1;opacity:1" />
      </g>
      <path
         id="path1988"
         d="M 69.671875 348.51367 A 1 1 0 0 0 68.671875 349.51367 A 1 1 0 0 0 69.671875 350.51367 L 81.476562 350.51367 A 1 1 0 0 0 82.476562 349.51367 A 1 1 0 0 0 81.476562 348.51367 L 69.671875 348.51367 z M 87.931641 348.51367 A 1 1 0 0 0 86.931641 349.51367 A 1 1 0 0 0 87.931641 350.51367 L 108.61133 350.51367 A 1 1 0 0 0 109.61133 349.51367 A 1 1 0 0 0 108.61133 348.51367 L 87.931641 348.51367 z "
         style="color:#000000;font-style:normal;font-variant:normal;font-weight:normal;font-stretch:normal;font-size:medium;line-height:normal;font-family:sans-serif;font-variant-ligatures:normal;font-variant-position:normal;font-variant-caps:normal;font-variant-numeric:normal;font-variant-alternates:normal;font-variant-east-asian:normal;font-feature-settings:normal;font-variation-settings:normal;text-indent:0;text-align:start;text-decoration:none;text-decoration-line:none;text-decoration-style:solid;text-decoration-color:#000000;letter-spacing:normal;word-spacing:normal;text-transform:none;writing-mode:lr-tb;direction:ltr;text-orientation:mixed;dominant-baseline:auto;baseline-shift:baseline;text-anchor:start;white-space:normal;shape-padding:0;shape-margin:0;inline-size:0;clip-rule:nonzero;display:inline;overflow:visible;visibility:visible;isolation:auto;mix-blend-mode:normal;color-interpolation:sRGB;color-interpolation-filters:linearRGB;solid-color:#000000;solid-opacity:1;vector-effect:none;fill:#15e7be;fill-opacity:1;fill-rule:nonzero;stroke:none;stroke-width:2;stroke-linecap:round;stroke-linejoin:miter;stroke-miterlimit:4;stroke-dasharray:none;stroke-dashoffset:0;stroke-opacity:1;color-rendering:auto;image-rendering:auto;shape-rendering:auto;text-rendering:auto;enable-background:accumulate;stop-color:#000000;stop-opacity:1;opacity:1" />
      <path
         id="path1984"
         d="M 95.730469 344.30469 A 1 1 0 0 0 94.730469 345.30469 A 1 1 0 0 0 95.730469 346.30469 L 117.49805 346.30469 A 1 1 0 0 0 118.49805 345.30469 A 1 1 0 0 0 117.49805 344.30469 L 95.730469 344.30469 z "
         style="color:#000000;font-style:normal;font-variant:normal;font-weight:normal;font-stretch:normal;font-size:medium;line-height:normal;font-family:sans-serif;font-variant-ligatures:normal;font-variant-position:normal;font-variant-caps:normal;font-variant-numeric:normal;font-variant-alternates:normal;font-variant-east-asian:normal;font-feature-settings:normal;font-variation-settings:normal;text-indent:0;text-align:start;text-decoration:none;text-decoration-line:none;text-decoration-style:solid;text-decoration-color:#000000;letter-spacing:normal;word-spacing:normal;text-transform:none;writing-mode:lr-tb;direction:ltr;text-orientation:mixed;dominant-baseline:auto;baseline-shift:baseline;text-anchor:start;white-space:normal;shape-padding:0;shape-margin:0;inline-size:0;clip-rule:nonzero;display:inline;overflow:visible;visibility:visible;isolation:auto;mix-blend-mode:normal;color-interpolation:sRGB;color-interpolation-filters:linearRGB;solid-color:#000000;solid-opacity:1;vector-effect:none;fill:#15e7be;fill-opacity:1;fill-rule:nonzero;stroke:none;stroke-width:2;stroke-linecap:round;stroke-linejoin:miter;stroke-miterlimit:4;stroke-dasharray:none;stroke-dashoffset:0;stroke-opacity:1;color-rendering:auto;image-rendering:auto;shape-rendering:auto;text-rendering:auto;enable-background:accumulate;stop-color:#000000;stop-opacity:1;opacity:1" />
      <path
         id="path1980"
         d="M 88.152344 330.08594 A 1 1 0 0 0 87.152344 331.08594 A 1 1 0 0 0 88.152344 332.08594 L 108.14453 332.08594 A 1 1 0 0 0 109.14453 331.08594 A 1 1 0 0 0 108.14453 330.08594 L 88.152344 330.08594 z "
         style="color:#000000;font-style:normal;font-variant:normal;font-weight:normal;font-stretch:normal;font-size:medium;line-height:normal;font-family:sans-serif;font-variant-ligatures:normal;font-variant-position:normal;font-variant-caps:normal;font-variant-numeric:normal;font-variant-alternates:normal;font-variant-east-asian:normal;font-feature-settings:normal;font-variation-settings:normal;text-indent:0;text-align:start;text-decoration:none;text-decoration-line:none;text-decoration-style:solid;text-decoration-color:#000000;letter-spacing:normal;word-spacing:normal;text-transform:none;writing-mode:lr-tb;direction:ltr;text-orientation:mixed;dominant-baseline:auto;baseline-shift:baseline;text-anchor:start;white-space:normal;shape-padding:0;shape-margin:0;inline-size:0;clip-rule:nonzero;display:inline;overflow:visible;visibility:visible;isolation:auto;mix-blend-mode:normal;color-interpolation:sRGB;color-interpolation-filters:linearRGB;solid-color:#000000;solid-opacity:1;vector-effect:none;fill:#15e7be;fill-opacity:1;fill-rule:nonzero;stroke:none;stroke-width:2;stroke-linecap:round;stroke-linejoin:miter;stroke-miterlimit:4;stroke-dasharray:none;stroke-dashoffset:0;stroke-opacity:1;color-rendering:auto;image-rendering:auto;shape-rendering:auto;text-rendering:auto;enable-background:accumulate;stop-color:#000000;stop-opacity:1;opacity:1" />
      <path
         id="path1976"
         d="M 107.98438 325.9707 A 1 1 0 0 0 106.98438 326.9707 A 1 1 0 0 0 107.98438 327.9707 L 117.30469 327.9707 A 1 1 0 0 0 118.30469 326.9707 A 1 1 0 0 0 117.30469 325.9707 L 107.98438 325.9707 z M 126.19141 325.9707 A 1 1 0 0 0 125.19141 326.9707 A 1 1 0 0 0 126.19141 327.9707 L 133.11914 327.9707 A 1 1 0 0 0 134.11914 326.9707 A 1 1 0 0 0 133.11914 325.9707 L 126.19141 325.9707 z "
         style="color:#000000;font-style:normal;font-variant:normal;font-weight:normal;font-stretch:normal;font-size:medium;line-height:normal;font-family:sans-serif;font-variant-ligatures:normal;font-variant-position:normal;font-variant-caps:normal;font-variant-numeric:normal;font-variant-alternates:normal;font-variant-east-asian:normal;font-feature-settings:normal;font-variation-settings:normal;text-indent:0;text-align:start;text-decoration:none;text-decoration-line:none;text-decoration-style:solid;text-decoration-color:#000000;letter-spacing:normal;word-spacing:normal;text-transform:none;writing-mode:lr-tb;direction:ltr;text-orientation:mixed;dominant-baseline:auto;baseline-shift:baseline;text-anchor:start;white-space:normal;shape-padding:0;shape-margin:0;inline-size:0;clip-rule:nonzero;display:inline;overflow:visible;visibility:visible;isolation:auto;mix-blend-mode:normal;color-interpolation:sRGB;color-interpolation-filters:linearRGB;solid-color:#000000;solid-opacity:1;vector-effect:none;fill:#15e7be;fill-opacity:1;fill-rule:nonzero;stroke:none;stroke-width:2;stroke-linecap:round;stroke-linejoin:miter;stroke-miterlimit:4;stroke-dasharray:none;stroke-dashoffset:0;stroke-opacity:1;color-rendering:auto;image-rendering:auto;shape-rendering:auto;text-rendering:auto;enable-background:accumulate;stop-color:#000000;stop-opacity:1;opacity:1" />
      <path
         id="path1992"
         d="M 77.302734 368.25195 A 1 1 0 0 0 76.302734 369.25195 A 1 1 0 0 0 77.302734 370.25195 L 90.400391 370.25195 A 1 1 0 0 0 91.400391 369.25195 A 1 1 0 0 0 90.400391 368.25195 L 77.302734 368.25195 z "
         style="color:#000000;font-style:normal;font-variant:normal;font-weight:normal;font-stretch:normal;font-size:medium;line-height:normal;font-family:sans-serif;font-variant-ligatures:normal;font-variant-position:normal;font-variant-caps:normal;font-variant-numeric:normal;font-variant-alternates:normal;font-variant-east-asian:normal;font-feature-settings:normal;font-variation-settings:normal;text-indent:0;text-align:start;text-decoration:none;text-decoration-line:none;text-decoration-style:solid;text-decoration-color:#000000;letter-spacing:normal;word-spacing:normal;text-transform:none;writing-mode:lr-tb;direction:ltr;text-orientation:mixed;dominant-baseline:auto;baseline-shift:baseline;text-anchor:start;white-space:normal;shape-padding:0;shape-margin:0;inline-size:0;clip-rule:nonzero;display:inline;overflow:visible;visibility:visible;isolation:auto;mix-blend-mode:normal;color-interpolation:sRGB;color-interpolation-filters:linearRGB;solid-color:#000000;solid-opacity:1;vector-effect:none;fill:#15e7be;fill-opacity:1;fill-rule:nonzero;stroke:none;stroke-width:2;stroke-linecap:round;stroke-linejoin:miter;stroke-miterlimit:4;stroke-dasharray:none;stroke-dashoffset:0;stroke-opacity:1;color-rendering:auto;image-rendering:auto;shape-rendering:auto;text-rendering:auto;enable-background:accumulate;stop-color:#000000;stop-opacity:1;opacity:1" />
      <path
         id="path1996"
         d="M 79.742188 394.44531 A 1 1 0 0 0 78.742188 395.44531 A 1 1 0 0 0 79.742188 396.44531 L 96.550781 396.44531 A 1 1 0 0 0 97.550781 395.44531 A 1 1 0 0 0 96.550781 394.44531 L 79.742188 394.44531 z "
         style="color:#000000;font-style:normal;font-variant:normal;font-weight:normal;font-stretch:normal;font-size:medium;line-height:normal;font-family:sans-serif;font-variant-ligatures:normal;font-variant-position:normal;font-variant-caps:normal;font-variant-numeric:normal;font-variant-alternates:normal;font-variant-east-asian:normal;font-feature-settings:normal;font-variation-settings:normal;text-indent:0;text-align:start;text-decoration:none;text-decoration-line:none;text-decoration-style:solid;text-decoration-color:#000000;letter-spacing:normal;word-spacing:normal;text-transform:none;writing-mode:lr-tb;direction:ltr;text-orientation:mixed;dominant-baseline:auto;baseline-shift:baseline;text-anchor:start;white-space:normal;shape-padding:0;shape-margin:0;inline-size:0;clip-rule:nonzero;display:inline;overflow:visible;visibility:visible;isolation:auto;mix-blend-mode:normal;color-interpolation:sRGB;color-interpolation-filters:linearRGB;solid-color:#000000;solid-opacity:1;vector-effect:none;fill:#15e7be;fill-opacity:1;fill-rule:nonzero;stroke:none;stroke-width:2;stroke-linecap:round;stroke-linejoin:miter;stroke-miterlimit:4;stroke-dasharray:none;stroke-dashoffset:0;stroke-opacity:1;color-rendering:auto;image-rendering:auto;shape-rendering:auto;text-rendering:auto;enable-background:accumulate;stop-color:#000000;stop-opacity:1;opacity:1" />
      <path
         id="path2000"
         d="M 68.902344 399.73828 A 1 1 0 0 0 67.902344 400.73828 A 1 1 0 0 0 68.902344 401.73828 L 100.38867 401.73828 A 1 1 0 0 0 101.38867 400.73828 A 1 1 0 0 0 100.38867 399.73828 L 68.902344 399.73828 z "
         style="color:#000000;font-style:normal;font-variant:normal;font-weight:normal;font-stretch:normal;font-size:medium;line-height:normal;font-family:sans-serif;font-variant-ligatures:normal;font-variant-position:normal;font-variant-caps:normal;font-variant-numeric:normal;font-variant-alternates:normal;font-variant-east-asian:normal;font-feature-settings:normal;font-variation-settings:normal;text-indent:0;text-align:start;text-decoration:none;text-decoration-line:none;text-decoration-style:solid;text-decoration-color:#000000;letter-spacing:normal;word-spacing:normal;text-transform:none;writing-mode:lr-tb;direction:ltr;text-orientation:mixed;dominant-baseline:auto;baseline-shift:baseline;text-anchor:start;white-space:normal;shape-padding:0;shape-margin:0;inline-size:0;clip-rule:nonzero;display:inline;overflow:visible;visibility:visible;isolation:auto;mix-blend-mode:normal;color-interpolation:sRGB;color-interpolation-filters:linearRGB;solid-color:#000000;solid-opacity:1;vector-effect:none;fill:#15e7be;fill-opacity:1;fill-rule:nonzero;stroke:none;stroke-width:2;stroke-linecap:round;stroke-linejoin:miter;stroke-miterlimit:4;stroke-dasharray:none;stroke-dashoffset:0;stroke-opacity:1;color-rendering:auto;image-rendering:auto;shape-rendering:auto;text-rendering:auto;enable-background:accumulate;stop-color:#000000;stop-opacity:1;opacity:1" />
      <path
         id="path2008"
         d="M 88.746094 413.89258 A 1 1 0 0 0 87.746094 414.89258 A 1 1 0 0 0 88.746094 415.89258 L 101.77539 415.89258 A 1 1 0 0 0 102.77539 414.89258 A 1 1 0 0 0 101.77539 413.89258 L 88.746094 413.89258 z M 109.35352 413.89258 A 1 1 0 0 0 108.35352 414.89258 A 1 1 0 0 0 109.35352 415.89258 L 113.88086 415.89258 A 1 1 0 0 0 114.88086 414.89258 A 1 1 0 0 0 113.88086 413.89258 L 109.35352 413.89258 z "
         style="color:#000000;font-style:normal;font-variant:normal;font-weight:normal;font-stretch:normal;font-size:medium;line-height:normal;font-family:sans-serif;font-variant-ligatures:normal;font-variant-position:normal;font-variant-caps:normal;font-variant-numeric:normal;font-variant-alternates:normal;font-variant-east-asian:normal;font-feature-settings:normal;font-variation-settings:normal;text-indent:0;text-align:start;text-decoration:none;text-decoration-line:none;text-decoration-style:solid;text-decoration-color:#000000;letter-spacing:normal;word-spacing:normal;text-transform:none;writing-mode:lr-tb;direction:ltr;text-orientation:mixed;dominant-baseline:auto;baseline-shift:baseline;text-anchor:start;white-space:normal;shape-padding:0;shape-margin:0;inline-size:0;clip-rule:nonzero;display:inline;overflow:visible;visibility:visible;isolation:auto;mix-blend-mode:normal;color-interpolation:sRGB;color-interpolation-filters:linearRGB;solid-color:#000000;solid-opacity:1;vector-effect:none;fill:#15e7be;fill-opacity:1;fill-rule:nonzero;stroke:none;stroke-width:2;stroke-linecap:round;stroke-linejoin:miter;stroke-miterlimit:4;stroke-dasharray:none;stroke-dashoffset:0;stroke-opacity:1;color-rendering:auto;image-rendering:auto;shape-rendering:auto;text-rendering:auto;enable-background:accumulate;stop-color:#000000;stop-opacity:1;opacity:1" />
      <path
         id="path2004"
         d="M 77.792969 417.86133 A 1 1 0 0 0 76.792969 418.86133 A 1 1 0 0 0 77.792969 419.86133 L 96.287109 419.86133 A 1 1 0 0 0 97.287109 418.86133 A 1 1 0 0 0 96.287109 417.86133 L 77.792969 417.86133 z "
         style="color:#000000;font-style:normal;font-variant:normal;font-weight:normal;font-stretch:normal;font-size:medium;line-height:normal;font-family:sans-serif;font-variant-ligatures:normal;font-variant-position:normal;font-variant-caps:normal;font-variant-numeric:normal;font-variant-alternates:normal;font-variant-east-asian:normal;font-feature-settings:normal;font-variation-settings:normal;text-indent:0;text-align:start;text-decoration:none;text-decoration-line:none;text-decoration-style:solid;text-decoration-color:#000000;letter-spacing:normal;word-spacing:normal;text-transform:none;writing-mode:lr-tb;direction:ltr;text-orientation:mixed;dominant-baseline:auto;baseline-shift:baseline;text-anchor:start;white-space:normal;shape-padding:0;shape-margin:0;inline-size:0;clip-rule:nonzero;display:inline;overflow:visible;visibility:visible;isolation:auto;mix-blend-mode:normal;color-interpolation:sRGB;color-interpolation-filters:linearRGB;solid-color:#000000;solid-opacity:1;vector-effect:none;fill:#15e7be;fill-opacity:1;fill-rule:nonzero;stroke:none;stroke-width:2;stroke-linecap:round;stroke-linejoin:miter;stroke-miterlimit:4;stroke-dasharray:none;stroke-dashoffset:0;stroke-opacity:1;color-rendering:auto;image-rendering:auto;shape-rendering:auto;text-rendering:auto;enable-background:accumulate;stop-color:#000000;stop-opacity:1;opacity:1" />
      <path
         id="path1968"
         d="M 167.32227 329.8457 A 1.0001 1.0001 0 0 0 166.36523 330.86914 L 166.45703 334.90039 L 164.36133 338.3457 A 1.0001 1.0001 0 0 0 165.23828 339.86523 L 169.26953 339.77344 L 172.7168 341.86914 A 1.0001 1.0001 0 0 0 174.23633 340.99219 L 174.14258 336.95898 L 176.24023 333.51367 A 1.0001 1.0001 0 0 0 175.36133 331.99414 L 171.33008 332.08789 L 167.88477 329.99023 A 1.0001 1.0001 0 0 0 167.32227 329.8457 z M 168.40625 332.65039 L 170.53906 333.94922 A 1.0001 1.0001 0 0 0 171.08203 334.09375 L 173.58008 334.03711 L 172.28125 336.16992 A 1.0001 1.0001 0 0 0 172.13672 336.71289 L 172.19336 339.21094 L 170.06055 337.91211 A 1.0001 1.0001 0 0 0 169.51758 337.76562 L 167.01953 337.82422 L 168.31836 335.68945 A 1.0001 1.0001 0 0 0 168.46484 335.14648 L 168.40625 332.65039 z "
         style="color:#000000;font-style:normal;font-variant:normal;font-weight:normal;font-stretch:normal;font-size:medium;line-height:normal;font-family:sans-serif;font-variant-ligatures:normal;font-variant-position:normal;font-variant-caps:normal;font-variant-numeric:normal;font-variant-alternates:normal;font-variant-east-asian:normal;font-feature-settings:normal;font-variation-settings:normal;text-indent:0;text-align:start;text-decoration:none;text-decoration-line:none;text-decoration-style:solid;text-decoration-color:#000000;letter-spacing:normal;word-spacing:normal;text-transform:none;writing-mode:lr-tb;direction:ltr;text-orientation:mixed;dominant-baseline:auto;baseline-shift:baseline;text-anchor:start;white-space:normal;shape-padding:0;shape-margin:0;inline-size:0;clip-rule:nonzero;display:inline;overflow:visible;visibility:visible;isolation:auto;mix-blend-mode:normal;color-interpolation:sRGB;color-interpolation-filters:linearRGB;solid-color:#000000;solid-opacity:1;vector-effect:none;fill:#15e7be;fill-opacity:1;fill-rule:nonzero;stroke:none;stroke-width:2;stroke-linecap:round;stroke-linejoin:round;stroke-miterlimit:4;stroke-dasharray:none;stroke-dashoffset:0;stroke-opacity:1;color-rendering:auto;image-rendering:auto;shape-rendering:auto;text-rendering:auto;enable-background:accumulate;stop-color:#000000;stop-opacity:1;opacity:1" />
      <path
         transform="rotate(47.698289,-66.971078,312.79005)"
         id="path1960"
         d="M 170.66016 194.01367 A 1.0001 1.0001 0 0 0 169.70312 195.03516 L 169.79688 199.06836 L 167.69922 202.51367 A 1.0001 1.0001 0 0 0 168.57617 204.0332 L 172.60938 203.93945 L 176.05469 206.03711 A 1.0001 1.0001 0 0 0 177.57422 205.16016 L 177.48047 201.12695 L 179.57812 197.68164 A 1.0001 1.0001 0 0 0 178.70117 196.16211 L 174.66797 196.25586 L 171.22266 194.1582 A 1.0001 1.0001 0 0 0 170.66016 194.01367 z M 171.74609 196.81836 L 173.87891 198.11719 A 1.0001 1.0001 0 0 0 174.42188 198.26172 L 176.91992 198.20508 L 175.62109 200.33789 A 1.0001 1.0001 0 0 0 175.47461 200.88086 L 175.53125 203.37891 L 173.39844 202.08008 A 1.0001 1.0001 0 0 0 172.85547 201.93359 L 170.35938 201.99023 L 171.65625 199.85742 A 1.0001 1.0001 0 0 0 171.80273 199.31445 L 171.74609 196.81836 z "
         style="color:#000000;font-style:normal;font-variant:normal;font-weight:normal;font-stretch:normal;font-size:medium;line-height:normal;font-family:sans-serif;font-variant-ligatures:normal;font-variant-position:normal;font-variant-caps:normal;font-variant-numeric:normal;font-variant-alternates:normal;font-variant-east-asian:normal;font-feature-settings:normal;font-variation-settings:normal;text-indent:0;text-align:start;text-decoration:none;text-decoration-line:none;text-decoration-style:solid;text-decoration-color:#000000;letter-spacing:normal;word-spacing:normal;text-transform:none;writing-mode:lr-tb;direction:ltr;text-orientation:mixed;dominant-baseline:auto;baseline-shift:baseline;text-anchor:start;white-space:normal;shape-padding:0;shape-margin:0;inline-size:0;clip-rule:nonzero;display:inline;overflow:visible;visibility:visible;isolation:auto;mix-blend-mode:normal;color-interpolation:sRGB;color-interpolation-filters:linearRGB;solid-color:#000000;solid-opacity:1;vector-effect:none;fill:#15e7be;fill-opacity:1;fill-rule:nonzero;stroke:none;stroke-width:2;stroke-linecap:round;stroke-linejoin:round;stroke-miterlimit:4;stroke-dasharray:none;stroke-dashoffset:0;stroke-opacity:1;color-rendering:auto;image-rendering:auto;shape-rendering:auto;text-rendering:auto;enable-background:accumulate;stop-color:#000000;stop-opacity:1;opacity:1" />
      <path
         id="path1964"
         d="M 186.79492 337.79883 C 185.15854 337.79882 183.81054 339.14682 183.81055 340.7832 C 183.81055 342.41958 185.15854 343.76758 186.79492 343.76758 C 188.15584 343.76757 189.13191 342.74738 189.48438 341.49219 A 1 1 0 0 0 189.7793 340.7832 A 1 1 0 0 0 189.48438 340.07422 C 189.13191 338.81902 188.15584 337.79883 186.79492 337.79883 z M 186.79492 339.79883 C 187.35042 339.79883 187.7793 340.2277 187.7793 340.7832 C 187.7793 341.3387 187.35042 341.76758 186.79492 341.76758 C 186.23942 341.76758 185.81055 341.3387 185.81055 340.7832 C 185.81055 340.2277 186.23942 339.79883 186.79492 339.79883 z "
         style="color:#000000;font-style:normal;font-variant:normal;font-weight:normal;font-stretch:normal;font-size:medium;line-height:normal;font-family:sans-serif;font-variant-ligatures:normal;font-variant-position:normal;font-variant-caps:normal;font-variant-numeric:normal;font-variant-alternates:normal;font-variant-east-asian:normal;font-feature-settings:normal;font-variation-settings:normal;text-indent:0;text-align:start;text-decoration:none;text-decoration-line:none;text-decoration-style:solid;text-decoration-color:#000000;letter-spacing:normal;word-spacing:normal;text-transform:none;writing-mode:lr-tb;direction:ltr;text-orientation:mixed;dominant-baseline:auto;baseline-shift:baseline;text-anchor:start;white-space:normal;shape-padding:0;shape-margin:0;inline-size:0;clip-rule:nonzero;display:inline;overflow:visible;visibility:visible;isolation:auto;mix-blend-mode:normal;color-interpolation:sRGB;color-interpolation-filters:linearRGB;solid-color:#000000;solid-opacity:1;vector-effect:none;fill:#15e7be;fill-opacity:1;fill-rule:nonzero;stroke:none;stroke-width:2;stroke-linecap:round;stroke-linejoin:round;stroke-miterlimit:4;stroke-dasharray:none;stroke-dashoffset:0;stroke-opacity:1;color-rendering:auto;image-rendering:auto;shape-rendering:auto;text-rendering:auto;enable-background:accumulate;stop-color:#000000;stop-opacity:1;opacity:1" />
      <path
         id="path1956"
         d="M 161.13086 411.88281 C 159.49447 411.88281 158.14648 413.2308 158.14648 414.86719 C 158.14649 416.50357 159.49448 417.85157 161.13086 417.85156 C 162.4916 417.85156 163.46573 416.83112 163.81836 415.57617 A 1 1 0 0 0 164.11523 414.86719 A 1 1 0 0 0 163.81836 414.15625 C 163.46513 412.9022 162.49095 411.88282 161.13086 411.88281 z M 161.13086 413.88281 C 161.68636 413.88281 162.11524 414.31169 162.11523 414.86719 C 162.11523 415.42269 161.68636 415.85156 161.13086 415.85156 C 160.57536 415.85156 160.14649 415.42269 160.14648 414.86719 C 160.14648 414.31169 160.57536 413.88281 161.13086 413.88281 z "
         style="color:#000000;font-style:normal;font-variant:normal;font-weight:normal;font-stretch:normal;font-size:medium;line-height:normal;font-family:sans-serif;font-variant-ligatures:normal;font-variant-position:normal;font-variant-caps:normal;font-variant-numeric:normal;font-variant-alternates:normal;font-variant-east-asian:normal;font-feature-settings:normal;font-variation-settings:normal;text-indent:0;text-align:start;text-decoration:none;text-decoration-line:none;text-decoration-style:solid;text-decoration-color:#000000;letter-spacing:normal;word-spacing:normal;text-transform:none;writing-mode:lr-tb;direction:ltr;text-orientation:mixed;dominant-baseline:auto;baseline-shift:baseline;text-anchor:start;white-space:normal;shape-padding:0;shape-margin:0;inline-size:0;clip-rule:nonzero;display:inline;overflow:visible;visibility:visible;isolation:auto;mix-blend-mode:normal;color-interpolation:sRGB;color-interpolation-filters:linearRGB;solid-color:#000000;solid-opacity:1;vector-effect:none;fill:#15e7be;fill-opacity:1;fill-rule:nonzero;stroke:none;stroke-width:2;stroke-linecap:round;stroke-linejoin:round;stroke-miterlimit:4;stroke-dasharray:none;stroke-dashoffset:0;stroke-opacity:1;color-rendering:auto;image-rendering:auto;shape-rendering:auto;text-rendering:auto;enable-background:accumulate;stop-color:#000000;stop-opacity:1;opacity:1" />
    </g>
  </g>
</svg>
