<?xml version="1.0" encoding="UTF-8" standalone="no"?>
<svg
   xmlns:dc="http://purl.org/dc/elements/1.1/"
   xmlns:cc="http://creativecommons.org/ns#"
   xmlns:rdf="http://www.w3.org/1999/02/22-rdf-syntax-ns#"
   xmlns:svg="http://www.w3.org/2000/svg"
   xmlns="http://www.w3.org/2000/svg"
   id="svg1233"
   version="1.1"
   viewBox="0 0 102.25243 100"
   height="100mm"
   width="102.25243mm">
  <defs
     id="defs1227" />
  <metadata
     id="metadata1230">
    <rdf:RDF>
      <cc:Work
         rdf:about="">
        <dc:format>image/svg+xml</dc:format>
        <dc:type
           rdf:resource="http://purl.org/dc/dcmitype/StillImage" />
        <dc:title></dc:title>
      </cc:Work>
    </rdf:RDF>
  </metadata>
  <g
     transform="translate(31.933614,-133.48214)"
     id="layer1">
    <g
       transform="matrix(0.84256396,0,0,0.84256396,-75.110804,14.950918)"
       id="g1610">
      <g
         id="g1192"
         transform="translate(211.58454,-84.896821)">
        <path
           id="path995"
           style="fill:#30414d;fill-opacity:1;stroke:none;stroke-width:0.264583px;stroke-linecap:butt;stroke-linejoin:miter;stroke-opacity:1"
           d="m -95.939383,239.10213 c -21.502447,0 -38.847757,17.3453 -38.847757,38.84775 v 1.57407 c -0.42773,0.37832 -0.78405,0.84381 -1.07125,1.35289 -0.5407,0.95841 -0.87879,2.09318 -1.06919,3.29024 -0.38079,2.39411 -0.19132,5.031 0.66094,7.00939 0.44183,1.02564 1.22906,1.86465 2.1575,2.59157 -2.29003,2.9646 -3.82072,7.03284 -3.73828,13.12736 l 0.0155,1.12293 1.11311,-0.14469 c 1.45517,-0.18839 3.06123,-0.95448 4.7129,-1.84382 -1.57098,3.65194 -2.6797,7.37618 -2.90009,11.21896 l -0.10955,1.91409 1.63297,-1.00614 c 5.49674,-3.39033 10.94381,-5.04913 16.39797,-5.31854 4.54742,3.51455 10.00255,5.91295 15.96543,6.78822 v 2.9993 h -9.84177 c -3.83797,0 -6.04749,2.09007 -7.06469,4.09742 -1.0172,2.00734 -1.03146,3.98633 -1.03146,3.98633 l 2.00039,0.0258 c 0,0 0.0358,-1.56882 0.81649,-3.10937 0.78066,-1.54055 2.11707,-3.00033 5.27927,-3.00033 h 10.57765 c 0.312077,0.17457 0.848857,0.44626 1.629347,0.70538 1.23787,0.41095 3.08343,0.80822 5.58002,0.80822 2.49659,0 4.34423,-0.39727 5.58209,-0.80822 0.78067,-0.25917 1.31732,-0.53082 1.62936,-0.70538 h 10.57558 c 3.1622,0 4.50067,1.45978 5.28133,3.00033 0.78065,1.54055 0.81442,3.10937 0.81442,3.10937 l 1.99988,-0.0258 c 0,0 -0.0122,-1.97899 -1.02939,-3.98633 -1.0172,-2.00735 -3.22827,-4.09742 -7.06624,-4.09742 h -9.84178 v -2.99878 c 5.95666,-0.87416 11.40632,-3.26902 15.95097,-6.77737 5.38838,0.29933 10.77049,1.95764 16.20108,5.30717 l 1.63297,1.00614 -0.10955,-1.91409 c -0.22039,-3.84278 -1.33119,-7.56702 -2.90215,-11.21896 1.6522,0.88972 3.25935,1.65537 4.71496,1.84382 l 1.11311,0.14469 0.0155,-1.12293 c 0.0815,-6.02543 -1.41436,-10.06864 -3.66127,-13.02452 0.98688,-0.75044 1.82988,-1.61963 2.29288,-2.69441 0.85226,-1.97839 1.04174,-4.61528 0.66094,-7.00939 -0.1904,-1.19706 -0.52849,-2.33183 -1.06918,-3.29024 -0.0937,-0.16605 -0.19729,-0.3254 -0.30541,-0.48111 v -2.44585 c 0,-21.50245 -17.34687,-38.84775 -38.84931,-38.84775 z m 0,2.25774 h 6.49624 c 20.29054,0 36.59001,16.29946 36.59001,36.59001 v 0.76585 c -0.25743,-0.0587 -0.51549,-0.0725 -0.76532,-0.0491 -0.31011,0.0291 -0.60734,0.11201 -0.87489,0.22582 -0.53509,0.22763 -0.99252,0.569 -1.41386,0.94982 -0.01,0.009 -0.0184,0.0182 -0.0279,0.0269 0.0196,-2.31984 -0.22221,-4.48397 -0.22221,-4.48397 0,0 -0.91009,4.25911 -1.71565,6.45336 -7.42444,-11.33301 -16.30778,-19.20087 -27.16217,-21.76767 l -2.01951,-0.47646 0.8847,1.87689 c 1.8674,3.95868 3.28527,7.96117 4.30464,12.00599 -5.37243,-3.02541 -8.23382,-6.92292 -11.07219,-9.55653 l -0.7201,-2.31219 -0.8891,3.41342 c 1.13085,2.84236 2.11133,6.06039 2.60345,8.7483 -6.1606,-3.27487 -11.288517,-7.1329 -14.894687,-13.73818 l -0.83199,-1.52342 -0.90021,1.48208 c -2.59858,4.27985 -4.55221,8.50516 -8.2088,12.25817 -0.37919,-2.91993 -1.14838,-5.45414 -1.72289,-7.89254 l -1.14825,-4.87154 -0.81287,4.93975 c -0.76667,4.66368 -2.37935,7.48055 -4.08399,10.58178 -1.22395,2.22672 -2.35947,4.88362 -3.27525,8.04292 -1.0703,-2.7479 -2.41122,-7.67239 -2.41122,-7.67239 0,0 -0.0812,2.15796 0.18603,4.94905 -0.42473,-0.44477 -0.86954,-0.85201 -1.36219,-1.16324 -0.32825,-0.20737 -0.70797,-0.38735 -1.11931,-0.45785 v -0.755 c 0,-20.29055 16.29896,-36.59001 36.589497,-36.59001 z m -11.706777,21.02559 c 1.87213,3.03964 4.06871,5.53237 6.52363,7.66103 -0.8086,0.11253 -1.88205,0.20205 -3.26233,0.20205 -4.25647,0 -5.75366,3.31556 -5.75366,3.31556 0,0 2.29767,-1.31516 5.75366,-1.31516 2.61036,0 4.36113,-0.34267 5.269437,-0.58033 2.50074,1.88015 5.22775,3.46298 8.12716,4.90461 l 1.54719,0.76947 -0.10387,-1.72496 c -0.12625,-2.08631 -0.80694,-4.54496 -1.61489,-7.00164 2.34897,2.50546 5.16671,5.30493 9.91722,7.56801 -1.73972,0.0128 -3.92116,0.52361 -4.93354,1.63194 -1.76633,1.93373 -2.43159,7.19374 -1.26918,6.88227 1.16242,-0.31147 9.00476,-6.56241 8.68629,-7.75095 -0.0332,-0.12405 -0.1241,-0.23272 -0.25683,-0.32763 l -0.25735,-1.2733 c -0.87691,-4.34021 -2.41974,-8.56287 -4.25969,-12.72843 9.86626,3.01195 18.14488,10.66136 25.16022,21.9568 l 0.9648,1.55288 0.78704,-1.65054 c 0.15853,-0.33191 0.2811,-0.73726 0.37827,-1.18598 0.47694,-0.65369 1.08436,-1.43018 1.67638,-1.96525 0.31642,-0.28599 0.62561,-0.49534 0.85576,-0.59325 0.23016,-0.0979 0.33973,-0.0939 0.4346,-0.0636 0.43898,0.14036 0.86747,0.5198 1.24592,1.19062 0.37845,0.67083 0.67271,1.6001 0.83509,2.62103 0.32477,2.04186 0.10124,4.45745 -0.52193,5.90403 -0.36304,0.84273 -1.51406,1.88465 -2.91765,2.74195 -1.4036,0.85731 -3.01692,1.56585 -4.19044,2.02624 l -0.4377,0.17156 -0.14676,0.44701 c -4.24966,12.93336 -16.37939,22.225 -30.78727,22.225 h -5.75366 c -14.407877,0 -26.537637,-9.29167 -30.787257,-22.225 l -0.14676,-0.44701 -0.4377,-0.17156 c -1.17353,-0.46039 -2.78685,-1.16893 -4.19045,-2.02624 -1.40359,-0.8573 -2.55461,-1.89922 -2.91765,-2.74195 -0.62317,-1.44658 -0.8467,-3.86217 -0.52193,-5.90403 0.16238,-1.02093 0.45664,-1.9502 0.83509,-2.62103 0.37546,-0.66552 0.80025,-1.04348 1.23559,-1.18649 -0.005,0.007 0.1257,0.005 0.40359,0.18035 0.31759,0.20064 0.7394,0.57998 1.15548,1.03301 0.69071,0.75204 1.36435,1.67636 1.87017,2.38022 0.0626,0.28922 0.12986,0.57825 0.20257,0.86558 l 1.6459,6.97374 0.73639,-4.92167 c 0.76512,-5.10617 2.3792,-8.1312 4.07417,-11.21482 1.21793,-2.21575 2.35656,-4.72092 3.27732,-7.66206 0.52794,1.91786 0.99935,3.85523 1.04541,6.12107 l 0.0429,2.14251 1.61489,-1.41025 c 4.55666,-3.97949 6.70773,-8.50395 9.16637,-12.77545 z m 2.83703,13.79709 c -1.34013,-0.024 -2.43932,0.24483 -2.57865,0.76481 -0.31847,1.18854 7.523877,7.43948 8.686287,7.75095 1.16242,0.31147 0.49716,-4.94854 -1.26917,-6.88227 -0.993557,-1.08772 -3.115437,-1.60265 -4.838467,-1.63349 z m -17.50229,3.04271 c 0.32218,1.54314 0.0571,3.33463 1.87844,4.30413 -1.93869,-0.89362 -3.19107,-1.80841 -4.03903,-3.01636 0.3503,1.67783 9e-5,3.65204 2.39986,4.54081 -0.60364,0.58514 -1.00356,1.0356 -1.00356,1.0356 0,0 3.43695,-0.93872 5.20175,-1.69292 0.5627,-0.24048 1.21323,-0.45939 1.95233,-0.61599 -0.45371,0.93036 -0.69712,1.95956 -0.69711,3.01533 1e-4,3.80223 3.1038,6.90593 6.90604,6.90603 3.16215,-8e-5 5.83821,-2.14765 6.65024,-5.05757 1.01929,1.18782 2.35954,2.16576 2.35954,2.16576 0,0 0.0999,-2.1154 -1.16478,-3.87418 -0.28233,-0.39264 -0.62049,-0.79711 -1.01389,-1.20044 l -10e-4,-0.0119 -0.26355,-0.25425 c -0.0247,-0.0238 -0.0534,-0.0471 -0.0785,-0.0708 -0.11586,-0.10903 -0.23625,-0.21751 -0.36122,-0.32557 -0.05,-0.0433 -0.0984,-0.0866 -0.14986,-0.1297 -0.15529,-0.12975 -0.31763,-0.25831 -0.48679,-0.38551 -0.2752,-0.20718 -0.56782,-0.41063 -0.8816,-0.60772 -0.002,-0.001 -0.005,-0.003 -0.007,-0.004 -0.16288,-0.10217 -0.33069,-0.20262 -0.50437,-0.30127 -9.8e-4,-5.6e-4 -0.002,-9.9e-4 -0.003,-0.002 -0.3364,-0.19099 -0.69378,-0.37447 -1.07228,-0.54932 -0.0332,-0.0154 -0.0667,-0.0308 -0.10025,-0.046 -0.16799,-0.0761 -0.33981,-0.15084 -0.51625,-0.22324 -0.0199,-0.008 -0.0389,-0.0167 -0.0589,-0.0248 -0.19279,-0.0782 -0.39127,-0.15351 -0.59428,-0.22686 -0.0442,-0.016 -0.0897,-0.0313 -0.13436,-0.047 -0.16151,-0.0568 -0.32603,-0.11234 -0.49403,-0.16588 -0.0592,-0.0189 -0.11824,-0.0379 -0.17828,-0.0563 -0.19314,-0.0593 -0.39001,-0.11632 -0.5917,-0.17105 -0.0198,-0.005 -0.038,-0.0117 -0.0579,-0.0171 -0.0206,-0.006 -0.0404,-0.01 -0.061,-0.015 -0.2043,-0.054 -0.40575,-0.10282 -0.60564,-0.14831 -0.062,-0.0141 -0.1234,-0.027 -0.185,-0.0403 -0.17199,-0.0372 -0.34247,-0.0712 -0.51108,-0.10231 -0.0479,-0.009 -0.096,-0.0186 -0.14367,-0.0269 -0.92398,-0.16227 -1.7969,-0.23715 -2.61379,-0.23926 h -0.002 l -0.98857,-0.002 -5.2e-4,0.0424 c -0.07,0.005 -0.1418,0.008 -0.21084,0.0134 -1.27774,0.10803 -2.39441,0.38448 -3.34088,0.73123 -2.04906,-0.92166 -3.35617,-1.85636 -4.23178,-3.10369 z m 58.476017,0 c -0.87561,1.24733 -2.18272,2.18203 -4.23178,3.10369 -0.94648,-0.34675 -2.06314,-0.6232 -3.34088,-0.73123 -0.0652,-0.005 -0.133,-0.008 -0.19896,-0.0124 v -0.0434 l -1.00046,0.002 h -0.004 c -0.81678,0.002 -1.68898,0.077 -2.61225,0.23926 -0.0486,0.008 -0.0978,0.0184 -0.14676,0.0274 -0.16478,0.0305 -0.33116,0.0635 -0.49919,0.0997 -0.0671,0.0144 -0.13395,0.0286 -0.20154,0.0439 -0.18971,0.0433 -0.38142,0.0902 -0.57516,0.14108 -0.0284,0.007 -0.0558,0.0131 -0.0842,0.0207 -0.0276,0.007 -0.0532,0.0158 -0.0806,0.0233 -0.19156,0.0522 -0.37891,0.10688 -0.56275,0.16329 -0.0649,0.0199 -0.12876,0.0405 -0.19275,0.061 -0.16321,0.0521 -0.3235,0.1055 -0.4806,0.16071 -0.0468,0.0165 -0.0943,0.0329 -0.14055,0.0496 -0.20252,0.0732 -0.40038,0.14835 -0.59274,0.22635 -0.0217,0.009 -0.0425,0.018 -0.0641,0.0269 -0.17275,0.0709 -0.34074,0.14409 -0.50539,0.21859 -0.0367,0.0166 -0.0733,0.0333 -0.10956,0.0501 -0.95927,0.44325 -1.77869,0.9442 -2.47788,1.47174 -0.15885,0.11976 -0.31181,0.24075 -0.45837,0.36277 -0.0701,0.0585 -0.13576,0.11734 -0.20309,0.17622 -0.10346,0.0902 -0.20416,0.1804 -0.30127,0.2713 -0.0328,0.0308 -0.0698,0.0612 -0.1018,0.092 l -0.26356,0.25425 -0.001,0.0129 c -0.39284,0.4029 -0.73031,0.80719 -1.01234,1.19941 -1.26464,1.75878 -1.16478,3.87418 -1.16478,3.87418 0,0 1.33982,-0.97728 2.35902,-2.16473 0.81286,2.90937 3.48953,5.05646 6.65128,5.05654 3.80223,-1e-4 6.90646,-3.1038 6.90656,-6.90603 1e-5,-1.05606 -0.24505,-2.08523 -0.6997,-3.01533 0.73971,0.15662 1.39081,0.37535 1.95389,0.61599 1.7648,0.7542 5.20174,1.69292 5.20174,1.69292 0,0 -0.39992,-0.45046 -1.00355,-1.0356 2.39977,-0.88877 2.04956,-2.86298 2.39985,-4.54081 -0.84796,1.20795 -2.10034,2.12274 -4.03903,3.01636 1.82139,-0.9695 1.55626,-2.76099 1.87844,-4.30413 z m -49.496717,4.34754 c 0.8803,0.0156 1.82906,0.10751 2.87424,0.34571 0.17273,0.0402 0.34612,0.0811 0.52349,0.12868 3.7e-4,10e-5 6.6e-4,4.2e-4 10e-4,5.1e-4 0.29031,0.0778 0.56693,0.16087 0.83354,0.24805 0.028,0.009 0.055,0.0187 0.0827,0.0279 1.91641,0.63897 3.23292,1.50588 4.20491,2.38228 5.7e-4,0.0301 0.004,0.0598 0.004,0.0899 -7e-5,2.72139 -2.1827,4.90609 -4.90409,4.90616 -2.72139,-7e-5 -4.90609,-2.18477 -4.90616,-4.90616 -2e-5,-1.20467 0.49299,-2.3286 1.28674,-3.22306 z m 40.517937,0 c 0.79375,0.89446 1.28675,2.01839 1.28674,3.22306 -7e-5,2.72139 -2.18477,4.90608 -4.90616,4.90616 -2.72139,-7e-5 -4.90609,-2.18477 -4.90616,-4.90616 2e-5,-0.0301 0.005,-0.0598 0.006,-0.0899 0.82222,-0.74116 1.89373,-1.47543 3.36311,-2.07119 -0.69949,0.49751 -1.11501,1.30274 -1.11518,2.16111 3e-5,1.46495 1.1876,2.65252 2.65255,2.65255 0.12135,4e-5 0.24256,-0.008 0.36277,-0.0248 -0.31646,-0.24827 -0.50128,-0.6282 -0.50126,-1.03043 8e-5,-0.72338 0.58662,-1.30969 1.31,-1.30948 0.54523,2.1e-4 1.03329,0.33821 1.22525,0.84853 0.16858,-0.35512 0.25613,-0.74326 0.25631,-1.13636 -3e-5,-1.46516 -1.18791,-2.65282 -2.65307,-2.65256 -0.003,-10e-6 -0.007,-10e-6 -0.0103,0 -0.0326,4e-4 -0.0651,0.001 -0.0977,0.003 0.11078,-0.0322 0.21412,-0.0675 0.32866,-0.0982 0.0299,-0.008 0.0587,-0.0145 0.0884,-0.0222 0.14571,-0.0382 0.28946,-0.0727 0.43201,-0.10594 1.04685,-0.23891 1.9969,-0.33111 2.87838,-0.34674 z m -36.899557,0.5705 c -1.46495,3e-5 -2.65252,1.18761 -2.65255,2.65256 3e-5,1.46495 1.1876,2.65252 2.65255,2.65255 1.46515,2.6e-4 2.65304,-1.1874 2.65307,-2.65255 -3e-5,-1.46516 -1.18791,-2.65282 -2.65307,-2.65256 z m -12.13931,4.87412 c 0,0 0.3333,3.60348 1.49759,4.96869 1.16428,1.36523 2.83663,3.03321 4.93768,4.24626 2.2038,1.27236 4.42357,1.26504 6.03684,0.93947 1.61327,-0.32557 3.37809,-3.01635 3.37809,-3.01635 0,0 -2.49117,0.79626 -3.77445,1.05523 -1.28327,0.25897 -2.93694,0.27252 -4.64054,-0.71106 -1.80637,-1.04291 -3.34681,-2.55814 -4.41627,-3.81217 -1.06946,-1.25403 -3.01894,-3.67007 -3.01894,-3.67007 z m 23.757207,2.29289 c 0,0 -1.58286,2.98896 -2.353337,4.00854 -0.7705,1.01958 -2.88148,3.7083 -2.88148,3.7083 0,0 3.556557,-1.28488 4.477237,-2.50321 0.92069,-1.21832 0.75758,-5.21363 0.75758,-5.21363 z m -34.357077,3.58324 c 1.3788,0.83077 2.81415,1.46856 3.97909,1.93994 1.889,5.49353 5.12433,10.35013 9.31416,14.17949 -4.48218,0.51829 -8.96354,1.98889 -13.42037,4.44262 0.47092,-3.8003 1.52917,-7.53193 3.4339,-11.18536 l 1.5937,-3.05459 -2.9807,1.72651 c -1.98441,1.14962 -3.79764,2.03298 -5.23637,2.51922 0.16264,-4.94457 1.43497,-8.16776 3.31659,-10.56783 z m 78.612767,0.0863 c 1.84516,2.39109 3.08974,5.59527 3.25045,10.48153 -1.43873,-0.48624 -3.25195,-1.3696 -5.23637,-2.51922 l -2.98018,-1.72651 1.59163,3.05459 c 1.90477,3.65351 2.96455,7.38498 3.43545,11.18536 -4.39471,-2.41967 -8.81389,-3.88253 -13.23382,-4.41988 4.20217,-3.83294 7.44717,-8.69759 9.34001,-14.20223 1.12386,-0.45476 2.49918,-1.06537 3.83283,-1.85364 z m -64.804817,5.84667 c 0,0 0.17479,3.30365 0.67954,4.115 0.50476,0.81135 1.07383,1.59833 1.71876,2.34611 0.64494,0.74779 1.36648,1.4561 2.17403,2.11098 0.80754,0.65487 4.90874,1.59629 4.90874,1.59629 0,0 -2.9376,-2.57144 -3.64939,-3.14865 -0.71178,-0.57722 -1.34601,-1.20058 -1.91771,-1.86345 -0.5717,-0.66288 -1.08019,-1.366 -1.53531,-2.09755 -0.45512,-0.73157 -2.37866,-3.05873 -2.37866,-3.05873 z m 20.475747,0.84543 c 0,0 -4.064967,1.97535 -5.199677,3.20549 -1.13472,1.23015 -0.44804,5.54591 -0.44804,5.54591 0,0 1.00144,-3.19599 1.91875,-4.19044 0.91731,-0.99445 3.728967,-4.56096 3.728967,-4.56096 z m 18.55494,2.06912 c 0,0 -5.91802,4.27654 -11.14351,4.5465 -5.58149,0.28835 -8.9023,-0.40308 -8.9023,-0.40308 0,0 2.99714,2.71184 9.00617,2.4014 6.36504,-0.32882 11.03964,-6.54482 11.03964,-6.54482 z m -19.40502,16.11943 c 1.01099,0.0888 2.03437,0.13591 3.06906,0.13591 h 5.75366 c 1.03432,0 2.05739,-0.0467 3.06803,-0.13539 v 3.13573 c -0.17826,0.10466 -0.26792,0.19656 -0.99426,0.4377 -1.03918,0.345 -2.66528,0.70486 -4.95111,0.70486 -2.28584,0 -3.91194,-0.35986 -4.95112,-0.70486 -0.72771,-0.24159 -0.81652,-0.33532 -0.99426,-0.43977 z" />
        <path
           id="path881"
           style="fill:#608199;fill-opacity:1;stroke:none;stroke-width:0.264583px;stroke-linecap:butt;stroke-linejoin:miter;stroke-opacity:1"
           d="m -95.939133,239.10213 c -21.502437,0 -38.847747,17.34531 -38.847747,38.84775 v 1.57406 c -0.42773,0.37832 -0.78406,0.84381 -1.07126,1.35289 -0.54069,0.95841 -0.8793,2.09318 -1.0697,3.29024 -0.38079,2.39411 -0.1908,5.031 0.66146,7.00939 0.44183,1.02564 1.22906,1.86466 2.15749,2.59158 -2.29002,2.9646 -3.82071,7.03284 -3.73827,13.12736 l 0.015,1.12293 1.11362,-0.1447 c 1.45517,-0.18838 3.06122,-0.95447 4.71289,-1.84381 -1.57097,3.65194 -2.68021,7.37617 -2.9006,11.21895 l -0.10903,1.9141 1.63246,-1.00614 c 5.49673,-3.39033 10.9438,-5.04913 16.39796,-5.31854 4.54742,3.51455 10.00255,5.91295 15.96543,6.78821 v 2.99931 h -9.84177 c -3.83797,0 -6.04749,2.09007 -7.06469,4.09742 -1.01719,2.00734 -1.03094,3.98632 -1.03094,3.98632 l 1.99988,0.0258 c 0,0 0.0358,-1.56882 0.81648,-3.10937 0.78066,-1.54055 2.11708,-3.00034 5.27927,-3.00034 h 10.57765 c 0.312077,0.17457 0.848857,0.44627 1.629347,0.70539 1.21986,0.40497 3.03302,0.79483 5.47461,0.80615 v -1.99988 c -2.22845,-0.0112 -3.82265,-0.36332 -4.84519,-0.7028 -0.7277,-0.24159 -0.81703,-0.33532 -0.99477,-0.43977 v -3.13417 c 1.01099,0.0888 2.03437,0.13591 3.06906,0.13591 h 2.7709 v -1.99988 h -2.7709 c -14.407877,0 -26.537637,-9.29167 -30.787257,-22.225 l -0.14625,-0.447 -0.43821,-0.17156 c -1.17353,-0.4604 -2.78685,-1.16893 -4.19044,-2.02624 -1.4036,-0.8573 -2.5541,-1.89922 -2.91714,-2.74195 -0.62317,-1.44658 -0.84722,-3.86217 -0.52245,-5.90403 0.16239,-1.02093 0.45664,-1.9502 0.83509,-2.62103 0.37546,-0.66552 0.80025,-1.04348 1.23559,-1.18649 -0.005,0.007 0.1257,0.005 0.40359,0.18035 0.31759,0.20064 0.73991,0.57998 1.156,1.03301 0.69071,0.75204 1.36435,1.67636 1.87017,2.38022 0.0626,0.28922 0.12935,0.57825 0.20206,0.86558 l 1.64641,6.97373 0.73639,-4.92166 c 0.76512,-5.10617 2.3792,-8.1312 4.07417,-11.21482 1.21792,-2.21575 2.35656,-4.72092 3.27732,-7.66206 0.52794,1.91785 0.99935,3.85523 1.04541,6.12107 l 0.0424,2.1425 1.61488,-1.41025 c 4.55666,-3.97949 6.70825,-8.50394 9.16689,-12.77545 1.87213,3.03965 4.0682,5.53238 6.52311,7.66104 -0.8086,0.11253 -1.88153,0.20205 -3.26181,0.20205 -4.25647,0 -5.75418,3.31556 -5.75418,3.31556 0,0 2.29819,-1.31516 5.75418,-1.31516 2.61036,0 4.36061,-0.34267 5.268917,-0.58033 1.86055,1.39883 3.84722,2.63273 5.93608,3.7667 v -2.3394 c -5.6109,-3.13597 -10.296127,-6.90585 -13.658077,-13.0638 l -0.83199,-1.52342 -0.90021,1.48208 c -2.59859,4.27985 -4.55222,8.50516 -8.2088,12.25817 -0.37919,-2.91993 -1.14838,-5.45415 -1.72289,-7.89255 l -1.14825,-4.87153 -0.81287,4.93975 c -0.76667,4.66368 -2.37935,7.48055 -4.08399,10.58178 -1.22395,2.22672 -2.35948,4.88362 -3.27525,8.04292 -1.0703,-2.7479 -2.41123,-7.6724 -2.41123,-7.6724 0,0 -0.0812,2.15796 0.18604,4.94905 -0.42473,-0.44477 -0.86955,-0.852 -1.36219,-1.16323 -0.32826,-0.20737 -0.70797,-0.38736 -1.11931,-0.45786 v -0.75499 c 0,-20.29054 16.29895,-36.59001 36.589487,-36.59001 h 2.75953 v -2.25774 z m -8.870257,37.08042 c -1.34013,-0.024 -2.4388,0.24483 -2.57813,0.76481 -0.31847,1.18854 7.523867,7.43947 8.686287,7.75094 1.16241,0.31147 0.49664,-4.94853 -1.26969,-6.88226 -0.993557,-1.08772 -3.115427,-1.60265 -4.838467,-1.63349 z m -17.50177,3.04167 -5.2e-4,10e-4 c 0.32218,1.54314 0.0571,3.33462 1.87844,4.30413 -1.93869,-0.89363 -3.19107,-1.80841 -4.03903,-3.01636 0.3503,1.67783 6e-4,3.65204 2.40037,4.54081 -0.60363,0.58514 -1.00355,1.0356 -1.00355,1.0356 0,0 3.43643,-0.93872 5.20123,-1.69292 0.5627,-0.24048 1.21375,-0.45939 1.95285,-0.61599 -0.45371,0.93036 -0.69713,1.95955 -0.69711,3.01532 1e-4,3.80223 3.1038,6.90594 6.90603,6.90604 3.16215,-8e-5 5.8377,-2.14765 6.64973,-5.05757 1.0193,1.18782 2.35954,2.16576 2.35954,2.16576 0,0 0.10038,-2.11541 -1.16427,-3.87418 -0.28233,-0.39265 -0.62049,-0.79712 -1.01389,-1.20045 l -0.001,-0.0119 -0.26355,-0.25424 c -0.0247,-0.0238 -0.0534,-0.0471 -0.0786,-0.0708 -0.11585,-0.10903 -0.23625,-0.2175 -0.36122,-0.32556 -0.05,-0.0433 -0.0984,-0.0866 -0.14986,-0.12971 -0.15529,-0.12975 -0.31763,-0.2583 -0.48679,-0.38551 -0.2752,-0.20717 -0.56782,-0.41062 -0.8816,-0.60771 -0.002,-10e-4 -0.005,-0.003 -0.007,-0.004 -0.16287,-0.10217 -0.33069,-0.20263 -0.50436,-0.30128 -9.9e-4,-5.6e-4 -0.002,-10e-4 -0.003,-0.002 -0.33641,-0.19099 -0.69378,-0.37447 -1.07229,-0.54932 -0.0332,-0.0154 -0.0667,-0.0308 -0.10025,-0.046 -0.16799,-0.0761 -0.3398,-0.15084 -0.51625,-0.22324 -0.0199,-0.008 -0.0389,-0.0167 -0.0589,-0.0248 -0.19278,-0.0782 -0.39127,-0.15351 -0.59428,-0.22686 -0.0442,-0.016 -0.0897,-0.0313 -0.13435,-0.047 -0.16151,-0.0568 -0.32604,-0.11234 -0.49403,-0.16588 -0.0592,-0.0189 -0.11825,-0.0379 -0.17829,-0.0563 -0.19314,-0.0593 -0.39001,-0.11632 -0.59169,-0.17104 -0.0198,-0.005 -0.038,-0.0117 -0.0579,-0.0171 -0.0206,-0.006 -0.0404,-0.01 -0.061,-0.015 -0.2043,-0.054 -0.40575,-0.10282 -0.60565,-0.14831 -0.062,-0.0141 -0.12339,-0.027 -0.185,-0.0403 -0.17198,-0.0372 -0.34247,-0.0712 -0.51108,-0.10232 -0.0479,-0.009 -0.096,-0.0186 -0.14366,-0.0269 -0.92398,-0.16226 -1.7969,-0.23715 -2.61379,-0.23926 h -0.002 l -0.98857,-0.002 -5.2e-4,0.0424 c -0.07,0.005 -0.14179,0.008 -0.21083,0.0134 -1.27774,0.10803 -2.39441,0.38447 -3.34089,0.73122 -2.04906,-0.92166 -3.35616,-1.85636 -4.23178,-3.10369 z m 8.97878,4.34857 h 5.2e-4 c 0.88029,0.0156 1.82854,0.10752 2.87372,0.34572 0.17273,0.0402 0.34663,0.0811 0.524,0.12867 l 5.2e-4,5.2e-4 c 0.11446,0.0307 0.21824,0.0654 0.32866,0.0977 -0.0363,-10e-4 -0.0727,-0.002 -0.10904,-0.002 -1.46495,3e-5 -2.65252,1.1876 -2.65255,2.65255 3e-5,1.46495 1.1876,2.65252 2.65255,2.65255 1.46536,5.4e-4 2.65356,-1.18719 2.65359,-2.65255 -2.2e-4,-0.85496 -0.4125,-1.6574 -1.10743,-2.15542 1.46471,0.59482 2.535,1.32583 3.35535,2.06551 5.8e-4,0.0301 0.004,0.0598 0.004,0.0899 -7e-5,2.72139 -2.1827,4.90609 -4.90409,4.90616 -2.72139,-7e-5 -4.90609,-2.18477 -4.90616,-4.90616 -2e-5,-1.20467 0.493,-2.3286 1.28674,-3.22306 z m -8.52093,5.44463 c 0,0 0.3333,3.60348 1.49759,4.96869 1.16428,1.36523 2.83715,3.0332 4.9382,4.24625 2.2038,1.27236 4.42305,1.26505 6.03632,0.93948 1.61327,-0.32557 3.37809,-3.01635 3.37809,-3.01635 0,0 -2.49066,0.79626 -3.77393,1.05523 -1.28327,0.25897 -2.93746,0.27251 -4.64106,-0.71107 -1.80637,-1.04291 -3.3463,-2.55814 -4.41575,-3.81217 -1.06946,-1.25403 -3.01946,-3.67006 -3.01946,-3.67006 z m 23.757207,2.29289 c 0,0 -1.58234,2.98896 -2.352827,4.00854 -0.77049,1.01958 -2.88199,3.7083 -2.88199,3.7083 0,0 3.557077,-1.28488 4.477757,-2.50321 0.92068,-1.21832 0.75706,-5.21363 0.75706,-5.21363 z m -34.357077,3.58324 c 1.3788,0.83077 2.81415,1.46855 3.97909,1.93993 1.889,5.49353 5.12485,10.35014 9.31468,14.1795 -4.48218,0.51829 -8.96406,1.98889 -13.42089,4.44262 0.47092,-3.8003 1.52917,-7.53193 3.4339,-11.18536 l 1.59422,-3.0546 -2.98122,1.72651 c -1.98441,1.14962 -3.79713,2.03299 -5.23585,2.51923 0.16263,-4.94457 1.43445,-8.16776 3.31607,-10.56783 z m 13.80795,5.93297 c 0,0 0.17479,3.30364 0.67954,4.11499 0.50476,0.81135 1.07435,1.59833 1.71928,2.34611 0.64493,0.74779 1.36596,1.45611 2.17351,2.11099 0.80755,0.65487 4.90926,1.59628 4.90926,1.59628 0,0 -2.93761,-2.57143 -3.64939,-3.14864 -0.71179,-0.57722 -1.34602,-1.20059 -1.91771,-1.86346 -0.57171,-0.66288 -1.08019,-1.36599 -1.53531,-2.09754 -0.45512,-0.73157 -2.37918,-3.05873 -2.37918,-3.05873 z m 20.475747,0.84543 c 0,0 -4.064957,1.97534 -5.199677,3.20548 -1.13472,1.23016 -0.44804,5.54592 -0.44804,5.54592 0,0 1.00144,-3.19599 1.91875,-4.19044 0.91731,-0.99445 3.728967,-4.56096 3.728967,-4.56096 z m -1.49035,6.21254 c 0,0 2.15776,1.95074 6.48023,2.35334 v -1.88257 c -4.10244,0.0209 -6.48023,-0.47077 -6.48023,-0.47077 z" />
        <path
           id="path2127"
           d="M -93.179688 225.57617 A 2 2 0 0 0 -95.179688 227.57617 L -95.179688 342.26172 A 2 2 0 0 0 -93.179688 344.26172 A 2 2 0 0 0 -91.179688 342.26172 L -91.179688 227.57617 A 2 2 0 0 0 -93.179688 225.57617 z "
           style="color:#000000;font-style:normal;font-variant:normal;font-weight:normal;font-stretch:normal;font-size:medium;line-height:normal;font-family:sans-serif;font-variant-ligatures:normal;font-variant-position:normal;font-variant-caps:normal;font-variant-numeric:normal;font-variant-alternates:normal;font-variant-east-asian:normal;font-feature-settings:normal;font-variation-settings:normal;text-indent:0;text-align:start;text-decoration:none;text-decoration-line:none;text-decoration-style:solid;text-decoration-color:#000000;letter-spacing:normal;word-spacing:normal;text-transform:none;writing-mode:lr-tb;direction:ltr;text-orientation:mixed;dominant-baseline:auto;baseline-shift:baseline;text-anchor:start;white-space:normal;shape-padding:0;shape-margin:0;inline-size:0;clip-rule:nonzero;display:inline;overflow:visible;visibility:visible;isolation:auto;mix-blend-mode:normal;color-interpolation:sRGB;color-interpolation-filters:linearRGB;solid-color:#000000;solid-opacity:1;vector-effect:none;fill:#15e7be;fill-opacity:1;fill-rule:nonzero;stroke:none;stroke-width:4;stroke-linecap:round;stroke-linejoin:miter;stroke-miterlimit:4;stroke-dasharray:none;stroke-dashoffset:0;stroke-opacity:1;color-rendering:auto;image-rendering:auto;shape-rendering:auto;text-rendering:auto;enable-background:accumulate;stop-color:#000000;stop-opacity:1;opacity:1" />
      </g>
      <path
         id="path2103"
         d="M 82.115234 147.59375 A 1 1 0 0 0 81.115234 148.59375 A 1 1 0 0 0 82.115234 149.59375 L 94.292969 149.59375 A 1 1 0 0 0 95.292969 148.59375 A 1 1 0 0 0 94.292969 147.59375 L 82.115234 147.59375 z M 101.68359 147.59375 A 1 1 0 0 0 100.68359 148.59375 A 1 1 0 0 0 101.68359 149.59375 L 107.38086 149.59375 A 1 1 0 0 0 108.38086 148.59375 A 1 1 0 0 0 107.38086 147.59375 L 101.68359 147.59375 z "
         style="color:#000000;font-style:normal;font-variant:normal;font-weight:normal;font-stretch:normal;font-size:medium;line-height:normal;font-family:sans-serif;font-variant-ligatures:normal;font-variant-position:normal;font-variant-caps:normal;font-variant-numeric:normal;font-variant-alternates:normal;font-variant-east-asian:normal;font-feature-settings:normal;font-variation-settings:normal;text-indent:0;text-align:start;text-decoration:none;text-decoration-line:none;text-decoration-style:solid;text-decoration-color:#000000;letter-spacing:normal;word-spacing:normal;text-transform:none;writing-mode:lr-tb;direction:ltr;text-orientation:mixed;dominant-baseline:auto;baseline-shift:baseline;text-anchor:start;white-space:normal;shape-padding:0;shape-margin:0;inline-size:0;clip-rule:nonzero;display:inline;overflow:visible;visibility:visible;isolation:auto;mix-blend-mode:normal;color-interpolation:sRGB;color-interpolation-filters:linearRGB;solid-color:#000000;solid-opacity:1;vector-effect:none;fill:#15e7be;fill-opacity:1;fill-rule:nonzero;stroke:none;stroke-width:2;stroke-linecap:round;stroke-linejoin:miter;stroke-miterlimit:4;stroke-dasharray:none;stroke-dashoffset:0;stroke-opacity:1;color-rendering:auto;image-rendering:auto;shape-rendering:auto;text-rendering:auto;enable-background:accumulate;stop-color:#000000;stop-opacity:1;opacity:1" />
      <path
         id="path2099"
         d="M 94.916016 151.0332 A 1 1 0 0 0 93.916016 152.0332 A 1 1 0 0 0 94.916016 153.0332 L 111.76367 153.0332 A 1 1 0 0 0 112.76367 152.0332 A 1 1 0 0 0 111.76367 151.0332 L 94.916016 151.0332 z "
         style="color:#000000;font-style:normal;font-variant:normal;font-weight:normal;font-stretch:normal;font-size:medium;line-height:normal;font-family:sans-serif;font-variant-ligatures:normal;font-variant-position:normal;font-variant-caps:normal;font-variant-numeric:normal;font-variant-alternates:normal;font-variant-east-asian:normal;font-feature-settings:normal;font-variation-settings:normal;text-indent:0;text-align:start;text-decoration:none;text-decoration-line:none;text-decoration-style:solid;text-decoration-color:#000000;letter-spacing:normal;word-spacing:normal;text-transform:none;writing-mode:lr-tb;direction:ltr;text-orientation:mixed;dominant-baseline:auto;baseline-shift:baseline;text-anchor:start;white-space:normal;shape-padding:0;shape-margin:0;inline-size:0;clip-rule:nonzero;display:inline;overflow:visible;visibility:visible;isolation:auto;mix-blend-mode:normal;color-interpolation:sRGB;color-interpolation-filters:linearRGB;solid-color:#000000;solid-opacity:1;vector-effect:none;fill:#15e7be;fill-opacity:1;fill-rule:nonzero;stroke:none;stroke-width:2;stroke-linecap:round;stroke-linejoin:miter;stroke-miterlimit:4;stroke-dasharray:none;stroke-dashoffset:0;stroke-opacity:1;color-rendering:auto;image-rendering:auto;shape-rendering:auto;text-rendering:auto;enable-background:accumulate;stop-color:#000000;stop-opacity:1;opacity:1" />
      <path
         id="path2095"
         d="M 87.142578 162.14648 A 1 1 0 0 0 86.142578 163.14648 A 1 1 0 0 0 87.142578 164.14648 L 101.30859 164.14648 A 1 1 0 0 0 102.30859 163.14648 A 1 1 0 0 0 101.30859 162.14648 L 87.142578 162.14648 z M 107.76367 162.14648 A 1 1 0 0 0 106.76367 163.14648 A 1 1 0 0 0 107.76367 164.14648 L 113.0625 164.14648 A 1 1 0 0 0 114.0625 163.14648 A 1 1 0 0 0 113.0625 162.14648 L 107.76367 162.14648 z "
         style="color:#000000;font-style:normal;font-variant:normal;font-weight:normal;font-stretch:normal;font-size:medium;line-height:normal;font-family:sans-serif;font-variant-ligatures:normal;font-variant-position:normal;font-variant-caps:normal;font-variant-numeric:normal;font-variant-alternates:normal;font-variant-east-asian:normal;font-feature-settings:normal;font-variation-settings:normal;text-indent:0;text-align:start;text-decoration:none;text-decoration-line:none;text-decoration-style:solid;text-decoration-color:#000000;letter-spacing:normal;word-spacing:normal;text-transform:none;writing-mode:lr-tb;direction:ltr;text-orientation:mixed;dominant-baseline:auto;baseline-shift:baseline;text-anchor:start;white-space:normal;shape-padding:0;shape-margin:0;inline-size:0;clip-rule:nonzero;display:inline;overflow:visible;visibility:visible;isolation:auto;mix-blend-mode:normal;color-interpolation:sRGB;color-interpolation-filters:linearRGB;solid-color:#000000;solid-opacity:1;vector-effect:none;fill:#15e7be;fill-opacity:1;fill-rule:nonzero;stroke:none;stroke-width:2;stroke-linecap:round;stroke-linejoin:miter;stroke-miterlimit:4;stroke-dasharray:none;stroke-dashoffset:0;stroke-opacity:1;color-rendering:auto;image-rendering:auto;shape-rendering:auto;text-rendering:auto;enable-background:accumulate;stop-color:#000000;stop-opacity:1;opacity:1" />
      <path
         id="path2107"
         d="M 66.261719 169.68555 A 1 1 0 0 0 65.261719 170.68555 A 1 1 0 0 0 66.261719 171.68555 L 81.757812 171.68555 A 1 1 0 0 0 82.757812 170.68555 A 1 1 0 0 0 81.757812 169.68555 L 66.261719 169.68555 z M 89.427734 169.68555 A 1 1 0 0 0 88.427734 170.68555 A 1 1 0 0 0 89.427734 171.68555 L 93.771484 171.68555 A 1 1 0 0 0 94.771484 170.68555 A 1 1 0 0 0 93.771484 169.68555 L 89.427734 169.68555 z "
         style="color:#000000;font-style:normal;font-variant:normal;font-weight:normal;font-stretch:normal;font-size:medium;line-height:normal;font-family:sans-serif;font-variant-ligatures:normal;font-variant-position:normal;font-variant-caps:normal;font-variant-numeric:normal;font-variant-alternates:normal;font-variant-east-asian:normal;font-feature-settings:normal;font-variation-settings:normal;text-indent:0;text-align:start;text-decoration:none;text-decoration-line:none;text-decoration-style:solid;text-decoration-color:#000000;letter-spacing:normal;word-spacing:normal;text-transform:none;writing-mode:lr-tb;direction:ltr;text-orientation:mixed;dominant-baseline:auto;baseline-shift:baseline;text-anchor:start;white-space:normal;shape-padding:0;shape-margin:0;inline-size:0;clip-rule:nonzero;display:inline;overflow:visible;visibility:visible;isolation:auto;mix-blend-mode:normal;color-interpolation:sRGB;color-interpolation-filters:linearRGB;solid-color:#000000;solid-opacity:1;vector-effect:none;fill:#15e7be;fill-opacity:1;fill-rule:nonzero;stroke:none;stroke-width:2;stroke-linecap:round;stroke-linejoin:miter;stroke-miterlimit:4;stroke-dasharray:none;stroke-dashoffset:0;stroke-opacity:1;color-rendering:auto;image-rendering:auto;shape-rendering:auto;text-rendering:auto;enable-background:accumulate;stop-color:#000000;stop-opacity:1;opacity:1" />
      <path
         id="path2111"
         d="M 70.693359 200.90625 A 1 1 0 0 0 69.693359 201.90625 A 1 1 0 0 0 70.693359 202.90625 L 86.230469 202.90625 A 1 1 0 0 0 87.230469 201.90625 A 1 1 0 0 0 86.230469 200.90625 L 70.693359 200.90625 z "
         style="color:#000000;font-style:normal;font-variant:normal;font-weight:normal;font-stretch:normal;font-size:medium;line-height:normal;font-family:sans-serif;font-variant-ligatures:normal;font-variant-position:normal;font-variant-caps:normal;font-variant-numeric:normal;font-variant-alternates:normal;font-variant-east-asian:normal;font-feature-settings:normal;font-variation-settings:normal;text-indent:0;text-align:start;text-decoration:none;text-decoration-line:none;text-decoration-style:solid;text-decoration-color:#000000;letter-spacing:normal;word-spacing:normal;text-transform:none;writing-mode:lr-tb;direction:ltr;text-orientation:mixed;dominant-baseline:auto;baseline-shift:baseline;text-anchor:start;white-space:normal;shape-padding:0;shape-margin:0;inline-size:0;clip-rule:nonzero;display:inline;overflow:visible;visibility:visible;isolation:auto;mix-blend-mode:normal;color-interpolation:sRGB;color-interpolation-filters:linearRGB;solid-color:#000000;solid-opacity:1;vector-effect:none;fill:#15e7be;fill-opacity:1;fill-rule:nonzero;stroke:none;stroke-width:2;stroke-linecap:round;stroke-linejoin:miter;stroke-miterlimit:4;stroke-dasharray:none;stroke-dashoffset:0;stroke-opacity:1;color-rendering:auto;image-rendering:auto;shape-rendering:auto;text-rendering:auto;enable-background:accumulate;stop-color:#000000;stop-opacity:1;opacity:1" />
      <path
         id="path2115"
         d="M 52.244141 214.79688 A 1 1 0 0 0 51.244141 215.79688 A 1 1 0 0 0 52.244141 216.79688 L 56.78125 216.79688 A 1 1 0 0 0 57.78125 215.79688 A 1 1 0 0 0 56.78125 214.79688 L 52.244141 214.79688 z M 64.265625 214.79688 A 1 1 0 0 0 63.265625 215.79688 A 1 1 0 0 0 64.265625 216.79688 L 80.410156 216.79688 A 1 1 0 0 0 81.410156 215.79688 A 1 1 0 0 0 80.410156 214.79688 L 64.265625 214.79688 z "
         style="color:#000000;font-style:normal;font-variant:normal;font-weight:normal;font-stretch:normal;font-size:medium;line-height:normal;font-family:sans-serif;font-variant-ligatures:normal;font-variant-position:normal;font-variant-caps:normal;font-variant-numeric:normal;font-variant-alternates:normal;font-variant-east-asian:normal;font-feature-settings:normal;font-variation-settings:normal;text-indent:0;text-align:start;text-decoration:none;text-decoration-line:none;text-decoration-style:solid;text-decoration-color:#000000;letter-spacing:normal;word-spacing:normal;text-transform:none;writing-mode:lr-tb;direction:ltr;text-orientation:mixed;dominant-baseline:auto;baseline-shift:baseline;text-anchor:start;white-space:normal;shape-padding:0;shape-margin:0;inline-size:0;clip-rule:nonzero;display:inline;overflow:visible;visibility:visible;isolation:auto;mix-blend-mode:normal;color-interpolation:sRGB;color-interpolation-filters:linearRGB;solid-color:#000000;solid-opacity:1;vector-effect:none;fill:#15e7be;fill-opacity:1;fill-rule:nonzero;stroke:none;stroke-width:2;stroke-linecap:round;stroke-linejoin:miter;stroke-miterlimit:4;stroke-dasharray:none;stroke-dashoffset:0;stroke-opacity:1;color-rendering:auto;image-rendering:auto;shape-rendering:auto;text-rendering:auto;enable-background:accumulate;stop-color:#000000;stop-opacity:1;opacity:1" />
      <path
         id="path2119"
         d="M 87.472656 234.64062 A 1 1 0 0 0 86.472656 235.64062 A 1 1 0 0 0 87.472656 236.64062 L 101.04688 236.64062 A 1 1 0 0 0 102.04688 235.64062 A 1 1 0 0 0 101.04688 234.64062 L 87.472656 234.64062 z "
         style="color:#000000;font-style:normal;font-variant:normal;font-weight:normal;font-stretch:normal;font-size:medium;line-height:normal;font-family:sans-serif;font-variant-ligatures:normal;font-variant-position:normal;font-variant-caps:normal;font-variant-numeric:normal;font-variant-alternates:normal;font-variant-east-asian:normal;font-feature-settings:normal;font-variation-settings:normal;text-indent:0;text-align:start;text-decoration:none;text-decoration-line:none;text-decoration-style:solid;text-decoration-color:#000000;letter-spacing:normal;word-spacing:normal;text-transform:none;writing-mode:lr-tb;direction:ltr;text-orientation:mixed;dominant-baseline:auto;baseline-shift:baseline;text-anchor:start;white-space:normal;shape-padding:0;shape-margin:0;inline-size:0;clip-rule:nonzero;display:inline;overflow:visible;visibility:visible;isolation:auto;mix-blend-mode:normal;color-interpolation:sRGB;color-interpolation-filters:linearRGB;solid-color:#000000;solid-opacity:1;vector-effect:none;fill:#15e7be;fill-opacity:1;fill-rule:nonzero;stroke:none;stroke-width:2;stroke-linecap:round;stroke-linejoin:miter;stroke-miterlimit:4;stroke-dasharray:none;stroke-dashoffset:0;stroke-opacity:1;color-rendering:auto;image-rendering:auto;shape-rendering:auto;text-rendering:auto;enable-background:accumulate;stop-color:#000000;stop-opacity:1;opacity:1" />
      <path
         id="path2123"
         d="M 72.855469 241.25586 A 1 1 0 0 0 71.855469 242.25586 A 1 1 0 0 0 72.855469 243.25586 L 82.880859 243.25586 A 1 1 0 0 0 83.880859 242.25586 A 1 1 0 0 0 82.880859 241.25586 L 72.855469 241.25586 z M 88.105469 241.25586 A 1 1 0 0 0 87.105469 242.25586 A 1 1 0 0 0 88.105469 243.25586 L 94.564453 243.25586 A 1 1 0 0 0 95.564453 242.25586 A 1 1 0 0 0 94.564453 241.25586 L 88.105469 241.25586 z "
         style="color:#000000;font-style:normal;font-variant:normal;font-weight:normal;font-stretch:normal;font-size:medium;line-height:normal;font-family:sans-serif;font-variant-ligatures:normal;font-variant-position:normal;font-variant-caps:normal;font-variant-numeric:normal;font-variant-alternates:normal;font-variant-east-asian:normal;font-feature-settings:normal;font-variation-settings:normal;text-indent:0;text-align:start;text-decoration:none;text-decoration-line:none;text-decoration-style:solid;text-decoration-color:#000000;letter-spacing:normal;word-spacing:normal;text-transform:none;writing-mode:lr-tb;direction:ltr;text-orientation:mixed;dominant-baseline:auto;baseline-shift:baseline;text-anchor:start;white-space:normal;shape-padding:0;shape-margin:0;inline-size:0;clip-rule:nonzero;display:inline;overflow:visible;visibility:visible;isolation:auto;mix-blend-mode:normal;color-interpolation:sRGB;color-interpolation-filters:linearRGB;solid-color:#000000;solid-opacity:1;vector-effect:none;fill:#15e7be;fill-opacity:1;fill-rule:nonzero;stroke:none;stroke-width:2;stroke-linecap:round;stroke-linejoin:miter;stroke-miterlimit:4;stroke-dasharray:none;stroke-dashoffset:0;stroke-opacity:1;color-rendering:auto;image-rendering:auto;shape-rendering:auto;text-rendering:auto;enable-background:accumulate;stop-color:#000000;stop-opacity:1;opacity:1" />
      <path
         transform="rotate(23.554042,143.20707,146.27056)"
         id="path2087"
         d="M 142.91406 141.94336 A 1.0001 1.0001 0 0 0 141.95508 142.9668 L 142.04883 146.99805 L 139.95117 150.44336 A 1.0001 1.0001 0 0 0 140.82812 151.96484 L 144.86133 151.87109 L 148.30664 153.9668 A 1.0001 1.0001 0 0 0 149.82617 153.08984 L 149.73242 149.05859 L 151.83008 145.61328 A 1.0001 1.0001 0 0 0 150.95312 144.0918 L 146.91992 144.18555 L 143.47461 142.08984 A 1.0001 1.0001 0 0 0 142.91406 141.94336 z M 143.99805 144.74805 L 146.13086 146.04688 A 1.0001 1.0001 0 0 0 146.67383 146.19141 L 149.17188 146.13477 L 147.87305 148.26758 A 1.0001 1.0001 0 0 0 147.72656 148.81055 L 147.7832 151.30859 L 145.65039 150.00977 A 1.0001 1.0001 0 0 0 145.10742 149.86523 L 142.61133 149.92188 L 143.91016 147.78906 A 1.0001 1.0001 0 0 0 144.05469 147.24609 L 143.99805 144.74805 z "
         style="color:#000000;font-style:normal;font-variant:normal;font-weight:normal;font-stretch:normal;font-size:medium;line-height:normal;font-family:sans-serif;font-variant-ligatures:normal;font-variant-position:normal;font-variant-caps:normal;font-variant-numeric:normal;font-variant-alternates:normal;font-variant-east-asian:normal;font-feature-settings:normal;font-variation-settings:normal;text-indent:0;text-align:start;text-decoration:none;text-decoration-line:none;text-decoration-style:solid;text-decoration-color:#000000;letter-spacing:normal;word-spacing:normal;text-transform:none;writing-mode:lr-tb;direction:ltr;text-orientation:mixed;dominant-baseline:auto;baseline-shift:baseline;text-anchor:start;white-space:normal;shape-padding:0;shape-margin:0;inline-size:0;clip-rule:nonzero;display:inline;overflow:visible;visibility:visible;isolation:auto;mix-blend-mode:normal;color-interpolation:sRGB;color-interpolation-filters:linearRGB;solid-color:#000000;solid-opacity:1;vector-effect:none;fill:#15e7be;fill-opacity:1;fill-rule:nonzero;stroke:none;stroke-width:2;stroke-linecap:round;stroke-linejoin:round;stroke-miterlimit:4;stroke-dasharray:none;stroke-dashoffset:0;stroke-opacity:1;color-rendering:auto;image-rendering:auto;shape-rendering:auto;text-rendering:auto;enable-background:accumulate;stop-color:#000000;stop-opacity:1;opacity:1" />
      <path
         id="path2091"
         d="M 131.82812 163.39062 C 130.19175 163.39063 128.84375 164.73863 128.84375 166.375 C 128.84375 168.01138 130.19174 169.35937 131.82812 169.35938 C 133.18979 169.35938 134.1658 168.33827 134.51758 167.08203 A 1 1 0 0 0 134.8125 166.375 A 1 1 0 0 0 134.51758 165.66797 C 134.1658 164.41174 133.18978 163.39062 131.82812 163.39062 z M 131.82812 165.39062 C 132.38362 165.39062 132.8125 165.8195 132.8125 166.375 C 132.8125 166.9305 132.38363 167.35938 131.82812 167.35938 C 131.27263 167.35937 130.84375 166.9305 130.84375 166.375 C 130.84375 165.8195 131.27263 165.39063 131.82812 165.39062 z "
         style="color:#000000;font-style:normal;font-variant:normal;font-weight:normal;font-stretch:normal;font-size:medium;line-height:normal;font-family:sans-serif;font-variant-ligatures:normal;font-variant-position:normal;font-variant-caps:normal;font-variant-numeric:normal;font-variant-alternates:normal;font-variant-east-asian:normal;font-feature-settings:normal;font-variation-settings:normal;text-indent:0;text-align:start;text-decoration:none;text-decoration-line:none;text-decoration-style:solid;text-decoration-color:#000000;letter-spacing:normal;word-spacing:normal;text-transform:none;writing-mode:lr-tb;direction:ltr;text-orientation:mixed;dominant-baseline:auto;baseline-shift:baseline;text-anchor:start;white-space:normal;shape-padding:0;shape-margin:0;inline-size:0;clip-rule:nonzero;display:inline;overflow:visible;visibility:visible;isolation:auto;mix-blend-mode:normal;color-interpolation:sRGB;color-interpolation-filters:linearRGB;solid-color:#000000;solid-opacity:1;vector-effect:none;fill:#15e7be;fill-opacity:1;fill-rule:nonzero;stroke:none;stroke-width:2;stroke-linecap:round;stroke-linejoin:round;stroke-miterlimit:4;stroke-dasharray:none;stroke-dashoffset:0;stroke-opacity:1;color-rendering:auto;image-rendering:auto;shape-rendering:auto;text-rendering:auto;enable-background:accumulate;stop-color:#000000;stop-opacity:1;opacity:1" />
      <path
         transform="rotate(63.694666,75.724019,199.34635)"
         id="path2079"
         d="M 142.91406 141.94336 A 1.0001 1.0001 0 0 0 141.95508 142.9668 L 142.04883 146.99805 L 139.95117 150.44336 A 1.0001 1.0001 0 0 0 140.82812 151.96484 L 144.86133 151.87109 L 148.30664 153.9668 A 1.0001 1.0001 0 0 0 149.82617 153.08984 L 149.73242 149.05859 L 151.83008 145.61328 A 1.0001 1.0001 0 0 0 150.95312 144.0918 L 146.91992 144.18555 L 143.47461 142.08984 A 1.0001 1.0001 0 0 0 142.91406 141.94336 z M 143.99805 144.74805 L 146.13086 146.04688 A 1.0001 1.0001 0 0 0 146.67383 146.19141 L 149.17188 146.13477 L 147.87305 148.26758 A 1.0001 1.0001 0 0 0 147.72656 148.81055 L 147.7832 151.30859 L 145.65039 150.00977 A 1.0001 1.0001 0 0 0 145.10742 149.86523 L 142.61133 149.92188 L 143.91016 147.78906 A 1.0001 1.0001 0 0 0 144.05469 147.24609 L 143.99805 144.74805 z "
         style="color:#000000;font-style:normal;font-variant:normal;font-weight:normal;font-stretch:normal;font-size:medium;line-height:normal;font-family:sans-serif;font-variant-ligatures:normal;font-variant-position:normal;font-variant-caps:normal;font-variant-numeric:normal;font-variant-alternates:normal;font-variant-east-asian:normal;font-feature-settings:normal;font-variation-settings:normal;text-indent:0;text-align:start;text-decoration:none;text-decoration-line:none;text-decoration-style:solid;text-decoration-color:#000000;letter-spacing:normal;word-spacing:normal;text-transform:none;writing-mode:lr-tb;direction:ltr;text-orientation:mixed;dominant-baseline:auto;baseline-shift:baseline;text-anchor:start;white-space:normal;shape-padding:0;shape-margin:0;inline-size:0;clip-rule:nonzero;display:inline;overflow:visible;visibility:visible;isolation:auto;mix-blend-mode:normal;color-interpolation:sRGB;color-interpolation-filters:linearRGB;solid-color:#000000;solid-opacity:1;vector-effect:none;fill:#15e7be;fill-opacity:1;fill-rule:nonzero;stroke:none;stroke-width:2;stroke-linecap:round;stroke-linejoin:round;stroke-miterlimit:4;stroke-dasharray:none;stroke-dashoffset:0;stroke-opacity:1;color-rendering:auto;image-rendering:auto;shape-rendering:auto;text-rendering:auto;enable-background:accumulate;stop-color:#000000;stop-opacity:1;opacity:1" />
      <path
         id="path2083"
         d="M 169.61914 208.66602 C 167.98275 208.66601 166.63476 210.014 166.63477 211.65039 C 166.63477 213.28677 167.98276 214.63477 169.61914 214.63477 C 170.97923 214.63476 171.95341 213.61537 172.30664 212.36133 A 1 1 0 0 0 172.60352 211.65039 A 1 1 0 0 0 172.30859 210.94336 C 171.95682 209.68713 170.9808 208.66602 169.61914 208.66602 z M 169.61914 210.66602 C 170.17464 210.66602 170.60352 211.09489 170.60352 211.65039 C 170.60351 212.20589 170.17464 212.63476 169.61914 212.63477 C 169.06364 212.63477 168.63477 212.20589 168.63477 211.65039 C 168.63476 211.09489 169.06364 210.66601 169.61914 210.66602 z "
         style="color:#000000;font-style:normal;font-variant:normal;font-weight:normal;font-stretch:normal;font-size:medium;line-height:normal;font-family:sans-serif;font-variant-ligatures:normal;font-variant-position:normal;font-variant-caps:normal;font-variant-numeric:normal;font-variant-alternates:normal;font-variant-east-asian:normal;font-feature-settings:normal;font-variation-settings:normal;text-indent:0;text-align:start;text-decoration:none;text-decoration-line:none;text-decoration-style:solid;text-decoration-color:#000000;letter-spacing:normal;word-spacing:normal;text-transform:none;writing-mode:lr-tb;direction:ltr;text-orientation:mixed;dominant-baseline:auto;baseline-shift:baseline;text-anchor:start;white-space:normal;shape-padding:0;shape-margin:0;inline-size:0;clip-rule:nonzero;display:inline;overflow:visible;visibility:visible;isolation:auto;mix-blend-mode:normal;color-interpolation:sRGB;color-interpolation-filters:linearRGB;solid-color:#000000;solid-opacity:1;vector-effect:none;fill:#15e7be;fill-opacity:1;fill-rule:nonzero;stroke:none;stroke-width:2;stroke-linecap:round;stroke-linejoin:round;stroke-miterlimit:4;stroke-dasharray:none;stroke-dashoffset:0;stroke-opacity:1;color-rendering:auto;image-rendering:auto;shape-rendering:auto;text-rendering:auto;enable-background:accumulate;stop-color:#000000;stop-opacity:1;opacity:1" />
    </g>
  </g>
</svg>
