<svg width="152" height="151" viewBox="0 0 152 151" fill="none" xmlns="http://www.w3.org/2000/svg">
<path d="M69.0221 15.4431C55.8613 15.3699 41.3543 20.8193 29.007 38.223C12.4998 61.4901 18.1297 84.5445 27.8492 101.436C35.5677 114.85 45.8325 124.558 49.7414 127.997C48.9245 128.783 48.3011 129.665 47.8593 130.537C46.5621 133.096 46.5465 135.62 46.5465 135.62L49.0968 135.655C49.0968 135.655 49.1402 133.654 50.1354 131.69C51.1309 129.725 52.8377 127.864 56.8702 127.864H70.3565C70.7545 128.087 71.4387 128.433 72.4343 128.763C74.0128 129.287 76.3689 129.792 79.5526 129.792C82.7363 129.792 85.0898 129.287 86.6684 128.763C87.6637 128.433 88.3482 128.087 88.7462 127.864H102.235C106.267 127.864 107.974 129.725 108.97 131.69C109.965 133.654 110.008 135.655 110.008 135.655L112.559 135.62C112.559 135.62 112.541 133.096 111.244 130.537C110.631 129.326 109.672 128.096 108.32 127.131C111.243 124.633 121 115.992 130.096 104.4C140.926 90.5957 150.895 72.6054 146.415 55.8713C142.021 39.4607 132.313 32.9556 123.792 30.8278C115.851 28.8449 109.444 30.4308 108.534 30.6664C107.799 30.0527 96.9107 21.04 81.6027 17.1196C77.6448 16.106 73.4091 15.4675 69.0221 15.4431ZM69.0221 17.9354C73.164 17.9872 77.1805 18.6196 80.9701 19.5901C96.1287 23.4723 107.403 32.9728 107.403 32.9728L107.919 33.4085L108.569 33.2292C108.569 33.2292 115.366 31.3537 123.174 33.3037C130.983 35.2537 139.752 40.8487 143.951 56.5317C148.064 71.8912 138.719 89.277 128.088 102.825C117.717 116.044 106.401 125.428 105.851 125.881C104.798 125.527 103.6 125.313 102.235 125.313H89.6844V121.931C105.922 119.197 119.157 107.784 124.463 92.5894C124.744 93.6757 124.942 94.3792 124.942 94.3792C124.942 94.3792 126.859 91.8452 126.198 88.9426C125.263 84.8417 123.626 78.7157 121.11 72.9325C120.139 70.7028 119.04 68.5209 117.79 66.5205L123.883 61.7126C126.314 59.7945 126.734 56.2377 124.816 53.8067C122.898 51.3757 119.34 50.9542 116.909 52.8723L109.784 58.4934C104.926 55.4209 103.498 51.5302 103.179 48.233C102.845 44.7736 103.826 42.1031 103.826 42.1031L104.367 40.6415L102.828 40.3997C102.828 40.3997 98.6742 39.7314 92.4293 39.7526C90.988 39.7577 89.435 39.7992 87.7965 39.8942C79.0578 40.4009 67.8743 42.4274 58.0953 48.5065C42.5745 58.1551 31.8973 77.2751 28.0831 84.8009C27.0892 86.7616 28.5774 89.3367 28.5774 89.3367C28.5774 89.3367 29.1624 88.2739 29.9223 86.8048C31.1176 87.539 32.3754 88.1153 33.5051 88.6065C37.7575 105.756 51.8089 118.959 69.4206 121.931V125.313H56.8702C54.8658 125.313 53.215 125.765 51.8686 126.468C48.5069 123.557 37.905 113.8 30.0581 100.163C20.6197 83.7599 15.1925 62.1028 31.0867 39.6998C43.0405 22.8509 56.5964 17.7801 69.0221 17.9355V17.9354ZM91.995 42.2856C96.4822 42.2628 99.7854 42.623 101.03 42.7806C100.715 44.0706 100.392 45.9224 100.639 48.4794C101.005 52.2748 102.839 56.9482 108.065 60.421C107.016 62.3438 107.142 64.7973 108.578 66.618C110.302 68.8024 113.346 69.3562 115.71 68.056C116.839 69.8693 117.866 71.8718 118.771 73.9512C120.832 78.6887 122.305 83.7475 123.261 87.622C118.832 106.242 102.172 120.011 82.1377 120.011H76.9674C56.8673 120.011 40.1621 106.151 35.7992 87.4381L35.6496 86.8028L35.0498 86.5518C33.8289 86.0414 32.3492 85.3368 31.0946 84.5327C35.3636 76.4119 45.6369 59.2539 59.443 50.6713C70.5476 43.7681 83.4286 42.3293 91.995 42.2856ZM72.7545 49.373C72.4882 49.373 72.2244 49.4254 71.9783 49.5273C71.7323 49.6292 71.5087 49.7785 71.3203 49.9667C71.132 50.155 70.9825 50.3786 70.8806 50.6247C70.7786 50.8707 70.7262 51.1344 70.7262 51.4007C70.7261 51.6671 70.7785 51.9309 70.8804 52.1771C70.9823 52.4232 71.1317 52.6468 71.32 52.8351C71.5084 53.0235 71.7321 53.1729 71.9782 53.2748C72.2243 53.3767 72.4881 53.4291 72.7545 53.4291C73.0208 53.4291 73.2844 53.3766 73.5305 53.2747C73.7765 53.1727 74.0002 53.0233 74.1885 52.8349C74.3768 52.6465 74.5261 52.423 74.6279 52.1769C74.7298 51.9308 74.7823 51.6671 74.7822 51.4007C74.7821 50.863 74.5684 50.3472 74.1882 49.967C73.8079 49.5867 73.2923 49.3731 72.7545 49.373ZM60.6304 53.6505C60.0927 53.6506 59.577 53.8643 59.1968 54.2445C58.8165 54.6248 58.6028 55.1405 58.6027 55.6782C58.6027 55.9445 58.6551 56.2083 58.757 56.4544C58.8589 56.7004 59.0081 56.924 59.1964 57.1124C59.3847 57.3007 59.6082 57.4502 59.8543 57.5521C60.1003 57.6541 60.3641 57.7066 60.6304 57.7066C60.8968 57.7067 61.1606 57.6542 61.4067 57.5523C61.6529 57.4504 61.8765 57.301 62.0649 57.1126C62.2533 56.9242 62.4026 56.7006 62.5045 56.4545C62.6064 56.2084 62.6588 55.9446 62.6588 55.6782C62.6587 55.4119 62.6063 55.1482 62.5043 54.9021C62.4024 54.6561 62.2529 54.4326 62.0646 54.2443C61.8762 54.056 61.6527 53.9066 61.4066 53.8048C61.1605 53.7029 60.8968 53.6505 60.6304 53.6505ZM120.465 54.2002C121.347 54.2181 122.211 54.6233 122.813 55.3863C123.883 56.7426 123.66 58.6397 122.304 59.7099L114.905 65.5479C113.548 66.6181 111.651 66.3942 110.581 65.0378C109.511 63.6814 109.733 61.7824 111.089 60.7122L118.488 54.8749C119.081 54.4067 119.779 54.1861 120.465 54.2002ZM70.1423 58.9547C69.9543 58.9547 69.7682 58.9918 69.5945 59.0638C69.4208 59.1358 69.2629 59.2412 69.13 59.3742C68.9971 59.5072 68.8916 59.6651 68.8197 59.8388C68.7478 60.0125 68.711 60.1987 68.7111 60.3867C68.7111 60.7663 68.8619 61.1303 69.1303 61.3987C69.3987 61.6671 69.7627 61.818 70.1423 61.818C70.5219 61.818 70.886 61.6671 71.1544 61.3987C71.4228 61.1303 71.5736 60.7663 71.5736 60.3867C71.5737 60.1987 71.5367 60.0125 71.4648 59.8388C71.3929 59.6651 71.2875 59.5072 71.1546 59.3742C71.0216 59.2412 70.8639 59.1358 70.6902 59.0638C70.5165 58.9918 70.3303 58.9547 70.1423 58.9547ZM62.7109 63.1446C58.9136 63.1271 54.6771 65.3699 54.6771 65.3699C54.6771 65.3699 59.8791 64.9774 63.7699 65.7989C67.6606 66.6205 74.0079 69.0761 74.0079 69.0761C74.0079 69.0761 68.3854 64.1665 64.2978 63.3034C63.7868 63.1955 63.2534 63.1471 62.7109 63.1446ZM96.393 63.1446C95.8505 63.1471 95.3171 63.1954 94.8062 63.3034C90.7186 64.1665 85.096 69.0761 85.096 69.0761C85.096 69.0761 91.4433 66.6205 95.334 65.7989C99.225 64.9774 104.427 65.3699 104.427 65.3699C104.427 65.3699 100.19 63.1271 96.393 63.1446ZM57.9734 70.9569C57.9734 70.9569 57.9403 72.9116 57.8376 73.633C57.719 74.4584 57.6385 74.9259 57.5826 75.2304C57.3963 75.1921 57.2109 75.1553 57.0277 75.1224C56.9359 75.1059 56.8458 75.0913 56.755 75.0762C56.5489 75.0417 56.3449 75.0105 56.1427 74.9826C56.0649 74.9724 55.9872 74.9607 55.9102 74.951C55.8362 74.9421 55.763 74.9325 55.6901 74.9239C55.6658 74.2157 55.5127 73.3104 55.0067 72.3684C54.5247 71.4713 51.9609 71.0168 51.9609 71.0168C51.9609 71.0168 52.6058 72.8619 52.7587 73.5744C52.8786 74.1319 52.9441 74.4806 53.0028 74.7941C52.8642 74.7966 52.7249 74.7992 52.5889 74.8056C52.5595 74.8069 52.5442 74.8094 52.5162 74.8107C52.3989 74.8171 52.2881 74.8222 52.2076 74.8278L51.7042 74.8607L51.6915 74.8746C51.4782 74.8949 51.2665 74.9173 51.0601 74.9445C49.0952 75.2031 47.4413 75.7598 46.1209 76.3982C43.4804 77.675 40.7069 81.1601 40.7069 81.1601C40.7069 81.1601 45.03 79.7608 47.2333 78.6954C47.9339 78.3567 48.7467 78.0403 49.6756 77.7972C49.1561 79.0093 48.91 80.3345 48.9724 81.6773C49.1982 86.5208 53.3372 90.2891 58.1806 90.0636C62.2081 89.876 65.4914 86.9835 66.3546 83.2299C67.7232 84.6814 69.4861 85.8468 69.4861 85.8468C69.4861 85.8468 69.4861 83.1455 67.7727 80.9801C67.3904 80.4974 66.9366 80.003 66.4125 79.5132V79.4955L66.0612 79.1871C66.0127 79.1447 65.9566 79.1034 65.9077 79.0612C65.7878 78.9593 65.6641 78.8582 65.5373 78.7574C65.4443 78.6832 65.353 78.6089 65.2561 78.5354C65.066 78.3917 64.8684 78.2499 64.6636 78.1096C64.5692 78.0447 64.4755 77.9792 64.3775 77.9152C64.7229 77.4576 65.0546 76.8826 65.2789 76.1768C65.5874 75.2063 64.1286 73.0499 64.1286 73.0499C64.1286 73.0499 63.2531 74.7974 62.8481 75.4032C62.4691 75.97 62.1945 76.3624 62.0045 76.6276C61.8048 76.5383 61.5998 76.4515 61.3904 76.3666C61.3572 76.3531 61.3241 76.3399 61.2897 76.3265C61.0629 76.2361 60.8313 76.1477 60.5931 76.0629C60.5701 76.0552 60.5497 76.0464 60.5268 76.0385C60.3952 75.9922 60.26 75.9479 60.1248 75.9034C60.3451 75.2313 60.5142 74.3332 60.3661 73.2793C60.2244 72.2708 57.976 70.9571 57.976 70.9571L57.9734 70.9569ZM101.13 70.9569C101.13 70.9569 98.882 72.2706 98.7403 73.2791C98.5921 74.3332 98.7607 75.2317 98.9808 75.9038C98.8507 75.9467 98.7201 75.989 98.5934 76.0337C98.5526 76.0481 98.5131 76.0633 98.4723 76.0778C98.2559 76.1553 98.0446 76.2354 97.8376 76.3177C97.7904 76.3367 97.742 76.3558 97.6953 76.375C97.4933 76.4572 97.2953 76.5412 97.1022 76.6275C96.9124 76.3622 96.6371 75.97 96.2581 75.4031C95.8531 74.7973 94.9777 73.0498 94.9777 73.0498C94.9777 73.0498 93.5185 75.2062 93.827 76.1767C94.0515 76.8829 94.3836 77.458 94.7293 77.9158C94.6387 77.975 94.5515 78.0356 94.4635 78.0956C94.2462 78.2439 94.0369 78.3942 93.8362 78.5464C93.7584 78.6059 93.6846 78.6658 93.6089 78.7257C93.4545 78.8476 93.3052 78.97 93.1609 79.0934C93.1239 79.1247 93.083 79.1555 93.0473 79.187L92.6961 79.4954V79.5106C92.171 80.001 91.7168 80.4967 91.3339 80.9801C89.6187 83.1455 89.6198 85.8461 89.6198 85.8461C89.6198 85.8461 91.3852 84.6807 92.754 83.2286C93.6167 86.9828 96.8997 89.8759 100.927 90.0635C105.771 90.289 109.907 86.5207 110.133 81.6773C110.195 80.334 109.949 79.0083 109.429 77.7959C110.359 78.039 111.173 78.3564 111.874 78.6954C114.077 79.7608 118.4 81.16 118.4 81.16C118.4 81.16 115.626 77.675 112.985 76.3982C111.665 75.7597 110.011 75.2024 108.047 74.9438C107.84 74.9165 107.627 74.8949 107.413 74.8745L107.4 74.8606L106.9 74.8277C106.819 74.8226 106.707 74.8175 106.589 74.8106C106.562 74.8093 106.548 74.8068 106.518 74.8055C106.382 74.7992 106.242 74.7979 106.103 74.7941C106.162 74.4806 106.228 74.1319 106.347 73.5743C106.5 72.8618 107.145 71.0168 107.145 71.0168C107.145 71.0168 104.581 71.4712 104.099 72.3684C103.593 73.3103 103.441 74.2157 103.416 74.9238C103.351 74.9315 103.284 74.9399 103.218 74.9482C103.117 74.961 103.015 74.9755 102.912 74.9898C102.743 75.0135 102.573 75.0393 102.402 75.0676C102.284 75.0867 102.168 75.1062 102.05 75.1275C101.876 75.159 101.7 75.1948 101.523 75.231C101.467 74.9267 101.387 74.4592 101.268 73.6329C101.165 72.9115 101.132 70.9568 101.132 70.9568L101.13 70.9569ZM53.972 77.3754C54.8075 77.3951 55.6961 77.4753 56.6501 77.6462C56.8364 77.6805 57.0243 77.7163 57.215 77.7569C57.2519 77.7645 57.2888 77.7711 57.3258 77.7794C57.4742 77.8118 57.6087 77.8503 57.7523 77.8848C57.7057 77.8852 57.6591 77.8864 57.6125 77.8887C57.1688 77.9093 56.7333 78.0171 56.3312 78.2061C55.9292 78.395 55.5683 78.6613 55.2691 78.9897C54.97 79.3181 54.7383 79.7023 54.5876 80.1202C54.4369 80.5381 54.3701 80.9816 54.3909 81.4254C54.4326 82.3215 54.8284 83.1644 55.4916 83.7686C56.1547 84.3728 57.0307 84.6889 57.9268 84.6472C58.3706 84.6266 58.806 84.5187 59.2081 84.3298C59.6102 84.1409 59.9712 83.8746 60.2704 83.5462C60.5696 83.2178 60.8012 82.8336 60.9519 82.4157C61.1026 81.9977 61.1694 81.5542 61.1486 81.1104C61.1236 80.5721 60.9704 80.0475 60.7016 79.5804C60.4328 79.1133 60.0562 78.7172 59.6034 78.4251C61.5093 79.0969 62.9171 79.9682 64.0079 80.8633C64.0079 80.9015 64.0207 80.9396 64.0207 80.9779C64.182 84.4446 61.5274 87.3569 58.0609 87.5184C54.5942 87.6798 51.6818 85.0251 51.5204 81.5585C51.449 80.0244 52.0101 78.5656 52.9676 77.3792C53.2946 77.3703 53.6287 77.3677 53.972 77.3754ZM105.131 77.3754C105.474 77.3677 105.809 77.369 106.135 77.3792C107.093 78.5655 107.654 80.0243 107.583 81.5585C107.421 85.0251 104.509 87.6798 101.042 87.5184C97.5764 87.3569 94.9244 84.4434 95.0843 80.9779V80.9754C95.0843 80.937 95.0969 80.899 95.0969 80.8607C96.1883 79.9651 97.596 79.0945 99.5031 78.4231C99.0495 78.7152 98.6721 79.1115 98.4028 79.579C98.1335 80.0465 97.98 80.5716 97.955 81.1105C97.9133 82.0066 98.2293 82.8827 98.8336 83.5458C99.4378 84.209 100.281 84.6049 101.177 84.6466C102.073 84.6883 102.949 84.3723 103.612 83.7683C104.275 83.1642 104.671 82.3215 104.713 81.4255C104.734 80.9817 104.667 80.5382 104.516 80.1203C104.365 79.7024 104.134 79.3182 103.835 78.9898C103.535 78.6613 103.174 78.3951 102.772 78.2061C102.37 78.0172 101.935 77.9094 101.491 77.8887C101.445 77.8865 101.398 77.8853 101.352 77.8849C101.495 77.8505 101.629 77.8119 101.777 77.7795C101.777 77.7794 101.777 77.7788 101.777 77.7788C102.003 77.7294 102.223 77.6882 102.443 77.6476C103.4 77.4757 104.291 77.3954 105.129 77.3754L105.131 77.3754ZM41.1705 88.8009C40.7957 88.8082 40.4388 88.9622 40.1764 89.2298C39.9139 89.4974 39.7668 89.8574 39.7668 90.2322C39.7668 90.4202 39.8039 90.6064 39.8759 90.7801C39.9479 90.9538 40.0533 91.1116 40.1863 91.2445C40.3193 91.3774 40.4773 91.4829 40.651 91.5548C40.8247 91.6266 41.0109 91.6636 41.1989 91.6636C41.5785 91.6635 41.9425 91.5127 42.2109 91.2443C42.4793 90.9759 42.6302 90.6118 42.6303 90.2322C42.6302 89.8526 42.4793 89.4886 42.2109 89.2201C41.9425 88.9517 41.5785 88.8009 41.1989 88.8009C41.1896 88.8008 41.1803 88.8008 41.1709 88.8009H41.1705ZM47.139 92.1808C46.8406 92.1841 46.5554 92.3049 46.3456 92.5172C46.1357 92.7294 46.018 93.0158 46.0181 93.3142C46.018 93.6148 46.1373 93.9031 46.3498 94.1156C46.5622 94.3282 46.8503 94.4476 47.1508 94.4477C47.2997 94.4478 47.4472 94.4184 47.5847 94.3615C47.7222 94.3045 47.8471 94.221 47.9524 94.1158C48.0576 94.0105 48.1412 93.8856 48.1982 93.7481C48.2551 93.6106 48.2843 93.4631 48.2842 93.3142C48.2843 93.1654 48.2551 93.018 48.1982 92.8805C48.1412 92.743 48.0576 92.6181 47.9524 92.5128C47.8471 92.4075 47.7222 92.324 47.5847 92.2671C47.4472 92.2101 47.2997 92.1808 47.1508 92.1808C47.1466 92.1808 47.1423 92.1808 47.1381 92.1808H47.139ZM56.3365 93.1351C56.0702 93.1351 55.8064 93.1875 55.5604 93.2895C55.3143 93.3914 55.0908 93.5409 54.9025 93.7293C54.7142 93.9176 54.565 94.1412 54.4631 94.3873C54.3612 94.6333 54.3088 94.8971 54.3088 95.1634C54.3089 95.7012 54.5226 96.2169 54.9029 96.5972C55.2831 96.9774 55.7988 97.1911 56.3365 97.1911C56.8743 97.1911 57.39 96.9774 57.7702 96.5972C58.1505 96.2169 58.3642 95.7012 58.3642 95.1634C58.3643 94.8971 58.3119 94.6333 58.21 94.3873C58.1081 94.1412 57.9588 93.9176 57.7705 93.7293C57.5822 93.5409 57.3587 93.3914 57.1127 93.2895C56.8666 93.1875 56.6029 93.1351 56.3365 93.1351ZM67.3863 94.822C67.12 94.8221 66.8564 94.8746 66.6104 94.9765C66.3643 95.0785 66.1408 95.2279 65.9525 95.4162C65.7642 95.6046 65.6148 95.8282 65.5129 96.0743C65.411 96.3204 65.3586 96.5841 65.3586 96.8504C65.3587 97.3882 65.5724 97.9039 65.9527 98.2841C66.3329 98.6644 66.8486 98.878 67.3863 98.8781C67.9241 98.878 68.4399 98.6644 68.8202 98.2841C69.2004 97.9039 69.4142 97.3882 69.4142 96.8504C69.4143 96.5841 69.3618 96.3204 69.2599 96.0743C69.1581 95.8282 69.0086 95.6046 68.8203 95.4162C68.632 95.2279 68.4085 95.0785 68.1625 94.9765C67.9165 94.8746 67.6527 94.8221 67.3863 94.822ZM50.5506 99.1595C50.0128 99.1596 49.4972 99.3732 49.1169 99.7535C48.7366 100.134 48.5229 100.649 48.5229 101.187C48.5229 101.725 48.7366 102.241 49.1169 102.621C49.4972 103.001 50.0128 103.215 50.5506 103.215C50.8169 103.215 51.0807 103.163 51.3267 103.061C51.5728 102.959 51.7964 102.809 51.9847 102.621C52.1731 102.433 52.3225 102.209 52.4245 101.963C52.5264 101.717 52.5789 101.454 52.5789 101.187C52.5789 100.921 52.5264 100.657 52.4245 100.411C52.3225 100.165 52.1731 99.9415 51.9847 99.7532C51.7964 99.5649 51.5728 99.4156 51.3267 99.3137C51.0807 99.2118 50.8169 99.1595 50.5506 99.1595ZM60.5711 99.5134C60.1964 99.5207 59.8393 99.6747 59.5769 99.9423C59.3144 100.21 59.1675 100.57 59.1675 100.945C59.1675 101.324 59.3184 101.688 59.5868 101.957C59.8553 102.225 60.2192 102.376 60.5988 102.376C60.7868 102.376 60.9731 102.339 61.1468 102.267C61.3205 102.195 61.4783 102.09 61.6113 101.957C61.7443 101.824 61.8497 101.666 61.9217 101.493C61.9937 101.319 62.0308 101.133 62.0308 100.945C62.0308 100.757 61.9937 100.571 61.9217 100.397C61.8497 100.223 61.7443 100.065 61.6113 99.9324C61.4783 99.7995 61.3205 99.6941 61.1468 99.6222C60.9731 99.5503 60.7868 99.5134 60.5988 99.5134C60.5895 99.5133 60.5802 99.5133 60.5708 99.5134H60.5711ZM56.6066 105.84C56.2318 105.847 55.8748 106.001 55.6124 106.269C55.3499 106.536 55.2029 106.896 55.203 107.271C55.203 107.651 55.3538 108.015 55.6222 108.283C55.8906 108.551 56.2547 108.702 56.6343 108.702C56.8223 108.702 57.0085 108.665 57.1823 108.594C57.356 108.522 57.5138 108.416 57.6468 108.283C57.7798 108.15 57.8854 107.993 57.9573 107.819C58.0293 107.645 58.0663 107.459 58.0663 107.271C58.0663 107.083 58.0293 106.897 57.9573 106.723C57.8853 106.549 57.7798 106.392 57.6468 106.259C57.5138 106.126 57.356 106.02 57.1823 105.948C57.0085 105.877 56.8223 105.84 56.6343 105.84C56.625 105.84 56.6157 105.84 56.6063 105.84H56.6066ZM93.0493 107.156C93.0493 107.156 91.8791 107.867 89.879 108.428C87.879 108.989 84.614 109.574 79.6798 109.574C74.7454 109.574 71.4781 108.989 69.478 108.428C67.478 107.867 66.0546 107.24 66.0546 107.24C66.0546 107.24 66.5359 110.252 68.788 110.884C71.0401 111.516 74.5441 112.124 79.6798 112.124C84.8155 112.124 88.3166 111.516 90.5688 110.884C92.8209 110.252 93.0493 107.156 93.0493 107.156ZM62.933 111.238C62.5583 111.245 62.2013 111.399 61.9388 111.667C61.6764 111.935 61.5294 112.295 61.5294 112.669C61.5294 113.049 61.6802 113.413 61.9486 113.681C62.217 113.95 62.581 114.101 62.9606 114.101C63.1486 114.101 63.3348 114.064 63.5085 113.992C63.6823 113.92 63.8401 113.815 63.9731 113.682C64.106 113.549 64.2116 113.391 64.2836 113.217C64.3556 113.044 64.3926 112.857 64.3926 112.669C64.3926 112.481 64.3556 112.295 64.2836 112.122C64.2116 111.948 64.106 111.79 63.9731 111.657C63.8401 111.524 63.6823 111.419 63.5085 111.347C63.3348 111.275 63.1486 111.238 62.9606 111.238C62.9513 111.238 62.9419 111.238 62.9326 111.238H62.933ZM71.971 122.287C73.611 122.468 75.2778 122.561 76.9674 122.561H82.1377C83.827 122.561 85.4942 122.468 87.1342 122.288V125.782C86.9076 125.915 86.7944 126.034 85.8664 126.342C84.5412 126.782 82.4675 127.242 79.5526 127.242C76.6376 127.242 74.564 126.782 73.2388 126.342C72.3126 126.035 72.1983 125.918 71.971 125.785V122.287Z" fill="#608199"/>
<path d="M79.1211 16.5479V19.1515C79.7425 19.2892 80.3602 19.4335 80.9703 19.5897C96.1289 23.4719 107.404 32.9724 107.404 32.9724L107.919 33.4081L108.569 33.2288C108.569 33.2288 115.366 31.3533 123.174 33.3033C130.983 35.2533 139.753 40.8483 143.952 56.5313C148.064 71.8908 138.719 89.2766 128.089 102.825C117.717 116.043 106.401 125.427 105.852 125.88C104.798 125.526 103.6 125.313 102.235 125.313H89.6846V121.931C105.922 119.197 119.157 107.784 124.463 92.589C124.744 93.6753 124.943 94.3788 124.943 94.3788C124.943 94.3788 126.86 91.8448 126.198 88.9422C125.263 84.8413 123.627 78.7153 121.11 72.9321C120.14 70.7024 119.04 68.5205 117.79 66.5201L123.883 61.7122C126.314 59.7941 126.734 56.2373 124.816 53.8063C122.898 51.3753 119.34 50.9538 116.909 52.8719L109.785 58.493C104.926 55.4205 103.498 51.5297 103.179 48.2326C102.845 44.7732 103.827 42.1027 103.827 42.1027L104.368 40.6411L102.828 40.3993C102.828 40.3993 98.6743 39.731 92.4295 39.7522C90.9882 39.7573 89.4352 39.7988 87.7967 39.8938C85.1002 40.0501 82.1699 40.3529 79.1211 40.873V43.428C83.8825 42.5821 88.3343 42.3039 91.9952 42.2852C96.4824 42.2624 99.7856 42.6226 101.03 42.7802C100.715 44.0702 100.392 45.9221 100.639 48.4791C101.006 52.2745 102.839 56.9478 108.065 60.4206C107.017 62.3434 107.142 64.7969 108.579 66.6176C110.302 68.802 113.346 69.3558 115.71 68.0556C116.839 69.8689 117.866 71.8714 118.771 73.9509C120.833 78.6884 122.305 83.7471 123.261 87.6216C118.832 106.241 102.172 120.011 82.1379 120.011H79.1211V122.561H82.1379C83.8272 122.561 85.4944 122.468 87.1343 122.288V125.782C86.9077 125.915 86.7946 126.034 85.8666 126.342C84.5414 126.782 82.4676 127.241 79.5528 127.241C79.4034 127.241 79.266 127.235 79.1211 127.232V129.783C79.2662 129.785 79.4041 129.791 79.5528 129.791C82.7365 129.791 85.09 129.287 86.6686 128.763C87.6639 128.432 88.3484 128.087 88.7464 127.864H102.235C106.268 127.864 107.974 129.725 108.97 131.689C109.965 133.654 110.008 135.655 110.008 135.655L112.559 135.62C112.559 135.62 112.541 133.096 111.244 130.536C110.631 129.326 109.672 128.095 108.32 127.131C111.243 124.633 121.001 115.991 130.096 104.399C140.927 90.5953 150.895 72.605 146.415 55.8709C142.021 39.4603 132.313 32.9552 123.792 30.8274C115.851 28.8445 109.444 30.4304 108.534 30.666C107.799 30.0523 96.9108 21.0396 81.6029 17.1192C80.7881 16.9105 79.9584 16.7226 79.1211 16.5479ZM120.465 54.1998C121.348 54.2177 122.211 54.6229 122.813 55.3859C123.883 56.7422 123.66 58.6393 122.304 59.7095L114.905 65.5475C113.548 66.6177 111.651 66.3938 110.581 65.0374C109.511 63.681 109.733 61.782 111.089 60.7118L118.488 54.8745C119.082 54.4063 119.779 54.1857 120.465 54.1998ZM96.3932 63.1442C95.8507 63.1467 95.3173 63.195 94.8063 63.303C90.7187 64.1661 85.0962 69.0757 85.0962 69.0757C85.0962 69.0757 91.4435 66.6201 95.3342 65.7985C99.2251 64.977 104.427 65.3695 104.427 65.3695C104.427 65.3695 100.191 63.1267 96.3932 63.1442ZM101.131 70.9564C101.131 70.9564 98.8822 72.2702 98.7405 73.2787C98.5923 74.3328 98.7609 75.2313 98.981 75.9034C98.8509 75.9463 98.7203 75.9886 98.5935 76.0333C98.5527 76.0477 98.5132 76.0629 98.4724 76.0774C98.256 76.1549 98.0447 76.235 97.8378 76.3173C97.7906 76.3363 97.7422 76.3554 97.6955 76.3746C97.4935 76.4568 97.2955 76.5407 97.1024 76.6271C96.9125 76.3618 96.6372 75.9696 96.2582 75.4027C95.8532 74.7969 94.9779 73.0494 94.9779 73.0494C94.9779 73.0494 93.5187 75.2058 93.8272 76.1763C94.0516 76.8825 94.3837 77.4576 94.7294 77.9153C94.6389 77.9746 94.5517 78.0352 94.4637 78.0952C94.2464 78.2435 94.0371 78.3938 93.8364 78.546C93.7586 78.6055 93.6847 78.6654 93.6091 78.7253C93.4547 78.8472 93.3053 78.9696 93.1611 79.093C93.1241 79.1243 93.0832 79.1551 93.0475 79.1866L92.6963 79.495V79.5101C92.1711 80.0006 91.717 80.4963 91.334 80.9797C89.6189 83.1451 89.62 85.8457 89.62 85.8457C89.62 85.8457 91.3854 84.6803 92.7542 83.2282C93.6169 86.9824 96.8998 89.8755 100.928 90.0631C105.771 90.2886 109.907 86.5203 110.133 81.6769C110.196 80.3336 109.949 79.0079 109.429 77.7955C110.359 78.0386 111.173 78.356 111.874 78.695C114.077 79.7604 118.4 81.1596 118.4 81.1596C118.4 81.1596 115.626 77.6746 112.986 76.3978C111.665 75.7593 110.012 75.202 108.047 74.9434C107.84 74.9161 107.627 74.8945 107.413 74.8741L107.401 74.8602L106.901 74.8273C106.819 74.8222 106.707 74.8171 106.589 74.8102C106.562 74.8089 106.548 74.8064 106.518 74.8051C106.382 74.7988 106.243 74.7975 106.103 74.7937C106.162 74.4802 106.228 74.1314 106.347 73.5739C106.5 72.8614 107.145 71.0164 107.145 71.0164C107.145 71.0164 104.581 71.4708 104.099 72.368C103.593 73.3099 103.441 74.2153 103.416 74.9234C103.351 74.9311 103.284 74.9395 103.218 74.9478C103.117 74.9606 103.015 74.9751 102.912 74.9894C102.744 75.0131 102.573 75.0389 102.402 75.0672C102.284 75.0863 102.168 75.1058 102.05 75.1271C101.876 75.1586 101.7 75.1944 101.523 75.2306C101.467 74.9263 101.387 74.4588 101.268 73.6325C101.165 72.9111 101.133 70.9564 101.133 70.9564L101.131 70.9564ZM105.131 77.375C105.474 77.3673 105.809 77.3686 106.136 77.3788C107.093 78.5651 107.654 80.0239 107.583 81.5581C107.421 85.0247 104.509 87.6794 101.042 87.518C97.5765 87.3565 94.9246 84.443 95.0845 80.9775V80.975C95.0845 80.9366 95.0971 80.8986 95.0971 80.8603C96.1884 79.9647 97.5962 79.0941 99.5032 78.4227C99.0496 78.7148 98.6723 79.1111 98.403 79.5786C98.1337 80.0461 97.9802 80.5712 97.9551 81.1101C97.9135 82.0062 98.2295 82.8823 98.8337 83.5454C99.4379 84.2086 100.281 84.6045 101.177 84.6462C102.073 84.6879 102.949 84.3719 103.612 83.7679C104.275 83.1638 104.671 82.3211 104.713 81.4251C104.734 80.9813 104.667 80.5378 104.516 80.1199C104.365 79.702 104.134 79.3178 103.835 78.9894C103.536 78.6609 103.175 78.3947 102.773 78.2057C102.37 78.0168 101.935 77.909 101.491 77.8883C101.445 77.8861 101.399 77.8848 101.352 77.8845C101.495 77.8501 101.629 77.8115 101.777 77.7791C102.003 77.7297 102.223 77.6878 102.443 77.6472C103.4 77.4753 104.291 77.395 105.13 77.375L105.131 77.375ZM93.0495 107.155C93.0495 107.155 91.8792 107.867 89.8792 108.428C87.8791 108.989 84.6141 109.574 79.6799 109.574C79.4856 109.574 79.3103 109.567 79.1211 109.565V112.115C79.3103 112.116 79.4861 112.124 79.6799 112.124C84.8156 112.124 88.3168 111.516 90.5689 110.884C92.8211 110.252 93.0495 107.155 93.0495 107.155Z" fill="#30414D"/>
<path d="M79.5514 0C78.875 0 78.2263 0.268665 77.748 0.746964C77.2697 1.22526 77.001 1.87402 77.001 2.55043V148.092C77.001 148.768 77.2697 149.417 77.748 149.895C78.2263 150.374 78.875 150.643 79.5514 150.643C80.2278 150.643 80.8767 150.374 81.355 149.895C81.8333 149.417 82.1018 148.768 82.1018 148.092V2.55043C82.1018 1.87402 81.8333 1.22526 81.355 0.746964C80.8767 0.268665 80.2278 0 79.5514 0Z" fill="#3DADE2"/>
<path d="M1.71076 89.9971C1.37256 89.9971 1.04822 90.1314 0.809068 90.3706C0.569918 90.6097 0.435547 90.9341 0.435547 91.2723C0.435547 91.6105 0.569918 91.9348 0.809068 92.174C1.04822 92.4131 1.37256 92.5475 1.71076 92.5475H14.6672C15.0055 92.5475 15.3298 92.4131 15.5689 92.174C15.8081 91.9348 15.9425 91.6105 15.9425 91.2723C15.9425 90.9341 15.8081 90.6097 15.5689 90.3706C15.3298 90.1314 15.0055 89.9971 14.6672 89.9971H1.71076ZM24.0471 89.9971C23.7089 89.9971 23.3845 90.1314 23.1454 90.3706C22.9062 90.6097 22.7719 90.9341 22.7719 91.2723C22.7719 91.6105 22.9062 91.9348 23.1454 92.174C23.3845 92.4131 23.7089 92.5475 24.0471 92.5475H39.4991C39.8373 92.5475 40.1617 92.4131 40.4009 92.174C40.64 91.9348 40.7743 91.6105 40.7743 91.2723C40.7743 90.9341 40.64 90.6097 40.4009 90.3706C40.1617 90.1314 39.8373 89.9971 39.4991 89.9971H24.0471Z" fill="#3DADE2"/>
<path d="M20.5057 98.3887C20.1675 98.3887 19.8431 98.523 19.6039 98.7622C19.3648 99.0013 19.2305 99.3257 19.2305 99.6639C19.2305 100.002 19.3648 100.326 19.6039 100.566C19.8431 100.805 20.1675 100.939 20.5057 100.939H49.2803C49.6185 100.939 49.9429 100.805 50.182 100.566C50.4212 100.326 50.5555 100.002 50.5555 99.6639C50.5555 99.3257 50.4212 99.0013 50.182 98.7622C49.9429 98.523 49.6185 98.3887 49.2803 98.3887H20.5057Z" fill="#3DADE2"/>
<path d="M13.0164 124.535C12.6782 124.535 12.3539 124.67 12.1147 124.909C11.8756 125.148 11.7412 125.472 11.7412 125.81C11.7412 126.149 11.8756 126.473 12.1147 126.712C12.3539 126.951 12.6782 127.086 13.0164 127.086H23.8359C24.1741 127.086 24.4985 126.951 24.7376 126.712C24.9768 126.473 25.1111 126.149 25.1111 125.81C25.1111 125.472 24.9768 125.148 24.7376 124.909C24.4985 124.67 24.1741 124.535 23.8359 124.535H13.0164ZM32.0276 124.535C31.6894 124.535 31.3652 124.67 31.126 124.909C30.8869 125.148 30.7524 125.472 30.7524 125.81C30.7524 126.149 30.8869 126.473 31.126 126.712C31.3652 126.951 31.6894 127.086 32.0276 127.086H38.7524C39.0906 127.086 39.4149 126.951 39.654 126.712C39.8932 126.473 40.0276 126.149 40.0276 125.81C40.0276 125.472 39.8932 125.148 39.654 124.909C39.4149 124.67 39.0906 124.535 38.7524 124.535H32.0276Z" fill="#3DADE2"/>
<path d="M24.035 37.9648C23.6968 37.9648 23.3724 38.0992 23.1333 38.3384C22.8941 38.5775 22.7598 38.9019 22.7598 39.2401C22.7598 39.5783 22.8941 39.9026 23.1333 40.1418C23.3724 40.3809 23.6968 40.5153 24.035 40.5153H54.436C54.7742 40.5153 55.0984 40.3809 55.3376 40.1418C55.5767 39.9026 55.7112 39.5783 55.7112 39.2401C55.7112 38.9019 55.5767 38.5775 55.3376 38.3384C55.0984 38.0992 54.7742 37.9648 54.436 37.9648H24.035Z" fill="#3DADE2"/>
<path d="M1.27522 60.9062C0.937009 60.9062 0.612671 61.0406 0.373521 61.2798C0.134371 61.5189 0 61.8433 0 62.1815C0 62.5197 0.134371 62.844 0.373521 63.0832C0.612671 63.3223 0.937009 63.4567 1.27522 63.4567H24.1744C24.5126 63.4567 24.837 63.3223 25.0762 63.0832C25.3153 62.844 25.4496 62.5197 25.4496 62.1815C25.4496 61.8433 25.3153 61.5189 25.0762 61.2798C24.837 61.0406 24.5126 60.9062 24.1744 60.9062H1.27522ZM31.2603 60.9062C30.9221 60.9062 30.5977 61.0406 30.3586 61.2798C30.1194 61.5189 29.9851 61.8433 29.9851 62.1815C29.9851 62.5197 30.1194 62.844 30.3586 63.0832C30.5977 63.3223 30.9221 63.4567 31.2603 63.4567H45.6364C45.9746 63.4567 46.299 63.3223 46.5382 63.0832C46.7773 62.844 46.9116 62.5197 46.9116 62.1815C46.9116 61.8433 46.7773 61.5189 46.5382 61.2798C46.299 61.0406 45.9746 60.9062 45.6364 60.9062H31.2603Z" fill="#3DADE2"/>
<path d="M7.45686 51.9277C7.11865 51.9277 6.79431 52.0621 6.55516 52.3013C6.31601 52.5404 6.18164 52.8647 6.18164 53.203C6.18164 53.5412 6.31601 53.8655 6.55516 54.1046C6.79431 54.3438 7.11865 54.4782 7.45686 54.4782H24.8541C25.1923 54.4782 25.5167 54.3438 25.7559 54.1046C25.995 53.8655 26.1293 53.5412 26.1293 53.203C26.1293 52.8647 25.995 52.5404 25.7559 52.3013C25.5167 52.0621 25.1923 51.9277 24.8541 51.9277H7.45686ZM34.351 51.9277C34.0128 51.9277 33.6884 52.0621 33.4492 52.3013C33.2101 52.5404 33.0758 52.8647 33.0758 53.203C33.0758 53.5412 33.2101 53.8655 33.4492 54.1046C33.6884 54.3438 34.0128 54.4782 34.351 54.4782H54.8416C55.1799 54.4782 55.5043 54.3438 55.7434 54.1046C55.9826 53.8655 56.1169 53.5412 56.1169 53.203C56.1169 52.8647 55.9826 52.5404 55.7434 52.3013C55.5043 52.0621 55.1799 51.9277 54.8416 51.9277H34.351Z" fill="#3DADE2"/>
<path d="M35.5765 21.4971C35.2383 21.4971 34.914 21.6314 34.6749 21.8706C34.4357 22.1097 34.3013 22.4341 34.3013 22.7723C34.3013 23.1105 34.4357 23.4348 34.6749 23.674C34.914 23.9131 35.2383 24.0475 35.5765 24.0475H52.8019C53.1401 24.0475 53.4645 23.9131 53.7037 23.674C53.9428 23.4348 54.0771 23.1105 54.0771 22.7723C54.0771 22.4341 53.9428 22.1097 53.7037 21.8706C53.4645 21.6314 53.1401 21.4971 52.8019 21.4971H35.5765Z" fill="#3DADE2"/>
<path d="M17.9378 107.482C17.5996 107.482 17.2753 107.617 17.0361 107.856C16.797 108.095 16.6626 108.419 16.6626 108.758C16.6626 109.096 16.797 109.42 17.0361 109.659C17.2753 109.898 17.5996 110.033 17.9378 110.033H30.6625C31.0007 110.033 31.3251 109.898 31.5643 109.659C31.8034 109.42 31.9377 109.096 31.9377 108.758C31.9377 108.419 31.8034 108.095 31.5643 107.856C31.3251 107.617 31.0007 107.482 30.6625 107.482H17.9378ZM37.2926 107.482C36.9544 107.482 36.63 107.617 36.3909 107.856C36.1517 108.095 36.0174 108.419 36.0174 108.758C36.0174 109.096 36.1517 109.42 36.3909 109.659C36.63 109.898 36.9544 110.033 37.2926 110.033H45.4894C45.8276 110.033 46.1519 109.898 46.391 109.659C46.6302 109.42 46.7646 109.096 46.7646 108.758C46.7646 108.419 46.6302 108.095 46.391 107.856C46.1519 107.617 45.8276 107.482 45.4894 107.482H37.2926Z" fill="#3DADE2"/>
<path d="M131.119 118.88C130.916 118.615 130.618 118.441 130.288 118.395C129.959 118.348 129.624 118.433 129.356 118.631L125.239 121.67L120.131 122.006C119.904 122.021 119.684 122.096 119.496 122.225C119.308 122.354 119.158 122.531 119.061 122.738C118.965 122.944 118.927 123.173 118.949 123.4C118.972 123.627 119.056 123.843 119.191 124.027L122.232 128.146L122.57 133.253C122.585 133.48 122.661 133.699 122.79 133.886C122.919 134.074 123.095 134.224 123.302 134.32C123.508 134.416 123.737 134.454 123.963 134.431C124.19 134.409 124.406 134.325 124.589 134.19L128.707 131.151L133.814 130.815C134.042 130.801 134.261 130.725 134.45 130.596C134.638 130.468 134.788 130.29 134.884 130.084C134.98 129.877 135.019 129.648 134.996 129.421C134.973 129.194 134.89 128.978 134.754 128.794L131.714 124.675L131.376 119.569C131.36 119.319 131.27 119.079 131.119 118.88ZM128.998 122.052L129.205 125.214C129.222 125.456 129.307 125.688 129.452 125.883L131.333 128.436L128.171 128.644C127.929 128.659 127.696 128.744 127.5 128.888L124.948 130.769L124.74 127.607C124.724 127.365 124.638 127.133 124.494 126.938L122.614 124.388L125.776 124.18C126.018 124.163 126.25 124.078 126.445 123.934L128.998 122.052Z" fill="#3DADE2"/>
<path d="M132.944 66.5322C130.867 66.5323 129.155 68.2439 129.155 70.3205C129.155 72.3971 130.867 74.1062 132.944 74.1063C134.672 74.1063 135.909 72.8114 136.356 71.2172C136.474 71.0996 136.568 70.9599 136.632 70.806C136.696 70.6522 136.729 70.4872 136.729 70.3205C136.729 70.1528 136.696 69.9868 136.632 69.832C136.567 69.6773 136.472 69.5369 136.353 69.4189C135.905 67.8271 134.67 66.5322 132.944 66.5322ZM132.944 69.0702C133.649 69.0702 134.191 69.6131 134.191 70.318C134.191 71.023 133.649 71.5683 132.944 71.5683C132.239 71.5683 131.693 71.023 131.693 70.318C131.693 69.6131 132.239 69.0702 132.944 69.0702Z" fill="#3DADE2"/>
<path d="M112.167 8.19068C111.844 8.10985 111.502 8.15917 111.215 8.32801C110.928 8.49686 110.719 8.7717 110.633 9.09329L109.304 14.0348L105.516 17.4783C105.347 17.6314 105.222 17.8272 105.155 18.0451C105.088 18.263 105.081 18.4951 105.134 18.7167C105.188 18.9384 105.3 19.1416 105.459 19.3049C105.618 19.4682 105.819 19.5856 106.039 19.6447L110.983 20.9749L114.427 24.7602C114.58 24.9286 114.776 25.0527 114.994 25.1194C115.211 25.1862 115.443 25.1931 115.664 25.1396C115.885 25.0861 116.088 24.974 116.251 24.8151C116.414 24.6563 116.532 24.4565 116.591 24.2367L117.92 19.2951L121.708 15.8517C121.877 15.6986 122.002 15.5028 122.069 15.2848C122.136 15.0669 122.143 14.8349 122.09 14.6132C122.036 14.3916 121.924 14.1884 121.765 14.0251C121.606 13.8618 121.406 13.7444 121.185 13.6852L116.241 12.355L112.797 8.56976C112.629 8.38401 112.41 8.25211 112.167 8.19068ZM112.483 11.9935L114.614 14.3386C114.778 14.5178 114.989 14.6463 115.223 14.709L118.285 15.5347L115.94 17.6662C115.76 17.8293 115.631 18.0405 115.567 18.2748L114.742 21.3364L112.61 18.9914C112.446 18.8122 112.235 18.6837 112.001 18.6209L108.941 17.796L111.287 15.6644C111.466 15.5009 111.594 15.2895 111.657 15.0551L112.483 11.9935Z" fill="#3DADE2"/>
<path d="M148.212 28.8369C146.135 28.8369 144.423 30.5485 144.423 32.6252C144.423 34.7019 146.135 36.411 148.212 36.411C149.938 36.411 151.176 35.1188 151.624 33.5268C151.743 33.4088 151.838 33.2684 151.902 33.1137C151.967 32.9589 152 32.7929 152 32.6252C152 32.4575 151.967 32.2915 151.902 32.1367C151.838 31.982 151.743 31.8416 151.624 31.7236C151.176 30.1316 149.938 28.8369 148.212 28.8369ZM148.212 31.3749C148.917 31.3749 149.462 31.9202 149.462 32.6252C149.462 33.3302 148.917 33.873 148.212 33.873C147.507 33.873 146.964 33.3302 146.964 32.6252C146.964 31.9202 147.507 31.3749 148.212 31.3749Z" fill="#3DADE2"/>
</svg>
