<svg width="164" height="152" viewBox="0 0 164 152" fill="none" xmlns="http://www.w3.org/2000/svg">
<path d="M82.5401 15.6572C50.0229 15.6572 23.6359 42.0463 23.6359 74.5634V74.5812V74.6011C24.1995 93.143 20.768 120.399 20.768 120.399L20.5859 121.84H40.3179L44.4166 116.445L48.5152 121.84H68.9855C69.0382 121.84 69.0908 121.837 69.1431 121.83C70.2012 122.089 71.274 122.313 72.3606 122.496V125.893H59.752C54.8352 125.893 52.0052 128.569 50.702 131.141C49.3988 133.712 49.3806 136.248 49.3806 136.248L51.9427 136.283C51.9427 136.283 51.9865 134.273 52.9867 132.299C53.9868 130.326 55.7009 128.456 59.752 128.456H73.304C73.7038 128.68 74.3914 129.027 75.3913 129.359C76.9771 129.886 79.3415 130.393 82.5401 130.393C85.7384 130.393 88.1055 129.886 89.6914 129.359C90.6913 129.027 91.3778 128.68 91.7769 128.456H105.327C109.379 128.456 111.093 130.326 112.093 132.299C113.094 134.273 113.137 136.283 113.137 136.283L115.699 136.248C115.699 136.248 115.681 133.712 114.377 131.141C113.074 128.569 110.244 125.893 105.327 125.893H92.7189V122.496C93.8243 122.309 94.9154 122.082 95.9913 121.817C96.0723 121.832 96.1546 121.84 96.237 121.841H123.701L127.106 116.115L130.514 121.841H145.3L145.019 120.326C145.019 120.326 140.888 98.0222 141.444 74.5941C141.736 62.3041 135.124 47.6957 124.442 36.0377C113.759 24.3798 98.909 15.6576 82.5401 15.6575V15.6572ZM82.5401 18.2193C97.9958 18.2193 112.239 26.5121 122.552 37.7667C132.865 49.0212 139.153 63.226 138.884 74.5336C138.35 97.0354 141.887 117.067 142.284 119.277H131.97L127.106 111.103L122.244 119.277H103.412C115.94 113.718 125.424 102.606 128.795 89.0309C130.028 88.4949 131.403 87.8673 132.701 87.0223C134.185 86.0567 135.561 84.9234 136.237 83.3539C136.956 81.6832 137.218 79.6165 137.125 77.5684C137.032 75.5203 136.595 73.5005 135.596 71.9391C135.532 71.8379 135.453 71.7463 135.363 71.667C135.4 70.126 134.872 68.2204 134.872 68.2204C134.872 68.2204 133.426 70.4795 132.799 71.8789C131.192 75.4653 129.424 78.5486 126.786 80.4039C126.037 78.4597 123.399 71.7115 119.412 63.8967C117.111 59.386 114.507 54.8633 111.808 51.3981C109.109 47.9328 106.34 45.3179 103.143 45.3179H97.1904L93.1313 38.9398L89.0731 45.3179H82.5401H61.9368C58.7395 45.3179 55.9713 47.9328 53.2721 51.3981C50.5727 54.8633 47.9683 59.386 45.6672 63.8967C41.6823 71.7079 39.0468 78.4498 38.2961 80.3986C35.5997 78.5003 33.8114 75.3152 32.1735 71.6332C31.5847 70.3096 30.2973 67.6722 30.2973 67.6722C30.2973 67.6722 29.5972 70.0643 29.6505 71.6935C28.5663 73.2197 28.0928 75.2488 27.967 77.3208C27.8377 79.449 28.0965 81.6153 28.8454 83.3539C29.5216 84.9234 30.8945 86.0567 32.3781 87.0223C33.6765 87.8673 35.0517 88.4949 36.2841 89.0309C39.6552 102.606 49.139 113.718 61.6673 119.277H49.7863L44.4166 112.209L39.0468 119.277H23.4605C23.7437 117.001 26.7449 92.6019 26.1954 74.5237L26.1992 74.5634C26.1992 43.431 51.4088 18.2193 82.5413 18.2193H82.5401ZM93.1313 43.7118L95.7841 47.88H103.143C104.751 47.88 107.265 49.7325 109.789 52.9723C112.313 56.2122 114.87 60.631 117.13 65.0605C121.65 73.9195 124.992 82.8084 124.992 82.8084L125.49 84.1371L126.761 83.5062C130.319 81.7393 132.445 78.5041 134.149 75.0348C134.372 75.8351 134.523 76.7519 134.565 77.6862C134.644 79.4148 134.374 81.1988 133.882 82.3404C133.567 83.0735 132.58 84.0411 131.302 84.8727C130.025 85.7043 128.501 86.4285 127.249 86.9521L126.646 87.2043L126.496 87.8425C122.113 106.642 105.33 120.566 85.1372 120.566H79.9422C59.7492 120.566 42.9673 106.642 38.584 87.8425L38.4364 87.2043L37.8306 86.9521C36.5779 86.4285 35.0547 85.7043 33.777 84.8727C32.4993 84.0411 31.5135 83.0735 31.1977 82.3404C30.686 81.1525 30.4155 79.2699 30.5244 77.4764C30.5767 76.6168 30.7228 75.7789 30.9302 75.0407C32.6343 78.51 34.7621 81.7399 38.3186 83.5062L39.5897 84.1371L40.0875 82.8084C40.0875 82.8084 43.4304 73.9195 47.9499 65.0605C50.2095 60.631 52.7695 56.2122 55.2932 52.9723C57.8168 49.7325 60.3282 47.88 61.9368 47.88H82.5401H90.4792L93.1313 43.7118ZM68.3605 59.122C67.8155 59.1246 67.2797 59.1732 66.7664 59.2816C62.6599 60.1487 57.0106 65.081 57.0106 65.081C57.0106 65.081 63.3879 62.6141 67.2966 61.7887C71.2055 60.9633 76.4308 61.3577 76.4308 61.3577C76.4308 61.3577 72.1754 59.1044 68.3605 59.122ZM96.7196 59.122C92.9047 59.1045 88.6487 61.3577 88.6487 61.3577C88.6487 61.3577 93.8747 60.9633 97.7835 61.7887C101.692 62.6141 108.07 65.081 108.07 65.081C108.07 65.081 102.42 60.1487 98.3138 59.2816C97.8005 59.1732 97.2646 59.1245 96.7196 59.122ZM54.1393 68.1727C54.1393 68.1727 52.1991 69.9271 52.267 70.948C52.3233 71.7921 52.5548 72.5047 52.8245 73.0712C52.5852 72.8775 52.3591 72.6954 51.9731 72.3681C51.4147 71.894 50.0883 70.4468 50.0883 70.4468C50.0883 70.4468 49.2728 72.932 49.838 73.7848C50.1151 74.2028 50.4231 74.5474 50.7351 74.8362C50.2029 75.251 49.7261 75.674 49.3077 76.092C47.2235 78.1749 45.7413 82.3973 45.7413 82.3973C45.7413 82.3973 49.3819 79.6427 51.121 77.9047C51.6742 77.3519 52.3407 76.7829 53.1423 76.2457C53.049 77.5675 53.2527 78.9069 53.7553 80.161C55.5676 84.6824 60.7386 86.8926 65.2602 85.0805C69.0205 83.5732 71.1798 79.7441 70.7585 75.8968C72.5366 76.8234 74.5963 77.3473 74.5963 77.3473C74.5963 77.3473 73.707 74.7843 71.3649 73.2956C70.842 72.9632 70.2474 72.643 69.5873 72.3508L69.5796 72.3362L69.1466 72.1615C69.1067 72.1453 69.0625 72.1316 69.0221 72.1157C68.8388 72.0437 68.6504 71.9747 68.4574 71.9079C68.366 71.8761 68.2769 71.8431 68.1833 71.8126C67.9382 71.733 67.6848 71.6582 67.4246 71.5882C66.7364 71.4023 65.9983 71.2497 65.2028 71.1478C64.7545 71.0905 64.2868 71.0505 63.8039 71.0254C63.7554 71.0228 63.7071 71.0203 63.6583 71.0177C63.1365 70.9944 62.5953 70.991 62.0329 71.01C61.9782 71.0126 61.9226 71.0152 61.8675 71.0177C61.64 71.0267 61.4091 71.0402 61.1749 71.0574C61.1083 71.0625 61.0421 71.0676 60.975 71.0726C60.6847 71.0965 60.3916 71.124 60.0912 71.16C59.7836 71.1969 59.4843 71.241 59.1889 71.2884C59.1352 71.2974 59.0825 71.306 59.0293 71.3149C58.7809 71.3567 58.5369 71.4026 58.2971 71.4514C58.2485 71.4616 58.1996 71.4703 58.1514 71.4804C57.573 71.6022 57.0197 71.7443 56.491 71.9028C56.4872 71.9041 56.4821 71.9054 56.4778 71.9066C56.1039 72.019 55.7416 72.1386 55.3921 72.2668C55.2722 71.9714 55.0961 71.522 54.8247 70.7753C54.575 70.0871 54.1402 68.1721 54.1402 68.1721L54.1393 68.1727ZM110.941 68.1727C110.941 68.1727 110.506 70.0877 110.256 70.7759C109.985 71.5226 109.809 71.9721 109.689 72.2674C109.337 72.1383 108.972 72.0177 108.595 71.9047C108.591 71.9034 108.586 71.9021 108.582 71.9008C108.056 71.7433 107.506 71.6023 106.931 71.4811C106.881 71.4709 106.83 71.4609 106.78 71.4506C106.541 71.4019 106.297 71.3565 106.048 71.3149C105.997 71.3059 105.946 71.2967 105.894 71.2884C105.598 71.2408 105.298 71.1968 104.99 71.1599C104.69 71.124 104.397 71.0964 104.108 71.0725C104.039 71.0674 103.971 71.0623 103.903 71.0573C103.67 71.0403 103.44 71.0271 103.213 71.0176C103.158 71.015 103.102 71.0125 103.047 71.0099C102.485 70.9904 101.944 70.9939 101.422 71.0176C101.373 71.0201 101.325 71.0228 101.276 71.0253C100.793 71.0506 100.326 71.0904 99.8773 71.1478C99.0818 71.2496 98.3443 71.4022 97.6562 71.588C97.3971 71.6578 97.1448 71.7326 96.9007 71.8118C96.8044 71.8432 96.7121 71.8763 96.6181 71.9091C96.4283 71.975 96.243 72.0429 96.0626 72.1137C96.0209 72.1302 95.9749 72.1447 95.9335 72.1614L95.5006 72.3362L95.4929 72.3514C94.8331 72.6434 94.2386 72.9632 93.716 73.2954C91.3738 74.7842 90.4839 77.3472 90.4839 77.3472C90.4839 77.3472 92.5442 76.8232 94.3224 75.8966C93.9011 79.7439 96.0597 83.5731 99.82 85.0804C104.342 86.8925 109.513 84.6823 111.325 80.1608C111.827 78.9068 112.031 77.5674 111.938 76.2455C112.74 76.7828 113.407 77.3518 113.96 77.9045C115.699 79.6425 119.339 82.3971 119.339 82.3971C119.339 82.3971 117.857 78.1749 115.772 76.0919C115.354 75.6739 114.878 75.2508 114.346 74.836C114.658 74.5472 114.966 74.2027 115.243 73.7847C115.808 72.9319 114.993 70.4467 114.993 70.4467C114.993 70.4467 113.665 71.8942 113.107 72.368C112.721 72.6952 112.496 72.8767 112.256 73.0704C112.526 72.504 112.757 71.7917 112.813 70.9479C112.881 69.9271 110.941 68.1726 110.941 68.1726L110.941 68.1727ZM62.7934 73.5564C62.9428 73.5564 63.0886 73.559 63.2337 73.5629C63.2829 73.5639 63.3326 73.5654 63.3814 73.5667C63.5476 73.5718 63.7125 73.5798 63.8732 73.5899C64.22 73.6118 64.5543 73.6441 64.8762 73.6852C65.9978 73.8287 66.9096 74.1147 67.7535 74.4253C67.7687 74.4608 67.7866 74.4949 67.8011 74.5307C69.098 77.7669 67.5418 81.4057 64.3055 82.7029C61.0694 83.9998 57.4305 82.4435 56.1333 79.2073C55.5592 77.775 55.6114 76.2029 56.1282 74.7611C57.1863 74.3586 58.3617 74.014 59.7244 73.7991C59.885 73.7746 60.0478 73.7516 60.213 73.7303C60.274 73.7227 60.3326 73.7125 60.3944 73.7052C60.437 73.7001 60.4778 73.6963 60.5202 73.692C60.6317 73.6792 60.7397 73.6697 60.8492 73.659C60.7998 73.6761 60.7508 73.6945 60.7022 73.7139C59.8657 74.0492 59.1966 74.7031 58.8422 75.5317C58.4877 76.3603 58.4769 77.2958 58.8121 78.1324C59.1474 78.9689 59.8013 79.638 60.6299 79.9925C61.4585 80.3469 62.3941 80.3577 63.2306 80.0225C64.0672 79.6872 64.7362 79.0333 65.0907 78.2047C65.4451 77.3761 65.456 76.4406 65.1207 75.604C64.9167 75.0954 64.5926 74.6436 64.1762 74.2873C63.7598 73.931 63.2635 73.6807 62.7294 73.5577C62.75 73.5576 62.7716 73.5564 62.7923 73.5564H62.7934ZM102.286 73.5564C102.307 73.5564 102.328 73.5577 102.349 73.5577C101.815 73.6808 101.319 73.9312 100.903 74.2875C100.486 74.6439 100.162 75.0955 99.9583 75.6041C99.6231 76.4407 99.6339 77.3761 99.9883 78.2047C100.343 79.0333 101.012 79.6872 101.848 80.0225C102.685 80.3577 103.62 80.347 104.449 79.9925C105.278 79.6381 105.932 78.9689 106.267 78.1324C106.602 77.2958 106.591 76.3604 106.237 75.5318C105.882 74.7032 105.213 74.0492 104.377 73.7139C104.328 73.6945 104.279 73.6762 104.229 73.659C104.336 73.6693 104.442 73.6791 104.55 73.6914C104.595 73.6965 104.639 73.7004 104.684 73.7054C104.739 73.7118 104.791 73.7202 104.845 73.7273C105.023 73.75 105.198 73.775 105.37 73.8015C106.726 74.0165 107.897 74.3609 108.951 74.7614C109.468 76.2032 109.522 77.7753 108.947 79.2076C107.65 82.4438 104.008 84.0002 100.772 82.7032C97.536 81.4061 95.9795 77.7673 97.2765 74.531C97.2911 74.495 97.3118 74.4615 97.3269 74.4257C98.1704 74.1154 99.0808 73.8289 100.202 73.6855C100.523 73.6444 100.856 73.612 101.202 73.5902C101.206 73.5901 101.206 73.5903 101.209 73.5902C101.369 73.58 101.532 73.5727 101.697 73.5671C101.746 73.5658 101.797 73.5645 101.847 73.5632C101.992 73.5594 102.137 73.5568 102.285 73.5568L102.286 73.5564ZM75.7933 82.2186C75.7933 82.2186 75.041 85.4842 74.487 87.0673C73.9332 88.6503 72.8667 90.4805 70.6691 91.7141C68.339 93.022 65.6621 93.7282 63.5813 94.0862C61.5038 94.4438 57.5842 95.0086 57.5713 95.0105C57.5909 95.0194 61.7579 96.9966 64.0169 96.6119C66.2822 96.2221 69.2134 95.4706 71.9236 93.9492C74.7666 92.3534 76.2098 89.9029 76.9061 87.9128C77.6024 85.9226 75.7933 82.2186 75.7933 82.2186ZM57.5713 95.0105C57.5713 95.0104 57.5649 95.0079 57.5649 95.0079V95.0117L57.5725 95.0105H57.5713ZM68.5115 99.8784C68.5115 99.8784 75.2256 107.241 83.3835 106.891C91.085 106.561 94.5792 102.74 94.5792 102.74C94.5792 102.74 90.4272 104.024 83.2736 104.331C76.5764 104.618 68.5115 99.8784 68.5115 99.8784ZM58.5213 101.264C58.5213 101.264 60.3688 106.751 61.7468 108.394C63.1249 110.036 68.7207 109.867 68.7207 109.867C68.7207 109.867 64.8231 108.074 63.7091 106.746C62.595 105.418 58.5213 101.264 58.5213 101.264ZM74.9233 122.852C76.5706 123.034 78.2448 123.129 79.9422 123.129H85.1372C86.8347 123.129 88.5093 123.034 90.1569 122.852V126.367C89.9284 126.501 89.8136 126.618 88.883 126.927C87.5517 127.369 85.4685 127.83 82.5401 127.83C79.6116 127.83 77.5284 127.369 76.1971 126.927C75.2667 126.618 75.1517 126.501 74.9233 126.367V122.852Z" fill="#30414D"/>
<path d="M82.5401 15.6572C50.0229 15.6572 23.6359 42.0463 23.6359 74.5634V74.5812V74.6011C24.1995 93.143 20.768 120.399 20.768 120.399L20.5859 121.84H40.3179L44.4166 116.445L48.5152 121.84H68.9855C69.0382 121.84 69.0908 121.837 69.1431 121.83C70.2012 122.089 71.274 122.313 72.3606 122.496V125.893H59.752C54.8352 125.893 52.0052 128.569 50.702 131.141C49.3988 133.712 49.3806 136.248 49.3806 136.248L51.9427 136.283C51.9427 136.283 51.9866 134.273 52.9867 132.299C53.9868 130.326 55.7009 128.456 59.752 128.456H73.304C73.7038 128.68 74.3914 129.027 75.3913 129.359C76.9771 129.886 79.3415 130.393 82.5401 130.393C82.6459 130.393 82.7433 130.388 82.8472 130.386V127.824C82.7432 127.825 82.6463 127.831 82.5401 127.831C79.6116 127.831 77.5284 127.369 76.1971 126.927C75.2667 126.618 75.1517 126.501 74.9233 126.367V122.853C76.5706 123.034 78.2448 123.129 79.9422 123.129H82.8472V120.567H79.9422C59.7492 120.567 42.9673 106.643 38.584 87.8428L38.4364 87.2046L37.8306 86.9525C36.5779 86.4288 35.0547 85.7046 33.777 84.873C32.4993 84.0414 31.5135 83.0738 31.1977 82.3407C30.686 81.1528 30.4155 79.2702 30.5244 77.4767C30.5767 76.6171 30.7228 75.7792 30.9302 75.041C32.6343 78.5104 34.7621 81.7402 38.3186 83.5066L39.5897 84.1374L40.0875 82.8088C40.0875 82.8088 43.4304 73.9198 47.9499 65.0608C50.2095 60.6313 52.7695 56.2125 55.2932 52.9726C57.8168 49.7328 60.3282 47.8803 61.9368 47.8803H82.5401H82.8472V45.3182H82.5401H61.9368C58.7395 45.3182 55.9713 47.9331 53.2721 51.3984C50.5727 54.8636 47.9683 59.3863 45.6672 63.897C41.6823 71.7082 39.0468 78.4501 38.2961 80.3989C35.5997 78.5006 33.8114 75.3155 32.1735 71.6335C31.5847 70.3099 30.2973 67.6725 30.2973 67.6725C30.2973 67.6725 29.5972 70.0646 29.6505 71.6938C28.5663 73.22 28.0928 75.2492 27.967 77.3211C27.8377 79.4494 28.0965 81.6157 28.8454 83.3542C29.5216 84.9238 30.8945 86.057 32.3781 87.0226C33.6765 87.8676 35.0517 88.4953 36.2841 89.0312C39.6552 102.607 49.139 113.719 61.6673 119.278H49.7863L44.4166 112.209L39.0468 119.278H23.4605C23.7437 117.001 26.7449 92.6023 26.1954 74.524L26.1992 74.5637C26.1992 43.4314 51.4088 18.2196 82.5413 18.2196C82.6439 18.2196 82.7459 18.2248 82.8484 18.2248V15.6627C82.7458 15.662 82.6439 15.6575 82.5413 15.6575L82.5401 15.6572ZM68.3605 59.122C67.8155 59.1246 67.2797 59.1732 66.7664 59.2816C62.6599 60.1487 57.0106 65.081 57.0106 65.081C57.0106 65.081 63.3879 62.6141 67.2966 61.7887C71.2055 60.9633 76.4308 61.3577 76.4308 61.3577C76.4308 61.3577 72.1754 59.1044 68.3605 59.122ZM54.1393 68.1727C54.1393 68.1727 52.1991 69.9271 52.267 70.948C52.3233 71.7921 52.5548 72.5047 52.8245 73.0712C52.5852 72.8775 52.3591 72.6954 51.9731 72.3681C51.4147 71.894 50.0883 70.4468 50.0883 70.4468C50.0883 70.4468 49.2728 72.932 49.838 73.7848C50.1151 74.2028 50.4231 74.5474 50.7351 74.8362C50.2029 75.251 49.7261 75.674 49.3077 76.092C47.2235 78.1749 45.7413 82.3973 45.7413 82.3973C45.7413 82.3973 49.3819 79.6427 51.121 77.9047C51.6742 77.3519 52.3407 76.7829 53.1423 76.2457C53.049 77.5675 53.2527 78.9069 53.7553 80.161C55.5676 84.6824 60.7386 86.8926 65.2602 85.0805C69.0205 83.5732 71.1798 79.7441 70.7585 75.8968C72.5366 76.8234 74.5963 77.3473 74.5963 77.3473C74.5963 77.3473 73.707 74.7843 71.3649 73.2956C70.842 72.9632 70.2474 72.643 69.5873 72.3508L69.5796 72.3362L69.1466 72.1615C69.1067 72.1453 69.0625 72.1316 69.0221 72.1157C68.8388 72.0437 68.6504 71.9747 68.4574 71.9079C68.366 71.8761 68.2769 71.8431 68.1833 71.8126C67.9382 71.733 67.6848 71.6582 67.4246 71.5882C66.7364 71.4023 65.9983 71.2497 65.2028 71.1478C64.7545 71.0905 64.2868 71.0505 63.8039 71.0254C63.7554 71.0228 63.7071 71.0203 63.6583 71.0177C63.1365 70.9944 62.5953 70.991 62.0329 71.01C61.9782 71.0126 61.9226 71.0152 61.8675 71.0177C61.64 71.0267 61.4091 71.0402 61.1749 71.0574C61.1083 71.0625 61.0421 71.0676 60.975 71.0726C60.6847 71.0965 60.3916 71.124 60.0912 71.16C59.7836 71.1969 59.4843 71.241 59.1889 71.2884C59.1352 71.2974 59.0825 71.306 59.0293 71.3149C58.7809 71.3567 58.5369 71.4026 58.2971 71.4514C58.2485 71.4616 58.1996 71.4703 58.1514 71.4804C57.573 71.6022 57.0197 71.7443 56.491 71.9028C56.4872 71.9041 56.4821 71.9054 56.4778 71.9066C56.1039 72.019 55.7416 72.1386 55.3921 72.2668C55.2722 71.9714 55.0961 71.522 54.8247 70.7753C54.575 70.0871 54.1402 68.1721 54.1402 68.1721L54.1393 68.1727ZM62.7934 73.5564C62.9428 73.5564 63.0886 73.559 63.2337 73.5629C63.2829 73.5639 63.3326 73.5654 63.3814 73.5667C63.5476 73.5718 63.7125 73.5798 63.8732 73.5899C64.22 73.6118 64.5543 73.6441 64.8762 73.6852C65.9978 73.8287 66.9096 74.1147 67.7535 74.4253C67.7687 74.4608 67.7866 74.4949 67.8011 74.5307C69.098 77.7669 67.5418 81.4057 64.3055 82.7029C61.0694 83.9998 57.4305 82.4435 56.1333 79.2073C55.5592 77.775 55.6114 76.2029 56.1282 74.7611C57.1863 74.3586 58.3617 74.014 59.7244 73.7991C59.885 73.7746 60.0478 73.7516 60.213 73.7303C60.274 73.7227 60.3326 73.7125 60.3944 73.7052C60.437 73.7001 60.4778 73.6963 60.5202 73.692C60.6317 73.6792 60.7397 73.6697 60.8492 73.659C60.7998 73.6761 60.7508 73.6945 60.7022 73.7139C59.8657 74.0492 59.1966 74.7031 58.8422 75.5317C58.4877 76.3603 58.4769 77.2958 58.8121 78.1324C59.1474 78.9689 59.8013 79.638 60.6299 79.9925C61.4585 80.3469 62.3941 80.3577 63.2306 80.0225C64.0672 79.6872 64.7362 79.0333 65.0907 78.2047C65.4451 77.3761 65.456 76.4406 65.1207 75.604C64.9167 75.0954 64.5926 74.6436 64.1762 74.2873C63.7598 73.931 63.2635 73.6807 62.7294 73.5577C62.75 73.5576 62.7716 73.5564 62.7923 73.5564H62.7934ZM75.7933 82.2186C75.7933 82.2186 75.041 85.4842 74.487 87.0673C73.9332 88.6503 72.8667 90.4805 70.6691 91.7141C68.339 93.022 65.6621 93.7282 63.5813 94.0862C61.5038 94.4438 57.5842 95.0086 57.5713 95.0105C57.5909 95.0194 61.7579 96.9966 64.0169 96.6119C66.2822 96.2221 69.2134 95.4706 71.9236 93.9492C74.7666 92.3534 76.2098 89.9029 76.9061 87.9128C77.6024 85.9226 75.7933 82.2186 75.7933 82.2186ZM57.5713 95.0105C57.5713 95.0104 57.5649 95.0079 57.5649 95.0079V95.0117L57.5725 95.0105H57.5713ZM68.5115 99.8784C68.5115 99.8784 74.9338 106.916 82.8472 106.899V104.339C76.239 104.417 68.5115 99.8784 68.5115 99.8784ZM58.5213 101.264C58.5213 101.264 60.3688 106.751 61.7468 108.394C63.1249 110.036 68.7207 109.867 68.7207 109.867C68.7207 109.867 64.8231 108.074 63.7091 106.746C62.595 105.418 58.5213 101.264 58.5213 101.264Z" fill="#608199"/>
<path d="M82.5398 0C81.8602 0 81.2086 0.269909 80.728 0.750423C80.2475 1.23094 79.9775 1.88269 79.9775 2.56224V148.778C79.9775 149.457 80.2475 150.109 80.728 150.59C81.2086 151.07 81.8602 151.34 82.5398 151.34C83.2193 151.34 83.8711 151.07 84.3516 150.59C84.8321 150.109 85.102 149.457 85.102 148.778V2.56224C85.102 1.88269 84.8321 1.23094 84.3516 0.750423C83.8711 0.269909 83.2193 0 82.5398 0Z" fill="#3DADE2"/>
<path d="M1.28112 90.4141C0.941347 90.4141 0.615507 90.5491 0.37525 90.7893C0.134994 91.0296 0 91.3554 0 91.6952C0 92.035 0.134994 92.3608 0.37525 92.6011C0.615507 92.8413 0.941347 92.9763 1.28112 92.9763H8.54498C8.88476 92.9763 9.2106 92.8413 9.45085 92.6011C9.69111 92.3608 9.8261 92.035 9.8261 91.6952C9.8261 91.3554 9.69111 91.0296 9.45085 90.7893C9.2106 90.5491 8.88476 90.4141 8.54498 90.4141H1.28112ZM17.9657 90.4141C17.626 90.4141 17.3001 90.5491 17.0599 90.7893C16.8196 91.0296 16.6846 91.3554 16.6846 91.6952C16.6846 92.035 16.8196 92.3608 17.0599 92.6011C17.3001 92.8413 17.626 92.9763 17.9657 92.9763H33.4918C33.8316 92.9763 34.1574 92.8413 34.3977 92.6011C34.638 92.3608 34.7729 92.035 34.7729 91.6952C34.7729 91.3554 34.638 91.0296 34.3977 90.7893C34.1574 90.5491 33.8316 90.4141 33.4918 90.4141H17.9657Z" fill="#3DADE2"/>
<path d="M10.8221 100.03C10.4824 100.03 10.1565 100.165 9.91627 100.406C9.67601 100.646 9.54102 100.972 9.54102 101.311C9.54102 101.651 9.67601 101.977 9.91627 102.217C10.1565 102.458 10.4824 102.593 10.8221 102.593H32.3009C32.6407 102.593 32.9666 102.458 33.2068 102.217C33.4471 101.977 33.5821 101.651 33.5821 101.311C33.5821 100.972 33.4471 100.646 33.2068 100.406C32.9666 100.165 32.6407 100.03 32.3009 100.03H10.8221Z" fill="#3DADE2"/>
<path d="M13.2518 125.112C12.9121 125.112 12.5862 125.247 12.346 125.488C12.1057 125.728 11.9707 126.054 11.9707 126.393C11.9707 126.733 12.1057 127.059 12.346 127.299C12.5862 127.54 12.9121 127.675 13.2518 127.675H31.3126C31.6524 127.675 31.9783 127.54 32.2185 127.299C32.4588 127.059 32.5938 126.733 32.5938 126.393C32.5938 126.054 32.4588 125.728 32.2185 125.488C31.9783 125.247 31.6524 125.112 31.3126 125.112H13.2518ZM39.5423 125.112C39.2026 125.112 38.8767 125.247 38.6365 125.488C38.3962 125.728 38.2612 126.054 38.2612 126.393C38.2612 126.733 38.3962 127.059 38.6365 127.299C38.8767 127.54 39.2026 127.675 39.5423 127.675H46.2983C46.638 127.675 46.9639 127.54 47.2041 127.299C47.4444 127.059 47.5794 126.733 47.5794 126.393C47.5794 126.054 47.4444 125.728 47.2041 125.488C46.9639 125.247 46.638 125.112 46.2983 125.112H39.5423Z" fill="#3DADE2"/>
<path d="M17.953 49.168C17.6132 49.168 17.2874 49.303 17.0471 49.5432C16.8069 49.7835 16.6719 50.1093 16.6719 50.4491C16.6719 50.7889 16.8069 51.1147 17.0471 51.355C17.2874 51.5952 17.6132 51.7302 17.953 51.7302H37.7103C38.0501 51.7302 38.3759 51.5952 38.6162 51.355C38.8564 51.1147 38.9914 50.7889 38.9914 50.4491C38.9914 50.1093 38.8564 49.7835 38.6162 49.5432C38.3759 49.303 38.0501 49.168 37.7103 49.168H17.953Z" fill="#3DADE2"/>
<path d="M3.24011 61.1885C2.90033 61.1885 2.57449 61.3235 2.33423 61.5637C2.09398 61.804 1.95898 62.1298 1.95898 62.4696C1.95898 62.8094 2.09398 63.1352 2.33423 63.3755C2.57449 63.6157 2.90033 63.7507 3.24011 63.7507H22.6471C22.9869 63.7507 23.3127 63.6157 23.553 63.3755C23.7932 63.1352 23.9282 62.8094 23.9282 62.4696C23.9282 62.1298 23.7932 61.804 23.553 61.5637C23.3127 61.3235 22.9869 61.1885 22.6471 61.1885H3.24011ZM29.7658 61.1885C29.4261 61.1885 29.1002 61.3235 28.86 61.5637C28.6197 61.804 28.4847 62.1298 28.4847 62.4696C28.4847 62.8094 28.6197 63.1352 28.86 63.3755C29.1002 63.6157 29.4261 63.7507 29.7658 63.7507H39.657C39.9968 63.7507 40.3226 63.6157 40.5629 63.3755C40.8031 63.1352 40.9381 62.8094 40.9381 62.4696C40.9381 62.1298 40.8031 61.804 40.5629 61.5637C40.3226 61.3235 39.9968 61.1885 39.657 61.1885H29.7658Z" fill="#3DADE2"/>
<path d="M12.0858 30.3564C11.746 30.3564 11.4202 30.4914 11.1799 30.7317C10.9397 30.972 10.8047 31.2978 10.8047 31.6376C10.8047 31.9773 10.9397 32.3032 11.1799 32.5434C11.4202 32.7837 11.746 32.9187 12.0858 32.9187H29.5636C29.9034 32.9187 30.2292 32.7837 30.4695 32.5434C30.7097 32.3032 30.8447 31.9773 30.8447 31.6376C30.8447 31.2978 30.7097 30.972 30.4695 30.7317C30.2292 30.4914 29.9034 30.3564 29.5636 30.3564H12.0858ZM39.1045 30.3564C38.7647 30.3564 38.4389 30.4914 38.1986 30.7317C37.9583 30.972 37.8233 31.2978 37.8233 31.6376C37.8233 31.9773 37.9583 32.3032 38.1986 32.5434C38.4389 32.7837 38.7647 32.9187 39.1045 32.9187H59.69C60.0298 32.9187 60.3556 32.7837 60.5959 32.5434C60.8361 32.3032 60.9711 31.9773 60.9711 31.6376C60.9711 31.2978 60.8361 30.972 60.5959 30.7317C60.3556 30.4914 60.0298 30.3564 59.69 30.3564H39.1045Z" fill="#3DADE2"/>
<path d="M29.5482 21.5967C29.2084 21.5967 28.8826 21.7317 28.6423 21.9719C28.4021 22.2122 28.2671 22.538 28.2671 22.8778C28.2671 23.2176 28.4021 23.5434 28.6423 23.7837C28.8826 24.0239 29.2084 24.1589 29.5482 24.1589H46.8559C47.1956 24.1589 47.5215 24.0239 47.7617 23.7837C48.002 23.5434 48.137 23.2176 48.137 22.8778C48.137 22.538 48.002 22.2122 47.7617 21.9719C47.5215 21.7317 47.1956 21.5967 46.8559 21.5967H29.5482Z" fill="#3DADE2"/>
<path d="M11.8304 107.979C11.4907 107.979 11.1648 108.114 10.9246 108.355C10.6843 108.595 10.5493 108.921 10.5493 109.261C10.5493 109.6 10.6843 109.926 10.9246 110.166C11.1648 110.407 11.4907 110.542 11.8304 110.542H24.6116C24.9514 110.542 25.2772 110.407 25.5175 110.166C25.7578 109.926 25.8928 109.6 25.8928 109.261C25.8928 108.921 25.7578 108.595 25.5175 108.355C25.2772 108.114 24.9514 107.979 24.6116 107.979H11.8304ZM31.275 107.979C30.9352 107.979 30.6093 108.114 30.3691 108.355C30.1288 108.595 29.9938 108.921 29.9938 109.261C29.9938 109.6 30.1288 109.926 30.3691 110.166C30.6093 110.407 30.9352 110.542 31.275 110.542H39.5097C39.8494 110.542 40.1753 110.407 40.4155 110.166C40.6558 109.926 40.7908 109.6 40.7908 109.261C40.7908 108.921 40.6558 108.595 40.4155 108.355C40.1753 108.114 39.8494 107.979 39.5097 107.979H31.275Z" fill="#3DADE2"/>
<path d="M157.355 94.9835C157.152 94.718 156.852 94.5429 156.521 94.4962C156.19 94.4494 155.854 94.5346 155.585 94.7335L151.448 97.7866L146.317 98.1244C146.088 98.139 145.868 98.2149 145.679 98.3442C145.49 98.4735 145.339 98.6514 145.242 98.8592C145.145 99.0669 145.107 99.2968 145.13 99.5248C145.153 99.7527 145.237 99.9702 145.373 100.154L148.427 104.293L148.767 109.423C148.782 109.651 148.858 109.871 148.988 110.06C149.117 110.248 149.295 110.399 149.502 110.495C149.71 110.591 149.939 110.63 150.167 110.607C150.394 110.584 150.612 110.501 150.796 110.365L154.932 107.312L160.064 106.974C160.292 106.96 160.513 106.884 160.702 106.754C160.891 106.625 161.042 106.447 161.138 106.239C161.235 106.032 161.274 105.802 161.251 105.574C161.228 105.346 161.144 105.128 161.008 104.944L157.953 100.806L157.613 95.6756C157.597 95.4245 157.508 95.1837 157.355 94.9835ZM155.224 98.1704L155.433 101.347C155.45 101.59 155.535 101.824 155.68 102.02L157.571 104.584L154.394 104.793C154.151 104.808 153.917 104.893 153.72 105.038L151.156 106.928L150.947 103.751C150.931 103.508 150.845 103.275 150.7 103.079L148.811 100.517L151.988 100.308C152.231 100.292 152.464 100.206 152.66 100.061L155.224 98.1704Z" fill="#3DADE2"/>
<path d="M110.862 92.5459C108.776 92.5459 107.056 94.2629 107.056 96.3492C107.056 98.4355 108.776 100.155 110.862 100.155C112.596 100.155 113.84 98.8544 114.29 97.255C114.41 97.1365 114.505 96.9954 114.57 96.84C114.634 96.6845 114.668 96.5177 114.668 96.3492C114.667 96.1818 114.634 96.0161 114.57 95.8615C114.505 95.707 114.411 95.5666 114.292 95.4484C113.844 93.8463 112.598 92.5459 110.862 92.5459ZM110.862 95.0956C111.57 95.0956 112.118 95.641 112.118 96.3492C112.118 97.0574 111.57 97.6053 110.862 97.6053C110.154 97.6053 109.608 97.0574 109.608 96.3492C109.608 95.641 110.154 95.0956 110.862 95.0956Z" fill="#3DADE2"/>
<path d="M131.963 18.7242C132.069 18.4071 132.047 18.0608 131.9 17.7601C131.754 17.4594 131.495 17.2283 131.18 17.1165L126.336 15.3949L123.186 11.3297C123.046 11.1484 122.86 11.0081 122.647 10.9236C122.434 10.8391 122.202 10.8136 121.976 10.8497C121.75 10.8857 121.537 10.9821 121.361 11.1287C121.185 11.2752 121.052 11.4664 120.975 11.6823L119.253 16.5288L115.19 19.6795C115.009 19.8196 114.869 20.0058 114.785 20.2185C114.701 20.4313 114.676 20.6627 114.712 20.8885C114.748 21.1144 114.845 21.3263 114.991 21.5022C115.137 21.6781 115.328 21.8114 115.543 21.8881L120.387 23.6097L123.537 27.6749C123.677 27.8563 123.863 27.9966 124.076 28.0811C124.289 28.1655 124.521 28.1911 124.747 28.155C124.974 28.1189 125.186 28.0225 125.362 27.876C125.538 27.7295 125.672 27.5382 125.748 27.3223L127.471 22.4758L131.534 19.3252C131.733 19.1716 131.882 18.9625 131.963 18.7242ZM128.129 18.7399L125.612 20.6896C125.42 20.8392 125.275 21.0408 125.193 21.2706L124.125 24.2717L122.175 21.7548C122.026 21.5617 121.825 21.4155 121.595 21.3334L118.594 20.2648L121.111 18.3151C121.303 18.1655 121.449 17.9638 121.53 17.7341L122.598 14.7353L124.547 17.2522C124.697 17.4446 124.899 17.59 125.128 17.6713L128.129 18.7399Z" fill="#3DADE2"/>
<path d="M140.013 34.2451C137.927 34.2451 136.209 35.9622 136.209 38.0484C136.209 40.1347 137.927 41.8543 140.013 41.8543C141.747 41.8543 142.991 40.5536 143.441 38.9542C143.56 38.8357 143.655 38.6947 143.72 38.5392C143.785 38.3837 143.819 38.2169 143.819 38.0484C143.818 37.881 143.785 37.7153 143.721 37.5608C143.656 37.4062 143.562 37.2658 143.443 37.1477C142.995 35.5455 141.749 34.2451 140.013 34.2451ZM140.013 36.7948C140.721 36.7948 141.269 37.3402 141.269 38.0484C141.269 38.7567 140.721 39.3045 140.013 39.3045C139.305 39.3045 138.759 38.7567 138.759 38.0484C138.759 37.3402 139.305 36.7948 140.013 36.7948Z" fill="#3DADE2"/>
</svg>
