<svg width="174" height="156" viewBox="0 0 174 156" fill="none" xmlns="http://www.w3.org/2000/svg">
<path d="M90.3705 15.2943C90.0913 15.2917 89.8121 15.2932 89.5332 15.2969C84.0921 15.3733 78.7101 16.5967 73.5631 18.7523C59.838 24.5005 47.6891 36.7253 39.6909 51.3733C31.6927 66.0213 27.8335 83.1347 30.9879 98.7525C34.0937 114.13 44.123 127.985 63.3608 136.187C62.6715 138.206 62.6594 139.873 62.6594 139.873L65.2903 139.909C65.2903 139.909 65.3348 137.846 66.3615 135.82C67.3883 133.794 69.148 131.874 73.307 131.874H87.2169C87.6273 132.104 88.3333 132.461 89.3598 132.801C90.9879 133.342 93.418 133.862 96.7016 133.862C99.9851 133.862 102.412 133.342 104.04 132.801C105.067 132.461 105.773 132.104 106.183 131.874H120.095C120.413 131.874 120.711 131.889 121.001 131.91V131.916C121.019 131.916 121.037 131.915 121.056 131.916C124.53 132.191 126.098 133.959 127.042 135.82C128.068 137.846 128.113 139.91 128.113 139.91L130.743 139.874C130.743 139.874 130.724 137.271 129.386 134.631C128.841 133.554 128.029 132.463 126.923 131.544C137.351 129.98 145.601 123.698 151.338 115.021C158.121 104.76 161.53 91.1592 161.418 77.6291C161.306 64.099 157.673 50.6134 150.113 40.6311C142.639 30.7606 131.211 24.4231 115.999 25.1308C107.799 18.3815 99.0242 15.3629 90.3705 15.2947L90.3705 15.2943ZM89.5556 17.8763C98.0049 17.7307 106.567 20.5949 114.723 27.45L115.124 27.7865L115.645 27.7558C130.332 26.9222 140.901 32.825 148.015 42.2183C155.128 51.6115 158.68 64.579 158.788 77.6497C158.896 90.7205 155.56 103.869 149.145 113.572C142.74 123.26 133.408 129.523 121.11 129.285C120.781 129.259 120.445 129.243 120.095 129.243H107.151V125.755C125.311 122.694 139.816 109.096 144.209 91.4211C145.466 90.8729 146.876 90.1966 148.197 89.3372C149.72 88.3459 151.131 87.1831 151.825 85.5718C152.777 83.3635 152.979 80.4756 152.559 77.8366C152.349 76.5171 151.977 75.2628 151.371 74.1896C150.766 73.1163 149.882 72.1813 148.66 71.7904C148.418 71.7132 148.177 71.6732 147.938 71.6504C148.002 71.4029 148.054 71.1731 148.087 70.9707C148.668 67.3501 147.552 65.3486 147.552 65.3486C147.552 65.3486 146.565 67.8226 145.677 69.9152C144.788 72.0077 142.183 77.8856 142.183 77.8856C140.051 69.197 137.805 60.3158 129.308 52.9352L127.13 51.0417V58.7252C123.534 52.6375 120.295 46.4798 118.399 39.9884L117.685 37.5477L116.104 39.5391C112.465 44.1219 106.665 47.4281 100.34 50.4538L106.423 37.7224L102.28 40.6769C96.5015 44.7968 90.6527 48.9933 84.7089 54.1042L87.9122 43.6592L84.6783 46.0917C71.4826 56.016 59.1214 66.6917 50.1611 80.036C50.1611 80.036 49.3038 72.6535 48.9106 70.2258C48.5173 67.7981 47.9705 65.4512 47.9705 65.4512C47.9705 65.4512 46.6538 66.8521 46.3027 70.5568C46.2741 70.8595 46.2703 71.2439 46.2769 71.6599C46.1301 71.6403 45.9821 71.6273 45.8317 71.6259C45.4751 71.622 45.1099 71.6729 44.7422 71.7904C43.5197 72.1813 42.6352 73.1164 42.0296 74.1896C41.4241 75.2629 41.053 76.5172 40.843 77.8367C40.4231 80.4756 40.6243 83.3635 41.5757 85.5719C42.2698 87.1832 43.6812 88.3459 45.2044 89.3372C46.5249 90.1966 47.9349 90.8729 49.1919 91.4211C53.5854 109.096 68.091 122.695 86.2518 125.756V129.244L73.307 129.244C68.7831 129.244 65.9823 131.45 64.4857 133.809C45.8563 125.903 36.5228 112.867 33.5665 98.2305C30.5691 83.3899 34.2429 66.8369 41.9977 52.6348C49.7525 38.4328 61.5752 26.6239 74.58 21.1774C79.4567 19.135 84.486 17.9637 89.5556 17.8763ZM116.67 42.7036C119.185 50.3024 122.999 57.4489 127.33 64.3692L129.76 68.25V57.3789C136.586 64.72 138.241 73.2653 140.57 82.2708L141.52 85.9491C141.52 85.9491 145.096 79.1579 146.986 74.4037C147.32 74.2275 147.568 74.2028 147.859 74.2956C148.264 74.4252 148.689 74.7866 149.081 75.4816C149.473 76.1766 149.787 77.162 149.96 78.2499C150.306 80.4255 150.06 83.0216 149.41 84.5306C149.086 85.2832 148.074 86.2786 146.762 87.1324C145.45 87.9861 143.886 88.7289 142.6 89.2665L141.979 89.5254L141.826 90.1813C137.326 109.482 120.097 123.776 99.3665 123.776H94.0345C73.3039 123.776 56.0746 109.482 51.5748 90.1813L51.4219 89.5254L50.8006 89.2665C49.5146 88.7289 47.9509 87.9861 46.6391 87.1324C45.3274 86.2786 44.3154 85.2832 43.9912 84.5306C43.3412 83.0217 43.0945 80.4255 43.4406 78.2499C43.6137 77.162 43.9286 76.1766 44.3208 75.4816C44.7129 74.7865 45.1378 74.4251 45.5428 74.2956C45.8408 74.2003 46.1166 74.2294 46.4583 74.4179C46.9846 79.6848 48.445 87.3777 48.445 87.3777L50.4003 84.1948C58.4573 71.0687 70.2147 60.5941 82.9826 50.7643L79.6665 61.5838C77.0118 63.2899 74.6943 66.6078 75.4309 67.5764C76.4105 68.8646 89.2254 65.7425 90.4853 64.7844C91.7452 63.8263 85.7388 60.2831 82.3056 60.563C81.8399 60.601 81.3563 60.7368 80.8702 60.9416L83.0621 58.8896C88.6422 53.6652 94.1297 49.7192 99.6465 45.8069L94.7503 56.0561L98.0099 54.6071C105.146 51.4326 111.873 47.8545 116.67 42.7035V42.7036ZM110.766 60.5481C107.294 60.5024 101.695 63.8564 102.916 64.7845C104.176 65.7425 116.991 68.8647 117.971 67.5765C118.95 66.2883 114.529 60.8429 111.095 60.5631C110.988 60.5539 110.878 60.5496 110.766 60.548V60.5481ZM74.4454 69.9832C74.4454 69.9832 74.4109 71.9986 74.3047 72.7426C74.1825 73.5946 74.1 74.077 74.0424 74.3908C73.8511 74.3515 73.6608 74.3132 73.4728 74.2794C73.375 74.2619 73.2787 74.2458 73.1819 74.2298C72.9668 74.1939 72.7538 74.1615 72.543 74.1326C72.474 74.1234 72.4044 74.1128 72.3357 74.1041C72.2535 74.0935 72.1711 74.0829 72.0896 74.0734C72.0638 73.3432 71.9065 72.4093 71.3849 71.4384C70.8878 70.5131 68.2435 70.0451 68.2435 70.0451C68.2435 70.0451 68.9095 71.948 69.0672 72.6828C69.1903 73.2578 69.2576 73.6169 69.318 73.9402C69.1751 73.9429 69.0315 73.9455 68.8911 73.952L67.574 74.0097L67.5779 74.0669C67.4913 74.0774 67.4019 74.0841 67.3163 74.0954C65.2898 74.3621 63.5839 74.937 62.2222 75.5954C59.4988 76.9123 56.6381 80.5066 56.6381 80.5066C56.6381 80.5066 61.0963 79.0628 63.3688 77.964C64.0926 77.614 64.9328 77.2871 65.8931 77.0363C65.3551 78.2862 65.0985 79.6532 65.1631 81.0395C65.3959 86.0349 69.6633 89.9227 74.6587 89.6902C78.8126 89.4967 82.1987 86.5121 83.0885 82.6401C84.5002 84.1378 86.3203 85.3397 86.3203 85.3397C86.3203 85.3397 86.3203 82.5544 84.5525 80.3211C84.1578 79.8229 83.69 79.3123 83.149 78.8068L83.1451 78.7892L82.7834 78.4725C82.7417 78.4359 82.6935 78.4003 82.6509 78.3637C82.5092 78.2428 82.3623 78.123 82.2112 78.0035C82.1288 77.9383 82.049 77.8725 81.9637 77.8077C81.7591 77.6526 81.5456 77.4995 81.3242 77.3483C81.2325 77.2857 81.1416 77.2232 81.0469 77.1614C81.4035 76.6892 81.7451 76.0956 81.9767 75.3671C82.2949 74.3661 80.7907 72.1414 80.7907 72.1414C80.7907 72.1414 79.8878 73.9444 79.4701 74.5692C79.0792 75.1538 78.7955 75.5584 78.5995 75.832C78.3969 75.7414 78.1891 75.6531 77.9769 75.5669C77.9359 75.5502 77.8945 75.5337 77.8531 75.5173C77.6226 75.4255 77.3875 75.3357 77.1456 75.2495C77.122 75.2416 77.0988 75.2328 77.075 75.2244C76.9396 75.1766 76.8007 75.1302 76.6618 75.0844C76.8889 74.3913 77.0625 73.4646 76.9098 72.378C76.7636 71.3379 74.4454 69.9836 74.4454 69.9836V69.9832ZM118.956 69.9832C118.956 69.9832 116.637 71.3375 116.491 72.3776C116.338 73.4645 116.512 74.3915 116.739 75.0847C116.601 75.1305 116.461 75.1764 116.326 75.2241C116.303 75.232 116.28 75.2409 116.257 75.2492C116.011 75.3368 115.772 75.4276 115.538 75.521C115.504 75.5349 115.469 75.5485 115.434 75.5624C115.219 75.6499 115.007 75.7395 114.802 75.8316C114.606 75.558 114.322 75.1534 113.931 74.5688C113.513 73.944 112.61 72.141 112.61 72.141C112.61 72.141 111.106 74.3657 111.424 75.3667C111.656 76.0949 111.998 76.6882 112.354 77.1603C112.259 77.2222 112.169 77.2851 112.077 77.3479C111.856 77.499 111.642 77.6524 111.438 77.8074C111.351 77.8735 111.269 77.9405 111.185 78.0072C111.035 78.1261 110.889 78.2451 110.748 78.3654C110.706 78.4012 110.659 78.4361 110.618 78.472L110.256 78.7888L110.252 78.8071C109.711 79.3124 109.243 79.8226 108.849 80.3206C107.08 82.554 107.081 85.3393 107.081 85.3393C107.081 85.3393 108.901 84.1363 110.313 82.6383C111.203 86.5109 114.588 89.4962 118.742 89.6898C123.738 89.9222 128.005 86.0344 128.238 81.039C128.302 79.6527 128.046 78.2858 127.508 77.0359C128.468 77.2867 129.308 77.6136 130.032 77.9636C132.305 79.0624 136.763 80.5061 136.763 80.5061C136.763 80.5061 133.902 76.9118 131.179 75.5949C129.817 74.9365 128.112 74.3617 126.085 74.095C126 74.0832 125.91 74.0765 125.823 74.0664L125.827 74.0093L124.51 73.9516C124.369 73.9451 124.226 73.9424 124.083 73.9397C124.144 73.6165 124.211 73.2577 124.335 72.683C124.492 71.9482 125.158 70.0453 125.158 70.0453C125.158 70.0453 122.513 70.5134 122.016 71.4386C121.495 72.4095 121.338 73.3434 121.312 74.0736C121.23 74.0829 121.146 74.0943 121.063 74.105C120.997 74.1128 120.93 74.1231 120.864 74.1322C120.65 74.1614 120.435 74.1945 120.218 74.2307C120.122 74.2467 120.025 74.2623 119.928 74.2796C119.74 74.3134 119.55 74.3519 119.359 74.3911C119.301 74.0772 119.218 73.5949 119.096 72.7428C118.99 71.9988 118.956 69.9834 118.956 69.9834V69.9832ZM70.2817 76.5834C70.9696 76.6027 71.6941 76.6649 72.4574 76.7784C72.5173 76.7876 72.5771 76.7958 72.6375 76.8056C72.7813 76.8284 72.9265 76.8538 73.0731 76.8804C73.2566 76.914 73.4421 76.9501 73.6298 76.9898C73.6792 77.0003 73.7273 77.0087 73.7772 77.0197C73.9302 77.0531 74.0694 77.0928 74.2177 77.1284C74.1694 77.1287 74.1212 77.13 74.073 77.1324C73.1487 77.1754 72.2793 77.5837 71.6561 78.2677C71.033 78.9516 70.7071 79.8551 70.7501 80.7794C70.7714 81.2371 70.8826 81.6862 71.0774 82.1009C71.2723 82.5156 71.5469 82.8878 71.8856 83.1964C72.2244 83.505 72.6206 83.7438 73.0516 83.8992C73.4827 84.0546 73.9401 84.1237 74.3978 84.1023C75.322 84.0593 76.1914 83.6509 76.8145 82.9669C77.4377 82.2829 77.7636 81.3794 77.7207 80.4552C77.6946 79.8971 77.535 79.3536 77.2551 78.8701C76.9753 78.3866 76.5835 77.9773 76.1126 77.6768C78.0744 78.3591 79.5406 79.2417 80.6643 80.1555C80.6682 80.2097 80.6786 80.2631 80.6814 80.3173V80.3179C80.8473 83.893 78.1103 86.8964 74.5352 87.0629C70.9598 87.2293 67.9561 84.4928 67.7895 80.9174C67.7159 79.3366 68.2513 77.8082 69.2372 76.5852C69.5761 76.5747 69.9242 76.5734 70.2819 76.5839L70.2817 76.5834ZM123.119 76.5834C123.477 76.5728 123.825 76.5741 124.164 76.5846C125.15 77.8077 125.685 79.336 125.612 80.9168C125.445 84.4922 122.441 87.2287 118.866 87.0623C115.291 86.8957 112.554 83.8924 112.72 80.3173V80.3167C112.724 80.2625 112.732 80.2091 112.737 80.155C113.86 79.2412 115.327 78.3585 117.288 77.6762C116.818 77.9768 116.426 78.3861 116.146 78.8696C115.867 79.3531 115.707 79.8966 115.681 80.4546C115.638 81.3789 115.964 82.2824 116.587 82.9663C117.21 83.6503 118.08 84.0587 119.004 84.1017C119.928 84.1447 120.832 83.8188 121.516 83.1956C122.2 82.5724 122.608 81.7031 122.651 80.7788C122.694 79.8546 122.368 78.9511 121.745 78.2671C121.122 77.5832 120.252 77.1748 119.328 77.1318C119.28 77.1295 119.231 77.1282 119.183 77.1279C119.331 77.0921 119.471 77.0526 119.624 77.0191C119.664 77.0099 119.702 77.0037 119.742 76.9953C119.941 76.9528 120.138 76.9141 120.333 76.8784C120.481 76.8515 120.627 76.8265 120.772 76.8036C120.824 76.7957 120.874 76.7877 120.925 76.7798C121.695 76.6644 122.426 76.6023 123.119 76.5827V76.5834ZM67.0683 91.0649C66.6602 91.0638 66.1745 91.0887 65.6662 91.1716C64.9884 91.282 64.2388 91.4918 63.5395 91.9599C62.8403 92.4281 62.215 93.2111 61.9804 94.2028C61.7607 95.1316 61.9057 96.0613 62.3012 96.7251C62.6967 97.3888 63.2263 97.772 63.6319 98.0613C64.0323 98.3469 64.3216 98.5624 64.4 98.6492C64.3882 98.714 64.4296 98.693 64.2124 98.8164C63.9874 98.9443 63.5336 99.0969 62.9897 99.2738C62.4457 99.4507 61.8038 99.6553 61.1709 100.072C60.5381 100.489 59.9212 101.199 59.6866 102.12C59.2771 103.726 59.9817 105.133 60.7652 105.806C61.5486 106.479 62.4093 106.677 62.4093 106.677C62.5768 106.719 62.7509 106.728 62.9219 106.703C63.0929 106.678 63.2573 106.62 63.4056 106.531C63.554 106.443 63.6835 106.326 63.7867 106.187C63.8899 106.049 63.9648 105.891 64.0071 105.724C64.0495 105.556 64.0585 105.382 64.0336 105.211C64.0086 105.04 63.9502 104.876 63.8618 104.727C63.7733 104.579 63.6564 104.45 63.5179 104.346C63.3793 104.243 63.2218 104.168 63.0543 104.126C63.0543 104.126 62.7306 104.026 62.4786 103.81C62.2266 103.593 62.0428 103.522 62.2346 102.77C62.3007 102.511 62.3746 102.431 62.6199 102.269C62.8652 102.107 63.2896 101.942 63.8012 101.776C64.3128 101.609 64.9049 101.448 65.5125 101.103C66.1202 100.757 66.7856 100.096 66.9793 99.2018C67.1631 98.3536 66.836 97.4358 66.3935 96.9283C65.951 96.4208 65.4951 96.1596 65.1605 95.921C64.8261 95.6825 64.629 95.4921 64.5618 95.3793C64.4945 95.2665 64.4419 95.2182 64.5387 94.8091C64.6207 94.4629 64.7477 94.3159 65.0009 94.1464C65.2541 93.9769 65.6564 93.8393 66.0904 93.7685C66.9582 93.6271 67.8297 93.7428 67.8297 93.7428C68.0005 93.7682 68.1747 93.7598 68.3422 93.7179C68.5098 93.676 68.6674 93.6015 68.8062 93.4987C68.945 93.3959 69.0622 93.2667 69.1511 93.1186C69.2399 92.9705 69.2988 92.8064 69.3242 92.6356C69.3496 92.4646 69.3411 92.2903 69.2991 92.1226C69.2571 91.9549 69.1825 91.7971 69.0795 91.6583C68.9764 91.5195 68.847 91.4024 68.6987 91.3136C68.5504 91.2249 68.386 91.1662 68.215 91.141C68.215 91.141 67.7488 91.0667 67.0684 91.0649H67.0683ZM76.5095 91.4748C76.195 91.4734 75.8194 91.502 75.4227 91.6005C74.3649 91.8631 73.06 92.7999 72.5661 94.506C72.2773 95.5038 72.5184 96.5413 72.98 97.2369C73.4417 97.9325 74.0297 98.3763 74.5337 98.7498C74.8277 98.9677 74.9733 99.0924 75.1814 99.2555C74.9893 99.2502 74.9084 99.2568 74.6649 99.2476C74.0955 99.226 73.3954 99.1999 72.6279 99.5201C71.8605 99.8404 71.1543 100.649 70.922 101.631C70.7023 102.56 70.848 103.493 71.2435 104.157C71.639 104.821 72.1686 105.203 72.5742 105.492C72.9761 105.779 73.2673 105.994 73.3443 106.08C73.3312 106.147 73.3735 106.12 73.1547 106.245C72.9297 106.373 72.4759 106.528 71.932 106.705C71.388 106.882 70.7461 107.086 70.1132 107.503C69.4803 107.92 68.8628 108.628 68.6282 109.548C68.2187 111.155 68.924 112.561 69.7075 113.234C70.4909 113.907 71.3508 114.108 71.3508 114.108C71.5184 114.151 71.6926 114.16 71.8636 114.135C72.0346 114.11 72.1991 114.051 72.3475 113.963C72.4959 113.874 72.6253 113.757 72.7285 113.619C72.8317 113.48 72.9066 113.322 72.9488 113.155C72.9912 112.987 73.0002 112.813 72.9752 112.642C72.9503 112.471 72.8918 112.307 72.8033 112.158C72.7148 112.01 72.598 111.881 72.4594 111.777C72.3209 111.674 72.1634 111.599 71.9959 111.557C71.9959 111.557 71.6729 111.455 71.4209 111.239C71.1689 111.022 70.9844 110.951 71.1762 110.198C71.2423 109.939 71.3163 109.862 71.5616 109.7C71.8068 109.538 72.2319 109.373 72.7435 109.207C73.255 109.04 73.8465 108.876 74.4542 108.531C75.0618 108.186 75.7272 107.527 75.9209 106.633C76.1046 105.785 75.7782 104.864 75.3358 104.357C74.8933 103.849 74.4366 103.589 74.1021 103.35C73.7676 103.111 73.5713 102.92 73.5041 102.808C73.4369 102.695 73.3841 102.647 73.481 102.237C73.5652 101.881 73.5435 101.989 73.6428 101.947C73.7421 101.906 74.0913 101.86 74.5651 101.878C75.0388 101.896 75.5996 101.971 76.2833 101.863C76.9669 101.754 77.9382 101.171 78.2203 100.262C78.5129 99.3198 78.0421 98.3274 77.5549 97.8114C77.0677 97.2954 76.5444 96.9635 76.1011 96.6349C75.6577 96.3064 75.3122 95.9941 75.1714 95.782C75.0305 95.5698 75.0006 95.5477 75.0911 95.2348C75.356 94.3196 75.6783 94.245 76.0576 94.1508C76.4369 94.0566 76.7767 94.1257 76.7767 94.1257C76.9447 94.1658 77.119 94.1725 77.2896 94.1453C77.4602 94.118 77.6237 94.0575 77.7709 93.967C77.9181 93.8766 78.046 93.758 78.1474 93.6181C78.2488 93.4782 78.3216 93.3197 78.3617 93.1517C78.4018 92.9837 78.4085 92.8094 78.3812 92.6388C78.354 92.4682 78.2935 92.3046 78.203 92.1574C78.1126 92.0102 77.994 91.8824 77.8541 91.781C77.7142 91.6796 77.5557 91.6068 77.3877 91.5667C77.3877 91.5667 77.0336 91.4773 76.5095 91.4743L76.5095 91.4748ZM111.229 107.56C111.229 107.56 109.105 109.285 107.76 110.498C106.414 111.712 104.617 112.813 102.835 112.813C100.819 112.813 99.5828 112.205 98.8098 111.634C98.0368 111.063 97.808 110.617 97.808 110.617L96.7675 108.749L95.5678 110.519C95.5678 110.519 94.1208 112.813 90.482 112.813C88.9148 112.813 87.0717 111.712 85.6707 110.486C84.2696 109.259 82.1724 107.647 82.1724 107.647C82.1724 107.647 82.3095 111.037 83.9389 112.463C85.5683 113.89 87.8157 115.444 90.482 115.444C93.8021 115.444 95.5645 114.088 96.6085 113.07C96.8774 113.365 96.8158 113.433 97.2453 113.751C98.4155 114.615 100.27 115.444 102.835 115.444C105.633 115.444 107.923 113.891 109.521 112.451C111.119 111.011 111.229 107.56 111.229 107.56ZM104.521 126.122V129.727C104.287 129.864 104.17 129.987 103.213 130.304C101.847 130.758 99.708 131.232 96.7016 131.232C93.6952 131.232 91.5564 130.758 90.1897 130.304C89.2343 129.987 89.1165 129.867 88.8821 129.729V126.123C90.5733 126.31 92.2923 126.406 94.0345 126.406H99.3665C101.109 126.406 102.829 126.309 104.521 126.122Z" fill="#608199"/>
<path d="M96.2457 15.8027L96.2549 18.4099C102.493 19.522 108.717 22.4031 114.722 27.4501L115.123 27.7865L115.644 27.7559C130.332 26.9222 140.901 32.8251 148.014 42.2184C155.127 51.6116 158.679 64.5791 158.787 77.6498C158.895 90.7205 155.559 103.869 149.144 113.572C142.739 123.261 133.407 129.523 121.109 129.285C120.781 129.26 120.444 129.244 120.095 129.244H107.151V125.755C125.31 122.694 139.815 109.096 144.208 91.4211C145.465 90.873 146.875 90.1967 148.196 89.3373C149.719 88.346 151.131 87.1832 151.825 85.5719C152.776 83.3635 152.978 80.4756 152.558 77.8367C152.348 76.5172 151.976 75.2629 151.371 74.1896C150.765 73.1164 149.881 72.1814 148.659 71.7905C148.417 71.7133 148.177 71.6733 147.937 71.6505C148.001 71.403 148.053 71.1732 148.086 70.9708C148.667 67.3502 147.551 65.3486 147.551 65.3486C147.551 65.3486 146.564 67.8227 145.676 69.9152C144.788 72.0078 142.182 77.8857 142.182 77.8857C140.05 69.1971 137.804 60.3159 129.307 52.9353L127.129 51.0418V58.7253C123.533 52.6376 120.295 46.4799 118.398 39.9884L117.684 37.5478L116.104 39.5392C112.464 44.122 106.664 47.4282 100.339 50.4539L106.422 37.7224L102.279 40.677C100.311 42.0798 98.3348 43.4949 96.35 44.9486L96.3619 48.1546C97.4562 47.3652 98.5504 46.584 99.646 45.807L96.3775 52.6485L96.3867 55.3284L98.0091 54.6073C105.145 51.4327 111.872 47.8547 116.669 42.7037C119.184 50.3025 122.998 57.4489 127.33 64.3692L129.759 68.2501V57.3789C136.585 64.7201 138.24 73.2654 140.569 82.2708L141.52 85.9491C141.52 85.9491 145.095 79.158 146.985 74.4037C147.32 74.2275 147.567 74.2027 147.858 74.2956C148.263 74.4251 148.688 74.7866 149.08 75.4817C149.472 76.1767 149.787 77.162 149.96 78.2499C150.306 80.4255 150.059 83.0217 149.409 84.5306C149.085 85.2833 148.073 86.2786 146.761 87.1324C145.449 87.9861 143.886 88.729 142.6 89.2665L141.978 89.5254L141.825 90.1814C137.326 109.482 120.096 123.776 99.3656 123.776H96.632L96.6413 126.406H99.3661C101.109 126.406 102.829 126.309 104.521 126.122V129.727C104.287 129.864 104.17 129.987 103.213 130.304C101.846 130.758 99.7075 131.232 96.7011 131.232C96.6865 131.232 96.6736 131.231 96.659 131.231L96.6682 133.862C96.6787 133.862 96.6894 133.862 96.7009 133.862C99.9845 133.862 102.412 133.342 104.04 132.802C105.067 132.461 105.773 132.104 106.183 131.874H120.095C120.412 131.874 120.71 131.889 121 131.91V131.916C121.019 131.916 121.037 131.915 121.055 131.916C124.529 132.191 126.098 133.959 127.041 135.82C128.068 137.847 128.112 139.91 128.112 139.91L130.742 139.874C130.742 139.874 130.724 137.271 129.386 134.631C128.84 133.554 128.028 132.463 126.922 131.544C137.35 129.98 145.601 123.699 151.338 115.021C158.121 104.76 161.53 91.1593 161.418 77.6292C161.306 64.0991 157.672 50.6134 150.113 40.6312C142.638 30.7607 131.211 24.4232 115.999 25.1308C109.651 19.9064 102.959 16.9187 96.2456 15.8032L96.2457 15.8027ZM110.766 60.5482C107.294 60.5024 101.695 63.8564 102.915 64.7845C104.175 65.7426 116.991 68.8648 117.97 67.5766C118.95 66.2884 114.528 60.843 111.095 60.5631C110.988 60.5539 110.878 60.5497 110.766 60.5481V60.5482ZM118.956 69.9832C118.956 69.9832 116.637 71.3376 116.491 72.3777C116.338 73.4646 116.512 74.3916 116.739 75.0848C116.6 75.1305 116.461 75.1765 116.326 75.2241C116.302 75.232 116.28 75.241 116.256 75.2493C116.011 75.3369 115.772 75.4277 115.538 75.5211C115.503 75.535 115.468 75.5486 115.434 75.5625C115.218 75.65 115.007 75.7396 114.801 75.8317C114.605 75.5581 114.321 75.1535 113.93 74.5689C113.513 73.9441 112.61 72.1411 112.61 72.1411C112.61 72.1411 111.106 74.3658 111.424 75.3668C111.655 76.0949 111.997 76.6883 112.354 77.1604C112.259 77.2223 112.168 77.2852 112.076 77.348C111.855 77.499 111.642 77.6525 111.437 77.8075C111.35 77.8736 111.269 77.9405 111.185 78.0073C111.034 78.1262 110.888 78.2452 110.748 78.3655C110.706 78.4012 110.659 78.4362 110.618 78.4721L110.256 78.7888L110.252 78.8071C109.711 79.3124 109.243 79.8226 108.848 80.3207C107.079 82.554 107.08 85.3393 107.08 85.3393C107.08 85.3393 108.901 84.1364 110.313 82.6383C111.202 86.511 114.588 89.4963 118.742 89.6898C123.737 89.9223 128.005 86.0345 128.237 81.0391C128.302 79.6528 128.045 78.2859 127.507 77.0359C128.468 77.2868 129.308 77.6136 130.032 77.9637C132.304 79.0625 136.762 80.5062 136.762 80.5062C136.762 80.5062 133.902 76.9119 131.178 75.595C129.817 74.9366 128.111 74.3618 126.085 74.0951C125.999 74.0832 125.909 74.0766 125.823 74.0665L125.827 74.0094L124.509 73.9517C124.369 73.9451 124.226 73.9424 124.083 73.9398C124.143 73.6165 124.211 73.2578 124.334 72.6831C124.492 71.9483 125.157 70.0454 125.157 70.0454C125.157 70.0454 122.513 70.5134 122.016 71.4387C121.494 72.4096 121.337 73.3435 121.312 74.0737C121.229 74.0829 121.146 74.0944 121.063 74.105C120.997 74.1129 120.93 74.1232 120.863 74.1322C120.65 74.1614 120.435 74.1946 120.217 74.2307C120.121 74.2468 120.025 74.2623 119.928 74.2797C119.74 74.3135 119.549 74.3519 119.358 74.3911C119.301 74.0773 119.218 73.5949 119.096 72.7429C118.99 71.9989 118.956 69.9835 118.956 69.9835V69.9832ZM123.119 76.5834C123.476 76.5729 123.825 76.5742 124.163 76.5847C125.149 77.8077 125.685 79.336 125.611 80.9169C125.445 84.4923 122.441 87.2287 118.865 87.0624C115.29 86.8958 112.554 83.8925 112.72 80.3174V80.3168C112.724 80.2626 112.732 80.2092 112.736 80.155C113.86 79.2413 115.326 78.3586 117.288 77.6763C116.817 77.9769 116.425 78.3862 116.146 78.8697C115.866 79.3532 115.706 79.8967 115.681 80.4547C115.638 81.379 115.964 82.2825 116.587 82.9664C117.21 83.6504 118.079 84.0588 119.003 84.1018C119.928 84.1448 120.831 83.8188 121.515 83.1957C122.199 82.5725 122.608 81.7032 122.651 80.7789C122.693 79.8547 122.368 78.9511 121.744 78.2672C121.121 77.5832 120.252 77.1749 119.328 77.1319C119.279 77.1295 119.231 77.1282 119.182 77.1279C119.331 77.0922 119.47 77.0527 119.623 77.0192C119.663 77.01 119.702 77.0037 119.742 76.9953C119.941 76.9528 120.137 76.9142 120.332 76.8784C120.48 76.8516 120.627 76.8266 120.772 76.8037C120.823 76.7958 120.874 76.7878 120.925 76.7799C121.695 76.6645 122.425 76.6023 123.119 76.5828V76.5834ZM111.229 107.56C111.229 107.56 109.105 109.285 107.759 110.499C106.413 111.712 104.617 112.813 102.834 112.813C100.819 112.813 99.5823 112.205 98.8093 111.634C98.0364 111.063 97.8075 110.617 97.8075 110.617L96.767 108.749L96.5794 109.026L96.5938 113.083C96.5977 113.079 96.6042 113.073 96.608 113.069C96.877 113.365 96.8155 113.433 97.2449 113.75C98.4152 114.615 100.269 115.443 102.834 115.443C105.633 115.443 107.923 113.891 109.521 112.451C111.119 111.011 111.229 107.559 111.229 107.559L111.229 107.56Z" fill="#30414D"/>
<path d="M96.6998 0C96.0021 0 95.3331 0.277134 94.8398 0.770438C94.3465 1.26374 94.0693 1.93281 94.0693 2.63045V152.738C94.0693 153.436 94.3465 154.105 94.8398 154.598C95.3331 155.091 96.0021 155.369 96.6998 155.369C97.3974 155.369 98.0665 155.091 98.5598 154.598C99.0531 154.105 99.3302 153.436 99.3302 152.738V2.63045C99.3302 1.93281 99.0531 1.26374 98.5598 0.770438C98.0665 0.277134 97.3974 0 96.6998 0Z" fill="#3DADE2"/>
<path d="M32.2566 27.9463C31.9078 27.9463 31.5733 28.0848 31.3266 28.3315C31.08 28.5781 30.9414 28.9127 30.9414 29.2615C30.9414 29.6103 31.08 29.9448 31.3266 30.1915C31.5733 30.4381 31.9078 30.5767 32.2566 30.5767H39.7138C40.0627 30.5767 40.3972 30.4381 40.6438 30.1915C40.8905 29.9448 41.0291 29.6103 41.0291 29.2615C41.0291 28.9127 40.8905 28.5781 40.6438 28.3315C40.3972 28.0848 40.0627 27.9463 39.7138 27.9463H32.2566ZM49.3879 27.9463C49.0391 27.9463 48.7046 28.0848 48.4579 28.3315C48.2113 28.5781 48.0727 28.9127 48.0727 29.2615C48.0727 29.6103 48.2113 29.9448 48.4579 30.1915C48.7046 30.4381 49.0391 30.5767 49.3879 30.5767H65.3273C65.6761 30.5767 66.0106 30.4381 66.2573 30.1915C66.504 29.9448 66.6425 29.6103 66.6425 29.2615C66.6425 28.9127 66.504 28.5781 66.2573 28.3315C66.0106 28.0848 65.6761 27.9463 65.3273 27.9463H49.3879Z" fill="#3DADE2"/>
<path d="M54.6614 12.7793C54.3126 12.7793 53.9781 12.9178 53.7314 13.1645C53.4848 13.4111 53.3462 13.7457 53.3462 14.0945C53.3462 14.4433 53.4848 14.7779 53.7314 15.0245C53.9781 15.2712 54.3126 15.4097 54.6614 15.4097H76.712C77.0608 15.4097 77.3953 15.2712 77.6419 15.0245C77.8886 14.7779 78.0272 14.4433 78.0272 14.0945C78.0272 13.7457 77.8886 13.4111 77.6419 13.1645C77.3953 12.9178 77.0608 12.7793 76.712 12.7793H54.6614Z" fill="#3DADE2"/>
<path d="M27.2727 51.1758C26.9239 51.1758 26.5894 51.3143 26.3428 51.561C26.0961 51.8076 25.9575 52.1422 25.9575 52.491C25.9575 52.8398 26.0961 53.1743 26.3428 53.421C26.5894 53.6676 26.9239 53.8062 27.2727 53.8062H45.8143C46.1631 53.8062 46.4977 53.6676 46.7443 53.421C46.991 53.1743 47.1295 52.8398 47.1295 52.491C47.1295 52.1422 46.991 51.8076 46.7443 51.561C46.4977 51.3143 46.1631 51.1758 45.8143 51.1758H27.2727ZM54.2631 51.1758C53.9143 51.1758 53.5798 51.3143 53.3331 51.561C53.0865 51.8076 52.9479 52.1422 52.9479 52.491C52.9479 52.8398 53.0865 53.1743 53.3331 53.421C53.5798 53.6676 53.9143 53.8062 54.2631 53.8062H61.1988C61.5477 53.8062 61.8822 53.6676 62.1288 53.421C62.3755 53.1743 62.5141 52.8398 62.5141 52.491C62.5141 52.1422 62.3755 51.8076 62.1288 51.561C61.8822 51.3143 61.5477 51.1758 61.1988 51.1758H54.2631Z" fill="#3DADE2"/>
<path d="M9.2913 64.4893C8.94248 64.4893 8.60797 64.6278 8.36131 64.8745C8.11466 65.1211 7.97607 65.4557 7.97607 65.8045C7.97607 66.1533 8.11466 66.4878 8.36131 66.7345C8.60797 66.9811 8.94248 67.1197 9.2913 67.1197H29.5745C29.9233 67.1197 30.2578 66.9811 30.5045 66.7345C30.7512 66.4878 30.8897 66.1533 30.8897 65.8045C30.8897 65.4557 30.7512 65.1211 30.5045 64.8745C30.2578 64.6278 29.9233 64.4893 29.5745 64.4893H9.2913Z" fill="#3DADE2"/>
<path d="M1.31522 85.6699C0.966405 85.6699 0.631891 85.8085 0.385239 86.0552C0.138587 86.3018 0 86.6363 0 86.9851C0 87.334 0.138587 87.6685 0.385239 87.9151C0.631891 88.1618 0.966405 88.3004 1.31522 88.3004H11.4671C11.8159 88.3004 12.1504 88.1618 12.3971 87.9151C12.6437 87.6685 12.7823 87.334 12.7823 86.9851C12.7823 86.6363 12.6437 86.3018 12.3971 86.0552C12.1504 85.8085 11.8159 85.6699 11.4671 85.6699H1.31522ZM18.7753 85.6699C18.4265 85.6699 18.092 85.8085 17.8453 86.0552C17.5987 86.3018 17.4601 86.6363 17.4601 86.9851C17.4601 87.334 17.5987 87.6685 17.8453 87.9151C18.092 88.1618 18.4265 88.3004 18.7753 88.3004H38.7015C39.0503 88.3004 39.3848 88.1618 39.6315 87.9151C39.8781 87.6685 40.0167 87.334 40.0167 86.9851C40.0167 86.6363 39.8781 86.3018 39.6315 86.0552C39.3848 85.8085 39.0503 85.6699 38.7015 85.6699H18.7753Z" fill="#3DADE2"/>
<path d="M7.67802 96.8438C7.3292 96.8438 6.99468 96.9823 6.74803 97.229C6.50138 97.4756 6.36279 97.8102 6.36279 98.159C6.36279 98.5078 6.50138 98.8423 6.74803 99.089C6.99468 99.3356 7.3292 99.4742 7.67802 99.4742H25.6211C25.9699 99.4742 26.3044 99.3356 26.551 99.089C26.7977 98.8423 26.9363 98.5078 26.9363 98.159C26.9363 97.8102 26.7977 97.4756 26.551 97.229C26.3044 96.9823 25.9699 96.8438 25.6211 96.8438H7.67802ZM35.4159 96.8438C35.0671 96.8438 34.7325 96.9823 34.4859 97.229C34.2392 97.4756 34.1007 97.8102 34.1007 98.159C34.1007 98.5078 34.2392 98.8423 34.4859 99.089C34.7325 99.3356 35.0671 99.4742 35.4159 99.4742H56.5468C56.8956 99.4742 57.2301 99.3356 57.4768 99.089C57.7234 98.8423 57.862 98.5078 57.862 98.159C57.862 97.8102 57.7234 97.4756 57.4768 97.229C57.2301 96.9823 56.8956 96.8438 56.5468 96.8438H35.4159Z" fill="#3DADE2"/>
<path d="M31.7244 114.612C31.3756 114.612 31.0411 114.751 30.7944 114.998C30.5478 115.244 30.4092 115.579 30.4092 115.928C30.4092 116.276 30.5478 116.611 30.7944 116.858C31.0411 117.104 31.3756 117.243 31.7244 117.243H49.4928C49.8416 117.243 50.1761 117.104 50.4228 116.858C50.6694 116.611 50.808 116.276 50.808 115.928C50.808 115.579 50.6694 115.244 50.4228 114.998C50.1761 114.751 49.8416 114.612 49.4928 114.612H31.7244Z" fill="#3DADE2"/>
<path d="M39.4822 124.165C39.1334 124.165 38.7989 124.304 38.5522 124.55C38.3056 124.797 38.167 125.131 38.167 125.48C38.167 125.829 38.3056 126.164 38.5522 126.41C38.7989 126.657 39.1334 126.795 39.4822 126.795H52.6062C52.955 126.795 53.2895 126.657 53.5362 126.41C53.7828 126.164 53.9214 125.829 53.9214 125.48C53.9214 125.131 53.7828 124.797 53.5362 124.55C53.2895 124.304 52.955 124.165 52.6062 124.165H39.4822ZM59.4443 124.165C59.0955 124.165 58.761 124.304 58.5143 124.55C58.2677 124.797 58.1291 125.131 58.1291 125.48C58.1291 125.829 58.2677 126.164 58.5143 126.41C58.761 126.657 59.0955 126.795 59.4443 126.795H67.8982C68.2471 126.795 68.5816 126.657 68.8282 126.41C69.0749 126.164 69.2135 125.829 69.2135 125.48C69.2135 125.131 69.0749 124.797 68.8282 124.55C68.5816 124.304 68.2471 124.165 67.8982 124.165H59.4443Z" fill="#3DADE2"/>
<path d="M121.513 92.3587C121.194 92.2308 120.838 92.2333 120.521 92.3657C120.204 92.498 119.952 92.7495 119.819 93.0661L117.768 97.9291L113.415 100.917C113.221 101.05 113.066 101.232 112.967 101.446C112.868 101.659 112.828 101.895 112.851 102.129C112.875 102.363 112.961 102.586 113.101 102.775C113.241 102.965 113.429 103.113 113.646 103.204L118.511 105.256L121.5 109.606C121.633 109.8 121.816 109.954 122.029 110.053C122.242 110.151 122.477 110.191 122.711 110.167C122.945 110.144 123.168 110.057 123.356 109.918C123.545 109.778 123.693 109.591 123.785 109.374L125.836 104.511L130.188 101.524C130.382 101.391 130.537 101.208 130.636 100.995C130.736 100.782 130.775 100.546 130.752 100.312C130.728 100.078 130.642 99.8542 130.502 99.6651C130.362 99.4759 130.174 99.3279 129.958 99.2366L125.092 97.1847L122.103 92.8343C121.958 92.621 121.752 92.4555 121.513 92.3587ZM121.302 96.2887L123.152 98.9835C123.294 99.1895 123.492 99.3505 123.722 99.4474L126.735 100.72L124.04 102.57C123.833 102.711 123.672 102.909 123.574 103.139L122.301 106.152L120.452 103.457C120.31 103.251 120.112 103.09 119.881 102.993L116.871 101.722L119.566 99.8721C119.772 99.7301 119.933 99.532 120.029 99.3014L121.302 96.2887Z" fill="#3DADE2"/>
<path d="M146.778 128.756C144.636 128.756 142.871 130.521 142.871 132.663C142.871 134.805 144.636 136.568 146.778 136.568C148.56 136.568 149.837 135.234 150.297 133.59C150.42 133.469 150.516 133.324 150.583 133.165C150.649 133.006 150.683 132.835 150.683 132.663C150.683 132.49 150.649 132.318 150.582 132.158C150.516 131.998 150.418 131.853 150.295 131.731C149.832 130.09 148.558 128.756 146.778 128.756ZM146.778 131.373C147.505 131.373 148.065 131.936 148.065 132.663C148.065 133.39 147.505 133.95 146.778 133.95C146.051 133.95 145.489 133.39 145.489 132.663C145.489 131.936 146.051 131.373 146.778 131.373Z" fill="#3DADE2"/>
<path d="M121.964 9.22698C121.656 9.37927 121.421 9.64641 121.308 9.9708C121.196 10.2952 121.215 10.6509 121.362 10.9611L123.619 15.7319L122.944 20.9681C122.914 21.2013 122.946 21.4385 123.039 21.6546C123.132 21.8707 123.281 22.0578 123.472 22.1962C123.662 22.3346 123.886 22.4193 124.12 22.4412C124.354 22.4631 124.59 22.4216 124.802 22.3209L129.576 20.0627L134.811 20.7355C135.044 20.7655 135.28 20.7322 135.496 20.6392C135.711 20.5462 135.898 20.397 136.036 20.207C136.174 20.0171 136.259 19.7936 136.281 19.5598C136.303 19.326 136.261 19.0906 136.161 18.8783L133.904 14.1075L134.579 8.87128C134.61 8.63807 134.577 8.40095 134.484 8.18484C134.391 7.96874 134.242 7.78164 134.052 7.64321C133.861 7.50479 133.638 7.42016 133.403 7.39821C133.169 7.37627 132.933 7.4178 132.721 7.51849L127.948 9.77667L122.713 9.10387C122.456 9.07018 122.196 9.11301 121.964 9.22698ZM124.753 12.0041L127.995 12.4224C128.243 12.4539 128.495 12.4136 128.721 12.3063L131.678 10.9094L131.26 14.151C131.227 14.3993 131.267 14.6517 131.373 14.8782L132.77 17.8353L129.529 17.417C129.28 17.3855 129.028 17.4258 128.802 17.5331L125.848 18.929L126.266 15.6874C126.297 15.4392 126.257 15.1872 126.15 14.9612L124.753 12.0041Z" fill="#3DADE2"/>
<path d="M170.093 66.4678C167.951 66.4678 166.186 68.2305 166.186 70.3723C166.186 72.5142 167.951 74.2795 170.093 74.2795C171.873 74.2795 173.15 72.9442 173.612 71.3022C173.735 71.1806 173.832 71.0358 173.899 70.8761C173.965 70.7165 174 70.5453 174 70.3723C173.999 70.2005 173.965 70.0303 173.899 69.8717C173.833 69.713 173.736 69.5689 173.615 69.4476C173.154 67.8028 171.875 66.4678 170.093 66.4678ZM170.093 69.0854C170.82 69.0854 171.382 69.6453 171.382 70.3723C171.382 71.0994 170.82 71.6619 170.093 71.6619C169.366 71.6619 168.803 71.0994 168.803 70.3723C168.803 69.6453 169.366 69.0854 170.093 69.0854Z" fill="#3DADE2"/>
</svg>
