<svg width="164" height="130" viewBox="0 0 164 130" fill="none" xmlns="http://www.w3.org/2000/svg">
<path d="M41.0884 98.0693C40.7721 98.0693 40.4686 98.195 40.2449 98.4187C40.0212 98.6425 39.8955 98.9459 39.8955 99.2623C39.8955 99.5786 40.0212 99.8821 40.2449 100.106C40.4686 100.33 40.7721 100.455 41.0884 100.455H47.8522C48.1686 100.455 48.472 100.33 48.6957 100.106C48.9194 99.8821 49.0452 99.5786 49.0452 99.2623C49.0452 98.9459 48.9194 98.6425 48.6957 98.4187C48.472 98.195 48.1686 98.0693 47.8522 98.0693H41.0884ZM56.6245 98.0693C56.3081 98.0693 56.0046 98.195 55.7809 98.4187C55.5572 98.6425 55.4315 98.9459 55.4315 99.2623C55.4315 99.5786 55.5572 99.8821 55.7809 100.106C56.0046 100.33 56.3081 100.455 56.6245 100.455H71.0817C71.3981 100.455 71.7016 100.33 71.9253 100.106C72.149 99.8821 72.2746 99.5786 72.2746 99.2623C72.2746 98.9459 72.149 98.6425 71.9253 98.4187C71.7016 98.195 71.3981 98.0693 71.0817 98.0693H56.6245Z" fill="#3DADE2"/>
<path d="M60.5152 112.718C60.1988 112.718 59.8955 112.843 59.6718 113.067C59.448 113.291 59.3223 113.594 59.3223 113.911C59.3223 114.227 59.448 114.531 59.6718 114.754C59.8955 114.978 60.1988 115.104 60.5152 115.104H80.5154C80.8317 115.104 81.1352 114.978 81.3589 114.754C81.5827 114.531 81.7083 114.227 81.7083 113.911C81.7083 113.594 81.5827 113.291 81.3589 113.067C81.1352 112.843 80.8317 112.718 80.5154 112.718H60.5152Z" fill="#3DADE2"/>
<path d="M17.3721 79.0078C17.0557 79.0078 16.7523 79.1335 16.5286 79.3572C16.3049 79.5809 16.1792 79.8844 16.1792 80.2007C16.1792 80.5171 16.3049 80.8206 16.5286 81.0443C16.7523 81.268 17.0557 81.3937 17.3721 81.3937H23.663C23.9793 81.3937 24.2828 81.268 24.5065 81.0443C24.7303 80.8206 24.8559 80.5171 24.8559 80.2007C24.8559 79.8844 24.7303 79.5809 24.5065 79.3572C24.2828 79.1335 23.9793 79.0078 23.663 79.0078H17.3721ZM31.3261 79.0078C31.0097 79.0078 30.7063 79.1335 30.4826 79.3572C30.2589 79.5809 30.1332 79.8844 30.1332 80.2007C30.1332 80.5171 30.2589 80.8206 30.4826 81.0443C30.7063 81.268 31.0097 81.3937 31.3261 81.3937H48.1436C48.46 81.3937 48.7635 81.268 48.9872 81.0443C49.2109 80.8206 49.3365 80.5171 49.3365 80.2007C49.3365 79.8844 49.2109 79.5809 48.9872 79.3572C48.7635 79.1335 48.46 79.0078 48.1436 79.0078H31.3261Z" fill="#3DADE2"/>
<path d="M40.3428 72.2891C40.0264 72.2891 39.723 72.4147 39.4993 72.6385C39.2756 72.8622 39.1499 73.1656 39.1499 73.482C39.1499 73.7984 39.2756 74.1018 39.4993 74.3255C39.723 74.5492 40.0264 74.6749 40.3428 74.6749H58.74C59.0564 74.6749 59.3599 74.5492 59.5836 74.3255C59.8073 74.1018 59.9329 73.7984 59.9329 73.482C59.9329 73.1656 59.8073 72.8622 59.5836 72.6385C59.3599 72.4147 59.0564 72.2891 58.74 72.2891H40.3428Z" fill="#3DADE2"/>
<path d="M1.19293 36.3398C0.876543 36.3398 0.573135 36.4655 0.349418 36.6892C0.1257 36.913 0 37.2164 0 37.5328C0 37.8492 0.1257 38.1526 0.349418 38.3763C0.573135 38.6 0.876543 38.7257 1.19293 38.7257H13.0174C13.3337 38.7257 13.6371 38.6 13.8609 38.3763C14.0846 38.1526 14.2103 37.8492 14.2103 37.5328C14.2103 37.2164 14.0846 36.913 13.8609 36.6892C13.6371 36.4655 13.3337 36.3398 13.0174 36.3398H1.19293ZM19.646 36.3398C19.3296 36.3398 19.0262 36.4655 18.8025 36.6892C18.5788 36.913 18.4531 37.2164 18.4531 37.5328C18.4531 37.8492 18.5788 38.1526 18.8025 38.3763C19.0262 38.6 19.3296 38.7257 19.646 38.7257H28.8539C29.1702 38.7257 29.4737 38.6 29.6974 38.3763C29.9212 38.1526 30.0468 37.8492 30.0468 37.5328C30.0468 37.2164 29.9212 36.913 29.6974 36.6892C29.4737 36.4655 29.1702 36.3398 28.8539 36.3398H19.646Z" fill="#3DADE2"/>
<path d="M12.9893 14.8203C12.6729 14.8203 12.3695 14.946 12.1458 15.1697C11.9221 15.3934 11.7964 15.6969 11.7964 16.0132C11.7964 16.3296 11.9221 16.633 12.1458 16.8568C12.3695 17.0805 12.6729 17.2062 12.9893 17.2062H19.8907C20.207 17.2062 20.5105 17.0805 20.7342 16.8568C20.9579 16.633 21.0836 16.3296 21.0836 16.0132C21.0836 15.6969 20.9579 15.3934 20.7342 15.1697C20.5105 14.946 20.207 14.8203 19.8907 14.8203H12.9893ZM28.7746 14.8203C28.4582 14.8203 28.1548 14.946 27.9311 15.1697C27.7073 15.3934 27.5816 15.6969 27.5816 16.0132C27.5816 16.3296 27.7073 16.633 27.9311 16.8568C28.1548 17.0805 28.4582 17.2062 28.7746 17.2062H47.9407C48.2571 17.2062 48.5604 17.0805 48.7841 16.8568C49.0078 16.633 49.1336 16.3296 49.1336 16.0132C49.1336 15.6969 49.0078 15.3934 48.7841 15.1697C48.5604 14.946 48.2571 14.8203 47.9407 14.8203H28.7746Z" fill="#3DADE2"/>
<path d="M45.0679 8.08008C44.7515 8.08008 44.4481 8.20576 44.2244 8.42948C44.0007 8.6532 43.875 8.95662 43.875 9.27301C43.875 9.42966 43.9059 9.58479 43.9659 9.72952C44.0258 9.87425 44.1136 10.0058 44.2244 10.1165C44.3352 10.2273 44.4667 10.3152 44.6115 10.3751C44.7562 10.4351 44.9113 10.4659 45.0679 10.4659H61.1842C61.3408 10.4659 61.496 10.4351 61.6407 10.3751C61.7854 10.3152 61.917 10.2273 62.0278 10.1165C62.1385 10.0058 62.2263 9.87425 62.2862 9.72952C62.3462 9.58479 62.3771 9.42966 62.3771 9.27301C62.3771 8.95662 62.2515 8.6532 62.0278 8.42948C61.804 8.20576 61.5006 8.08008 61.1842 8.08008H45.0679Z" fill="#3DADE2"/>
<path d="M125.496 1.51402C125.206 1.39806 124.883 1.40033 124.596 1.52035C124.309 1.64037 124.08 1.86852 123.959 2.15561L122.099 6.56648L118.151 9.27654C117.975 9.39695 117.834 9.56257 117.744 9.75601C117.655 9.94945 117.618 10.1636 117.64 10.3758C117.661 10.5881 117.739 10.7906 117.866 10.9622C117.993 11.1338 118.164 11.268 118.36 11.3508L122.773 13.2119L125.484 17.1578C125.605 17.3333 125.77 17.4732 125.964 17.5627C126.157 17.6522 126.371 17.6881 126.583 17.6666C126.794 17.6451 126.997 17.567 127.168 17.4405C127.339 17.314 127.473 17.1437 127.556 16.9476L129.417 12.5367L133.364 9.82664C133.541 9.70623 133.681 9.5406 133.771 9.34716C133.861 9.15372 133.897 8.93962 133.876 8.72737C133.854 8.51512 133.776 8.31257 133.649 8.141C133.522 7.96943 133.352 7.83516 133.155 7.75236L128.742 5.89126L126.031 1.94541C125.899 1.7519 125.713 1.60181 125.496 1.51402ZM125.305 5.07857L126.982 7.52285C127.111 7.70967 127.29 7.85568 127.5 7.94357L130.232 9.09784L127.788 10.7754C127.601 10.9036 127.454 11.0829 127.365 11.292L126.211 14.0246L124.533 11.5803C124.405 11.3935 124.225 11.2475 124.016 11.1596L121.285 10.0063L123.73 8.32876C123.916 8.19997 124.062 8.02033 124.15 7.81113L125.305 5.07857Z" fill="#3DADE2"/>
<path d="M122.49 30.1191C120.547 30.1191 118.946 31.7203 118.946 33.663C118.946 35.6056 120.547 37.2068 122.49 37.2068C124.106 37.2068 125.264 35.9947 125.682 34.5041C125.792 34.3938 125.88 34.2627 125.94 34.1184C126 33.974 126.031 33.8193 126.031 33.663C126.031 33.5067 126 33.3519 125.94 33.2076C125.88 33.0632 125.792 32.9322 125.682 32.8219C125.264 31.3312 124.106 30.1191 122.49 30.1191ZM122.49 32.4933C123.149 32.4933 123.657 33.0035 123.657 33.663C123.657 34.3224 123.149 34.8326 122.49 34.8326C121.83 34.8326 121.32 34.3224 121.32 33.663C121.32 33.0035 121.83 32.4933 122.49 32.4933Z" fill="#3DADE2"/>
<path d="M147.578 92.2031C145.635 92.2031 144.034 93.802 144.034 95.7446C144.034 97.6873 145.635 99.2885 147.578 99.2885C149.194 99.2885 150.352 98.0764 150.77 96.5857C150.881 96.4754 150.969 96.3444 151.029 96.2C151.089 96.0557 151.12 95.9009 151.12 95.7446C151.12 95.5883 151.089 95.4336 151.029 95.2892C150.969 95.1449 150.881 95.0138 150.77 94.9035C150.352 93.4129 149.194 92.2031 147.578 92.2031ZM147.578 94.5773C148.237 94.5773 148.745 95.0852 148.745 95.7446C148.745 96.4041 148.237 96.9143 147.578 96.9143C146.919 96.9143 146.408 96.4041 146.408 95.7446C146.408 95.0852 146.919 94.5773 147.578 94.5773Z" fill="#3DADE2"/>
<path d="M158.986 41.4731C158.83 41.2037 158.574 41.0064 158.274 40.9239C157.974 40.8413 157.653 40.8801 157.381 41.0318L153.198 43.36L148.419 43.0621C148.206 43.0485 147.993 43.0924 147.803 43.1894C147.613 43.2863 147.453 43.4327 147.339 43.613C147.225 43.7934 147.162 44.0011 147.156 44.2144C147.15 44.4276 147.202 44.6385 147.306 44.8249L149.635 49.0097L149.339 53.788C149.326 54.0006 149.37 54.2127 149.467 54.4023C149.564 54.5919 149.71 54.7519 149.891 54.8655C150.071 54.9791 150.278 55.0422 150.491 55.0481C150.704 55.054 150.914 55.0026 151.101 54.8991L155.283 52.571L160.063 52.8688C160.276 52.8825 160.488 52.8385 160.678 52.7416C160.868 52.6446 161.029 52.4983 161.143 52.3179C161.257 52.1375 161.32 51.9298 161.326 51.7166C161.332 51.5033 161.28 51.2924 161.176 51.1061L158.847 46.9212L159.143 42.143C159.158 41.9092 159.103 41.6761 158.986 41.4731ZM156.64 44.1631L156.455 47.1219C156.441 47.3484 156.493 47.5741 156.604 47.7722L158.045 50.3649L155.086 50.1803C154.859 50.1658 154.633 50.2166 154.435 50.3267L151.842 51.7679L152.026 48.8091C152.04 48.5826 151.989 48.3569 151.878 48.1588L150.438 45.5681L153.397 45.7527C153.623 45.7664 153.849 45.7149 154.047 45.6042L156.64 44.1631Z" fill="#3DADE2"/>
<path d="M65.51 41.3369L65.4491 43.7226C68.8715 43.8093 73.406 45.6262 77.2692 46.898L78.0145 44.6313C74.2894 43.405 69.6761 41.4424 65.5101 41.3369H65.51ZM94.1213 51.6725L93.7484 54.0305C93.7484 54.0305 93.6272 53.9871 93.7651 54.0582C93.9029 54.1294 94.1708 54.2946 94.5548 54.6525C95.3227 55.3683 96.5429 56.8596 98.0218 59.8203C101.023 65.8285 108.941 83.7208 113.69 91.9454C118.379 100.065 122.064 105.111 127.54 108.698C130.191 110.435 131.553 111.217 133.052 111.41C134.552 111.602 135.706 111.192 138.055 110.89C140.601 110.563 143.637 109.771 146.165 109.408C147.429 109.226 148.563 109.16 149.35 109.264C150.138 109.367 150.447 109.573 150.59 109.82C151.095 110.695 150.962 111.82 150.189 113.104C149.416 114.387 148.01 115.669 146.417 116.447C144.832 117.221 141.882 118.018 138.922 118.993C135.961 119.968 132.943 121.105 130.941 123.018C129.23 124.653 127.547 126.184 126.075 126.985C124.602 127.786 123.588 127.937 122.386 127.129C121.349 126.432 120.788 124.549 120.389 121.999C119.991 119.449 119.716 116.418 118.446 113.768C116.044 108.758 111.899 104.563 108.602 101.372C105.116 97.9987 101.281 96.5825 99.0327 94.259C96.7532 91.9035 93.6344 86.4675 93.6344 86.4675L91.5564 87.6394C91.5564 87.6394 94.5574 93.0648 97.3184 95.9179C100.11 98.8029 103.874 100.116 106.943 103.087C110.202 106.241 114.134 110.293 116.293 114.797C117.303 116.903 117.618 119.721 118.032 122.367C118.445 125.013 118.917 127.673 121.055 129.11C123.029 130.437 125.319 130.111 127.214 129.08C129.109 128.049 130.861 126.392 132.589 124.741C134.026 123.368 136.798 122.203 139.667 121.258C142.535 120.313 145.454 119.572 147.465 118.59C149.469 117.611 151.179 116.089 152.235 114.336C153.291 112.583 153.701 110.437 152.656 108.627C152.024 107.533 150.836 107.054 149.66 106.899C148.485 106.744 147.193 106.849 145.825 107.046C143.09 107.439 140.039 108.231 137.75 108.525C135.263 108.845 134.19 109.149 133.357 109.042C132.525 108.936 131.448 108.405 128.847 106.701C123.816 103.406 120.389 98.7745 115.757 90.7525C111.186 82.8356 103.251 64.9498 100.156 58.7532C98.5867 55.6115 97.231 53.8837 96.1836 52.9073C95.6598 52.4191 95.2125 52.1203 94.8601 51.9382C94.5076 51.7562 94.1215 51.6725 94.1215 51.6725L94.1213 51.6725ZM39.4146 56.5654L38.2026 58.6225C38.2026 58.6225 49.8471 65.5323 61.3977 67.2548C72.771 68.951 80.114 67.4669 80.114 67.4669L79.6363 65.1299C79.6363 65.1299 72.7781 66.5398 61.749 64.895C50.8973 63.2767 39.4146 56.5654 39.4146 56.5654Z" fill="#608199"/>
<path d="M90.4039 6.85957C89.9888 6.853 89.5629 6.86162 89.1267 6.88361C87.3815 6.97159 85.4699 7.27562 83.4132 7.722C79.2998 8.61477 74.6097 10.1159 69.6643 11.8301C62.4528 14.3298 48.3832 22.1582 40.5592 26.6178C37.2516 28.5031 35.6849 29.4511 35.6849 29.4511C35.6849 29.4511 38.4457 30.5695 41.7404 28.6916C49.5336 24.2495 63.8022 16.3859 70.4452 14.0833C75.3557 12.3812 79.981 10.9095 83.9194 10.0547C87.8576 9.19993 91.1133 9.0097 93.1385 9.63304C95.4486 10.3441 96.5709 11.0318 97.018 11.5058C97.465 11.9799 97.4618 12.229 97.4304 12.9015C97.3576 14.4585 96.9972 21.2465 96.0951 31.8257C95.6542 36.9959 94.0851 45.3793 92.6564 53.8038C91.2277 62.2282 89.9293 70.6806 90.0655 76.3694C90.3306 87.4428 92.2249 91.2612 93.9029 97.1991C94.8557 100.57 97.3039 103.619 98.9727 106.244C99.8071 107.556 100.437 108.756 100.65 109.664C100.863 110.572 100.794 111.063 100.212 111.675C99.5677 112.354 98.9678 112.562 98.1923 112.56C97.4168 112.558 96.46 112.267 95.4453 111.756C93.4158 110.734 91.2335 108.89 89.5433 107.546C88.1732 106.457 87.2692 104.643 86.4073 102.651C85.5454 100.659 84.7558 98.5079 83.1734 96.9241C81.507 95.2564 79.3605 95.0574 77.8311 94.6734C77.0665 94.4814 76.4529 94.2548 76.0113 93.9275C75.5697 93.6002 75.2374 93.1857 75.0003 92.3179C74.8061 91.6074 74.9551 90.9839 75.4708 90.1067C75.9867 89.2294 76.8763 88.2103 77.8847 87.0656C79.9016 84.7764 82.4222 81.9165 83.0618 77.8649C83.7018 73.8121 82.502 68.859 81.1768 63.9273C79.8514 58.9957 78.3655 54.0789 78.164 50.605C77.7568 43.5796 79.1546 34.2203 79.2409 33.6504C80.1175 32.9381 80.9431 32.2624 81.6611 31.6672C84.1057 29.641 84.0173 26.6406 84.0173 26.6406C84.0173 26.6406 82.5628 27.8185 80.1373 29.829C75.3112 33.8294 66.59 40.8053 57.6722 46.6972C53.2133 49.6432 48.7029 52.3183 44.6365 54.2094C40.5701 56.1006 36.9284 57.1731 34.3939 57.0704C26.4407 56.7484 23.1758 52.8093 21.6166 49.491C20.4711 47.0531 19.327 44.6012 19.327 44.6012C19.327 44.6012 18.1149 47.6519 19.4565 50.507C21.2826 54.3931 25.5499 59.0995 34.296 59.4537C37.5492 59.5854 41.4089 58.3428 45.6425 56.3738C49.8762 54.4049 54.4649 51.677 58.9865 48.6896C65.422 44.4377 71.69 39.6755 76.539 35.8197C76.1043 39.3059 75.4794 45.5145 75.7827 50.7443C76.0144 54.7398 77.5623 59.6698 78.8723 64.545C80.1825 69.4203 81.221 74.2341 80.7063 77.4944C80.1913 80.7561 78.1023 83.2104 76.0952 85.4887C75.0916 86.6279 74.1149 87.708 73.4155 88.8972C72.7161 90.0863 72.3014 91.4957 72.6978 92.9467C73.0513 94.2404 73.7434 95.218 74.5898 95.8453C75.4363 96.4726 76.3733 96.7666 77.251 96.987C79.0063 97.4277 80.5109 97.634 81.4868 98.6107C82.5466 99.6714 83.3329 101.555 84.2171 103.599C85.1014 105.643 86.112 107.864 88.0596 109.412C89.6868 110.706 91.9438 112.663 94.3715 113.886C95.5853 114.498 96.8606 114.943 98.1873 114.946C99.514 114.949 100.886 114.43 101.943 113.317C103.064 112.137 103.305 110.534 102.973 109.119C102.642 107.704 101.87 106.355 100.986 104.965C99.2173 102.183 96.9525 99.212 96.1998 96.5487C94.467 90.4175 92.7077 87.1339 92.4487 76.3133C92.3229 71.0551 93.5856 62.5987 95.0095 54.202C96.4335 45.8053 98.009 37.453 98.4716 32.0279C99.3764 21.4164 99.7394 14.6155 99.8142 13.0137C99.856 12.1069 99.6905 10.8611 98.754 9.86791C97.8174 8.87476 96.3353 8.12202 93.84 7.35397C92.7974 7.03306 91.6492 6.87928 90.4039 6.85957Z" fill="#30414D"/>
<path d="M97.7059 27.3096C97.429 27.3089 97.1605 27.4046 96.9464 27.5802L76.1168 44.6235C75.9449 44.7638 75.8156 44.9492 75.7433 45.159C75.6711 45.3687 75.6587 45.5944 75.7076 45.8108C75.7565 46.0272 75.8648 46.2256 76.0203 46.3839C76.1758 46.5421 76.3723 46.6538 76.5877 46.7066L86.4382 49.1095L86.5436 49.239L86.641 49.1595L122.513 57.9114C122.76 57.972 123.021 57.9519 123.256 57.8541C123.491 57.7562 123.688 57.5857 123.82 57.3675C123.951 57.1492 124.009 56.8948 123.985 56.6412C123.961 56.3877 123.857 56.1484 123.687 55.9584L98.5936 27.7103C98.4821 27.5848 98.3455 27.4843 98.1925 27.4152C98.0395 27.3462 97.8737 27.3102 97.7059 27.3096ZM97.5709 30.1521L101.162 34.1948L86.0517 46.5586L79.479 44.9546L97.5709 30.1521ZM102.749 35.9813L106.515 40.2214L95.8491 48.9492L88.9546 47.2669L102.749 35.9813ZM108.101 42.0067L112.177 46.5968L106.21 51.4774L98.7496 49.6569L108.101 42.0067ZM113.762 48.3809L119.363 54.6867L109.114 52.1857L113.762 48.3809Z" fill="#3DADE2"/>
<path d="M134.241 52.0266C133.969 51.8687 133.646 51.8243 133.342 51.9032C133.037 51.9821 132.777 52.1778 132.616 52.4479L131.449 54.4082L127.112 51.8278C126.84 51.6661 126.515 51.619 126.209 51.6969C125.902 51.7747 125.639 51.9712 125.477 52.2431L120.114 61.2581C119.952 61.53 119.905 61.855 119.983 62.1616C120.061 62.4682 120.257 62.7314 120.529 62.8931L124.867 65.4735L123.699 67.4359C123.538 67.7078 123.49 68.0328 123.568 68.3394C123.646 68.646 123.843 68.9092 124.114 69.071L130.483 72.8597L131.731 77.3951L130.234 79.9117L125.183 81.0905C125.027 81.1271 124.88 81.1948 124.75 81.2897C124.621 81.3846 124.512 81.5047 124.43 81.6427L122.413 85.0329C122.251 85.3048 122.204 85.6297 122.282 85.9363C122.36 86.2429 122.556 86.5061 122.828 86.6679L132.796 92.5981C133.068 92.7597 133.393 92.8068 133.7 92.7289C134.006 92.651 134.269 92.4546 134.431 92.1827L141.89 79.6456L144.052 80.9322C144.324 81.0939 144.649 81.141 144.956 81.0631C145.262 80.9853 145.526 80.7888 145.687 80.5169L152.707 68.7167C152.853 68.4725 152.906 68.1845 152.858 67.9044C152.81 67.6244 152.663 67.3707 152.445 67.189L134.405 52.1429C134.353 52.0996 134.298 52.0607 134.241 52.0266ZM133.95 54.8714L150.136 68.3719L144.247 78.2717L126.359 67.6305L127.453 65.7926C127.483 65.7544 127.51 65.7144 127.535 65.6729L132.898 56.6578C132.924 56.6152 132.946 56.571 132.966 56.5255L133.95 54.8714ZM126.917 54.4885L130.229 56.459L126.086 63.4232L122.774 61.4527L126.917 54.4885ZM133.439 74.6185L139.839 78.4255L132.991 89.937L125.073 85.2269L126.22 83.299L131.268 82.1189C131.425 82.0827 131.573 82.0153 131.703 81.9206C131.833 81.8259 131.942 81.706 132.024 81.568L134.041 78.1783C134.123 78.0401 134.176 77.8866 134.197 77.7273C134.219 77.568 134.207 77.406 134.164 77.2511L133.439 74.6185Z" fill="#30414D"/>
</svg>
