<svg width="164" height="161" viewBox="0 0 164 161" fill="none" xmlns="http://www.w3.org/2000/svg">
<g clip-path="url(#clip0)">
<path d="M87.0285 18.2451C57.9708 18.2451 34.531 41.6423 34.531 70.647V72.7703C33.953 73.2806 33.4714 73.9085 33.0833 74.5952C32.3526 75.888 31.8958 77.4187 31.6385 79.0335C31.1239 82.2629 31.3799 85.8198 32.5316 88.4885C33.1287 89.872 34.1925 91.0037 35.4472 91.9842C32.3525 95.9832 30.284 101.471 30.3954 109.692L30.4164 111.207L31.9206 111.011C33.887 110.757 36.0574 109.724 38.2894 108.524C36.1665 113.45 34.6682 118.474 34.3703 123.658L34.2223 126.239L36.429 124.882C43.8572 120.309 51.2181 118.071 58.5887 117.708C64.7339 122.449 72.1058 125.684 80.1638 126.865V130.91H66.864C61.6775 130.91 58.6916 133.73 57.317 136.438C55.9424 139.145 55.9232 141.815 55.9232 141.815L58.6264 141.849C58.6264 141.849 58.6748 139.733 59.7298 137.655C60.7847 135.577 62.5907 133.608 66.864 133.608H81.1583C81.58 133.844 82.3054 134.21 83.3601 134.56C85.033 135.114 87.527 135.65 90.9008 135.65C94.2746 135.65 96.7714 135.114 98.4442 134.56C99.4992 134.21 100.224 133.844 100.646 133.608H114.938C119.211 133.608 121.02 135.577 122.075 137.655C123.13 139.733 123.175 141.849 123.175 141.849L125.878 141.815C125.878 141.815 125.861 139.145 124.487 136.438C123.112 133.73 120.124 130.91 114.938 130.91H101.638V126.865C109.687 125.686 117.052 122.456 123.193 117.723C130.475 118.127 137.748 120.364 145.087 124.882L147.294 126.239L147.146 123.658C146.848 118.474 145.347 113.45 143.224 108.524C145.456 109.724 147.628 110.757 149.595 111.011L151.1 111.207L151.121 109.692C151.231 101.564 149.209 96.1101 146.173 92.1229C147.506 91.1107 148.646 89.9382 149.271 88.4885C150.423 85.8198 150.679 82.2629 150.165 79.0335C149.907 77.4187 149.45 75.888 148.72 74.5952C148.593 74.3712 148.453 74.1563 148.307 73.9462V70.647C148.307 41.6423 124.865 18.2451 95.8073 18.2451H87.0285ZM87.0285 21.2906H95.8073C123.227 21.2906 145.254 43.277 145.254 70.647V71.6801C144.906 71.6009 144.557 71.5823 144.22 71.6139C143.801 71.6531 143.399 71.765 143.037 71.9185C142.314 72.2255 141.696 72.686 141.127 73.1997C141.113 73.2118 141.102 73.2242 141.089 73.236C141.115 70.1067 140.789 67.1875 140.789 67.1875C140.789 67.1875 139.559 72.9327 138.47 75.8925C128.437 60.6053 116.432 49.9924 101.764 46.53L99.0351 45.8873L100.231 48.419C102.754 53.7589 104.67 59.1579 106.048 64.6139C98.7876 60.533 94.9208 55.2756 91.0852 51.7231L90.112 48.6042L88.9105 53.2086C90.4387 57.0426 91.7637 61.3835 92.4288 65.0092C84.1035 60.5917 77.1738 55.3876 72.3006 46.4777L71.1763 44.4227L69.9598 46.4219C66.4481 52.195 63.808 57.8946 58.8667 62.957C58.3542 59.0183 57.3148 55.5999 56.5384 52.3107L54.9867 45.7395L53.8882 52.4027C52.8522 58.6936 50.6728 62.4933 48.3692 66.6766C46.7152 69.6802 45.1807 73.2641 43.9432 77.5257C42.4968 73.819 40.6847 67.1764 40.6847 67.1764C40.6847 67.1764 40.575 70.0873 40.9361 73.8522C40.3622 73.2522 39.7611 72.7029 39.0953 72.2831C38.6517 72.0034 38.1386 71.7606 37.5827 71.6655V70.647C37.5827 43.277 59.6086 21.2906 87.0285 21.2906L87.0285 21.2906ZM71.2084 49.6521C73.7383 53.7523 76.7067 57.1147 80.0242 59.9861C78.9315 60.1379 77.4809 60.2587 75.6156 60.2587C69.8635 60.2587 67.8403 64.731 67.8403 64.731C67.8403 64.731 70.9453 62.957 75.6156 62.957C79.1431 62.957 81.5091 62.4948 82.7365 62.1742C86.1159 64.7103 89.8011 66.8454 93.7193 68.79L95.8101 69.828L95.6697 67.5012C95.4991 64.687 94.5793 61.3705 93.4874 58.0566C96.6618 61.4363 100.47 65.2125 106.889 68.2652C104.538 68.2824 101.59 68.9715 100.222 70.4665C97.8353 73.0749 96.9362 80.1702 98.5071 79.75C100.078 79.3299 110.676 70.898 110.245 69.2947C110.201 69.1274 110.078 68.9808 109.898 68.8528L109.551 67.1352C108.366 61.2807 106.281 55.5847 103.794 49.9658C117.127 54.0286 128.315 64.3469 137.795 79.5834L139.099 81.6781L140.162 79.4517C140.376 79.004 140.542 78.4572 140.673 77.8519C141.318 76.9702 142.139 75.9227 142.939 75.201C143.366 74.8152 143.784 74.5328 144.095 74.4007C144.406 74.2687 144.554 74.2741 144.683 74.315C145.276 74.5043 145.855 75.0161 146.366 75.921C146.878 76.8259 147.275 78.0794 147.495 79.4565C147.934 82.2108 147.632 85.4692 146.789 87.4205C146.299 88.5572 144.743 89.9627 142.847 91.1191C140.95 92.2755 138.77 93.2313 137.184 93.8523L136.592 94.0837L136.394 94.6867C130.651 112.133 114.259 124.666 94.7891 124.666H87.0138C67.5435 124.666 51.1518 112.133 45.409 94.6867L45.2107 94.0837L44.6192 93.8523C43.0333 93.2313 40.8531 92.2755 38.9563 91.1191C37.0596 89.9627 35.5041 88.5572 35.0135 87.4205C34.1714 85.4692 33.8693 82.2108 34.3082 79.4565C34.5276 78.0794 34.9253 76.8259 35.4367 75.921C35.9441 75.0233 36.5181 74.5134 37.1064 74.3205C37.0997 74.33 37.2763 74.3273 37.6518 74.5638C38.081 74.8344 38.6511 75.3461 39.2133 75.9572C40.1467 76.9716 41.0571 78.2185 41.7406 79.1679C41.8252 79.5581 41.9161 79.9479 42.0144 80.3355L44.2386 89.7424L45.2337 83.1035C46.2677 76.2158 48.4489 72.1353 50.7394 67.9758C52.3853 64.987 53.924 61.6077 55.1683 57.6404C55.8817 60.2274 56.5187 62.8408 56.581 65.8972L56.639 68.7872L58.8213 66.8849C64.979 61.517 67.8859 55.4139 71.2084 49.652L71.2084 49.6521ZM75.0422 68.2631C73.2312 68.2307 71.7458 68.5933 71.5575 69.2947C71.1272 70.898 81.7251 79.3299 83.2959 79.75C84.8667 80.1702 83.9677 73.0749 81.5808 70.4665C80.2381 68.9993 77.3707 68.3047 75.0422 68.2631ZM51.3902 72.3674C51.8256 74.4489 51.4674 76.8655 53.9287 78.1733C51.3088 76.9679 49.6164 75.7339 48.4705 74.1045C48.9439 76.3677 48.4706 79.0307 51.7136 80.2296C50.8978 81.0189 50.3574 81.6265 50.3574 81.6265C50.3574 81.6265 55.002 80.3603 57.3869 79.3429C58.1473 79.0185 59.0264 78.7232 60.0252 78.512C59.4121 79.767 59.0831 81.1553 59.0831 82.5794C59.0833 87.7083 63.2775 91.8949 68.4157 91.895C72.6889 91.8949 76.3053 88.998 77.4026 85.0728C78.7801 86.6751 80.5912 87.9942 80.5912 87.9942C80.5912 87.9942 80.7262 85.1408 79.0172 82.7683C78.6357 82.2387 78.1787 81.6931 77.647 81.1491L77.6457 81.133L77.2895 80.79C77.2562 80.7579 77.2174 80.7265 77.1835 80.6945C77.0269 80.5474 76.8642 80.4011 76.6953 80.2554C76.6278 80.197 76.5624 80.1385 76.4928 80.0804C76.283 79.9054 76.0636 79.732 75.835 79.5604C75.4631 79.2809 75.0676 79.0065 74.6436 78.7406C74.6409 78.7393 74.6369 78.7366 74.6342 78.7352C74.414 78.5974 74.1873 78.4619 73.9526 78.3289C73.9512 78.3281 73.9499 78.3275 73.9485 78.3261C73.4939 78.0685 73.011 77.821 72.4995 77.5852C72.4546 77.5644 72.4093 77.5436 72.364 77.5231C72.137 77.4205 71.9048 77.3197 71.6664 77.222C71.6395 77.2112 71.6138 77.1995 71.5868 77.1885C71.3262 77.0831 71.058 76.9815 70.7837 76.8825C70.7239 76.8609 70.6624 76.8403 70.6021 76.8191C70.3838 76.7425 70.1615 76.6676 69.9345 76.5954C69.8545 76.5699 69.7747 76.5443 69.6936 76.5194C69.4326 76.4395 69.1665 76.3625 68.894 76.2887C68.8672 76.282 68.8426 76.2729 68.8157 76.2657C68.7879 76.2576 68.7611 76.2522 68.7333 76.2454C68.4572 76.1726 68.185 76.1067 67.9148 76.0453C67.8311 76.0263 67.7481 76.0089 67.6648 75.991C67.4324 75.9408 67.202 75.8949 66.9742 75.853C66.9095 75.8408 66.8444 75.8279 66.78 75.8167C65.5314 75.5978 64.3518 75.4968 63.2478 75.494H63.2451L61.9092 75.4913L61.9085 75.5484C61.8139 75.5552 61.7169 75.5593 61.6236 75.5666C59.8969 75.7123 58.3879 76.0851 57.1088 76.5529C54.3398 75.3096 52.5734 74.0488 51.3902 72.3663L51.3902 72.3674ZM130.413 72.3674C129.229 74.0499 127.463 75.3107 124.694 76.554C123.415 76.0863 121.906 75.7133 120.179 75.5676C120.091 75.5609 120 75.5568 119.91 75.5509V75.4924L118.558 75.495H118.553C117.449 75.4977 116.271 75.5989 115.023 75.8178C114.957 75.8286 114.891 75.8426 114.825 75.8547C114.602 75.8959 114.377 75.9404 114.15 75.9892C114.059 76.0087 113.969 76.0278 113.878 76.0485C113.621 76.1069 113.362 76.1701 113.1 76.2387C113.062 76.2482 113.025 76.2564 112.987 76.2667C112.949 76.2761 112.915 76.288 112.878 76.2981C112.619 76.3685 112.366 76.4423 112.117 76.5184C112.03 76.5452 111.943 76.573 111.857 76.6007C111.636 76.6709 111.42 76.743 111.207 76.8174C111.144 76.8397 111.08 76.8618 111.017 76.8843C110.744 76.9831 110.476 77.0844 110.216 77.1897C110.187 77.2018 110.159 77.214 110.13 77.226C109.896 77.3216 109.669 77.4203 109.447 77.5208C109.397 77.5432 109.348 77.5657 109.299 77.5884C108.002 78.1863 106.895 78.862 105.95 79.5736C105.736 79.7352 105.529 79.8984 105.331 80.063C105.236 80.1419 105.147 80.2213 105.056 80.3007C104.916 80.4224 104.78 80.544 104.649 80.6666C104.605 80.7082 104.555 80.7492 104.512 80.7907L104.155 81.1337L104.154 81.1511C103.623 81.6945 103.167 82.2399 102.786 82.769C101.077 85.1414 101.212 87.9949 101.212 87.9949C101.212 87.9949 103.023 86.6766 104.4 85.0749C105.498 88.9993 109.116 91.8956 113.388 91.8957C118.526 91.8955 122.721 87.7089 122.722 82.5801C122.722 81.1556 122.39 79.7673 121.776 78.5127C122.776 78.7239 123.655 79.019 124.416 79.3436C126.801 80.3609 131.446 81.6272 131.446 81.6272C131.446 81.6272 130.905 81.0195 130.09 80.2302C133.333 79.0314 132.859 76.3684 133.333 74.1051C132.187 75.7346 130.494 76.9685 127.875 78.1739C130.336 76.8662 129.978 74.4496 130.413 72.368L130.413 72.3674ZM63.5246 78.2318C64.7142 78.2529 65.9963 78.3769 67.4087 78.6982C67.6421 78.7524 67.8764 78.8075 68.1161 78.8717C68.1166 78.8718 68.117 78.8723 68.1175 78.8724C68.5098 78.9774 68.8836 79.0894 69.2439 79.207C69.2817 79.2191 69.3182 79.2322 69.3557 79.2446C71.9454 80.1065 73.7245 81.2759 75.038 82.4581C75.0388 82.4987 75.0434 82.5388 75.0434 82.5794C75.0433 86.2503 72.0938 89.1972 68.4162 89.1973C64.7386 89.1972 61.7863 86.2503 61.7862 82.5794C61.7862 80.9544 62.4524 79.4383 63.5251 78.2318L63.5246 78.2318ZM118.279 78.2318C119.352 79.4384 120.018 80.9544 120.018 82.5794C120.018 86.2503 117.066 89.1973 113.388 89.1974C109.71 89.1973 106.758 86.2503 106.758 82.5794C106.758 82.5388 106.765 82.4988 106.766 82.4582C107.877 81.4584 109.325 80.4679 111.311 79.6643C110.366 80.3354 109.804 81.4216 109.804 82.5794C109.804 84.5555 111.409 86.1574 113.388 86.1575C113.552 86.1575 113.716 86.1467 113.879 86.1241C113.451 85.7892 113.201 85.2766 113.201 84.7341C113.201 83.7583 113.994 82.9674 114.972 82.9677C115.708 82.968 116.368 83.4239 116.627 84.1123C116.855 83.6333 116.973 83.1097 116.974 82.5795C116.974 80.6031 115.368 79.0011 113.388 79.0014C113.384 79.0014 113.379 79.0014 113.374 79.0014C113.33 79.002 113.287 79.0028 113.242 79.0055C113.392 78.962 113.532 78.9144 113.687 78.873C113.727 78.8622 113.766 78.8534 113.806 78.8431C114.003 78.7915 114.197 78.745 114.39 78.7001C115.805 78.3779 117.088 78.2535 118.28 78.2324L118.279 78.2318ZM68.4143 79.0014C66.4346 79.0014 64.8298 80.6034 64.8298 82.5794C64.8298 84.5555 66.4346 86.1574 68.4143 86.1574C70.3943 86.1578 71.9995 84.5558 71.9996 82.5794C71.9995 80.6031 70.3943 79.001 68.4143 79.0014ZM52.0097 85.5761C52.0097 85.5761 52.4601 90.4369 54.0335 92.2784C55.6068 94.1199 57.8668 96.3699 60.7061 98.0062C63.6842 99.7225 66.6839 99.7126 68.864 99.2734C71.0442 98.8343 73.4291 95.2047 73.4291 95.2047C73.4291 95.2047 70.0626 96.2788 68.3284 96.6281C66.5943 96.9774 64.3595 96.9957 62.0574 95.6689C59.6163 94.2621 57.5346 92.2182 56.0894 90.5267C54.6441 88.8351 52.0097 85.5761 52.0097 85.5761ZM84.1144 88.669C84.1144 88.669 81.9753 92.7008 80.9341 94.0761C79.8929 95.4514 77.0402 99.0783 77.0402 99.0783C77.0402 99.0783 81.8464 97.3451 83.0906 95.7017C84.3348 94.0583 84.1144 88.669 84.1144 88.669ZM37.6853 93.5024C39.5486 94.6231 41.4883 95.4834 43.0626 96.1192C45.6153 103.529 49.9874 110.081 55.6494 115.246C49.5923 115.945 43.5364 117.929 37.5136 121.239C38.1499 116.112 39.58 111.079 42.154 106.151L44.3077 102.03L40.2797 104.359C37.598 105.91 35.1477 107.102 33.2034 107.757C33.4232 101.088 35.1426 96.7399 37.6853 93.5024ZM143.92 93.6189C146.413 96.8442 148.095 101.166 148.313 107.757C146.368 107.102 143.918 105.91 141.236 104.359L137.209 102.03L139.36 106.151C141.934 111.079 143.366 116.112 144.002 121.239C138.064 117.975 132.092 116.001 126.119 115.277C131.797 110.106 136.183 103.544 138.74 96.1192C140.259 95.5058 142.118 94.6822 143.92 93.6189ZM56.3449 101.505C56.3449 101.505 56.5812 105.962 57.2633 107.056C57.9454 108.151 58.7144 109.212 59.5859 110.221C60.4575 111.23 61.4326 112.185 62.5238 113.068C63.6151 113.952 69.1573 115.222 69.1573 115.222C69.1573 115.222 65.1876 111.753 64.2257 110.974C63.2638 110.196 62.4067 109.355 61.6342 108.461C60.8616 107.567 60.1744 106.618 59.5594 105.631C58.9444 104.645 56.3449 101.505 56.3449 101.505ZM84.0152 102.646C84.0152 102.646 78.5219 105.31 76.9885 106.97C75.4551 108.629 76.3831 114.451 76.3831 114.451C76.3831 114.451 77.7364 110.14 78.976 108.798C80.2156 107.457 84.0152 102.646 84.0152 102.646ZM109.09 105.437C109.09 105.437 101.092 111.206 94.0307 111.57C86.4881 111.959 82.0005 111.026 82.0005 111.026C82.0005 111.026 86.0507 114.684 94.1711 114.265C102.773 113.822 109.09 105.437 109.09 105.437ZM82.8664 127.18C84.2326 127.3 85.6156 127.364 87.0138 127.364H94.7891C96.1869 127.364 97.5694 127.301 98.9352 127.181V131.411C98.6943 131.552 98.5731 131.676 97.5916 132.001C96.1873 132.467 93.9898 132.952 90.9008 132.952C87.8118 132.952 85.6143 132.467 84.21 132.001C83.2266 131.675 83.1066 131.549 82.8664 131.408V127.18Z" fill="#30414D"/>
<path d="M87.029 18.2452C57.9713 18.2452 34.5314 41.6423 34.5314 70.6471V72.7703C33.9534 73.2806 33.4719 73.9086 33.0838 74.5953C32.3531 75.8881 31.8955 77.4188 31.6382 79.0335C31.1236 82.2629 31.3804 85.8198 32.5321 88.4885C33.1292 89.872 34.193 91.0037 35.4477 91.9843C32.353 95.9832 30.2845 101.471 30.3959 109.692L30.4162 111.207L31.9211 111.011C33.8875 110.757 36.0579 109.724 38.2899 108.524C36.167 113.45 34.668 118.474 34.3701 123.658L34.2228 126.239L36.4289 124.882C43.8569 120.309 51.2179 118.072 58.5885 117.708C64.7337 122.449 72.1056 125.684 80.1636 126.865V130.911H66.8638C61.6773 130.911 58.6914 133.73 57.3168 136.438C55.9422 139.145 55.9236 141.815 55.9236 141.815L58.6262 141.85C58.6262 141.85 58.6746 139.733 59.7296 137.655C60.7845 135.577 62.5905 133.608 66.8638 133.608H81.1581C81.5798 133.844 82.3052 134.21 83.3599 134.56C85.0084 135.106 87.4586 135.632 90.7581 135.647V132.949C87.7467 132.934 85.5923 132.459 84.2105 132.001C83.2271 131.675 83.1064 131.549 82.8662 131.408V127.18C84.2324 127.3 85.6154 127.364 87.0136 127.364H90.7581V124.666H87.0136C67.5433 124.666 51.1516 112.133 45.4088 94.6867L45.2111 94.0838L44.6189 93.8523C43.0331 93.2313 40.8529 92.2756 38.9561 91.1191C37.0593 89.9627 35.5046 88.5573 35.014 87.4205C34.1719 85.4692 33.8691 82.2108 34.308 79.4566C34.5274 78.0794 34.9251 76.8259 35.4365 75.921C35.9439 75.0233 36.5179 74.5135 37.1062 74.3206C37.0995 74.33 37.2761 74.3273 37.6516 74.5639C38.0808 74.8345 38.6515 75.3462 39.2138 75.9573C40.1472 76.9717 41.0575 78.2185 41.7411 79.168C41.8257 79.5581 41.9159 79.948 42.0141 80.3356L44.239 89.7424L45.2342 83.1036C46.2681 76.2159 48.4494 72.1354 50.7399 67.9759C52.3857 64.987 53.9245 61.6078 55.1687 57.6405C55.8822 60.2275 56.5192 62.8408 56.5815 65.8972L56.6388 68.7872L58.8211 66.885C64.9788 61.517 67.8864 55.4139 71.2089 49.6521C73.7388 53.7523 76.7065 57.1147 80.024 59.9861C78.9313 60.1379 77.4814 60.2587 75.6161 60.2587C69.8641 60.2587 67.8401 64.731 67.8401 64.731C67.8401 64.731 70.9458 62.957 75.6161 62.957C79.1437 62.957 81.5089 62.4948 82.7363 62.1742C85.2506 64.0611 87.9353 65.7255 90.7582 67.2551V64.0995C83.1758 59.8693 76.8443 54.7842 72.3011 46.4777L71.1768 44.4227L69.9603 46.4219C66.4486 52.195 63.8085 57.8946 58.8672 62.957C58.3547 59.0183 57.3153 55.5999 56.5389 52.3107L54.9872 45.7395L53.8887 52.4027C52.8527 58.6936 50.6733 62.4933 48.3697 66.6765C46.7157 69.6802 45.1812 73.2641 43.9437 77.5257C42.4973 73.819 40.6852 67.1763 40.6852 67.1763C40.6852 67.1763 40.5755 70.0872 40.9366 73.8521C40.3627 73.2522 39.7615 72.7029 39.0958 72.283C38.6522 72.0033 38.1391 71.7605 37.5832 71.6654V70.647C37.5832 43.277 59.6091 21.2906 87.029 21.2906H90.7582V18.2451L87.029 18.2452ZM75.042 68.2631C73.231 68.2308 71.7463 68.5934 71.558 69.2948C71.1276 70.898 81.7255 79.3299 83.2964 79.7501C84.8672 80.1702 83.9675 73.075 81.5805 70.4665C80.2379 68.9993 77.3705 68.3047 75.042 68.2631ZM51.3907 72.366L51.39 72.3674C51.8254 74.4489 51.4672 76.8655 53.9285 78.1733C51.3086 76.9678 49.6162 75.7339 48.4703 74.1045C48.9436 76.3677 48.4711 79.0307 51.714 80.2296C50.8983 81.0189 50.3579 81.6265 50.3579 81.6265C50.3579 81.6265 55.0017 80.3603 57.3866 79.3429C58.147 79.0186 59.0269 78.7233 60.0257 78.512C59.4125 79.767 59.0836 81.1553 59.0836 82.5794C59.0837 87.7082 63.278 91.8948 68.4162 91.895C72.6894 91.8949 76.305 88.998 77.4024 85.0728C78.7798 86.6751 80.591 87.9942 80.591 87.9942C80.591 87.9942 80.7267 85.1407 79.0177 82.7683C78.6361 82.2387 78.1791 81.6931 77.6475 81.149L77.6462 81.133L77.29 80.79C77.2566 80.7579 77.2178 80.7265 77.1838 80.6945C77.0272 80.5474 76.8645 80.4011 76.6957 80.2554C76.6281 80.197 76.5627 80.1386 76.4931 80.0804C76.2833 79.9054 76.0639 79.732 75.8353 79.5604C75.4634 79.2809 75.068 79.0065 74.6439 78.7406C74.6412 78.7393 74.6372 78.7366 74.6345 78.7353C74.4144 78.5974 74.1876 78.4619 73.9529 78.3289C73.9516 78.3281 73.9502 78.3275 73.9489 78.3262C73.4942 78.0685 73.0113 77.821 72.4998 77.5852C72.4549 77.5644 72.4097 77.5436 72.3643 77.5231C72.1373 77.4205 71.9051 77.3196 71.6667 77.222C71.6398 77.2112 71.6141 77.1995 71.5871 77.1885C71.3266 77.0831 71.0583 76.9815 70.784 76.8825C70.7243 76.8609 70.6628 76.8403 70.6024 76.8191C70.3842 76.7425 70.1618 76.6676 69.9348 76.5954C69.8548 76.5699 69.775 76.5443 69.6939 76.5194C69.4329 76.4395 69.1668 76.3625 68.8943 76.2887C68.8675 76.282 68.8429 76.2729 68.816 76.2657C68.7882 76.2576 68.7615 76.2522 68.7336 76.2454C68.4575 76.1726 68.1853 76.1067 67.9152 76.0453C67.8314 76.0263 67.7484 76.0089 67.6652 75.991C67.4327 75.9408 67.2024 75.895 66.9745 75.853C66.9098 75.8408 66.8448 75.8279 66.7804 75.8167C65.5317 75.5978 64.3521 75.4968 63.2482 75.4939H63.2455L61.9096 75.4913L61.9089 75.5484C61.8143 75.5552 61.7172 75.5592 61.6239 75.5665C59.8973 75.7122 58.3882 76.0851 57.1092 76.5529C54.3402 75.3096 52.5738 74.0488 51.3905 72.3663L51.3907 72.366ZM63.5243 78.2318H63.525C64.7146 78.2529 65.9961 78.3769 67.4085 78.6982C67.6419 78.7524 67.8769 78.8076 68.1166 78.8718L68.1173 78.8725C68.272 78.9139 68.4122 78.9607 68.5614 79.0042C68.5124 79.0029 68.4632 79.0016 68.4141 79.0016C66.4344 79.0016 64.8296 80.6035 64.8295 82.5796C64.8296 84.5557 66.4344 86.1576 68.4141 86.1576C70.3943 86.1583 72 84.5562 72.0001 82.5796C71.9998 81.4263 71.4426 80.3439 70.5035 79.6721C72.4829 80.4745 73.9292 81.4606 75.0378 82.4583C75.0386 82.4989 75.0432 82.539 75.0432 82.5796C75.0431 86.2505 72.0936 89.1974 68.416 89.1975C64.7384 89.1974 61.7861 86.2505 61.786 82.5796C61.786 80.9546 62.4522 79.4385 63.5248 78.232L63.5243 78.2318ZM52.0094 85.5761C52.0094 85.5761 52.4598 90.4369 54.0332 92.2784C55.6066 94.12 57.8673 96.3699 60.7065 98.0062C63.6847 99.7225 66.6837 99.7127 68.8638 99.2735C71.0439 98.8343 73.4289 95.2047 73.4289 95.2047C73.4289 95.2047 70.0631 96.2788 68.3289 96.6281C66.5947 96.9775 64.3593 96.9957 62.0571 95.669C59.6161 94.2622 57.535 92.2183 56.0898 90.5267C54.6446 88.8351 52.0094 85.5761 52.0094 85.5761ZM84.1141 88.669C84.1141 88.669 81.9758 92.7009 80.9346 94.0762C79.8934 95.4515 77.04 99.0783 77.04 99.0783C77.04 99.0783 81.8469 97.3451 83.0911 95.7017C84.3352 94.0583 84.1141 88.669 84.1141 88.669ZM37.6851 93.5025C39.5484 94.6231 41.4881 95.4834 43.0623 96.1192C45.6151 103.529 49.9879 110.081 55.6499 115.246C49.5928 115.945 43.5361 117.929 37.5133 121.239C38.1497 116.112 39.5798 111.079 42.1538 106.151L44.3082 102.03L40.2794 104.359C37.5978 105.91 35.1481 107.102 33.2039 107.757C33.4237 101.088 35.1424 96.74 37.6851 93.5025ZM56.3447 101.505C56.3447 101.505 56.5809 105.962 57.263 107.056C57.9451 108.151 58.7149 109.212 59.5864 110.221C60.4579 111.23 61.4323 112.185 62.5236 113.068C63.6149 113.952 69.1578 115.222 69.1578 115.222C69.1578 115.222 65.188 111.753 64.2262 110.974C63.2643 110.196 62.4072 109.355 61.6346 108.461C60.862 107.567 60.1749 106.618 59.5599 105.631C58.9448 104.645 56.3447 101.505 56.3447 101.505ZM84.015 102.646C84.015 102.646 78.5217 105.31 76.9883 106.97C75.4549 108.629 76.3828 114.451 76.3828 114.451C76.3828 114.451 77.7361 110.14 78.9757 108.798C80.2154 107.457 84.015 102.646 84.015 102.646ZM82.0009 111.026C82.0009 111.026 84.9169 113.657 90.7581 114.2V111.661C85.2142 111.689 82.0009 111.026 82.0009 111.026Z" fill="#608199"/>
<path d="M90.7579 0C90.0411 0 89.3536 0.284231 88.8468 0.790168C88.3399 1.29611 88.0552 1.98231 88.0552 2.69781V157.398C88.0552 158.113 88.3399 158.799 88.8468 159.305C89.3536 159.811 90.0411 160.096 90.7579 160.096C91.4747 160.096 92.1622 159.811 92.669 159.305C93.1759 158.799 93.4606 158.113 93.4606 157.398V2.69781C93.4606 1.98231 93.1759 1.29611 92.669 0.790168C92.1622 0.284231 91.4747 0 90.7579 0Z" fill="#3DADE2"/>
<path d="M41.7171 9.32715C41.3587 9.32715 41.015 9.46926 40.7615 9.72223C40.5081 9.9752 40.3657 10.3183 40.3657 10.6761C40.3657 11.0338 40.5081 11.3769 40.7615 11.6299C41.015 11.8828 41.3587 12.025 41.7171 12.025H58.1737C58.5321 12.025 58.8758 11.8828 59.1292 11.6299C59.3827 11.3769 59.525 11.0338 59.525 10.6761C59.525 10.3183 59.3827 9.9752 59.1292 9.72223C58.8758 9.46926 58.5321 9.32715 58.1737 9.32715H41.7171ZM68.1611 9.32715C67.8027 9.32715 67.459 9.46926 67.2056 9.72223C66.9521 9.9752 66.8097 10.3183 66.8097 10.6761C66.8097 11.0338 66.9521 11.3769 67.2056 11.6299C67.459 11.8828 67.8027 12.025 68.1611 12.025H75.8602C76.2186 12.025 76.5623 11.8828 76.8158 11.6299C77.0692 11.3769 77.2116 11.0338 77.2116 10.6761C77.2116 10.3183 77.0692 9.9752 76.8158 9.72223C76.5623 9.46926 76.2186 9.32715 75.8602 9.32715H68.1611Z" fill="#3DADE2"/>
<path d="M59.0159 13.9658C58.6575 13.9658 58.3138 14.1079 58.0604 14.3609C57.8069 14.6139 57.6646 14.957 57.6646 15.3147C57.6646 15.6725 57.8069 16.0156 58.0604 16.2685C58.3138 16.5215 58.6575 16.6636 59.0159 16.6636H81.7833C82.1417 16.6636 82.4854 16.5215 82.7388 16.2685C82.9923 16.0156 83.1346 15.6725 83.1346 15.3147C83.1346 14.957 82.9923 14.6139 82.7388 14.3609C82.4854 14.1079 82.1417 13.9658 81.7833 13.9658H59.0159Z" fill="#3DADE2"/>
<path d="M48.511 28.957C48.1526 28.957 47.8089 29.0991 47.5555 29.3521C47.302 29.6051 47.1597 29.9482 47.1597 30.3059C47.1597 30.6637 47.302 31.0068 47.5555 31.2598C47.8089 31.5127 48.1526 31.6548 48.511 31.6548H67.6545C68.0129 31.6548 68.3566 31.5127 68.6101 31.2598C68.8635 31.0068 69.0059 30.6637 69.0059 30.3059C69.0059 29.9482 68.8635 29.6051 68.6101 29.3521C68.3566 29.0991 68.0129 28.957 67.6545 28.957H48.511ZM76.3777 28.957C76.0193 28.957 75.6756 29.0991 75.4221 29.3521C75.1687 29.6051 75.0263 29.9482 75.0263 30.3059C75.0263 30.6637 75.1687 31.0068 75.4221 31.2598C75.6756 31.5127 76.0193 31.6548 76.3777 31.6548H83.5383C83.8967 31.6548 84.2405 31.5127 84.4939 31.2598C84.7473 31.0068 84.8897 30.6637 84.8897 30.3059C84.8897 29.9482 84.7473 29.6051 84.4939 29.3521C84.2405 29.0991 83.8967 28.957 83.5383 28.957H76.3777Z" fill="#3DADE2"/>
<path d="M20.2933 39.127C19.9349 39.127 19.5911 39.2691 19.3377 39.522C19.0843 39.775 18.9419 40.1181 18.9419 40.4759C18.9419 40.8336 19.0843 41.1767 19.3377 41.4297C19.5911 41.6827 19.9349 41.8248 20.2933 41.8248H41.2342C41.5926 41.8248 41.9363 41.6827 42.1897 41.4297C42.4432 41.1767 42.5855 40.8336 42.5855 40.4759C42.5855 40.1181 42.4432 39.775 42.1897 39.522C41.9363 39.2691 41.5926 39.127 41.2342 39.127H20.2933ZM51.599 39.127C51.2406 39.127 50.8969 39.2691 50.6435 39.522C50.39 39.775 50.2477 40.1181 50.2477 40.4759C50.2477 40.8336 50.39 41.1767 50.6435 41.4297C50.8969 41.6827 51.2406 41.8248 51.599 41.8248H57.469C57.8274 41.8248 58.1712 41.6827 58.4246 41.4297C58.678 41.1767 58.8204 40.8336 58.8204 40.4759C58.8204 40.1181 58.678 39.775 58.4246 39.522C58.1712 39.2691 57.8274 39.127 57.469 39.127H51.599Z" fill="#3DADE2"/>
<path d="M26.282 81.2402C25.9236 81.2402 25.5799 81.3823 25.3265 81.6353C25.073 81.8883 24.9307 82.2314 24.9307 82.5891C24.9307 82.9469 25.073 83.29 25.3265 83.543C25.5799 83.7959 25.9236 83.938 26.282 83.938H47.2784C47.6368 83.938 47.9805 83.7959 48.2339 83.543C48.4874 83.29 48.6297 82.9469 48.6297 82.5891C48.6297 82.2314 48.4874 81.8883 48.2339 81.6353C47.9805 81.3823 47.6368 81.2402 47.2784 81.2402H26.282Z" fill="#3DADE2"/>
<path d="M1.35039 99.9775C0.991985 99.9775 0.648259 100.12 0.394828 100.373C0.141398 100.626 -0.000976562 100.969 -0.000976562 101.326C-0.000976562 101.684 0.141398 102.027 0.394828 102.28C0.648259 102.533 0.991985 102.675 1.35039 102.675H7.48169C7.84009 102.675 8.18382 102.533 8.43725 102.28C8.69068 102.027 8.83305 101.684 8.83305 101.326C8.83305 100.969 8.69068 100.626 8.43725 100.373C8.18382 100.12 7.84009 99.9775 7.48169 99.9775H1.35039ZM17.5958 99.9775C17.2374 99.9775 16.8937 100.12 16.6403 100.373C16.3868 100.626 16.2445 100.969 16.2445 101.326C16.2445 101.684 16.3868 102.027 16.6403 102.28C16.8937 102.533 17.2374 102.675 17.5958 102.675H39.413C39.7714 102.675 40.1151 102.533 40.3686 102.28C40.622 102.027 40.7644 101.684 40.7644 101.326C40.7644 100.969 40.622 100.626 40.3686 100.373C40.1151 100.12 39.7714 99.9775 39.413 99.9775H17.5958Z" fill="#3DADE2"/>
<path d="M48.9568 126.744C48.5984 126.744 48.2547 126.886 48.0013 127.139C47.7478 127.392 47.6055 127.735 47.6055 128.093C47.6055 128.451 47.7478 128.794 48.0013 129.047C48.2547 129.3 48.5984 129.442 48.9568 129.442H67.3006C67.659 129.442 68.0027 129.3 68.2561 129.047C68.5096 128.794 68.652 128.451 68.652 128.093C68.652 127.735 68.5096 127.392 68.2561 127.139C68.0027 126.886 67.659 126.744 67.3006 126.744H48.9568Z" fill="#3DADE2"/>
<path d="M29.2039 135.668C28.8455 135.668 28.5018 135.81 28.2483 136.063C27.9949 136.316 27.8525 136.659 27.8525 137.017C27.8525 137.375 27.9949 137.718 28.2483 137.971C28.5018 138.224 28.8455 138.366 29.2039 138.366H42.7519C43.1103 138.366 43.454 138.224 43.7074 137.971C43.9609 137.718 44.1032 137.375 44.1032 137.017C44.1032 136.659 43.9609 136.316 43.7074 136.063C43.454 135.81 43.1103 135.668 42.7519 135.668H29.2039ZM49.8122 135.668C49.4538 135.668 49.1101 135.81 48.8567 136.063C48.6033 136.316 48.4609 136.659 48.4609 137.017C48.4609 137.375 48.6033 137.718 48.8567 137.971C49.1101 138.224 49.4538 138.366 49.8122 138.366H58.5407C58.8991 138.366 59.2428 138.224 59.4963 137.971C59.7497 137.718 59.8921 137.375 59.8921 137.017C59.8921 136.659 59.7497 136.316 59.4963 136.063C59.2428 135.81 58.8991 135.668 58.5407 135.668H49.8122Z" fill="#3DADE2"/>
<path d="M126.248 2.03362C125.918 1.90556 125.55 1.91226 125.225 2.05229C124.899 2.19232 124.641 2.45445 124.508 2.78218L122.447 7.81744L117.988 10.9469C117.789 11.086 117.631 11.2759 117.531 11.4969C117.431 11.7178 117.393 11.9615 117.42 12.2024C117.447 12.4433 117.539 12.6724 117.685 12.8657C117.832 13.059 118.028 13.2094 118.252 13.301L123.299 15.3591L126.436 19.8076C126.575 20.0055 126.765 20.1623 126.987 20.2616C127.208 20.3608 127.451 20.3989 127.692 20.3717C127.933 20.3446 128.162 20.2533 128.356 20.1074C128.549 19.9615 128.7 19.7663 128.792 19.5424L130.852 14.5071L135.311 11.3776C135.51 11.2386 135.668 11.0486 135.768 10.8277C135.868 10.6068 135.906 10.363 135.879 10.1222C135.852 9.88128 135.761 9.65214 135.614 9.45883C135.468 9.26551 135.272 9.11516 135.047 9.02359L130 6.96545L126.864 2.51691C126.711 2.29874 126.497 2.13058 126.248 2.03362ZM126.077 6.08598L128.017 8.84168C128.166 9.05229 128.373 9.21589 128.612 9.31308L131.737 10.5896L128.976 12.5267C128.764 12.6748 128.6 12.8804 128.501 13.1192L127.223 16.2386L125.282 13.4829C125.133 13.2723 124.927 13.1087 124.687 13.0115L121.565 11.736L124.325 9.79888C124.536 9.65016 124.7 9.4442 124.798 9.20539L126.077 6.08598Z" fill="#3DADE2"/>
<path d="M108.897 30.6357C106.686 30.6358 104.864 32.4541 104.864 34.6614C104.864 36.8687 106.686 38.687 108.897 38.687C110.737 38.687 112.056 37.3097 112.532 35.6151C112.658 35.4901 112.758 35.3415 112.826 35.1778C112.894 35.0142 112.93 34.8387 112.93 34.6614C112.93 34.4841 112.894 34.3086 112.826 34.1449C112.758 33.9813 112.658 33.8327 112.532 33.7077C112.056 32.0131 110.737 30.6357 108.897 30.6357ZM108.897 33.3336C109.648 33.3336 110.228 33.9121 110.228 34.6614C110.228 35.4107 109.648 35.9892 108.897 35.9892C108.147 35.9892 107.567 35.4107 107.567 34.6614C107.567 33.9121 108.147 33.3336 108.897 33.3336Z" fill="#3DADE2"/>
<path d="M142.858 126.069C142.688 125.759 142.402 125.527 142.063 125.425C141.723 125.322 141.357 125.357 141.043 125.522L136.216 128.045L130.786 127.568C130.544 127.546 130.301 127.59 130.082 127.694C129.863 127.799 129.676 127.96 129.541 128.162C129.406 128.364 129.328 128.598 129.315 128.84C129.303 129.082 129.355 129.323 129.468 129.538L131.997 134.359L131.521 139.777C131.5 140.019 131.544 140.261 131.649 140.479C131.754 140.697 131.916 140.883 132.118 141.017C132.319 141.152 132.554 141.229 132.796 141.242C133.038 141.255 133.279 141.203 133.494 141.091L138.321 138.568L143.751 139.045C143.993 139.066 144.236 139.022 144.455 138.918C144.674 138.813 144.861 138.652 144.996 138.45C145.131 138.249 145.209 138.014 145.222 137.772C145.235 137.53 145.182 137.289 145.069 137.075L142.54 132.254L143.016 126.835C143.04 126.57 142.985 126.303 142.858 126.069ZM140.109 129.057L139.813 132.412C139.791 132.669 139.843 132.927 139.963 133.155L141.528 136.142L138.166 135.846C137.908 135.823 137.65 135.874 137.42 135.994L134.428 137.556L134.724 134.2C134.746 133.943 134.694 133.685 134.574 133.457L133.011 130.473L136.372 130.768C136.63 130.79 136.888 130.738 137.117 130.618L140.109 129.057Z" fill="#3DADE2"/>
<path d="M159.967 91.708C157.756 91.708 155.934 93.5263 155.934 95.7336C155.934 97.941 157.756 99.7593 159.967 99.7593C161.805 99.7593 163.122 98.3842 163.599 96.6926C163.726 96.5672 163.827 96.4179 163.896 96.2532C163.965 96.0886 164 95.912 164 95.7336C164 95.5563 163.964 95.3808 163.896 95.2172C163.828 95.0535 163.727 94.9049 163.601 94.7799C163.126 93.0854 161.807 91.708 159.967 91.708ZM159.967 94.4058C160.718 94.4058 161.297 94.9843 161.297 95.7336C161.297 96.483 160.718 97.0615 159.967 97.0615C159.216 97.0615 158.637 96.483 158.637 95.7336C158.637 94.9843 159.216 94.4058 159.967 94.4058Z" fill="#3DADE2"/>
</g>
<defs>
<clipPath id="clip0">
<rect width="164" height="160.095" fill="white"/>
</clipPath>
</defs>
</svg>
