<svg width="164" height="157" viewBox="0 0 164 157" fill="none" xmlns="http://www.w3.org/2000/svg">
<path d="M63.1543 14.4717C57.2561 14.4778 51.52 16.4052 46.8118 19.9631C42.1037 23.5209 38.6792 28.516 37.0552 34.1943C30.7097 36.4734 25.0098 40.2576 20.4428 45.2232C15.8758 50.1888 12.5776 56.1881 10.8302 62.7082C9.08274 69.2283 8.9381 76.0752 10.4086 82.6635C11.8791 89.2518 14.921 95.3855 19.2742 100.54C17.4363 104.679 16.6621 109.212 17.0221 113.727C17.3821 118.242 18.8649 122.596 21.3352 126.39C23.8056 130.184 27.1849 133.299 31.1653 135.45C35.1456 137.601 39.6003 138.72 44.1234 138.706C44.87 138.706 45.6111 138.673 46.3356 138.612C45.8856 139.858 45.6282 141.165 45.5724 142.489L48.2105 142.522C48.3017 141.09 48.6778 139.691 49.3166 138.407C50.3509 136.374 52.1151 134.441 56.2908 134.441H70.239C70.9269 134.819 71.6491 135.131 72.396 135.372C77.2078 136.797 82.3288 136.797 87.1406 135.372C87.8854 135.13 88.6058 134.818 89.2921 134.441H103.262C107.438 134.441 109.202 136.374 110.237 138.407C110.866 139.693 111.232 141.092 111.315 142.522L113.953 142.489C113.878 140.8 113.48 139.142 112.781 137.604C120.176 136.626 127.175 133.683 133.052 129.082C138.928 124.48 143.468 118.387 146.199 111.436C148.93 104.484 149.753 96.9272 148.582 89.5494C147.412 82.1717 144.291 75.2421 139.543 69.4801C142.032 61.5317 142.095 53.0203 139.724 45.0359C137.352 37.0515 132.655 29.9578 126.233 24.6632C119.812 19.3686 111.958 16.1142 103.678 15.3168C95.398 14.5194 87.0688 16.2154 79.7573 20.1874C75.0081 16.5019 69.1735 14.4958 63.1653 14.4828L63.1543 14.4717ZM63.1543 17.1191C68.8639 17.12 74.3947 19.1137 78.7949 22.7573L79.4973 23.3111L80.2882 22.857C87.1725 18.9368 95.0817 17.1982 102.973 17.8705C110.864 18.5429 118.366 21.5945 124.49 26.6231C130.614 31.6517 135.072 38.421 137.277 46.0383C139.481 53.6556 139.329 61.7632 136.839 69.2918L136.607 70.0007L137.088 70.5546C141.755 76.0035 144.84 82.6305 146.006 89.7138C147.173 96.7971 146.376 104.065 143.702 110.726C141.029 117.387 136.581 123.186 130.844 127.49C125.107 131.795 118.3 134.441 111.166 135.139C109.507 133.295 106.974 131.816 103.257 131.816H90.2655V127.828C97.5427 126.755 104.45 123.926 110.392 119.584C116.334 115.242 121.132 109.518 124.373 102.905C125.991 102.332 127.566 101.644 129.085 100.845C130.949 99.8477 132.873 98.6293 133.985 96.9179C134.605 97.3499 135.241 97.7653 135.893 98.153C136.043 98.2439 136.208 98.3044 136.381 98.3307C136.554 98.3571 136.73 98.3489 136.9 98.3066C137.07 98.2642 137.229 98.1887 137.369 98.0842C137.51 97.9797 137.628 97.8484 137.717 97.6979C137.806 97.5474 137.865 97.3806 137.889 97.2073C137.914 97.034 137.903 96.8575 137.859 96.6881C137.815 96.5188 137.738 96.3598 137.632 96.2205C137.526 96.0812 137.394 95.9643 137.243 95.8766C131.359 92.3966 126.949 86.8809 124.846 80.3695C122.744 73.8582 123.093 66.8013 125.827 60.5299L126.934 58.021L124.279 58.7077C117.332 60.5529 109.942 59.6493 103.642 56.1845C97.3416 52.7196 92.6152 46.9594 90.4424 40.0983L89.6626 37.6614L88.1251 39.7273C85.5229 43.2269 82.14 46.0691 78.2461 48.0269C74.3523 49.9848 70.0555 51.0041 65.6984 51.0037C64.0479 51.0049 62.4006 50.8585 60.7761 50.5661L59.8193 50.4L59.3713 51.2584C57.4608 54.9421 54.7562 58.1541 51.4532 60.6619C48.1502 63.1698 44.3316 64.9105 40.274 65.7582L39.1679 65.9909L39.2453 67.1429C39.2896 67.7743 39.3117 68.4001 39.3117 69.0315C39.3142 72.5925 38.6365 76.1212 37.3151 79.4273L37.105 79.2334L37.2488 79.599C34.5087 86.315 29.2806 91.7092 22.659 94.6526C22.3503 94.8019 22.1117 95.0655 21.9933 95.3876C21.875 95.7097 21.8863 96.0653 22.0248 96.3793C22.1632 96.6933 22.4181 96.9411 22.7356 97.0706C23.053 97.2 23.4083 97.2008 23.7264 97.0729C24.2407 96.8459 24.744 96.5966 25.2473 96.3419C26.2649 98.3911 28.4108 99.7425 30.4793 100.85C31.9977 101.651 33.5726 102.34 35.1914 102.911C38.4315 109.523 43.2288 115.246 49.1697 119.588C55.1107 123.93 62.017 126.76 69.2933 127.834V131.816H56.2742C52.1151 131.816 49.4051 133.677 47.8234 135.809L47.3477 135.876C46.2786 136.016 45.2016 136.086 44.1234 136.086C39.9798 136.081 35.9048 135.026 32.2782 133.019C28.6516 131.012 25.5915 128.118 23.383 124.607C21.1745 121.096 19.8896 117.082 19.6479 112.94C19.4062 108.798 20.2156 104.661 22.0008 100.917L22.3769 100.125L21.8238 99.4711C17.5716 94.6303 14.5764 88.8146 13.1031 82.5386C11.6297 76.2625 11.7237 69.7195 13.3767 63.4885C15.0297 57.2575 18.1908 51.5305 22.5803 46.8142C26.9698 42.0979 32.4523 38.5376 38.5429 36.4485L39.2177 36.2159L39.3947 35.5291C40.7586 30.258 43.8321 25.5899 48.1326 22.2577C52.433 18.9255 57.7168 17.118 63.1543 17.1191ZM88.7224 43.1168C91.2906 49.6969 96.0827 55.1661 102.264 58.5717C108.445 61.9773 115.623 63.1035 122.548 61.7539C120.499 67.6295 120.293 73.9919 121.958 79.988C123.623 85.984 127.078 91.3271 131.861 95.3006C131.236 96.2976 129.61 97.5603 127.841 98.5074C126.28 99.3205 124.663 100.018 123.001 100.595L122.448 100.773L122.21 101.277C118.733 108.589 113.252 114.762 106.407 119.077C99.562 123.391 91.6338 125.669 83.5457 125.646H75.9688C67.8807 125.669 59.9525 123.391 53.1074 119.077C46.2622 114.762 40.7817 108.589 37.3041 101.277L37.0552 100.8L36.5021 100.623C34.8404 100.046 33.223 99.3482 31.6628 98.5351C29.7326 97.505 27.9684 96.0926 27.4983 95.0569C32.209 92.1022 36.0316 87.9238 38.5595 82.9664C38.8824 83.4107 39.296 83.7812 39.7727 84.0534C40.2495 84.3255 40.7785 84.493 41.3249 84.5448C40.6888 85.4587 40.2851 86.1455 40.2851 86.1455C42.4478 85.0816 44.5558 83.9097 46.6011 82.6341C47.3489 82.1289 48.1435 81.6968 48.9737 81.3436C48.6874 82.5587 48.6529 83.8196 48.8723 85.0486C49.0917 86.2775 49.5604 87.4484 50.2494 88.4888C50.9384 89.5293 51.8331 90.4172 52.8783 91.0978C53.9234 91.7784 55.0968 92.2372 56.3259 92.4458C57.5551 92.6544 58.8139 92.6085 60.0246 92.3108C61.2353 92.0131 62.3722 91.47 63.3651 90.715C64.358 89.96 65.1858 89.0092 65.7973 87.9213C66.4088 86.8334 66.7912 85.6315 66.9206 84.3898C68.0463 85.2462 69.2542 85.9883 70.5266 86.6052C70.1972 84.8095 69.3313 83.1563 68.0434 81.8642C67.5359 81.391 66.9943 80.956 66.4229 80.5627L66.0136 80.3024C65.9677 80.2696 65.9197 80.24 65.8698 80.2137C65.715 80.114 65.549 80.0144 65.3831 79.9202L65.1011 79.754C64.8798 79.6322 64.6476 79.5159 64.4153 79.3996C63.2562 78.8363 62.0398 78.3999 60.7872 78.098H60.7153C60.1806 77.9688 59.6165 77.858 59.0229 77.7657H58.8902L58.1491 77.6716H57.9555C57.6568 77.6383 57.3526 77.6106 57.0429 77.5885L56.1138 77.5386H55.9147C55.6713 77.5386 55.428 77.5386 55.1902 77.5386H55.0076C53.8496 77.5581 52.6951 77.6748 51.5565 77.8876L50.3287 78.0371V78.0925L49.9637 78.1866C48.507 78.596 47.1119 79.1996 45.8157 79.9811C43.9661 79.6222 42.2017 78.9136 40.6169 77.8931C41.4815 75.019 41.9194 72.0332 41.9166 69.0315C41.9166 68.7047 41.9166 68.3835 41.8834 68.0567C45.9425 67.052 49.7524 65.2236 53.0772 62.6847C56.4021 60.1458 59.1712 56.9505 61.213 53.2966C62.6921 53.5226 64.1856 53.641 65.6818 53.6511C70.0473 53.6452 74.3609 52.7029 78.3324 50.8878C82.3039 49.0726 85.841 46.4267 88.7058 43.1279L88.7224 43.1168ZM70.0676 57.3729C70.0676 57.3729 74.4921 60.7404 75.836 61.0117C77.1339 61.2654 78.4516 61.4044 79.7738 61.4271V58.7853C78.6243 58.7589 77.479 58.6347 76.3504 58.4142C75.1613 58.1816 70.0676 57.3729 70.0676 57.3729ZM79.7738 63.4653L79.0659 63.5871C77.9087 63.8157 76.7333 63.9399 75.554 63.9582C74.407 63.9782 73.2604 63.906 72.125 63.7422C71.0188 63.5871 67.0091 63.5705 67.0091 63.5705C67.0091 63.5705 70.51 66.1902 71.7599 66.3398C73.0314 66.5173 74.3146 66.5969 75.5982 66.5779C76.9336 66.5561 78.2643 66.4152 79.5747 66.157C79.6421 66.1402 79.7086 66.1199 79.7738 66.0961V63.4653ZM55.6381 68.0733C55.0807 68.0678 54.5243 68.1235 53.979 68.2395C49.7757 69.1201 43.9353 74.2155 43.9353 74.2155C43.9353 74.2155 50.5112 71.6678 54.5375 70.8149C58.5639 69.962 63.9396 70.3718 63.9396 70.3718C63.9396 70.3718 59.5704 68.0456 55.6381 68.0623V68.0733ZM103.904 68.0733C99.9717 68.0733 95.6081 70.3829 95.6081 70.3829C95.6081 70.3829 100.995 69.973 105.01 70.826C109.025 71.6789 115.59 74.2155 115.59 74.2155C115.59 74.2155 109.766 69.1201 105.536 68.2284C104.999 68.1153 104.452 68.0597 103.904 68.0623V68.0733ZM119.462 78.8679C117.991 80.247 116.044 81.0833 113.146 81.7313C111.862 80.9277 110.476 80.3017 109.025 79.8704C106.749 79.2029 104.374 78.9367 102.007 79.0839C96.5815 79.3774 93.0529 81.3325 90.9457 83.2599C89.6367 84.5295 88.7437 86.1674 88.385 87.9566C89.9473 87.2397 91.4073 86.3178 92.7266 85.215C94.43 83.6642 97.2894 81.9916 102.162 81.7257C107.034 81.4599 110.253 82.8944 112.327 84.351C114.352 85.6589 116.442 86.8641 118.588 87.9621C118.588 87.9621 118.195 87.2698 117.576 86.3504C120.894 85.8519 121.005 83.2045 121.912 81.1276C120.49 82.4568 118.593 83.2987 115.872 83.9245C118.488 83.1658 118.638 80.7787 119.473 78.8679H119.462ZM40.2906 79.0285C40.7552 80.3633 41.3968 81.5928 43.1057 82.1245C41.8881 81.8442 40.7035 81.4358 39.5716 80.9061C39.8205 80.3079 40.0473 79.6654 40.263 79.0285H40.2906ZM55.6105 80.1085H56.2023H56.4124H56.8549L57.3029 80.1528H57.1646C56.3421 80.3114 55.6032 80.7592 55.0814 81.4154C54.5596 82.0715 54.2891 82.8928 54.3189 83.7311C54.3486 84.5694 54.6765 85.3695 55.2435 85.9869C55.8105 86.6044 56.5792 86.9985 57.4109 87.0983C58.2426 87.1981 59.0825 86.9969 59.7791 86.531C60.4756 86.0652 60.983 85.3653 61.2096 84.5578C61.4362 83.7502 61.3671 82.8882 61.0148 82.1271C60.6625 81.3661 60.0502 80.7562 59.2884 80.4076C61.0098 80.7282 62.6611 81.3507 64.1664 82.2464C64.1664 82.2851 64.1664 82.3239 64.1664 82.3627C64.3873 83.3996 64.3512 84.4749 64.0613 85.4947C63.7713 86.5144 63.2364 87.4475 62.5032 88.2124C61.7699 88.9772 60.8608 89.5506 59.8552 89.8823C58.8496 90.2141 57.7781 90.2941 56.7345 90.1153C55.6909 89.9366 54.7069 89.5046 53.8685 88.8571C53.0301 88.2095 52.3629 87.3662 51.9252 86.4008C51.4874 85.4354 51.2925 84.3773 51.3574 83.319C51.4224 82.2608 51.7452 81.2345 52.2976 80.33C53.3817 80.1347 54.4813 80.0383 55.5828 80.042L55.6105 80.1085ZM37.022 91.1855C37.022 91.1855 37.4645 95.9542 39.002 97.7597C40.8446 99.9857 43.0491 101.884 45.5226 103.376C47.938 104.758 50.7768 105.201 53.4978 104.622C55.6271 104.19 57.961 100.629 57.961 100.629C57.961 100.629 54.6426 101.687 52.9834 102.024C50.8957 102.49 48.7097 102.156 46.8555 101.088C44.6467 99.7393 42.6753 98.0345 41.0207 96.0428C39.5716 94.3702 36.9944 91.1689 36.9944 91.1689L37.022 91.1855ZM62.3302 97.1671C62.3302 97.1671 59.7474 102.556 59.5649 104.76C59.3824 106.965 63.652 110.853 63.652 110.853C63.652 110.853 62.0647 106.715 62.1975 104.932C62.3302 103.149 62.3136 97.1394 62.3136 97.1394L62.3302 97.1671ZM94.4079 104.921C94.4079 104.921 92.2731 106.655 90.9236 107.873C89.5741 109.092 87.7656 110.205 85.9792 110.205C84.537 110.268 83.1146 109.849 81.9363 109.014C81.532 108.75 81.1888 108.403 80.9297 107.995L79.8845 106.117L78.6788 107.895C78.6788 107.895 77.2242 110.205 73.5685 110.205C71.9978 110.205 70.145 109.097 68.7402 107.862C67.3354 106.627 65.2227 105.004 65.2227 105.004C65.2227 105.004 65.361 108.416 66.9981 109.85C68.6351 111.285 70.8695 112.847 73.5685 112.847C76.8869 112.847 78.6732 111.484 79.7241 110.46C79.9951 110.759 79.9287 110.825 80.3601 111.146C82.0024 112.302 83.9725 112.898 85.9792 112.847C88.7888 112.847 91.0895 111.285 92.6934 109.839C94.2973 108.394 94.4079 104.921 94.4079 104.921ZM71.8982 128.133C73.2366 128.249 74.5861 128.316 75.9522 128.316H83.5568C84.9229 128.316 86.2723 128.249 87.6052 128.133V132.281C87.1993 132.532 86.7572 132.719 86.2945 132.835C82.0225 134.076 77.4865 134.076 73.2145 132.835C72.7502 132.718 72.3064 132.532 71.8982 132.281V128.133Z" fill="#30414D"/>
<path d="M63.1543 14.4723C57.2561 14.4784 51.52 16.4059 46.8118 19.9637C42.1037 23.5216 38.6792 28.5167 37.0552 34.195C30.7097 36.4741 25.0098 40.2582 20.4428 45.2238C15.8758 50.1894 12.5776 56.1887 10.8302 62.7088C9.08274 69.229 8.9381 76.0759 10.4086 82.6642C11.8791 89.2524 14.921 95.3861 19.2742 100.541C17.4363 104.679 16.6621 109.213 17.0221 113.728C17.3821 118.243 18.8649 122.596 21.3352 126.39C23.8056 130.185 27.1849 133.299 31.1653 135.45C35.1456 137.602 39.6003 138.721 44.1234 138.707C44.87 138.707 45.6111 138.673 46.3356 138.612C45.8856 139.858 45.6282 141.166 45.5724 142.489L48.2105 142.523C48.3017 141.091 48.6778 139.692 49.3166 138.407C50.3509 136.375 52.1151 134.442 56.2908 134.442H70.239C70.9269 134.82 71.6491 135.131 72.396 135.372C74.7788 136.12 77.2659 136.481 79.7628 136.441V133.794C77.5481 133.834 75.3413 133.52 73.2256 132.863C72.7613 132.747 72.3174 132.56 71.9093 132.31V128.161C73.2477 128.278 74.5972 128.344 75.9632 128.344H79.7683V125.669H75.9632C67.8752 125.692 59.947 123.414 53.1019 119.099C46.2567 114.785 40.7762 108.612 37.2985 101.299L37.0552 100.801L36.5021 100.624C34.8404 100.047 33.223 99.3488 31.6628 98.5358C29.7326 97.5056 27.9684 96.0933 27.4983 95.0576C32.209 92.1028 36.0316 87.9244 38.5595 82.967C38.8824 83.4114 39.296 83.7819 39.7727 84.054C40.2495 84.3261 40.7785 84.4937 41.3249 84.5455C40.6888 85.4593 40.2851 86.1461 40.2851 86.1461C42.4478 85.0823 44.5558 83.9103 46.6011 82.6347C47.3489 82.1295 48.1435 81.6974 48.9737 81.3442C48.6874 82.5593 48.6529 83.8203 48.8723 85.0492C49.0917 86.2782 49.5604 87.4491 50.2494 88.4895C50.9384 89.5299 51.8331 90.4179 52.8783 91.0984C53.9234 91.779 55.0968 92.2378 56.3259 92.4464C57.5551 92.6551 58.8139 92.6091 60.0246 92.3114C61.2353 92.0137 62.3722 91.4706 63.3651 90.7157C64.358 89.9607 65.1858 89.0099 65.7973 87.922C66.4088 86.834 66.7912 85.6321 66.9206 84.3904C68.0463 85.2469 69.2542 85.989 70.5266 86.6058C70.1972 84.8102 69.3313 83.157 68.0434 81.8649C67.5359 81.3917 66.9943 80.9566 66.4229 80.5633L66.0136 80.303C65.9677 80.2702 65.9197 80.2406 65.8698 80.2144C65.715 80.1147 65.549 80.015 65.3831 79.9208L65.1011 79.7547C64.8798 79.6328 64.6476 79.5165 64.4153 79.4002C63.2562 78.8369 62.0398 78.4006 60.7872 78.0987H60.7153C60.1806 77.9694 59.6165 77.8587 59.0229 77.7664H58.8902L58.1491 77.6722H57.9555C57.6568 77.639 57.3526 77.6113 57.0429 77.5891L56.1138 77.5393H55.9147C55.6713 77.5393 55.428 77.5393 55.1902 77.5393H55.0076C53.8496 77.5587 52.6951 77.6754 51.5565 77.8882L50.3287 78.0377V78.0931L49.9637 78.1873C48.507 78.5966 47.1119 79.2002 45.8157 79.9818C43.9661 79.6228 42.2017 78.9142 40.6169 77.8937C41.4815 75.0196 41.9194 72.0338 41.9166 69.0321C41.9166 68.7054 41.9166 68.3841 41.8834 68.0574C45.9425 67.0526 49.7524 65.2242 53.0772 62.6853C56.4021 60.1465 59.1712 56.9512 61.213 53.2972C62.6921 53.5232 64.1856 53.6417 65.6818 53.6517C70.584 53.6487 75.413 52.4592 79.7573 50.1846V47.1938C75.4836 49.6855 70.6269 50.9984 65.6818 50.9988C64.0313 51.0001 62.384 50.8536 60.7595 50.5612L59.8027 50.3951L59.3547 51.2535C57.4442 54.9372 54.7396 58.1492 51.4366 60.6571C48.1336 63.1649 44.3151 64.9057 40.2574 65.7533L39.1513 65.986L39.2287 67.138C39.273 67.7694 39.2951 68.3952 39.2951 69.0266C39.2976 72.5876 38.6199 76.1163 37.2985 79.4224L37.0884 79.2285L37.2322 79.5941C34.4921 86.3101 29.264 91.7043 22.6424 94.6477C22.3337 94.797 22.0951 95.0606 21.9768 95.3827C21.8584 95.7049 21.8697 96.0604 22.0082 96.3744C22.1466 96.6884 22.4015 96.9363 22.719 97.0657C23.0364 97.1951 23.3917 97.1959 23.7098 97.068C24.2241 96.841 24.7274 96.5917 25.2307 96.337C26.2483 98.3862 28.3942 99.7376 30.4627 100.845C31.9811 101.646 33.556 102.335 35.1748 102.906C38.4149 109.518 43.2122 115.241 49.1531 119.583C55.0941 123.925 62.0004 126.755 69.2767 127.829V131.817H56.2742C52.1151 131.817 49.4051 133.678 47.8234 135.81L47.3477 135.876C46.2786 136.017 45.2016 136.087 44.1234 136.087C39.9798 136.082 35.9048 135.027 32.2782 133.02C28.6516 131.013 25.5915 128.119 23.383 124.608C21.1745 121.097 19.8896 117.083 19.6479 112.941C19.4062 108.798 20.2156 104.662 22.0008 100.917L22.3769 100.125L21.8238 99.4718C17.5716 94.631 14.5764 88.8153 13.1031 82.5392C11.6297 76.2631 11.7237 69.7202 13.3767 63.4891C15.0297 57.2581 18.1908 51.5311 22.5803 46.8148C26.9698 42.0985 32.4523 38.5383 38.5429 36.4491L39.2177 36.2165L39.3947 35.5297C40.4312 31.5275 42.4592 27.8517 45.2909 24.8427C48.1226 21.8337 51.6665 19.5886 55.5946 18.3153C59.5228 17.0419 63.7082 16.7815 67.7635 17.5581C71.8188 18.3346 75.613 20.1231 78.7949 22.7579L79.4973 23.3118L79.7738 23.1567V20.1715C75.0247 16.4859 69.1901 14.4798 63.1819 14.4668L63.1543 14.4723ZM70.0676 57.3736C70.0676 57.3736 74.4921 60.741 75.836 61.0124C77.1339 61.2661 78.4516 61.4051 79.7738 61.4278V58.7859C78.6243 58.7595 77.479 58.6354 76.3504 58.4148C75.1613 58.1822 70.0676 57.3736 70.0676 57.3736ZM79.7738 63.4659L79.0659 63.5878C77.9087 63.8163 76.7333 63.9405 75.554 63.9589C74.407 63.9789 73.2604 63.9066 72.125 63.7429C71.0188 63.5878 67.0091 63.5712 67.0091 63.5712C67.0091 63.5712 70.51 66.1909 71.7599 66.3404C73.0314 66.518 74.3146 66.5976 75.5982 66.5786C76.9336 66.5567 78.2643 66.4159 79.5747 66.1577C79.6421 66.1409 79.7086 66.1205 79.7738 66.0967V63.4659ZM55.6381 68.074C55.0807 68.0685 54.5243 68.1242 53.979 68.2401C49.7757 69.1208 43.9353 74.2162 43.9353 74.2162C43.9353 74.2162 50.5112 71.6685 54.5375 70.8155C58.5639 69.9626 63.9396 70.3725 63.9396 70.3725C63.9396 70.3725 59.5704 68.0463 55.6381 68.0629V68.074ZM40.263 79.0402C40.7275 80.3695 41.3691 81.6045 43.0781 82.1362C41.8605 81.8559 40.6759 81.4475 39.544 80.9178C39.8205 80.3085 40.0473 79.6661 40.263 79.0291V79.0402ZM55.5828 80.1202H56.1746H56.3848H56.8272L57.2752 80.1645H57.1369C56.3144 80.3231 55.5756 80.7709 55.0538 81.4271C54.5319 82.0832 54.2615 82.9046 54.2912 83.7429C54.3209 84.5812 54.6489 85.3812 55.2159 85.9986C55.7829 86.6161 56.5515 87.0103 57.3832 87.11C58.2149 87.2098 59.0548 87.0086 59.7514 86.5427C60.448 86.0769 60.9553 85.377 61.182 84.5695C61.4086 83.7619 61.3395 82.8999 60.9872 82.1389C60.6349 81.3778 60.0226 80.768 59.2607 80.4193C60.9821 80.7399 62.6335 81.3624 64.1387 82.2581C64.1387 82.2969 64.1387 82.3356 64.1387 82.3744C64.3596 83.4113 64.3236 84.4867 64.0336 85.5064C63.7437 86.5261 63.2087 87.4592 62.4755 88.2241C61.7423 88.989 60.8331 89.5623 59.8275 89.8941C58.8219 90.2258 57.7505 90.3058 56.7069 90.1271C55.6632 89.9483 54.6792 89.5163 53.8409 88.8688C53.0025 88.2213 52.3353 87.3779 51.8975 86.4125C51.4598 85.4471 51.2649 84.389 51.3298 83.3307C51.3947 82.2725 51.7175 81.2462 52.27 80.3418C53.3541 80.1464 54.4537 80.05 55.5552 80.0538L55.5828 80.1202ZM77.0306 83.1886C77.0306 83.1886 75.7918 87.4421 74.6027 88.7824C73.4136 90.1228 69.7966 94.908 69.7966 94.908C69.7966 94.908 75.1115 92.1942 76.5827 90.5382C78.0538 88.8821 77.0306 83.1775 77.0306 83.1775V83.1886ZM36.9944 91.1695C36.9944 91.1695 37.4368 95.9382 38.9743 97.7437C40.8169 99.9698 43.0214 101.868 45.495 103.36C47.9103 104.742 50.7491 105.185 53.4701 104.606C55.5994 104.174 57.9334 100.613 57.9334 100.613C57.9334 100.613 54.615 101.665 52.9558 102.008C50.8681 102.474 48.682 102.14 46.8278 101.072C44.619 99.7233 42.6476 98.0186 40.993 96.0268C39.5716 94.3708 36.9944 91.1695 36.9944 91.1695ZM62.3026 97.1511C62.3026 97.1511 59.7198 102.54 59.5372 104.744C59.3547 106.949 63.6244 110.837 63.6244 110.837C63.6244 110.837 62.0371 106.7 62.1698 104.916C62.3026 103.133 62.286 97.1234 62.286 97.1234L62.3026 97.1511ZM65.1785 104.999C65.1785 104.999 65.3168 108.411 66.9538 109.845C68.5909 111.28 70.8253 112.842 73.5242 112.842C76.8426 112.842 78.629 111.479 79.6798 110.455L79.7738 110.571V106.207L78.6345 107.868C78.6345 107.868 77.18 110.178 73.5242 110.178C71.9535 110.178 70.1008 109.07 68.696 107.835C67.2912 106.6 65.1785 104.999 65.1785 104.999Z" fill="#608199"/>
<path d="M79.2652 0C78.5651 -1.53441e-06 77.8935 0.27816 77.3978 0.773448C76.9022 1.26874 76.623 1.94069 76.6216 2.64187V154.353C76.6216 155.055 76.9001 155.728 77.3959 156.225C77.8917 156.721 78.5641 157 79.2652 157C79.9664 157 80.6388 156.721 81.1346 156.225C81.6304 155.728 81.9089 155.055 81.9089 154.353V2.64187C81.9074 1.94069 81.6282 1.26874 81.1326 0.773448C80.637 0.27816 79.9654 -1.53441e-06 79.2652 0V0Z" fill="#3DADE2"/>
<path d="M41.253 9.48145C40.9024 9.48145 40.5662 9.62091 40.3183 9.86915C40.0704 10.1174 39.9312 10.4541 39.9312 10.8051C39.9312 11.1562 40.0704 11.4929 40.3183 11.7411C40.5662 11.9894 40.9024 12.1288 41.253 12.1288H69.9293C70.2799 12.1288 70.6161 11.9894 70.864 11.7411C71.1119 11.4929 71.2512 11.1562 71.2512 10.8051C71.2512 10.4541 71.1119 10.1174 70.864 9.86915C70.6161 9.62091 70.2799 9.48145 69.9293 9.48145H41.253Z" fill="#3DADE2"/>
<path d="M25.2583 23.3057C24.9078 23.3057 24.5716 23.4451 24.3237 23.6934C24.0758 23.9416 23.9365 24.2783 23.9365 24.6294C23.9365 24.9804 24.0758 25.3171 24.3237 25.5654C24.5716 25.8136 24.9078 25.9531 25.2583 25.9531H37.282C37.6325 25.9531 37.9687 25.8136 38.2166 25.5654C38.4645 25.3171 38.6038 24.9804 38.6038 24.6294C38.6038 24.2783 38.4645 23.9416 38.2166 23.6934C37.9687 23.4451 37.6325 23.3057 37.282 23.3057H25.2583ZM49.7646 23.3057C49.414 23.3057 49.0778 23.4451 48.8299 23.6934C48.582 23.9416 48.4428 24.2783 48.4428 24.6294C48.4428 24.9804 48.582 25.3171 48.8299 25.5654C49.0778 25.8136 49.414 25.9531 49.7646 25.9531H68.2259C68.5764 25.9531 68.9127 25.8136 69.1605 25.5654C69.4084 25.3171 69.5477 24.9804 69.5477 24.6294C69.5477 24.2783 69.4084 23.9416 69.1605 23.6934C68.9127 23.4451 68.5764 23.3057 68.2259 23.3057H49.7646Z" fill="#3DADE2"/>
<path d="M5.53081 29.2596C5.35041 29.2479 5.16953 29.2734 4.99935 29.3345C4.82917 29.3956 4.67331 29.4909 4.54141 29.6148C4.40951 29.7386 4.30437 29.8881 4.23249 30.0543C4.16062 30.2204 4.12354 30.3995 4.12354 30.5805C4.12354 30.7616 4.16062 30.9407 4.23249 31.1068C4.30437 31.2729 4.40951 31.4225 4.54141 31.5463C4.67331 31.6701 4.82917 31.7655 4.99935 31.8266C5.16953 31.8877 5.35041 31.9132 5.53081 31.9015H39.8208C40.1558 31.8797 40.4701 31.7311 40.6997 31.4858C40.9293 31.2404 41.0571 30.9168 41.0571 30.5805C41.0571 30.2443 40.9293 29.9206 40.6997 29.6753C40.4701 29.43 40.1558 29.2813 39.8208 29.2596H5.53081Z" fill="#3DADE2"/>
<path d="M8.66119 59.0067C8.48078 58.995 8.2999 59.0204 8.12972 59.0815C7.95954 59.1426 7.80368 59.238 7.67178 59.3618C7.53988 59.4856 7.43474 59.6352 7.36286 59.8013C7.29099 59.9675 7.25391 60.1466 7.25391 60.3276C7.25391 60.5087 7.29099 60.6878 7.36286 60.8539C7.43474 61.02 7.53988 61.1696 7.67178 61.2934C7.80368 61.4172 7.95954 61.5126 8.12972 61.5737C8.2999 61.6348 8.48078 61.6602 8.66119 61.6485H23.9368C24.1172 61.6602 24.2981 61.6348 24.4683 61.5737C24.6385 61.5126 24.7943 61.4172 24.9262 61.2934C25.0581 61.1696 25.1633 61.02 25.2351 60.8539C25.307 60.6878 25.3441 60.5087 25.3441 60.3276C25.3441 60.1466 25.307 59.9675 25.2351 59.8013C25.1633 59.6352 25.0581 59.4856 24.9262 59.3618C24.7943 59.238 24.6385 59.1426 24.4683 59.0815C24.2981 59.0204 24.1172 58.995 23.9368 59.0067H8.66119ZM35.3023 59.0067C34.9672 59.0284 34.6529 59.177 34.4233 59.4224C34.1937 59.6677 34.0659 59.9914 34.0659 60.3276C34.0659 60.6639 34.1937 60.9875 34.4233 61.2328C34.6529 61.4782 34.9672 61.6268 35.3023 61.6485H44.7043C44.8848 61.6602 45.0656 61.6348 45.2358 61.5737C45.406 61.5126 45.5619 61.4172 45.6938 61.2934C45.8257 61.1696 45.9308 61.02 46.0027 60.8539C46.0745 60.6878 46.1116 60.5087 46.1116 60.3276C46.1116 60.1466 46.0745 59.9675 46.0027 59.8013C45.9308 59.6352 45.8257 59.4856 45.6938 59.3618C45.5619 59.238 45.406 59.1426 45.2358 59.0815C45.0656 59.0204 44.8848 58.995 44.7043 59.0067H35.3023Z" fill="#3DADE2"/>
<path d="M1.32182 66.3574C0.971253 66.3574 0.635043 66.4969 0.387153 66.7451C0.139263 66.9934 0 67.3301 0 67.6811C0 68.0322 0.139263 68.3689 0.387153 68.6171C0.635043 68.8654 0.971253 69.0048 1.32182 69.0048H32.6695C33.02 69.0048 33.3563 68.8654 33.6041 68.6171C33.852 68.3689 33.9913 68.0322 33.9913 67.6811C33.9913 67.3301 33.852 66.9934 33.6041 66.7451C33.3563 66.4969 33.02 66.3574 32.6695 66.3574H1.32182Z" fill="#3DADE2"/>
<path d="M1.34965 113.955C0.999085 113.955 0.662875 114.095 0.414985 114.343C0.167095 114.591 0.027832 114.928 0.027832 115.279C0.027832 115.63 0.167095 115.967 0.414985 116.215C0.662875 116.463 0.999085 116.602 1.34965 116.602H12.7206C13.0712 116.602 13.4074 116.463 13.6553 116.215C13.9032 115.967 14.0425 115.63 14.0425 115.279C14.0425 114.928 13.9032 114.591 13.6553 114.343C13.4074 114.095 13.0712 113.955 12.7206 113.955H1.34965ZM26.2873 113.955C25.9367 113.955 25.6005 114.095 25.3526 114.343C25.1047 114.591 24.9655 114.928 24.9655 115.279C24.9655 115.63 25.1047 115.967 25.3526 116.215C25.6005 116.463 25.9367 116.602 26.2873 116.602H35.3963C35.7468 116.602 36.083 116.463 36.3309 116.215C36.5788 115.967 36.7181 115.63 36.7181 115.279C36.7181 114.928 36.5788 114.591 36.3309 114.343C36.083 114.095 35.7468 113.955 35.3963 113.955H26.2873Z" fill="#3DADE2"/>
<path d="M11.1167 126.555C10.7662 126.555 10.43 126.694 10.1821 126.942C9.93419 127.191 9.79492 127.527 9.79492 127.878C9.79492 128.229 9.93419 128.566 10.1821 128.814C10.43 129.063 10.7662 129.202 11.1167 129.202H47.6521C48.0027 129.202 48.3389 129.063 48.5868 128.814C48.8347 128.566 48.974 128.229 48.974 127.878C48.974 127.527 48.8347 127.191 48.5868 126.942C48.3389 126.694 48.0027 126.555 47.6521 126.555H11.1167Z" fill="#3DADE2"/>
<path d="M105.58 26.1641C105.235 26.1799 104.91 26.3302 104.675 26.5827C104.439 26.8352 104.312 27.17 104.319 27.5155L104.441 32.8491L101.675 37.4073C101.552 37.6103 101.486 37.8428 101.483 38.0803C101.481 38.3178 101.542 38.5517 101.661 38.7573C101.78 38.9629 101.952 39.1327 102.159 39.2489C102.365 39.3651 102.6 39.4235 102.837 39.4178L108.163 39.2959L112.715 42.0652C113.014 42.2454 113.373 42.3 113.713 42.2171C114.052 42.1341 114.345 41.9203 114.529 41.6221C114.661 41.4057 114.728 41.1557 114.722 40.9021L114.595 35.5685L117.36 31.0103C117.483 30.8073 117.55 30.5748 117.552 30.3373C117.555 30.0998 117.494 29.8659 117.375 29.6603C117.256 29.4547 117.084 29.2849 116.877 29.1687C116.67 29.0525 116.436 28.9941 116.199 28.9998L110.873 29.1217L106.327 26.3524C106.101 26.2193 105.842 26.1539 105.58 26.1641ZM107.013 29.8749L109.833 31.5919C110.049 31.7244 110.299 31.7917 110.552 31.7857L113.871 31.7082L112.156 34.5273C112.024 34.7436 111.956 34.9936 111.962 35.2473L112.04 38.5704L109.219 36.8479C109.004 36.72 108.756 36.6548 108.506 36.6596L105.187 36.7316L106.902 33.9125C107.034 33.6961 107.102 33.4461 107.095 33.1925L107.013 29.8749Z" fill="#3DADE2"/>
<path d="M125.545 7.2832C124.5 7.2832 123.497 7.69925 122.757 8.43983C122.018 9.1804 121.602 10.1848 121.602 11.2322C121.602 12.2795 122.018 13.2839 122.757 14.0245C123.497 14.7651 124.5 15.1811 125.545 15.1811C127.348 15.1811 128.637 13.8297 129.102 12.1682C129.225 12.0451 129.323 11.8989 129.39 11.7378C129.457 11.5767 129.492 11.4039 129.492 11.2294C129.492 11.0549 129.457 10.8821 129.39 10.721C129.323 10.5599 129.225 10.4136 129.102 10.2906C128.62 8.6346 127.332 7.2832 125.545 7.2832ZM125.545 9.93061C125.802 9.93061 126.054 10.0069 126.267 10.15C126.481 10.293 126.648 10.4962 126.746 10.7341C126.845 10.9719 126.87 11.2336 126.82 11.4861C126.77 11.7386 126.646 11.9705 126.464 12.1525C126.283 12.3345 126.051 12.4585 125.799 12.5087C125.547 12.5589 125.286 12.5331 125.048 12.4346C124.811 12.3361 124.608 12.1693 124.465 11.9553C124.322 11.7412 124.246 11.4896 124.246 11.2322C124.243 11.0606 124.276 10.8904 124.34 10.7314C124.405 10.5725 124.5 10.4282 124.621 10.3068C124.743 10.1855 124.887 10.0898 125.045 10.0251C125.204 9.96052 125.374 9.92838 125.545 9.93061Z" fill="#3DADE2"/>
<path d="M130.728 111.474C129.682 111.474 128.679 111.89 127.939 112.63C127.2 113.371 126.784 114.375 126.784 115.423C126.784 116.47 127.2 117.474 127.939 118.215C128.679 118.955 129.682 119.372 130.728 119.372C132.525 119.372 133.814 118.02 134.278 116.359C134.402 116.236 134.501 116.091 134.568 115.93C134.635 115.769 134.67 115.597 134.67 115.423C134.67 115.248 134.635 115.076 134.568 114.915C134.501 114.754 134.402 114.609 134.278 114.487C133.841 112.825 132.525 111.474 130.728 111.474ZM130.728 114.121C130.984 114.123 131.234 114.201 131.447 114.346C131.659 114.49 131.824 114.694 131.92 114.932C132.017 115.17 132.041 115.431 131.99 115.683C131.938 115.935 131.814 116.166 131.632 116.347C131.449 116.528 131.218 116.651 130.966 116.7C130.714 116.749 130.453 116.723 130.217 116.624C129.98 116.525 129.777 116.358 129.635 116.145C129.493 115.931 129.417 115.68 129.417 115.423C129.414 115.25 129.446 115.078 129.511 114.918C129.575 114.758 129.672 114.613 129.795 114.491C129.917 114.37 130.063 114.274 130.223 114.211C130.384 114.147 130.555 114.117 130.728 114.121Z" fill="#3DADE2"/>
<path d="M163.972 110.139C163.899 109.801 163.697 109.505 163.408 109.314C163.12 109.124 162.769 109.054 162.429 109.12L157.197 110.144L152.22 108.184C152.058 108.12 151.886 108.089 151.712 108.092C151.538 108.095 151.367 108.132 151.208 108.202C151.049 108.271 150.905 108.371 150.784 108.497C150.664 108.622 150.569 108.77 150.505 108.931C150.412 109.165 150.388 109.421 150.439 109.668L151.462 114.908L149.504 119.865C149.375 120.191 149.381 120.555 149.52 120.877C149.659 121.198 149.92 121.452 150.245 121.581C150.481 121.674 150.738 121.699 150.986 121.653L156.213 120.623L161.191 122.589C161.352 122.653 161.525 122.684 161.698 122.681C161.872 122.678 162.043 122.641 162.202 122.571C162.362 122.502 162.506 122.402 162.626 122.277C162.747 122.151 162.841 122.004 162.905 121.842C162.999 121.608 163.022 121.352 162.971 121.105L161.948 115.866L163.906 110.881C164.001 110.646 164.024 110.387 163.972 110.139ZM160.566 112.183L159.349 115.256C159.258 115.491 159.235 115.746 159.282 115.993L159.913 119.239L156.849 118.02C156.613 117.929 156.356 117.906 156.108 117.954L152.867 118.591L154.084 115.517C154.177 115.281 154.201 115.023 154.15 114.775L153.519 111.535L156.583 112.748C156.819 112.84 157.076 112.865 157.325 112.82L160.566 112.183Z" fill="#3DADE2"/>
</svg>
