<svg width="159" height="161" viewBox="0 0 159 161" fill="none" xmlns="http://www.w3.org/2000/svg">
<path d="M82.252 19.2422C77.3288 19.2723 71.8389 20.2702 65.8685 22.7709C38.8113 34.1038 20.668 59.3315 20.668 86.6936C20.668 100.561 28.0369 114.187 35.3199 124.399C41.9449 133.688 48.5165 140.125 49.6612 141.224C49.6609 141.224 49.6612 141.224 49.6612 141.227C48.2846 143.946 48.266 146.627 48.266 146.627L50.9725 146.664C50.9725 146.664 51.0182 144.539 52.0748 142.452C53.1313 140.365 54.9427 138.389 59.2224 138.389H73.5378C73.9602 138.625 74.6867 138.993 75.743 139.343C77.4183 139.9 79.916 140.436 83.2948 140.436C86.6736 140.436 89.1742 139.9 90.8494 139.343C91.9058 138.993 92.6309 138.625 93.0525 138.389H107.367C111.647 138.389 113.458 140.365 114.515 142.452C115.571 144.539 115.617 146.664 115.617 146.664L118.324 146.627C118.324 146.627 118.305 143.946 116.928 141.227C116.634 140.645 116.261 140.059 115.812 139.496C117.733 137.836 124.643 131.684 131.598 123.232C139.774 113.297 148.079 100.227 148.079 87.3082C148.079 74.7292 144.569 61.987 139.866 51.6768C135.164 41.3666 129.428 33.4906 124.149 30.5592C119.17 27.7938 115.071 27.8956 112.294 28.8154C110.847 29.295 109.781 29.9719 109.049 30.5374C107.921 29.2906 104.607 25.8199 98.2481 22.7989C94.4498 20.9944 89.768 19.5582 84.3285 19.2885C83.6485 19.2548 82.9567 19.2394 82.2534 19.2437L82.252 19.2422ZM82.2836 21.9253C88.1627 21.887 93.1166 23.3586 97.0865 25.2447C104.144 28.5976 107.95 33.2345 107.95 33.2345L108.967 34.4728L110.017 33.2639C110.017 33.2639 111.024 32.0882 113.144 31.3858C115.264 30.6834 118.414 30.4689 122.837 32.9251C126.961 35.2154 132.842 42.7952 137.405 52.7995C141.968 62.8038 145.371 75.2348 145.371 87.3068C145.371 99.0392 137.505 111.787 129.506 121.507C122.422 130.116 115.367 136.311 113.84 137.621C112.239 136.473 110.113 135.678 107.366 135.678H94.0463V132.084C111.398 129.153 125.495 116.854 131.04 100.533C132.274 100.07 133.975 99.4117 135.776 98.3948C137.797 97.2532 139.816 95.8636 140.711 93.7839C141.69 91.5093 141.899 88.5359 141.467 85.8179C141.251 84.4589 140.867 83.1664 140.243 82.061C139.62 80.9555 138.712 79.9926 137.454 79.59C136.72 79.3549 135.992 79.3809 135.321 79.5663C134.65 79.7516 134.035 80.0951 133.527 80.4973C132.93 80.9698 132.423 81.5304 131.975 82.1101C130.218 80.7154 126.525 77.7582 122.303 74.2029C116.464 69.2851 109.717 63.2834 106.293 59.2474C99.6889 51.4637 103.951 42.7169 103.951 42.7169L106.494 37.394L101.886 41.0739C101.886 41.0739 98.8564 43.4932 95.0639 46.0454C91.2714 48.5976 86.5882 51.2404 84.0096 51.6965C81.1781 52.1974 75.6754 52.1821 69.8941 52.9929C64.1128 53.8037 57.913 55.4539 53.4428 59.6443C48.9777 63.8299 44.637 71.8533 41.2463 78.9202C38.4339 84.7822 37.1182 88.2349 36.4858 89.8339C34.5603 87.3409 33.7551 85.3264 32.7749 80.7801C32.7318 80.5808 32.6443 80.3939 32.5189 80.2332C32.3936 80.0725 32.2336 79.9421 32.051 79.8519C31.2148 79.4395 30.1542 79.2631 29.1325 79.5901C27.8744 79.9928 26.9671 80.9557 26.3441 82.0611C25.7211 83.1666 25.3389 84.459 25.123 85.818C24.6911 88.5361 24.8973 91.5095 25.8763 93.784C26.7713 95.8637 28.7895 97.2533 30.811 98.3949C32.6124 99.4123 34.3162 100.07 35.5506 100.533C41.0954 116.855 55.1896 129.153 72.5413 132.084V135.678H59.2217C55.4922 135.678 52.904 137.139 51.2285 138.968C49.5286 137.308 43.5554 131.283 37.525 122.828C30.4063 112.846 23.3759 99.5882 23.3759 86.6937C23.3759 60.5321 40.7783 36.2181 66.9134 25.2714C72.5788 22.8985 77.7115 21.9552 82.2843 21.9254L82.2836 21.9253ZM100.462 45.4579C99.6663 49.2997 99.3955 55.3019 104.231 61.0014C107.927 65.3566 114.679 71.325 120.559 76.2776C126.439 81.2301 131.428 85.1298 131.428 85.1298C131.463 85.1573 131.5 85.183 131.538 85.2068C131.842 85.3982 132.209 85.4612 132.559 85.382C132.909 85.3027 133.213 85.0876 133.404 84.784C133.929 83.9494 134.592 83.1094 135.204 82.6252C135.817 82.1409 136.195 82.0311 136.629 82.1701C137.046 82.3035 137.484 82.6765 137.887 83.3924C138.291 84.1083 138.613 85.1237 138.792 86.2441C139.148 88.4851 138.895 91.1588 138.226 92.7129C137.805 93.6904 136.251 95.0164 134.446 96.0358C132.641 97.0551 130.655 97.8413 129.535 98.2477L128.914 98.4725L128.71 99.1025C122.87 117.101 106.038 130.046 86.0364 130.046H80.5492C60.5474 130.046 43.7184 117.101 37.8782 99.1025L37.6719 98.4725L37.0508 98.2477C35.9306 97.8413 33.9469 97.0551 32.1419 96.0358C30.337 95.0164 28.7805 93.6904 28.3597 92.7129C27.6909 91.1588 27.4379 88.4851 27.7939 86.2441C27.972 85.1237 28.2947 84.1082 28.6982 83.3924C29.1017 82.6765 29.5397 82.3035 29.9564 82.1701C30.0784 82.1311 30.1879 82.1174 30.2991 82.1205C31.4286 87.2369 32.3061 89.7575 35.7794 93.4878L37.2544 95.0705L38.0342 93.0517C38.0342 93.0517 40.3461 87.0527 43.6851 80.0932C47.0241 73.1338 51.4805 65.1937 55.2919 61.6209C59.0982 58.053 64.7341 56.452 70.269 55.6758C75.8039 54.8996 81.1 54.9623 84.4824 54.364C88.1176 53.721 92.6767 50.9139 96.5725 48.2922C98.7366 46.8358 99.1817 46.4267 100.461 45.4586L100.462 45.4579ZM68.4017 67.8118C64.9687 67.856 60.4295 70.3835 60.747 71.7535C61.1234 73.3771 74.4684 75.8515 76.0549 75.4831C77.6415 75.1146 73.4977 69.2517 70.1571 68.0659C69.6351 67.8806 69.0374 67.8035 68.4017 67.8118ZM98.1859 67.8118C97.5502 67.8035 96.9518 67.8806 96.4298 68.0659C93.0892 69.2517 88.9455 75.1146 90.532 75.4831C92.1185 75.8515 105.464 73.3771 105.841 71.7535C106.158 70.3835 101.619 67.856 98.1859 67.8118ZM57.5908 76.5597C57.5908 76.5597 58.1978 78.5452 58.33 79.3079C58.4807 80.1792 58.5538 80.6778 58.5972 81.004C58.3812 81.028 58.1675 81.0539 57.9572 81.0831C57.8964 81.0917 57.8365 81.1006 57.7761 81.1096C57.5061 81.1492 57.2408 81.1922 56.9802 81.2398C56.9434 81.2466 56.9063 81.253 56.8697 81.2602C56.7741 81.2781 56.678 81.2957 56.5837 81.3149C56.3265 80.6077 55.8763 79.7431 55.0576 78.958C54.2772 78.2095 51.5405 78.5912 51.5405 78.5912C51.5405 78.5912 52.7969 80.244 53.1847 80.9137C53.4876 81.4374 53.6676 81.7671 53.8295 82.0646C53.6908 82.1129 53.5514 82.1609 53.4162 82.2115L51.444 82.9501L51.5391 83.0453C49.8223 83.9133 48.4555 84.939 47.4086 85.9432C45.1613 88.0991 43.5033 92.5296 43.5033 92.5296C43.5033 92.5296 47.4084 89.6986 49.2836 87.8997C49.8975 87.3108 50.6412 86.7069 51.5335 86.1428C51.3639 87.5511 51.5073 88.9851 52.0181 90.3421C53.8325 95.1617 59.2424 97.6129 64.0579 95.7972C68.0626 94.2869 70.4279 90.2869 70.0683 86.2106C71.9259 87.2295 74.0896 87.8284 74.0896 87.8284C74.0896 87.8284 73.2064 85.0991 70.7655 83.4737C70.2211 83.1111 69.6014 82.7601 68.9115 82.4369L68.9033 82.4208L68.4487 82.2248C68.3926 82.2008 68.3301 82.1799 68.2731 82.1562C68.1098 82.0887 67.9424 82.0233 67.7717 81.9595C67.6558 81.916 67.542 81.8716 67.4227 81.83C67.1822 81.7465 66.9346 81.6677 66.68 81.5927C66.5649 81.5587 66.4511 81.524 66.3331 81.4919C66.5319 80.9162 66.677 80.2263 66.6723 79.4395C66.6655 78.3578 64.4874 76.6563 64.4874 76.6563C64.4874 76.6563 64.1761 78.7093 63.9657 79.4542C63.7689 80.1509 63.6195 80.6374 63.5146 80.9676C63.2751 80.9418 63.0307 80.9207 62.7823 80.9032C62.763 80.9032 62.7437 80.8996 62.7243 80.8989C62.2901 80.8695 61.8422 80.8535 61.3808 80.8513C61.3844 80.1002 61.2584 79.1377 60.764 78.122C60.2905 77.1495 57.5909 76.5596 57.5909 76.5596L57.5908 76.5597ZM108.996 76.5597C108.996 76.5597 106.297 77.1496 105.823 78.1221C105.329 79.1378 105.204 80.1003 105.206 80.8514C104.745 80.855 104.297 80.8697 103.863 80.899C103.844 80.899 103.824 80.9025 103.805 80.9033C103.556 80.9208 103.312 80.9419 103.072 80.9677C102.968 80.6374 102.819 80.151 102.622 79.4543C102.412 78.7094 102.1 76.6564 102.1 76.6564C102.1 76.6564 99.9215 78.3578 99.9148 79.4396C99.9101 80.2267 100.056 80.9168 100.255 81.4927C100.14 81.5239 100.029 81.557 99.9175 81.59C99.6562 81.6668 99.4024 81.7478 99.156 81.8336C99.0494 81.8708 98.9478 81.9103 98.844 81.9491C98.6533 82.02 98.4667 82.0927 98.2852 82.1682C98.2385 82.1879 98.1873 82.205 98.1412 82.2249L97.6838 82.4209L97.6756 82.437C96.9858 82.7601 96.3658 83.1112 95.8215 83.4737C93.3807 85.0992 92.4974 87.8284 92.4974 87.8284C92.4974 87.8284 94.6607 87.2298 96.5181 86.2114C96.1588 90.2874 98.5248 94.287 102.529 95.7972C107.345 97.613 112.757 95.1618 114.572 90.3422C115.083 88.9852 115.225 87.5511 115.054 86.1428C115.947 86.707 116.69 87.3109 117.304 87.8998C119.179 89.6987 123.085 92.5296 123.085 92.5296C123.085 92.5296 121.427 88.0992 119.179 85.9433C118.132 84.939 116.765 83.9127 115.048 83.0446L115.142 82.9501L113.174 82.2116C113.038 82.1608 112.898 82.1125 112.759 82.0639C112.921 81.7665 113.1 81.4372 113.403 80.9138C113.791 80.2441 115.047 78.5912 115.047 78.5912C115.047 78.5912 112.31 78.2096 111.529 78.958C110.711 79.7429 110.261 80.6072 110.003 81.3142C109.909 81.2952 109.813 81.2783 109.717 81.2603C109.681 81.2535 109.645 81.2467 109.608 81.2399C109.346 81.1921 109.08 81.1487 108.809 81.109C108.749 81.1004 108.69 81.0914 108.631 81.0832C108.42 81.0542 108.207 81.0282 107.991 81.0041C108.034 80.6779 108.107 80.1793 108.258 79.308C108.39 78.5453 108.996 76.5598 108.996 76.5598L108.996 76.5597ZM61.6856 83.5709C63.8277 83.624 65.5323 84.0408 66.926 84.5873C66.9414 84.6258 66.9618 84.6626 66.9764 84.7014C68.2748 88.1511 66.5504 91.9626 63.1039 93.2624C59.6573 94.562 55.8485 92.8361 54.5499 89.3865C53.9751 87.8596 54.0646 86.2008 54.6429 84.6881C55.7821 84.2815 57.0472 83.9396 58.5125 83.7438C58.555 83.7384 58.5985 83.7337 58.6412 83.7284C58.8162 83.7062 58.9926 83.6847 59.1734 83.6668C59.331 83.6514 59.4765 83.646 59.6301 83.6338C59.5855 83.6486 59.5412 83.6642 59.4973 83.6807C59.056 83.847 58.6518 84.0988 58.3078 84.4215C57.9637 84.7442 57.6866 85.1315 57.4921 85.5615C57.2977 85.9914 57.1897 86.4555 57.1745 86.9272C57.1593 87.3988 57.237 87.8689 57.4033 88.3105C57.5696 88.7521 57.8211 89.1566 58.1436 89.5008C58.466 89.8451 58.8531 90.1225 59.2826 90.317C59.7121 90.5116 60.1758 90.6195 60.647 90.6347C61.1182 90.6499 61.5878 90.5721 62.029 90.4056C62.9198 90.0695 63.6408 89.393 64.0334 88.5249C64.4259 87.6568 64.4579 86.6682 64.1222 85.7765C63.9208 85.2413 63.5946 84.762 63.1708 84.3783C62.747 83.9947 62.2378 83.7178 61.6856 83.5708V83.5709ZM104.902 83.5709C104.35 83.7178 103.84 83.9946 103.416 84.3782C102.992 84.7619 102.666 85.2413 102.465 85.7766C102.129 86.6684 102.161 87.6571 102.554 88.5252C102.947 89.3933 103.668 90.0697 104.559 90.4057C105.45 90.7416 106.437 90.7096 107.305 90.3167C108.172 89.9238 108.848 89.2022 109.184 88.3106C109.35 87.869 109.428 87.399 109.412 86.9273C109.397 86.4557 109.289 85.9916 109.095 85.5617C108.901 85.1318 108.624 84.7444 108.28 84.4217C107.936 84.0989 107.532 83.8472 107.09 83.6808C107.046 83.6643 107.002 83.6486 106.957 83.6339C107.112 83.6461 107.258 83.6511 107.416 83.6669C107.579 83.683 107.738 83.7023 107.896 83.7222C107.958 83.7297 108.021 83.7365 108.083 83.7444C109.545 83.9403 110.806 84.282 111.944 84.688C112.522 86.2007 112.612 87.8595 112.037 89.3864C110.738 92.836 106.93 94.5619 103.483 93.2623C100.036 91.9625 98.3121 88.151 99.6105 84.7013C99.6252 84.6625 99.6456 84.6256 99.6609 84.5871C101.054 84.0408 102.76 83.624 104.902 83.5708V83.5709ZM76.4424 84.4893C76.4424 84.4893 76.859 90.015 75.9871 94.1479C75.1151 98.2808 72.5091 105.023 72.5091 105.023C72.5091 105.023 77.7196 99.0505 78.6356 94.7086C79.5516 90.3667 76.4424 84.4893 76.4424 84.4893ZM47.8862 94.0254C47.8862 94.0254 49.4668 98.6652 51.4314 100.094C53.396 101.522 56.1252 103.188 59.2741 104.119C62.577 105.096 65.4954 104.382 67.5149 103.441C69.5343 102.501 71.0041 98.3976 71.0041 98.3976C71.0041 98.3976 67.9777 100.237 66.3714 100.985C64.765 101.733 62.5939 102.275 60.0407 101.52C57.3334 100.72 54.8264 99.2128 53.0218 97.9006C51.2172 96.5885 47.8862 94.0254 47.8862 94.0254ZM57.0117 112.043C57.0117 112.043 57.7074 116.47 58.4999 117.493C59.2925 118.516 60.1684 119.496 61.1408 120.414C62.1132 121.332 63.183 122.185 64.3614 122.955C65.5398 123.725 71.1921 124.421 71.1921 124.421C71.1921 124.421 66.8792 121.365 65.8406 120.687C64.8019 120.009 63.861 119.258 62.999 118.444C62.137 117.631 61.3546 116.755 60.64 115.833C59.9254 114.91 57.0117 112.043 57.0117 112.043ZM70.8236 114.231C70.8236 114.231 76.4484 117.288 83.2928 117.288C90.1371 117.288 95.7639 114.231 95.7639 114.231C95.7639 114.231 89.6729 114.579 83.2928 114.579C76.9126 114.579 70.8236 114.231 70.8236 114.231ZM75.2472 132.461C76.9877 132.653 78.7564 132.754 80.5498 132.754H86.0371C87.8305 132.754 89.5992 132.653 91.3398 132.461V136.178C91.0985 136.32 90.9772 136.444 89.9942 136.77C88.5877 137.238 86.387 137.726 83.2935 137.726C80.1999 137.726 77.9991 137.238 76.5928 136.77C75.6098 136.444 75.4884 136.32 75.2472 136.178V132.461Z" fill="#30414D"/>
<path d="M82.252 19.2422C77.3288 19.2723 71.8389 20.2702 65.8685 22.7709C38.8113 34.1038 20.668 59.3315 20.668 86.6936C20.668 100.561 28.0369 114.187 35.3199 124.399C41.9449 133.688 48.5165 140.125 49.6612 141.224C49.6609 141.224 49.6612 141.224 49.6612 141.227C48.2846 143.946 48.266 146.627 48.266 146.627L50.9725 146.664C50.9725 146.664 51.0182 144.539 52.0748 142.452C53.1313 140.365 54.9427 138.389 59.2224 138.389H73.5378C73.9602 138.625 74.6867 138.993 75.743 139.343C77.4183 139.9 79.916 140.436 83.2948 140.436V137.727C80.2012 137.727 78.0005 137.239 76.5941 136.772C75.6111 136.445 75.4897 136.321 75.2485 136.18V132.463C76.989 132.655 78.7578 132.756 80.5512 132.756H83.2948V130.047H80.5512C60.5494 130.047 43.7204 117.102 37.8803 99.1033L37.6739 98.4733L37.0529 98.2485C35.9326 97.8421 33.9489 97.0559 32.144 96.0365C30.3391 95.0172 28.7825 93.6912 28.3618 92.7137C27.6929 91.1596 27.4399 88.4859 27.796 86.2449C27.974 85.1245 28.2968 84.109 28.7003 83.3932C29.1038 82.6773 29.5417 82.3043 29.9585 82.1709C30.0805 82.1319 30.19 82.1182 30.3011 82.1213C31.4307 87.2376 32.3081 89.7583 35.7814 93.4886L37.2564 95.0713L38.0362 93.0525C38.0362 93.0525 40.3482 87.0535 43.6872 80.094C47.0262 73.1346 51.4826 65.1945 55.294 61.6217C59.1002 58.0538 64.7362 56.4529 70.2711 55.6766C75.1958 54.986 79.928 54.958 83.2948 54.5391V51.8056C80.3133 52.2006 75.2256 52.2467 69.8955 52.9942C64.1142 53.805 57.9144 55.4552 53.4441 59.6456C48.979 63.8312 44.6384 71.8546 41.2477 78.9215C38.4353 84.7835 37.1196 88.2363 36.4871 89.8353C34.5616 87.3422 33.7565 85.3277 32.7762 80.7815C32.7331 80.5822 32.6456 80.3952 32.5203 80.2345C32.395 80.0738 32.235 79.9434 32.0524 79.8532C31.2162 79.4408 30.1555 79.2645 29.1338 79.5915C27.8758 79.9941 26.9685 80.957 26.3455 82.0625C25.7225 83.1679 25.3403 84.4603 25.1243 85.8193C24.6925 88.5374 24.8987 91.5109 25.8776 93.7854C26.7727 95.8651 28.7908 97.2546 30.8123 98.3962C32.6137 99.4136 34.3175 100.071 35.552 100.534C41.0968 116.856 55.191 129.154 72.5426 132.085V135.68H59.223C55.4935 135.68 52.9054 137.14 51.2299 138.969C49.53 137.309 43.5567 131.284 37.5263 122.829C30.4076 112.848 23.3773 99.5896 23.3773 86.6951C23.3773 60.5335 40.7797 36.2194 66.9148 25.2728C72.5802 22.8998 77.7129 21.9566 82.2856 21.9267C82.6255 21.9232 82.9618 21.9303 83.2955 21.9364V19.2519C82.9512 19.2444 82.6041 19.2415 82.2541 19.2437L82.252 19.2422ZM68.4016 67.8118C64.9686 67.856 60.4294 70.3835 60.747 71.7535C61.1234 73.3771 74.4684 75.8515 76.0549 75.4831C77.6414 75.1146 73.4977 69.2517 70.1571 68.0659C69.6351 67.8806 69.0374 67.8035 68.4016 67.8118ZM57.5907 76.5597C57.5907 76.5597 58.1977 78.5452 58.33 79.3079C58.4807 80.1792 58.5538 80.6778 58.5971 81.004C58.3812 81.028 58.1674 81.0539 57.9572 81.0831C57.8963 81.0917 57.8364 81.1006 57.7761 81.1096C57.506 81.1492 57.2407 81.1922 56.9802 81.2398C56.9434 81.2466 56.9062 81.253 56.8697 81.2602C56.774 81.2781 56.678 81.2957 56.5836 81.3149C56.3265 80.6077 55.8763 79.7431 55.0576 78.958C54.2771 78.2095 51.5404 78.5912 51.5404 78.5912C51.5404 78.5912 52.7969 80.244 53.1847 80.9137C53.4876 81.4374 53.6676 81.7671 53.8295 82.0646C53.6907 82.1129 53.5514 82.1609 53.4162 82.2115L51.4439 82.9501L51.539 83.0453C49.8223 83.9133 48.4554 84.939 47.4085 85.9432C45.1612 88.0991 43.5032 92.5296 43.5032 92.5296C43.5032 92.5296 47.4084 89.6986 49.2836 87.8997C49.8974 87.3108 50.6411 86.7069 51.5334 86.1428C51.3639 87.5511 51.5073 88.9851 52.0181 90.3421C53.8325 95.1617 59.2424 97.6129 64.0578 95.7972C68.0625 94.2869 70.4279 90.2869 70.0682 86.2106C71.9259 87.2295 74.0896 87.8284 74.0896 87.8284C74.0896 87.8284 73.2064 85.0991 70.7655 83.4737C70.2211 83.1111 69.6014 82.7601 68.9115 82.4369L68.9033 82.4208L68.4486 82.2248C68.3926 82.2008 68.3301 82.1799 68.2731 82.1562C68.1098 82.0887 67.9424 82.0233 67.7716 81.9595C67.6558 81.916 67.542 81.8716 67.4226 81.83C67.1821 81.7465 66.9345 81.6677 66.6799 81.5927C66.5648 81.5587 66.451 81.524 66.333 81.4919C66.5319 80.9162 66.6769 80.2263 66.6722 79.4395C66.6654 78.3578 64.4874 76.6563 64.4874 76.6563C64.4874 76.6563 64.176 78.7093 63.9656 79.4542C63.7688 80.1509 63.6195 80.6374 63.5145 80.9676C63.2751 80.9418 63.0307 80.9207 62.7823 80.9032C62.763 80.9032 62.7436 80.8996 62.7243 80.8989C62.2901 80.8695 61.8422 80.8535 61.3808 80.8513C61.3844 80.1002 61.2584 79.1377 60.7639 78.122C60.2905 77.1495 57.5909 76.5596 57.5909 76.5596L57.5907 76.5597ZM61.6856 83.5709C63.8276 83.624 65.5322 84.0408 66.926 84.5873C66.9414 84.6258 66.9618 84.6626 66.9763 84.7014C68.2747 88.1511 66.5504 91.9626 63.1039 93.2624C59.6573 94.562 55.8484 92.8361 54.5498 89.3865C53.9751 87.8596 54.0646 86.2008 54.6429 84.6881C55.782 84.2815 57.0472 83.9396 58.5125 83.7438C58.5549 83.7384 58.5984 83.7337 58.6412 83.7284C58.8162 83.7062 58.9926 83.6847 59.1734 83.6668C59.3309 83.6514 59.4765 83.646 59.6301 83.6338C59.5855 83.6486 59.5412 83.6642 59.4972 83.6807C59.056 83.847 58.6518 84.0988 58.3078 84.4215C57.9637 84.7442 57.6866 85.1315 57.4921 85.5615C57.2977 85.9914 57.1897 86.4555 57.1745 86.9272C57.1592 87.3988 57.237 87.8689 57.4033 88.3105C57.5695 88.7521 57.8211 89.1566 58.1435 89.5008C58.466 89.8451 58.853 90.1225 59.2825 90.317C59.7121 90.5116 60.1757 90.6195 60.6469 90.6347C61.1182 90.6499 61.5878 90.5721 62.0289 90.4056C62.9198 90.0695 63.6408 89.393 64.0333 88.5249C64.4259 87.6568 64.4578 86.6682 64.1222 85.7765C63.9207 85.2413 63.5946 84.762 63.1708 84.3783C62.747 83.9947 62.2378 83.7178 61.6856 83.5708V83.5709ZM76.4423 84.4893C76.4423 84.4893 76.859 90.015 75.987 94.1479C75.1151 98.2808 72.5091 105.023 72.5091 105.023C72.5091 105.023 77.7195 99.0505 78.6356 94.7086C79.5516 90.3667 76.4423 84.4893 76.4423 84.4893ZM47.8862 94.0254C47.8862 94.0254 49.4667 98.6652 51.4313 100.094C53.3959 101.522 56.1252 103.188 59.2741 104.119C62.577 105.096 65.4954 104.382 67.5148 103.441C69.5343 102.501 71.004 98.3976 71.004 98.3976C71.004 98.3976 67.9777 100.237 66.3714 100.985C64.765 101.733 62.5938 102.275 60.0406 101.52C57.3334 100.72 54.8263 99.2128 53.0217 97.9006C51.2171 96.5885 47.8862 94.0254 47.8862 94.0254ZM57.0116 112.043C57.0116 112.043 57.7073 116.47 58.4999 117.493C59.2925 118.516 60.1683 119.496 61.1407 120.414C62.1132 121.332 63.183 122.185 64.3614 122.955C65.5397 123.725 71.1921 124.421 71.1921 124.421C71.1921 124.421 66.8792 121.365 65.8405 120.687C64.8019 120.009 63.8609 119.258 62.999 118.444C62.137 117.631 61.3546 116.755 60.64 115.833C59.9254 114.91 57.0116 112.043 57.0116 112.043ZM70.8236 114.231C70.8236 114.231 76.4484 117.288 83.2927 117.288C83.293 117.288 83.2927 117.288 83.2927 117.288V114.579C83.2925 114.579 83.2927 114.579 83.2927 114.579C76.9126 114.579 70.8236 114.231 70.8236 114.231Z" fill="#608199"/>
<path d="M83.2932 0.0322266C82.5753 0.0322266 81.8868 0.317654 81.3792 0.825722C80.8716 1.33379 80.5864 2.02288 80.5864 2.7414V157.341C80.5864 158.06 80.8716 158.749 81.3792 159.257C81.8868 159.765 82.5753 160.05 83.2932 160.05C84.011 160.05 84.6995 159.765 85.2071 159.257C85.7147 158.749 85.9999 158.06 85.9999 157.341V2.7414C85.9999 2.02288 85.7147 1.33379 85.2071 0.825722C84.6995 0.317654 84.011 0.0322266 83.2932 0.0322266Z" fill="#3DADE2"/>
<path d="M29.037 26.5518C28.678 26.5518 28.3338 26.6945 28.08 26.9485C27.8262 27.2026 27.6836 27.5471 27.6836 27.9063C27.6836 28.2656 27.8262 28.6101 28.08 28.8642C28.3338 29.1182 28.678 29.2609 29.037 29.2609H36.7105C37.0694 29.2609 37.4137 29.1182 37.6675 28.8642C37.9213 28.6101 38.0638 28.2656 38.0638 27.9063C38.0638 27.5471 37.9213 27.2026 37.6675 26.9485C37.4137 26.6945 37.0694 26.5518 36.7105 26.5518H29.037ZM46.6652 26.5518C46.3062 26.5518 45.962 26.6945 45.7082 26.9485C45.4544 27.2026 45.3118 27.5471 45.3118 27.9063C45.3118 28.2656 45.4544 28.6101 45.7082 28.8642C45.962 29.1182 46.3062 29.2609 46.6652 29.2609H63.0642C63.4231 29.2609 63.7674 29.1182 64.0212 28.8642C64.275 28.6101 64.4176 28.2656 64.4176 27.9063C64.4176 27.5471 64.275 27.2026 64.0212 26.9485C63.7674 26.6945 63.4231 26.5518 63.0642 26.5518H46.6652Z" fill="#3DADE2"/>
<path d="M46.2787 16.7422C45.9197 16.7422 45.5755 16.8849 45.3217 17.1389C45.0679 17.3929 44.9253 17.7375 44.9253 18.0968C44.9253 18.456 45.0679 18.8006 45.3217 19.0546C45.5755 19.3086 45.9197 19.4514 46.2787 19.4514H68.9688C69.3277 19.4514 69.672 19.3086 69.9258 19.0546C70.1796 18.8006 70.3222 18.456 70.3222 18.0968C70.3222 17.7375 70.1796 17.3929 69.9258 17.1389C69.672 16.8849 69.3277 16.7422 68.9688 16.7422H46.2787Z" fill="#3DADE2"/>
<path d="M11.2469 57.0645C10.888 57.0645 10.5438 57.2071 10.29 57.4612C10.0362 57.7152 9.89355 58.0598 9.89355 58.419C9.89355 58.7783 10.0362 59.1228 10.29 59.3769C10.5438 59.6309 10.888 59.7736 11.2469 59.7736H18.3838C18.7428 59.7736 19.087 59.6309 19.3408 59.3769C19.5946 59.1228 19.7372 58.7783 19.7372 58.419C19.7372 58.0598 19.5946 57.7152 19.3408 57.4612C19.087 57.2071 18.7428 57.0645 18.3838 57.0645H11.2469ZM27.0777 57.0645C26.7187 57.0645 26.3745 57.2071 26.1207 57.4612C25.8669 57.7152 25.7243 58.0598 25.7243 58.419C25.7243 58.7783 25.8669 59.1228 26.1207 59.3769C26.3745 59.6309 26.7187 59.7736 27.0777 59.7736H46.157C46.516 59.7736 46.8602 59.6309 47.114 59.3769C47.3678 59.1228 47.5104 58.7783 47.5104 58.419C47.5104 58.0598 47.3678 57.7152 47.114 57.4612C46.8602 57.2071 46.516 57.0645 46.157 57.0645H27.0777Z" fill="#3DADE2"/>
<path d="M1.35337 63.1758C0.994435 63.1758 0.650219 63.3185 0.396413 63.5725C0.142607 63.8266 0 64.1711 0 64.5304C0 64.8896 0.142607 65.2341 0.396413 65.4882C0.650219 65.7422 0.994435 65.8849 1.35337 65.8849H22.2249C22.5838 65.8849 22.928 65.7422 23.1819 65.4882C23.4357 65.2341 23.5783 64.8896 23.5783 64.5304C23.5783 64.1711 23.4357 63.8266 23.1819 63.5725C22.928 63.3185 22.5838 63.1758 22.2249 63.1758H1.35337ZM32.5576 63.1758C32.1986 63.1758 31.8544 63.3185 31.6006 63.5725C31.3468 63.8266 31.2042 64.1711 31.2042 64.5304C31.2042 64.8896 31.3468 65.2341 31.6006 65.4882C31.8544 65.7422 32.1986 65.8849 32.5576 65.8849H38.4072C38.7661 65.8849 39.1104 65.7422 39.3642 65.4882C39.618 65.2341 39.7606 64.8896 39.7606 64.5304C39.7606 64.1711 39.618 63.8266 39.3642 63.5725C39.1104 63.3185 38.7661 63.1758 38.4072 63.1758H32.5576Z" fill="#3DADE2"/>
<path d="M7.83238 101.717C7.47344 101.717 7.12922 101.859 6.87542 102.114C6.62161 102.368 6.479 102.712 6.479 103.071C6.479 103.431 6.62161 103.775 6.87542 104.029C7.12922 104.283 7.47344 104.426 7.83238 104.426H28.7568C29.1157 104.426 29.46 104.283 29.7138 104.029C29.9676 103.775 30.1101 103.431 30.1101 103.071C30.1101 102.712 29.9676 102.368 29.7138 102.114C29.46 101.859 29.1157 101.717 28.7568 101.717H7.83238Z" fill="#3DADE2"/>
<path d="M5.89683 110.303C5.53789 110.303 5.19368 110.445 4.93987 110.7C4.68606 110.954 4.54346 111.298 4.54346 111.657C4.54346 112.017 4.68606 112.361 4.93987 112.615C5.19368 112.869 5.53789 113.012 5.89683 113.012H12.0081C12.3671 113.012 12.7113 112.869 12.9651 112.615C13.219 112.361 13.3615 112.017 13.3615 111.657C13.3615 111.298 13.219 110.954 12.9651 110.7C12.7113 110.445 12.3671 110.303 12.0081 110.303H5.89683ZM22.0871 110.303C21.7281 110.303 21.3839 110.445 21.1301 110.7C20.8763 110.954 20.7337 111.298 20.7337 111.657C20.7337 112.017 20.8763 112.361 21.1301 112.615C21.3839 112.869 21.7281 113.012 22.0871 113.012H43.8309C44.1898 113.012 44.5341 112.869 44.7879 112.615C45.0417 112.361 45.1842 112.017 45.1842 111.657C45.1842 111.298 45.0417 110.954 44.7879 110.7C44.5341 110.445 44.1898 110.303 43.8309 110.303H22.0871Z" fill="#3DADE2"/>
<path d="M20.0497 139.334C19.6907 139.334 19.3465 139.477 19.0927 139.731C18.8389 139.985 18.6963 140.329 18.6963 140.689C18.6963 141.048 18.8389 141.392 19.0927 141.646C19.3465 141.9 19.6907 142.043 20.0497 142.043H38.3308C38.6897 142.043 39.0339 141.9 39.2877 141.646C39.5415 141.392 39.6841 141.048 39.6841 140.689C39.6841 140.329 39.5415 139.985 39.2877 139.731C39.0339 139.477 38.6897 139.334 38.3308 139.334H20.0497Z" fill="#3DADE2"/>
<path d="M22.3885 129.244C22.0296 129.244 21.6854 129.387 21.4316 129.641C21.1778 129.895 21.0352 130.239 21.0352 130.599C21.0352 130.958 21.1778 131.303 21.4316 131.557C21.6854 131.811 22.0296 131.953 22.3885 131.953H35.8905C36.2495 131.953 36.5937 131.811 36.8475 131.557C37.1013 131.303 37.2439 130.958 37.2439 130.599C37.2439 130.239 37.1013 129.895 36.8475 129.641C36.5937 129.387 36.2495 129.244 35.8905 129.244H22.3885ZM42.9296 129.244C42.5707 129.244 42.2264 129.387 41.9726 129.641C41.7188 129.895 41.5763 130.239 41.5763 130.599C41.5763 130.958 41.7188 131.303 41.9726 131.557C42.2264 131.811 42.5707 131.953 42.9296 131.953H51.6287C51.9877 131.953 52.3319 131.811 52.5857 131.557C52.8396 131.303 52.9821 130.958 52.9821 130.599C52.9821 130.239 52.8396 129.895 52.5857 129.641C52.3319 129.387 51.9877 129.244 51.6287 129.244H42.9296Z" fill="#3DADE2"/>
<path d="M120.728 9.36768C120.557 9.0581 120.272 8.82812 119.933 8.72731C119.594 8.62651 119.229 8.66295 118.917 8.82878L114.118 11.3731L108.704 10.9222C108.463 10.9016 108.221 10.9465 108.003 11.0521C107.785 11.1576 107.6 11.32 107.466 11.5221C107.333 11.7242 107.256 11.9585 107.245 12.2004C107.233 12.4424 107.287 12.683 107.4 12.8971L109.943 17.7029L109.495 23.1206C109.475 23.3616 109.52 23.6035 109.626 23.821C109.731 24.0385 109.894 24.2236 110.095 24.3569C110.297 24.4901 110.531 24.5666 110.772 24.5783C111.013 24.5901 111.253 24.5366 111.467 24.4236L116.266 21.8792L121.68 22.3302C121.921 22.3508 122.163 22.3059 122.381 22.2003C122.599 22.0947 122.785 21.9324 122.918 21.7303C123.051 21.5282 123.128 21.2939 123.14 21.0519C123.151 20.81 123.098 20.5693 122.984 20.3553L120.441 15.5494L120.889 10.1318C120.912 9.86675 120.856 9.60088 120.728 9.36768ZM118.003 12.3661L117.724 15.7208C117.703 15.9776 117.756 16.235 117.877 16.4625L119.45 19.44L116.099 19.1605C115.842 19.1387 115.584 19.1911 115.356 19.3114L112.381 20.8863L112.661 17.5316C112.682 17.2748 112.628 17.0174 112.508 16.7898L110.935 13.8147L114.287 14.0942C114.544 14.1151 114.801 14.0619 115.028 13.941L118.003 12.3661Z" fill="#3DADE2"/>
<path d="M117.754 37.1006C115.55 37.1006 113.736 38.9187 113.736 41.1247C113.736 43.3306 115.55 45.1461 117.754 45.1461C119.586 45.1461 120.9 43.7734 121.375 42.0824C121.501 41.9571 121.602 41.8079 121.67 41.6435C121.739 41.4791 121.774 41.3028 121.774 41.1247C121.774 40.9465 121.739 40.7702 121.67 40.6058C121.602 40.4414 121.501 40.2922 121.375 40.1669C120.9 38.4759 119.586 37.1006 117.754 37.1006ZM117.754 39.7965C118.502 39.7965 119.081 40.3758 119.081 41.1247C119.081 41.8735 118.502 42.4501 117.754 42.4501C117.005 42.4501 116.429 41.8735 116.429 41.1247C116.429 40.3758 117.005 39.7965 117.754 39.7965Z" fill="#3DADE2"/>
<path d="M142.949 117.402C142.621 117.27 142.255 117.273 141.929 117.409C141.603 117.545 141.343 117.804 141.206 118.13L139.096 123.139L134.617 126.216C134.417 126.353 134.258 126.541 134.156 126.761C134.054 126.98 134.013 127.223 134.037 127.464C134.061 127.705 134.15 127.935 134.294 128.13C134.438 128.325 134.631 128.478 134.854 128.572L139.861 130.685L142.937 135.165C143.073 135.365 143.261 135.524 143.48 135.625C143.7 135.727 143.942 135.768 144.183 135.743C144.423 135.719 144.652 135.63 144.847 135.486C145.041 135.343 145.193 135.15 145.287 134.927L147.398 129.918L151.877 126.841C152.076 126.704 152.236 126.516 152.338 126.296C152.44 126.077 152.481 125.834 152.457 125.593C152.432 125.352 152.344 125.122 152.2 124.927C152.056 124.732 151.862 124.579 151.639 124.485L146.633 122.372L143.557 117.892C143.407 117.672 143.196 117.501 142.949 117.402ZM142.733 121.449L144.636 124.225C144.782 124.437 144.986 124.603 145.223 124.703L148.323 126.013L145.55 127.918C145.337 128.064 145.171 128.267 145.07 128.505L143.761 131.608L141.858 128.832C141.712 128.62 141.508 128.454 141.271 128.354L138.173 127.045L140.946 125.14C141.158 124.994 141.323 124.79 141.423 124.552L142.733 121.449Z" fill="#3DADE2"/>
<path d="M154.982 85.7178C152.778 85.7178 150.962 87.5333 150.962 89.7392C150.962 91.9451 152.778 93.7633 154.982 93.7633C156.816 93.7632 158.129 92.3869 158.604 90.6943C158.729 90.569 158.829 90.4202 158.897 90.2563C158.965 90.0924 159 89.9167 159 89.7392C159 89.5617 158.965 89.386 158.897 89.2221C158.829 89.0582 158.729 88.9093 158.604 88.7841C158.129 87.0915 156.816 85.7178 154.982 85.7178ZM154.982 88.4137C155.731 88.4137 156.307 88.9904 156.307 89.7392C156.307 90.488 155.731 91.0673 154.982 91.0673C154.234 91.0673 153.655 90.488 153.655 89.7392C153.655 88.9904 154.234 88.4137 154.982 88.4137Z" fill="#3DADE2"/>
</svg>
