<svg width="164" height="160" viewBox="0 0 164 160" fill="none" xmlns="http://www.w3.org/2000/svg">
<path d="M76.5477 20.9932C42.6429 21.0717 15.1464 48.133 15.1465 81.4786C15.1467 94.9197 19.7056 107.977 28.0947 118.587L28.501 119.099H55.062C55.126 119.099 55.1899 119.094 55.2533 119.085C61.4801 124.196 69.0317 127.75 77.3365 129.152V132.736H64.0427C58.8586 132.736 55.8741 135.557 54.5001 138.268C53.1261 140.98 53.1076 143.653 53.1076 143.653L55.8089 143.69C55.8089 143.69 55.8545 141.571 56.909 139.49C57.9634 137.409 59.7714 135.438 64.0427 135.438H78.3305C78.7521 135.673 79.4771 136.04 80.5313 136.39C82.2034 136.945 84.6963 137.479 88.0686 137.479C91.4408 137.479 93.9365 136.945 95.6086 136.39C96.6628 136.04 97.3865 135.673 97.8073 135.438H112.094C116.366 135.438 118.174 137.409 119.228 139.49C120.283 141.571 120.328 143.69 120.328 143.69L123.03 143.653C123.03 143.653 123.011 140.98 121.637 138.268C120.263 135.557 117.278 132.736 112.094 132.736H98.8006V129.152C107.098 127.752 114.645 124.202 120.869 119.099H127.631L133.831 115.393L140.03 119.099H147.631L148.037 118.587C156.426 107.977 160.983 94.9197 160.983 81.4787C160.983 48.0774 133.398 20.993 99.4365 20.9932C95.6202 20.9934 91.816 21.3659 88.0658 22.0591C84.3161 21.366 80.5107 20.9935 76.695 20.9932C76.6466 20.9931 76.599 20.9931 76.5505 20.9932L76.5477 20.9932ZM76.5527 23.6945C76.5991 23.6945 76.6467 23.6945 76.6931 23.6945C80.4254 23.6946 84.1503 24.0439 87.8153 24.7367L88.0659 24.7841L88.3164 24.7367C91.9812 24.0439 95.7045 23.6947 99.4366 23.6945C131.964 23.6943 158.281 49.5635 158.281 81.4786C158.281 94.1034 154.027 106.349 146.256 116.398H140.777L133.831 112.245L126.884 116.398H123.894C129.189 111.241 133.286 104.857 135.722 97.6901C136.954 97.2285 138.652 96.5723 140.449 95.5584C142.467 94.42 144.482 93.0343 145.375 90.9605C145.864 89.8273 146.146 88.5231 146.266 87.1605C149.447 86.0351 151.475 83.8449 151.475 83.8449C151.596 83.7154 151.69 83.5632 151.753 83.3971C151.815 83.231 151.844 83.0542 151.839 82.8769C151.833 82.6995 151.792 82.525 151.719 82.3635C151.645 82.2019 151.541 82.0563 151.411 81.9351C151.282 81.8139 151.129 81.7193 150.963 81.6568C150.797 81.5944 150.62 81.5653 150.443 81.5712C150.266 81.5771 150.091 81.6179 149.93 81.6912C149.768 81.7646 149.622 81.869 149.501 81.9987C149.501 81.9987 147.825 83.7604 145.322 84.6316C142.82 85.5028 139.7 85.6387 136.028 81.9665C134.191 80.129 132.855 75.4126 129.855 70.57C126.855 65.7274 121.893 60.8162 112.459 58.6136C98.4239 55.3371 89.2608 38.5658 89.2608 38.5658L88.0687 36.3314L86.8764 38.5658C86.8764 38.5658 77.7134 55.3371 63.6785 58.6136C54.2441 60.8162 49.2826 65.7274 46.2825 70.57C43.2823 75.4126 41.9467 80.129 40.1092 81.9665C36.437 85.6387 33.3178 85.5028 30.815 84.6316C28.3122 83.7604 26.636 81.9987 26.636 81.9987C26.5148 81.8689 26.3692 81.7644 26.2075 81.691C26.0459 81.6176 25.8713 81.5768 25.6939 81.5709C25.5165 81.565 25.3396 81.5941 25.1734 81.6566C25.0073 81.7191 24.855 81.8138 24.7255 81.9351C24.5959 82.0564 24.4915 82.202 24.4182 82.3636C24.3449 82.5252 24.3043 82.6997 24.2984 82.877C24.2926 83.0544 24.3217 83.2311 24.3842 83.3972C24.4468 83.5633 24.5414 83.7154 24.6627 83.8449C24.6627 83.8449 26.6899 86.0351 29.8706 87.1605C29.9905 88.5231 30.2739 89.8275 30.762 90.9605C31.6554 93.0344 33.6696 94.42 35.6872 95.5584C37.4851 96.5729 39.1856 97.2286 40.4177 97.6901C42.8545 104.857 46.9502 111.241 52.2449 116.398H29.8727C22.1017 106.349 17.8482 94.1034 17.8479 81.4786C17.8478 49.6169 44.08 23.7697 76.5527 23.6945ZM88.0687 41.8318C90.6826 46.1686 98.8926 58.2202 111.844 61.2438C120.636 63.2963 124.815 67.5616 127.56 71.9919C130.304 76.4221 131.317 81.0758 134.118 83.877C137.298 87.057 140.641 87.9512 143.468 87.7461C143.341 88.5621 143.146 89.3101 142.895 89.8919C142.475 90.8666 140.924 92.1889 139.122 93.2054C137.321 94.2218 135.339 95.0058 134.221 95.4111L133.601 95.6352L133.398 96.2634C127.569 114.211 110.77 127.119 90.807 127.119H85.3303C65.3673 127.119 48.5709 114.211 42.7421 96.2634L42.5362 95.6352L41.9163 95.4111C40.7982 95.0058 38.8183 94.2218 37.0169 93.2054C35.2155 92.1889 33.6619 90.8666 33.242 89.8919C32.9916 89.3104 32.7996 88.5615 32.6725 87.7461C35.4988 87.9502 38.8402 87.0557 42.0189 83.877C44.8202 81.0758 45.8329 76.4221 48.5775 71.9919C51.3222 67.5616 55.5017 63.2963 64.2934 61.2438C77.2447 58.2202 85.4548 46.1686 88.0687 41.8318ZM87.0314 55.483C86.2397 55.595 85.4957 55.7319 84.8173 55.8767C82.447 56.3824 79.127 59.9699 79.127 59.9699C79.127 59.9699 83.2027 58.9839 85.3799 58.5194C85.8996 58.4086 86.4625 58.3053 87.0531 58.215L87.0314 55.483ZM84.5785 63.1633C82.2071 63.1226 79.9833 63.4492 78.2056 63.8285C75.8354 64.3343 72.5154 67.9217 72.5154 67.9217C72.5154 67.9217 76.591 66.9357 78.7682 66.4712C80.9455 66.007 83.8423 65.6492 86.6356 66.0168C86.7988 66.0382 86.9586 66.0638 87.1151 66.0929L87.0934 63.3546C87.058 63.3492 87.0237 63.3424 86.9879 63.3378C86.1757 63.2309 85.3689 63.1768 84.5784 63.1632L84.5785 63.1633ZM71.1961 71.765C67.1738 71.7464 62.6866 74.1222 62.6866 74.1222C62.6866 74.1222 68.1966 73.7071 72.3178 74.5773C76.439 75.4475 83.1623 78.0479 83.1623 78.0479C83.1623 78.0479 77.2066 72.8482 72.877 71.9339C72.3358 71.8196 71.7707 71.7676 71.1961 71.765ZM104.942 71.765C104.367 71.7686 103.802 71.8196 103.261 71.9339C98.9314 72.8482 92.9751 78.0479 92.9751 78.0479C92.9751 78.0479 99.699 75.4475 103.82 74.5773C107.941 73.7071 113.451 74.1222 113.451 74.1222C113.451 74.1222 108.964 71.7465 104.942 71.765ZM60.1437 73.5477C60.1437 73.5477 57.6304 74.683 57.3698 75.7297C57.1544 76.5948 57.1567 77.3848 57.2448 78.0402C57.067 77.7686 56.8984 77.5137 56.6166 77.0609C56.209 76.4054 55.3434 74.525 55.3434 74.525C55.3434 74.525 53.7238 76.7569 54.0165 77.7952C54.1599 78.304 54.3583 78.7492 54.5784 79.1396C53.9104 79.3846 53.2959 79.6553 52.7412 79.9402C49.9776 81.3596 47.1291 85.1209 47.1291 85.1209C47.1291 85.1209 51.6707 83.5285 53.9767 82.3442C54.7114 81.9669 55.5662 81.6106 56.5461 81.3293C56.0246 82.626 55.795 84.0354 55.8955 85.4573C56.258 90.5804 60.7353 94.4665 65.8584 94.1044C70.1188 93.803 73.521 90.6551 74.3386 86.6572C75.8251 88.1602 77.724 89.3495 77.724 89.3495C77.724 89.3495 77.6565 86.4899 75.7849 84.2407C75.3675 83.7391 74.8742 83.2266 74.3065 82.7211L74.303 82.7022L73.9239 82.3867C73.8805 82.3504 73.8307 82.3153 73.7864 82.2792C73.6411 82.1611 73.4907 82.0445 73.3362 81.9281C73.2444 81.8587 73.155 81.7887 73.0598 81.72C72.8484 81.5678 72.6282 81.4177 72.4002 81.2698C71.408 80.6261 70.2561 80.0295 68.9219 79.5241C68.8776 79.5073 68.8333 79.4905 68.7886 79.4738C68.5557 79.3875 68.3183 79.3038 68.0745 79.2232C68.0413 79.2122 68.0094 79.2007 67.9761 79.1897C67.7189 79.1061 67.4548 79.0262 67.1853 78.9495C67.0953 78.9238 67.0029 78.8996 66.9116 78.8748C66.727 78.8248 66.54 78.7763 66.3497 78.7297C66.2366 78.7018 66.1235 78.6745 66.0084 78.648C65.7649 78.5921 65.517 78.5389 65.2643 78.4888C65.2268 78.4813 65.1917 78.4724 65.154 78.4652C65.1211 78.4588 65.0898 78.4549 65.057 78.4484C64.7854 78.397 64.5173 78.3513 64.2521 78.3102C64.1567 78.2956 64.0626 78.2824 63.9681 78.2691C63.7404 78.2366 63.5153 78.2076 63.2924 78.1825C63.2271 78.1754 63.1612 78.1675 63.0963 78.1607C62.0353 78.0508 61.0299 78.0223 60.0815 78.0609C60.0561 77.7256 60.024 77.2179 59.9922 76.3815C59.9632 75.6102 60.1436 73.5475 60.1436 73.5475L60.1437 73.5477ZM115.994 73.5477C115.994 73.5477 116.175 75.6104 116.146 76.3817C116.114 77.218 116.082 77.7259 116.056 78.0611C115.108 78.0226 114.102 78.0511 113.041 78.1609C112.977 78.1674 112.912 78.1756 112.848 78.1827C112.623 78.2081 112.396 78.2366 112.166 78.2693C112.073 78.2825 111.98 78.2961 111.886 78.3105C111.626 78.3506 111.364 78.3951 111.099 78.4452C111.06 78.4527 111.022 78.4577 110.983 78.4656C110.936 78.4749 110.891 78.4863 110.844 78.4956C110.604 78.5435 110.368 78.5938 110.136 78.647C110.015 78.6749 109.897 78.7031 109.778 78.7322C109.594 78.7775 109.412 78.8247 109.233 78.8732C109.139 78.8986 109.044 78.9237 108.952 78.95C108.683 79.0267 108.419 79.1065 108.162 79.1901C108.13 79.2005 108.099 79.2119 108.068 79.2223C107.819 79.3044 107.576 79.3895 107.339 79.4777C107.302 79.4917 107.264 79.5056 107.227 79.5196C105.888 80.026 104.733 80.6246 103.738 81.2703C103.51 81.4181 103.29 81.5683 103.078 81.7205C102.983 81.7891 102.894 81.8591 102.802 81.9285C102.645 82.0464 102.493 82.1648 102.346 82.2845C102.304 82.3191 102.256 82.3524 102.214 82.3871L101.835 82.7026L101.831 82.7208C101.263 83.2264 100.771 83.7393 100.353 84.2411C98.4815 86.4904 98.4139 89.3499 98.4139 89.3499C98.4139 89.3499 100.312 88.1605 101.799 86.6577C102.616 90.6556 106.019 93.8034 110.28 94.1048C115.403 94.467 119.88 90.5808 120.242 85.4578C120.343 84.0359 120.113 82.6264 119.592 81.3297C120.572 81.611 121.426 81.9673 122.16 82.3446C124.467 83.5289 129.009 85.1213 129.009 85.1213C129.009 85.1213 126.16 81.36 123.397 79.9406C122.842 79.6556 122.227 79.3851 121.559 79.14C121.779 78.7496 121.977 78.3045 122.121 77.7956C122.413 76.7573 120.794 74.5254 120.794 74.5254C120.794 74.5254 119.928 76.4058 119.521 77.0613C119.239 77.5135 119.071 77.7678 118.893 78.0392C118.981 77.3841 118.983 76.5947 118.767 75.7302C118.507 74.6834 115.994 73.5482 115.994 73.5482L115.994 73.5477ZM61.0414 80.7562C61.7549 80.7598 62.5081 80.8052 63.303 80.9049C63.3511 80.9109 63.399 80.917 63.4474 80.9238C63.6003 80.9442 63.7549 80.9671 63.9109 80.9915C64.1036 81.0223 64.2986 81.0552 64.4959 81.092C64.5447 81.1009 64.5919 81.1085 64.641 81.1178C64.7989 81.1485 64.943 81.1853 65.0962 81.2183C65.0466 81.2196 64.997 81.222 64.9475 81.2254C64.4781 81.2586 64.0199 81.384 63.5989 81.5943C63.178 81.8046 62.8026 82.0958 62.4942 82.4511C62.1858 82.8065 61.9504 83.2192 61.8015 83.6656C61.6526 84.1119 61.5931 84.5832 61.6263 85.0526C61.6595 85.522 61.7849 85.9803 61.9952 86.4012C62.2055 86.8221 62.4966 87.1975 62.852 87.5059C63.2074 87.8143 63.6201 88.0497 64.0665 88.1986C64.5128 88.3475 64.9842 88.407 65.4536 88.3738C66.4014 88.3067 67.2837 87.8659 67.9065 87.1483C68.5294 86.4307 68.8416 85.4951 68.7747 84.5473C68.7342 83.9752 68.557 83.4212 68.258 82.9318C67.9589 82.4424 67.5468 82.0319 67.0562 81.7349C69.0868 82.387 70.6141 83.2559 71.7901 84.1662C71.7955 84.2216 71.8069 84.2766 71.8112 84.3323C72.07 87.9987 69.3345 91.1501 65.668 91.4095C62.0012 91.6687 58.8495 88.933 58.5901 85.2662C58.4754 83.645 58.9874 82.0629 59.9693 80.7828C60.3171 80.7639 60.674 80.7542 61.0415 80.7557L61.0414 80.7562ZM115.096 80.7562C115.464 80.7562 115.821 80.7644 116.169 80.7834C117.151 82.0634 117.663 83.6455 117.548 85.2667C117.289 88.9335 114.137 91.6692 110.47 91.41C106.804 91.1506 104.068 87.9992 104.327 84.3328C104.331 84.2771 104.342 84.2221 104.348 84.1667C105.524 83.2564 107.051 82.3875 109.082 81.7355C108.591 82.0325 108.179 82.4429 107.88 82.9323C107.581 83.4217 107.404 83.9757 107.363 84.5478C107.296 85.4956 107.608 86.4313 108.231 87.1489C108.854 87.8665 109.736 88.3073 110.684 88.3744C111.154 88.4076 111.625 88.3481 112.071 88.1992C112.518 88.0502 112.93 87.8149 113.286 87.5065C113.641 87.1981 113.932 86.8227 114.143 86.4017C114.353 85.9808 114.478 85.5225 114.512 85.0531C114.545 84.5837 114.485 84.1124 114.336 83.666C114.187 83.2196 113.952 82.8069 113.643 82.4515C113.335 82.0961 112.959 81.8049 112.538 81.5946C112.117 81.3844 111.659 81.2591 111.19 81.2259C111.14 81.2225 111.091 81.2202 111.042 81.2188C111.195 81.1859 111.338 81.1488 111.496 81.1183C111.539 81.1097 111.581 81.1033 111.625 81.0954C111.827 81.0575 112.026 81.0235 112.223 80.9922C112.383 80.9671 112.54 80.9444 112.696 80.9237C112.741 80.9176 112.785 80.9119 112.829 80.9062C113.626 80.806 114.381 80.7598 115.096 80.7568L115.096 80.7562ZM78.8988 84.3231C78.8988 84.3231 80.6018 89.5794 80.7283 93.7896C80.7443 94.329 80.7422 94.918 80.7283 95.5325H76.5988V92.952C76.5988 92.7745 76.5638 92.5989 76.4959 92.435C76.428 92.271 76.3284 92.1221 76.2029 91.9967C76.0774 91.8713 75.9285 91.7718 75.7645 91.704C75.6006 91.6361 75.4248 91.6012 75.2474 91.6013C74.8892 91.6013 74.5456 91.7437 74.2924 91.9969C74.0391 92.2502 73.8968 92.5938 73.8968 92.952V99.6425H52.2979V90.2981C52.2979 89.9399 52.1556 89.5964 51.9023 89.3431C51.649 89.0898 51.3055 88.9475 50.9473 88.9474C50.5891 88.9475 50.2456 89.0898 49.9923 89.3431C49.739 89.5964 49.5966 89.9399 49.5966 90.2981V102.344H76.5988V98.2339H80.5949C80.3589 101.732 79.9144 105.147 79.9144 105.147C79.9144 105.147 81.6666 101.776 82.6981 98.2339H99.5399V102.344H126.545V90.2981C126.545 90.1207 126.51 89.945 126.442 89.7811C126.374 89.6172 126.274 89.4682 126.149 89.3428C126.023 89.2174 125.874 89.1179 125.711 89.0501C125.547 88.9822 125.371 88.9473 125.193 88.9474C124.835 88.9475 124.492 89.0898 124.238 89.3431C123.985 89.5964 123.843 89.9399 123.843 90.2981V99.6425H102.242V92.952C102.242 92.7745 102.207 92.5989 102.139 92.435C102.071 92.271 101.972 92.1221 101.846 91.9967C101.721 91.8713 101.572 91.7718 101.408 91.704C101.244 91.6361 101.068 91.6012 100.891 91.6013C100.532 91.6013 100.189 91.7437 99.9355 91.9969C99.6822 92.2502 99.5399 92.5938 99.5399 92.952V95.5325H83.3067C83.3997 94.8958 83.4474 94.2811 83.4303 93.71C83.2974 89.2869 78.8995 84.3231 78.8995 84.3231H78.8988ZM54.1854 105.445C54.1854 105.445 59.0834 108.003 62.1226 110.919C65.1619 113.835 69.4965 119.596 69.4965 119.596C69.4965 119.596 67.1869 112.034 63.994 108.97C60.801 105.906 54.1854 105.445 54.1854 105.445ZM102.366 113.502C102.366 113.502 101.126 114.256 99.0073 114.85C96.8888 115.445 93.4306 116.064 88.2041 116.064C82.9776 116.064 79.5166 115.445 77.398 114.85C75.2795 114.256 73.7725 113.592 73.7725 113.592C73.7725 113.592 74.2817 116.783 76.6672 117.452C79.0527 118.121 82.7642 118.765 88.2041 118.765C93.644 118.765 97.3526 118.121 99.7381 117.452C102.124 116.783 102.366 113.502 102.366 113.502ZM80.038 129.528C81.7751 129.72 83.5404 129.821 85.3303 129.821H90.807C92.5969 129.821 94.3622 129.72 96.0994 129.528V133.235C95.8586 133.376 95.7375 133.499 94.7564 133.825C93.3527 134.291 91.1562 134.778 88.0687 134.778C84.9811 134.778 82.7846 134.291 81.381 133.825C80.3999 133.499 80.2787 133.376 80.038 133.235V129.528Z" fill="#30414D"/>
<path d="M76.5477 20.9932C42.6429 21.0717 15.1464 48.133 15.1465 81.4786C15.1467 94.9197 19.7056 107.977 28.0947 118.587L28.501 119.099H55.062C55.126 119.099 55.1899 119.094 55.2533 119.085C61.4801 124.196 69.0317 127.75 77.3365 129.152V132.736H64.0427C58.8586 132.736 55.8741 135.557 54.5001 138.268C53.1261 140.98 53.1076 143.653 53.1076 143.653L55.8089 143.69C55.8089 143.69 55.8545 141.571 56.909 139.49C57.9634 137.409 59.7714 135.438 64.0427 135.438H78.3305C78.7521 135.673 79.4771 136.04 80.5313 136.39C82.2029 136.945 84.6949 137.479 88.0658 137.479V134.778C84.9797 134.778 82.7841 134.291 81.3808 133.825C80.3997 133.499 80.2786 133.376 80.0378 133.235V129.528C81.775 129.72 83.5403 129.821 85.3302 129.821H88.0658V127.119H85.3302C65.3672 127.119 48.5708 114.211 42.742 96.2634L42.5361 95.6352L41.9162 95.4111C40.7981 95.0059 38.8183 94.2219 37.0168 93.2054C35.2154 92.189 33.6619 90.8666 33.2419 89.8919C32.9915 89.3105 32.7994 88.5615 32.6723 87.7461C35.4987 87.9502 38.8401 87.0558 42.0188 83.8771C44.8201 81.0758 45.8328 76.4222 48.5774 71.9919C51.322 67.5617 55.5016 63.2963 64.2933 61.2438C77.2407 58.2211 85.4493 46.1762 88.0658 41.8361V36.3364L86.8763 38.5658C86.8763 38.5658 77.7133 55.3371 63.6784 58.6137C54.244 60.8162 49.2824 65.7274 46.2823 70.57C43.2822 75.4126 41.9465 80.1291 40.109 81.9666C36.4368 85.6388 33.3177 85.5028 30.8149 84.6316C28.3121 83.7604 26.6359 81.9987 26.6359 81.9987C26.5147 81.869 26.3691 81.7644 26.2074 81.691C26.0458 81.6176 25.8712 81.5768 25.6938 81.5709C25.5163 81.565 25.3395 81.5941 25.1733 81.6566C25.0071 81.7191 24.855 81.8138 24.7254 81.9352C24.5958 82.0564 24.4914 82.202 24.4181 82.3636C24.3449 82.5252 24.3041 82.6997 24.2983 82.8771C24.2925 83.0544 24.3217 83.2311 24.3842 83.3972C24.4467 83.5633 24.5413 83.7155 24.6626 83.845C24.6626 83.845 26.6898 86.0351 29.8705 87.1606C29.9904 88.5232 30.2738 89.8275 30.7619 90.9606C31.6552 93.0344 33.6695 94.42 35.6871 95.5584C37.485 96.5729 39.1855 97.2286 40.4176 97.6902C42.8544 104.857 46.9501 111.241 52.2448 116.398H29.8726C22.1016 106.349 17.848 94.1035 17.8478 81.4787C17.8477 49.617 44.0799 23.7697 76.5526 23.6946C76.599 23.6945 76.6465 23.6945 76.6929 23.6946C80.4253 23.6947 84.1502 24.0439 87.8152 24.7367L88.0658 24.7842V22.0591C84.3161 21.366 80.5107 20.9935 76.695 20.9932C76.6466 20.9931 76.599 20.9931 76.5505 20.9932L76.5477 20.9932ZM87.0313 55.483C86.2396 55.595 85.4956 55.7319 84.8172 55.8767C82.4469 56.3824 79.1269 59.9699 79.1269 59.9699C79.1269 59.9699 83.2026 58.9839 85.3798 58.5194C85.8996 58.4086 86.4623 58.3053 87.0529 58.215L87.0313 55.483ZM84.5785 63.1633C82.207 63.1226 79.9832 63.4492 78.2055 63.8285C75.8353 64.3343 72.5153 67.9217 72.5153 67.9217C72.5153 67.9217 76.5909 66.9357 78.7681 66.4712C80.9454 66.007 83.8422 65.6492 86.6355 66.0168C86.7987 66.0382 86.9585 66.0638 87.1151 66.0929L87.0932 63.3546C87.0579 63.3492 87.0237 63.3424 86.9878 63.3378C86.1756 63.2309 85.3688 63.1768 84.5783 63.1632L84.5785 63.1633ZM71.196 71.765C67.1738 71.7464 62.6865 74.1222 62.6865 74.1222C62.6865 74.1222 68.1965 73.7071 72.3177 74.5773C76.4389 75.4475 83.1622 78.0479 83.1622 78.0479C83.1622 78.0479 77.2064 72.8482 72.8769 71.9339C72.3356 71.8196 71.7706 71.7676 71.196 71.765ZM60.1436 73.5477C60.1436 73.5477 57.6303 74.683 57.3697 75.7297C57.1543 76.5948 57.1567 77.3848 57.2447 78.0402C57.067 77.7686 56.8983 77.5137 56.6165 77.0609C56.2089 76.4054 55.3433 74.525 55.3433 74.525C55.3433 74.525 53.7238 76.7569 54.0164 77.7952C54.1598 78.304 54.3582 78.7492 54.5783 79.1396C53.9103 79.3846 53.2958 79.6554 52.7411 79.9402C49.9774 81.3596 47.129 85.1209 47.129 85.1209C47.129 85.1209 51.6706 83.5285 53.9766 82.3442C54.7112 81.9669 55.5661 81.6106 56.546 81.3293C56.0245 82.626 55.7949 84.0354 55.8954 85.4573C56.2579 90.5804 60.7352 94.4665 65.8583 94.1044C70.1187 93.803 73.5209 90.6551 74.3385 86.6572C75.825 88.1602 77.7239 89.3495 77.7239 89.3495C77.7239 89.3495 77.6563 86.4899 75.7848 84.2407C75.3674 83.7391 74.8741 83.2266 74.3064 82.7211L74.3028 82.7022L73.9238 82.3867C73.8804 82.3504 73.8306 82.3153 73.7863 82.2792C73.641 82.1611 73.4906 82.0445 73.3361 81.9281C73.2443 81.8587 73.1549 81.7887 73.0597 81.72C72.8483 81.5678 72.6282 81.4177 72.4001 81.2698C71.4079 80.6261 70.2561 80.0295 68.9218 79.5241C68.8775 79.5073 68.8331 79.4905 68.7885 79.4738C68.5556 79.3875 68.3183 79.3038 68.0744 79.2232C68.0412 79.2122 68.0093 79.2007 67.976 79.1897C67.7188 79.1061 67.4547 79.0262 67.1852 78.9495C67.0952 78.9238 67.0028 78.8996 66.9115 78.8748C66.727 78.8248 66.5399 78.7763 66.3496 78.7297C66.2365 78.7018 66.1234 78.6745 66.0083 78.648C65.7648 78.5921 65.5169 78.5389 65.2642 78.4888C65.2267 78.4813 65.1916 78.4724 65.1539 78.4652C65.1211 78.4588 65.0896 78.4549 65.0569 78.4484C64.7853 78.397 64.5173 78.3513 64.252 78.3102C64.1567 78.2956 64.0625 78.2824 63.968 78.2691C63.7403 78.2366 63.5151 78.2076 63.2923 78.1825C63.2269 78.1754 63.1611 78.1675 63.0962 78.1607C62.0352 78.0508 61.0298 78.0223 60.0814 78.0609C60.056 77.7256 60.0238 77.2179 59.992 76.3815C59.9631 75.6102 60.1435 73.5475 60.1435 73.5475L60.1436 73.5477ZM61.0412 80.7562C61.7548 80.7598 62.508 80.8052 63.3028 80.9049C63.351 80.9109 63.3989 80.917 63.4473 80.9238C63.6002 80.9442 63.7547 80.9671 63.9108 80.9915C64.1035 81.0223 64.2984 81.0552 64.4957 81.092C64.5445 81.1009 64.5919 81.1085 64.6409 81.1178C64.7989 81.1485 64.9429 81.1853 65.096 81.2183C65.0464 81.2196 64.9969 81.222 64.9474 81.2254C64.478 81.2586 64.0198 81.384 63.5988 81.5943C63.1779 81.8046 62.8025 82.0958 62.4941 82.4511C62.1857 82.8065 61.9503 83.2192 61.8014 83.6656C61.6525 84.1119 61.5929 84.5832 61.6262 85.0526C61.6594 85.522 61.7847 85.9803 61.995 86.4012C62.2054 86.8221 62.4966 87.1975 62.852 87.5059C63.2073 87.8143 63.62 88.0497 64.0664 88.1986C64.5127 88.3475 64.984 88.407 65.4534 88.3738C66.4012 88.3067 67.2836 87.8659 67.9064 87.1483C68.5293 86.4307 68.8415 85.4951 68.7746 84.5473C68.7341 83.9752 68.5569 83.4212 68.2579 82.9318C67.9588 82.4424 67.5467 82.0319 67.0561 81.7349C69.0867 82.387 70.614 83.2559 71.79 84.1662C71.7954 84.2216 71.8068 84.2766 71.8111 84.3323C72.0699 87.9987 69.3343 91.1501 65.6678 91.4095C62.0011 91.6687 58.8493 88.933 58.5899 85.2662C58.4752 83.645 58.9873 82.0629 59.9693 80.7828C60.317 80.7639 60.6739 80.7542 61.0414 80.7557L61.0412 80.7562ZM78.8987 84.3231C78.8987 84.3231 80.6017 89.5794 80.7282 93.7896C80.7443 94.329 80.7421 94.918 80.7282 95.5325H76.5987V92.952C76.5987 92.7745 76.5637 92.5989 76.4958 92.435C76.4279 92.271 76.3283 92.1221 76.2028 91.9967C76.0773 91.8713 75.9283 91.7718 75.7644 91.704C75.6004 91.6361 75.4247 91.6012 75.2473 91.6013C74.8891 91.6013 74.5456 91.7437 74.2923 91.9969C74.039 92.2502 73.8966 92.5938 73.8966 92.952V99.6425H52.2979V90.2981C52.2978 89.9399 52.1555 89.5964 51.9022 89.3431C51.6489 89.0898 51.3054 88.9475 50.9472 88.9474C50.589 88.9475 50.2454 89.0898 49.9921 89.3431C49.7388 89.5964 49.5965 89.9399 49.5965 90.2981V102.344H76.5987V98.2339H80.5949C80.3588 101.732 79.9142 105.147 79.9142 105.147C79.9142 105.147 81.6665 101.776 82.698 98.2339H88.0665V95.5325H83.3067C83.3996 94.8958 83.4474 94.2811 83.4302 93.71C83.2973 89.2869 78.8994 84.3231 78.8994 84.3231H78.8987ZM54.1853 105.445C54.1853 105.445 59.0832 108.003 62.1225 110.919C65.1617 113.835 69.4963 119.596 69.4963 119.596C69.4963 119.596 67.1868 112.034 63.9939 108.97C60.8009 105.906 54.1853 105.445 54.1853 105.445ZM73.7724 113.592C73.7724 113.592 74.2816 116.783 76.6671 117.452C79.0316 118.115 82.704 118.752 88.0658 118.763V116.062C82.9195 116.051 79.497 115.439 77.3979 114.85C75.2795 114.256 73.7724 113.592 73.7724 113.592Z" fill="#608199"/>
<path d="M88.0648 0C87.3483 0 86.6612 0.284619 86.1545 0.791249C85.6479 1.29788 85.3633 1.98502 85.3633 2.7015V156.864C85.3633 157.58 85.6479 158.267 86.1545 158.774C86.6612 159.281 87.3483 159.565 88.0648 159.565C88.7813 159.565 89.4684 159.281 89.975 158.774C90.4817 158.267 90.7663 157.58 90.7663 156.864V2.7015C90.7663 1.98502 90.4817 1.29788 89.975 0.791249C89.4684 0.284619 88.7813 0 88.0648 0Z" fill="#3DADE2"/>
<path d="M29.6291 126.599C29.2708 126.599 28.9273 126.741 28.674 126.994C28.4207 127.248 28.2783 127.591 28.2783 127.949C28.2783 128.308 28.4207 128.651 28.674 128.905C28.9273 129.158 29.2708 129.3 29.6291 129.3H37.2877C37.646 129.3 37.9895 129.158 38.2428 128.905C38.4961 128.651 38.6385 128.308 38.6385 127.949C38.6385 127.591 38.4961 127.248 38.2428 126.994C37.9895 126.741 37.646 126.599 37.2877 126.599H29.6291ZM47.2205 126.599C46.8622 126.599 46.5187 126.741 46.2654 126.994C46.0121 127.248 45.8697 127.591 45.8697 127.949C45.8697 128.308 46.0121 128.651 46.2654 128.905C46.5187 129.158 46.8622 129.3 47.2205 129.3H63.5904C63.9486 129.3 64.2922 129.158 64.5455 128.905C64.7989 128.651 64.9411 128.308 64.9411 127.949C64.9411 127.591 64.7989 127.248 64.5455 126.994C64.2922 126.741 63.9486 126.599 63.5904 126.599H47.2205Z" fill="#3DADE2"/>
<path d="M40.7599 134.593C40.4017 134.593 40.0581 134.735 39.8048 134.988C39.5515 135.242 39.4092 135.585 39.4092 135.944C39.4092 136.302 39.5515 136.645 39.8048 136.899C40.0581 137.152 40.4017 137.294 40.7599 137.294H63.4061C63.7643 137.294 64.1079 137.152 64.3612 136.899C64.6146 136.645 64.7568 136.302 64.7568 135.944C64.7568 135.585 64.6146 135.242 64.3612 134.988C64.1079 134.735 63.7643 134.593 63.4061 134.593H40.7599Z" fill="#3DADE2"/>
<path d="M11.8722 96.1719C11.514 96.1719 11.1704 96.3142 10.9171 96.5675C10.6638 96.8208 10.5215 97.1644 10.5215 97.5226C10.5215 97.8809 10.6638 98.2245 10.9171 98.4778C11.1704 98.7311 11.514 98.8734 11.8722 98.8734H18.9953C19.3536 98.8734 19.6971 98.7311 19.9504 98.4778C20.2037 98.2245 20.3461 97.8809 20.3461 97.5226C20.3461 97.1644 20.2037 96.8208 19.9504 96.5675C19.6971 96.3142 19.3536 96.1719 18.9953 96.1719H11.8722ZM27.6723 96.1719C27.3141 96.1719 26.9705 96.3142 26.7172 96.5675C26.4639 96.8208 26.3216 97.1644 26.3216 97.5226C26.3216 97.8809 26.4639 98.2245 26.7172 98.4778C26.9705 98.7311 27.3141 98.8734 27.6723 98.8734H46.7147C47.073 98.8734 47.4165 98.7311 47.6699 98.4778C47.9232 98.2245 48.0655 97.8809 48.0655 97.5226C48.0655 97.1644 47.9232 96.8208 47.6699 96.5675C47.4165 96.3142 47.073 96.1719 46.7147 96.1719H27.6723Z" fill="#3DADE2"/>
<path d="M2.00016 90.0781C1.64192 90.0781 1.29837 90.2205 1.04506 90.4738C0.791744 90.7271 0.649414 91.0706 0.649414 91.4289C0.649414 91.7871 0.791744 92.1307 1.04506 92.384C1.29837 92.6373 1.64192 92.7796 2.00016 92.7796H22.8313C23.1895 92.7796 23.5331 92.6373 23.7864 92.384C24.0397 92.1307 24.182 91.7871 24.182 91.4289C24.182 91.0706 24.0397 90.7271 23.7864 90.4738C23.5331 90.2205 23.1895 90.0781 22.8313 90.0781H2.00016Z" fill="#3DADE2"/>
<path d="M8.46305 51.6484C8.10481 51.6484 7.76126 51.7908 7.50795 52.0441C7.25463 52.2974 7.1123 52.6409 7.1123 52.9992C7.1123 53.3574 7.25463 53.701 7.50795 53.9543C7.76126 54.2076 8.10481 54.3499 8.46305 54.3499H28.9274C29.2857 54.3499 29.6293 54.2076 29.8826 53.9543C30.1359 53.701 30.2782 53.3574 30.2782 52.9992C30.2782 52.6409 30.1359 52.2974 29.8826 52.0441C29.6293 51.7908 29.2857 51.6484 28.9274 51.6484H8.46305ZM36.4331 51.6484C36.0748 51.6484 35.7313 51.7908 35.478 52.0441C35.2246 52.2974 35.0823 52.6409 35.0823 52.9992C35.0823 53.3574 35.2246 53.701 35.478 53.9543C35.7313 54.2076 36.0748 54.3499 36.4331 54.3499H46.8592C47.2174 54.3499 47.561 54.2076 47.8143 53.9543C48.0676 53.701 48.2099 53.3574 48.2099 52.9992C48.2099 52.6409 48.0676 52.2974 47.8143 52.0441C47.561 51.7908 47.2174 51.6484 46.8592 51.6484H36.4331Z" fill="#3DADE2"/>
<path d="M1.35075 34.8662C0.992508 34.8662 0.648918 35.0085 0.395604 35.2619C0.142289 35.5152 0 35.8587 0 36.217C0 36.5752 0.142289 36.9188 0.395604 37.1721C0.648918 37.4254 0.992508 37.5677 1.35075 37.5677H19.7785C20.1367 37.5677 20.4802 37.4254 20.7336 37.1721C20.9869 36.9188 21.1292 36.5752 21.1292 36.217C21.1292 35.8587 20.9869 35.5152 20.7336 35.2619C20.4802 35.0085 20.1367 34.8662 19.7785 34.8662H1.35075ZM29.8378 34.8662C29.4796 34.8662 29.1361 35.0085 28.8827 35.2619C28.6294 35.5152 28.4871 35.8587 28.4871 36.217C28.4871 36.5752 28.6294 36.9188 28.8827 37.1721C29.1361 37.4254 29.4796 37.5677 29.8378 37.5677H51.5422C51.9004 37.5677 52.244 37.4254 52.4973 37.1721C52.7506 36.9188 52.8929 36.5752 52.8929 36.217C52.8929 35.8587 52.7506 35.5152 52.4973 35.2619C52.244 35.0085 51.9004 34.8662 51.5422 34.8662H29.8378Z" fill="#3DADE2"/>
<path d="M44.2453 24.1982C43.887 24.1982 43.5435 24.3405 43.2902 24.5938C43.0369 24.8472 42.8945 25.1908 42.8945 25.549C42.8945 25.9072 43.0369 26.2508 43.2902 26.5041C43.5435 26.7574 43.887 26.8997 44.2453 26.8997H62.491C62.8492 26.8997 63.1927 26.7574 63.4461 26.5041C63.6994 26.2508 63.8417 25.9072 63.8417 25.549C63.8417 25.1908 63.6994 24.8472 63.4461 24.5938C63.1927 24.3405 62.8492 24.1982 62.491 24.1982H44.2453Z" fill="#3DADE2"/>
<path d="M53.7267 14.1348C53.3685 14.1348 53.0249 14.2771 52.7716 14.5304C52.5183 14.7837 52.376 15.1273 52.376 15.4855C52.376 15.8438 52.5183 16.1873 52.7716 16.4406C53.0249 16.6939 53.3685 16.8363 53.7267 16.8363H67.2052C67.5634 16.8363 67.907 16.6939 68.1603 16.4406C68.4137 16.1873 68.556 15.8438 68.556 15.4855C68.556 15.1273 68.4137 14.7837 68.1603 14.5304C67.907 14.2771 67.5634 14.1348 67.2052 14.1348H53.7267ZM74.228 14.1348C73.8698 14.1348 73.5263 14.2771 73.2729 14.5304C73.0196 14.7837 72.8773 15.1273 72.8773 15.4855C72.8773 15.8438 73.0196 16.1873 73.2729 16.4406C73.5263 16.6939 73.8698 16.8363 74.228 16.8363H82.9103C83.2685 16.8363 83.6121 16.6939 83.8654 16.4406C84.1187 16.1873 84.2611 15.8438 84.2611 15.4855C84.2611 15.1273 84.1187 14.7837 83.8654 14.5304C83.6121 14.2771 83.2685 14.1348 82.9103 14.1348H74.228Z" fill="#3DADE2"/>
<path d="M124.716 33.943C124.546 33.6343 124.26 33.405 123.922 33.3044C123.584 33.2039 123.22 33.2403 122.909 33.4056L118.119 35.9428L112.716 35.4931C112.475 35.4726 112.233 35.5174 112.016 35.6226C111.798 35.7279 111.613 35.8898 111.48 36.0913C111.347 36.2928 111.27 36.5265 111.259 36.7677C111.247 37.009 111.301 37.249 111.414 37.4624L113.952 42.2547L113.505 47.657C113.485 47.8973 113.53 48.1385 113.635 48.3554C113.741 48.5723 113.903 48.7569 114.104 48.8897C114.305 49.0226 114.538 49.0989 114.779 49.1106C115.02 49.1223 115.26 49.069 115.473 48.9563L120.263 46.4191L125.666 46.8688C125.907 46.8893 126.149 46.8446 126.366 46.7393C126.584 46.634 126.769 46.4721 126.902 46.2706C127.035 46.0691 127.111 45.8354 127.123 45.5942C127.135 45.3529 127.081 45.113 126.968 44.8995L124.43 40.1073L124.877 34.705C124.9 34.4407 124.844 34.1755 124.716 33.943ZM121.996 36.9329L121.717 40.2781C121.697 40.5342 121.75 40.7909 121.87 41.0178L123.441 43.9868L120.096 43.7081C119.839 43.6864 119.582 43.7386 119.355 43.8585L116.386 45.429L116.664 42.0838C116.685 41.8277 116.632 41.5711 116.512 41.3442L114.942 38.3775L118.287 38.6562C118.544 38.677 118.8 38.624 119.027 38.5034L121.996 36.9329Z" fill="#3DADE2"/>
<path d="M131.756 12.9932C129.556 12.9932 127.743 14.8062 127.743 17.0058C127.743 19.2055 129.556 21.0159 131.756 21.0159C133.585 21.0159 134.893 19.6471 135.368 17.9609C135.494 17.8359 135.594 17.6871 135.662 17.5232C135.731 17.3593 135.766 17.1835 135.766 17.0058C135.766 16.8282 135.731 16.6524 135.662 16.4885C135.594 16.3245 135.494 16.1758 135.368 16.0508C134.893 14.3645 133.585 12.9932 131.756 12.9932ZM131.756 15.6815C132.503 15.6815 133.078 16.2591 133.078 17.0058C133.078 17.7526 132.503 18.3276 131.756 18.3276C131.009 18.3276 130.431 17.7526 130.431 17.0058C130.431 16.2591 131.009 15.6815 131.756 15.6815Z" fill="#3DADE2"/>
<path d="M135.1 120.943C134.772 120.812 134.406 120.814 134.081 120.95C133.756 121.086 133.497 121.344 133.36 121.669L131.254 126.664L126.783 129.732C126.584 129.869 126.425 130.056 126.323 130.275C126.221 130.494 126.18 130.737 126.205 130.977C126.229 131.217 126.317 131.447 126.461 131.641C126.604 131.835 126.798 131.987 127.02 132.081L132.017 134.188L135.087 138.656C135.223 138.855 135.411 139.013 135.63 139.115C135.849 139.216 136.091 139.257 136.331 139.232C136.57 139.208 136.799 139.12 136.993 138.976C137.187 138.833 137.339 138.64 137.433 138.418L139.539 133.424L144.01 130.355C144.209 130.219 144.368 130.031 144.47 129.812C144.572 129.593 144.613 129.351 144.588 129.11C144.564 128.87 144.476 128.641 144.332 128.446C144.189 128.252 143.995 128.1 143.773 128.006L138.776 125.899L135.706 121.431C135.557 121.212 135.346 121.042 135.1 120.943ZM134.883 124.979L136.783 127.747C136.929 127.958 137.132 128.123 137.369 128.223L140.463 129.53L137.695 131.429C137.483 131.575 137.317 131.778 137.217 132.014L135.91 135.109L134.01 132.341C133.864 132.129 133.661 131.964 133.424 131.864L130.332 130.559L133.1 128.659C133.312 128.513 133.477 128.31 133.576 128.073L134.883 124.979Z" fill="#3DADE2"/>
<path d="M155.328 117.581C153.129 117.581 151.318 119.394 151.318 121.594C151.318 123.793 153.129 125.604 155.328 125.604C157.158 125.604 158.469 124.234 158.943 122.546C159.069 122.421 159.169 122.273 159.237 122.11C159.305 121.946 159.341 121.771 159.341 121.594C159.341 121.416 159.306 121.24 159.237 121.076C159.169 120.912 159.069 120.764 158.943 120.639C158.468 118.952 157.157 117.581 155.328 117.581ZM155.328 120.269C156.075 120.269 156.653 120.847 156.653 121.594C156.653 122.34 156.075 122.915 155.328 122.915C154.582 122.915 154.007 122.34 154.007 121.594C154.007 120.847 154.582 120.269 155.328 120.269Z" fill="#3DADE2"/>
<path d="M159.988 38.7256C157.788 38.7256 155.978 40.536 155.978 42.7356C155.978 44.9353 157.788 46.7483 159.988 46.7483C161.816 46.7483 163.127 45.3769 163.602 43.6906C163.728 43.5657 163.828 43.4169 163.897 43.253C163.965 43.0891 164 42.9132 164 42.7356C164 42.5591 163.965 42.3843 163.897 42.2214C163.829 42.0584 163.73 41.9104 163.605 41.7859C163.132 40.0966 161.818 38.7256 159.988 38.7256ZM159.988 41.4139C160.734 41.4139 161.312 41.9889 161.312 42.7356C161.312 43.4823 160.734 44.06 159.988 44.06C159.241 44.06 158.666 43.4823 158.666 42.7356C158.666 41.9889 159.241 41.4139 159.988 41.4139Z" fill="#3DADE2"/>
</svg>
