<svg width="164" height="140" viewBox="0 0 164 140" fill="none" xmlns="http://www.w3.org/2000/svg">
<path d="M23.3617 14.2569C19.0084 14.2178 14.494 15.3726 10.843 18.5532C6.6691 22.1895 4.39876 26.7714 4.14002 31.2172C3.88402 35.6157 5.37845 39.4433 7.1397 42.458C8.94113 45.5416 11.1469 48.0072 12.886 49.7054C12.3096 56.3986 17.5399 62.7566 25.058 64.4713C31.5151 65.9441 37.9215 63.5899 41.1097 58.916C44.7108 58.109 49.2325 56.9216 53.8382 55.2388C54.1155 55.1375 54.3932 55.0282 54.6708 54.9238C55.4805 56.383 56.3821 57.6569 57.3414 58.68C61.3527 62.958 61.8815 65.3423 61.6402 68.4928C61.3989 71.6432 60.1282 75.6354 60.3277 82.021C60.5272 88.4069 62.1045 92.0207 63.9088 95.1144C65.7131 98.2083 67.6483 100.757 68.9545 105.632C71.5286 115.238 66.6719 122.975 66.6719 122.975C66.5057 123.239 66.4514 123.559 66.5207 123.863C66.5901 124.167 66.7775 124.432 67.0417 124.598C67.1725 124.68 67.3183 124.736 67.4707 124.762C67.6231 124.788 67.7792 124.783 67.9299 124.749C68.0807 124.715 68.2232 124.651 68.3493 124.562C68.4754 124.472 68.5826 124.359 68.6649 124.228C68.6649 124.228 74.0762 115.652 71.2279 105.022C69.8229 99.7785 67.6579 96.8685 65.9432 93.9285C64.2286 90.9884 62.8678 87.9889 62.6791 81.9475C62.4903 75.9059 63.7122 72.2622 63.9872 68.6722C64.2622 65.0822 63.3297 61.6235 59.0583 57.0683C55.8113 53.6054 52.8675 45.5129 53.3036 37.7195C53.3095 37.6228 53.3142 37.5261 53.3212 37.4294C53.3358 37.2116 53.3517 36.9939 53.3717 36.7768C53.3741 36.747 53.3776 36.7171 53.3799 36.6874C53.3978 36.5004 53.4194 36.3141 53.4414 36.1278C53.7113 33.9032 54.2679 31.7278 55.1711 29.7088L55.328 29.3585C56.4743 26.9238 58.1372 24.7191 60.4443 22.9073C64.2232 19.9395 69.7813 17.9857 77.7975 17.9857C85.8137 17.9857 91.3718 19.9395 95.1508 22.9073C97.4764 24.7337 99.1485 26.9589 100.296 29.4169L100.426 29.7088C100.677 30.2689 100.9 30.8415 101.098 31.4234C101.109 31.4531 101.119 31.4829 101.129 31.5128C101.187 31.6869 101.244 31.8618 101.298 32.0376C101.315 32.0908 101.33 32.1443 101.346 32.1976C101.433 32.4883 101.513 32.7812 101.589 33.0758C101.609 33.1564 101.631 33.2364 101.651 33.3173C101.684 33.4569 101.715 33.5972 101.747 33.7376C101.768 33.8331 101.789 33.9288 101.809 34.0247C101.838 34.16 101.866 34.2956 101.892 34.4315C101.915 34.5538 101.937 34.6767 101.958 34.7995C101.979 34.9168 102.001 35.0339 102.02 35.1516C102.058 35.3935 102.094 35.6363 102.125 35.8797C102.128 35.9061 102.131 35.9329 102.134 35.9593C103.172 44.2629 100.029 53.3436 96.5364 57.0683C92.265 61.6235 91.3349 65.0821 91.6099 68.6722C91.8849 72.2622 93.1045 75.9058 92.9157 81.9474C92.727 87.9888 91.3662 90.9884 89.6515 93.9284C87.9369 96.8684 85.7719 99.7785 84.3668 105.022C81.5186 115.652 86.9298 124.228 86.9298 124.228C87.0959 124.492 87.3603 124.679 87.6646 124.749C87.9689 124.818 88.2882 124.764 88.5525 124.598C88.8168 124.432 89.0043 124.167 89.0738 123.863C89.1432 123.559 89.089 123.239 88.9229 122.975C88.9229 122.975 84.0661 115.238 86.6403 105.631C87.9465 100.757 89.8817 98.2082 91.686 95.1144C93.4903 92.0206 95.0675 88.4068 95.267 82.021C95.4665 75.6354 94.1983 71.6432 93.957 68.4928C93.7157 65.3423 94.242 62.9579 98.2533 58.68C99.2128 57.6567 100.115 56.3827 100.925 54.9231C101.203 55.0278 101.481 55.1372 101.759 55.2388C106.365 56.9217 110.887 58.109 114.488 58.916C117.677 63.589 124.082 65.9427 130.539 64.4701C138.056 62.7556 143.285 56.3994 142.709 49.7072C144.449 48.009 146.656 45.5425 148.458 42.458C150.219 39.4433 151.711 35.6156 151.455 31.2172C151.196 26.7713 148.928 22.1894 144.754 18.5532C141.103 15.3725 136.589 14.2177 132.236 14.2568C130.784 14.2698 129.345 14.4153 127.952 14.6594C122.412 15.6304 117.142 18.0181 112.414 20.6569C108.425 22.883 104.801 25.339 101.929 27.4439C100.662 25.0605 98.9181 22.875 96.6027 21.0565C92.3347 17.7047 86.1983 15.6314 77.797 15.6314C69.3957 15.6314 63.2593 17.7047 58.9913 21.0565C56.6758 22.875 54.9322 25.0605 53.6648 27.4439C50.793 25.339 47.1716 22.883 43.1829 20.6569C38.4547 18.0181 33.1812 15.6304 27.6409 14.6594C26.248 14.4153 24.8126 14.2698 23.361 14.2568L23.3617 14.2569ZM23.3387 16.6112C24.6474 16.623 25.9598 16.7529 27.2372 16.9767C32.3785 17.8778 37.4327 20.142 42.0366 22.7115C46.1444 25.0041 49.7517 27.5307 52.6388 29.6712C52.1091 31.0126 51.7068 32.396 51.4267 33.7984C51.1971 34.9475 51.0437 36.1086 50.9565 37.2707C48.2158 35.0947 43.9235 31.8529 38.5954 28.8793C34.4002 26.5379 29.9011 24.613 26.0165 23.9322C22.1801 23.2598 19.2305 23.7332 17.0285 25.6516C14.4119 27.9311 13.6434 29.9759 13.5393 31.764C13.4281 33.6745 14.104 35.7122 15.2702 37.7086C16.0162 38.9855 16.9313 40.0312 17.8149 41.0294C15.8276 42.5136 14.2983 44.5011 13.4833 46.873C12.0567 45.3716 10.5061 43.5555 9.17177 41.2714C7.55536 38.5046 6.26845 35.143 6.48895 31.3547C6.70667 27.6138 8.63255 23.599 12.3873 20.3279C15.5289 17.5911 19.4109 16.576 23.3387 16.6112ZM132.257 16.6112C136.185 16.576 140.066 17.5911 143.208 20.3279C146.963 23.599 148.889 27.6138 149.107 31.3547C149.327 35.143 148.04 38.5046 146.424 41.2714C145.089 43.5554 143.539 45.3714 142.112 46.873C141.298 44.5011 139.768 42.5132 137.781 41.0287C138.665 40.0309 139.58 38.9852 140.325 37.7086C141.492 35.7121 142.17 33.6745 142.059 31.764C141.954 29.9765 141.186 27.9311 138.569 25.6516C136.367 23.7332 133.415 23.2598 129.579 23.9322C125.694 24.613 121.198 26.5379 117.003 28.8793C111.673 31.8535 107.379 35.097 104.638 37.2731C104.551 36.1102 104.399 34.9483 104.169 33.7984C103.889 32.396 103.487 31.0126 102.957 29.6712C105.844 27.5307 109.453 25.0041 113.561 22.7115C118.165 20.142 123.219 17.8778 128.36 16.9767C129.638 16.7529 130.948 16.6229 132.257 16.6112ZM22.7584 25.9715C23.5844 25.9662 24.5238 26.0587 25.6121 26.2494C29.0462 26.8513 33.4018 28.6773 37.4459 30.9344C43.2866 34.1941 48.4386 38.1752 50.8738 40.1566C50.8949 41.3421 50.9828 42.5185 51.1275 43.675C50.6844 43.8503 50.2407 44.0219 49.7967 44.1841C47.0601 45.184 44.3117 45.9862 41.8025 46.6321C39.8365 42.7357 35.9064 39.6192 30.9826 38.4962C26.972 37.5815 22.975 38.1411 19.7557 39.8142C18.8845 38.8367 17.9944 37.7073 17.3022 36.5226C16.2962 34.8005 15.8173 33.1302 15.8888 31.9021C15.9674 30.5514 16.2612 29.4407 18.5734 27.4263C19.6726 26.4687 20.9413 25.9831 22.7584 25.9715ZM132.838 25.9715C134.655 25.9831 135.923 26.4687 137.022 27.4263C139.334 29.4406 139.628 30.5509 139.707 31.9021C139.778 33.1303 139.299 34.8006 138.293 36.5226C137.601 37.707 136.712 38.8362 135.84 39.8136C132.622 38.1404 128.626 37.5802 124.615 38.495C119.691 39.6181 115.76 42.7352 113.794 46.6321C111.285 45.9863 108.535 45.1839 105.798 44.1841C105.354 44.0217 104.911 43.8499 104.468 43.6744C104.613 42.5183 104.7 41.3423 104.721 40.1572C107.156 38.176 112.308 34.1944 118.15 30.9344C122.194 28.6773 126.552 26.8513 129.986 26.2494C131.074 26.0587 132.013 25.9661 132.838 25.9715ZM63.2101 33.2468C61.5185 33.2468 60.1357 33.6972 59.2609 34.6834C58.3861 35.6696 58.1779 36.9987 58.3091 38.3247C58.5715 40.9766 60.0731 44.044 61.9018 47.1333C65.5592 53.3119 70.6763 59.4014 70.6763 59.4014C70.8769 59.6403 71.1641 59.7898 71.4749 59.8171C71.7857 59.8443 72.0946 59.7471 72.3337 59.5467C72.5725 59.3461 72.722 59.0588 72.7491 58.748C72.7762 58.4372 72.6789 58.1284 72.4784 57.8894C72.4784 57.8894 67.4411 51.8678 63.9296 45.9357C62.1738 42.9697 60.8383 39.9819 60.6514 38.0923C60.5578 37.1476 60.7214 36.583 61.0217 36.2446C61.3219 35.9062 61.9163 35.6005 63.2101 35.6005H77.7978H92.3856C93.6793 35.6005 94.2737 35.9062 94.5739 36.2446C94.8741 36.583 95.0371 37.1476 94.9436 38.0923C94.7567 39.9819 93.4242 42.9697 91.6684 45.9357C88.1569 51.8678 83.1171 57.8894 83.1171 57.8894C82.9167 58.1284 82.8193 58.4372 82.8465 58.748C82.8736 59.0588 83.023 59.3461 83.2619 59.5467C83.501 59.7471 83.8099 59.8443 84.1207 59.8171C84.4314 59.7898 84.7187 59.6403 84.9193 59.4014C84.9193 59.4014 90.0358 53.3119 93.6932 47.1333C95.5219 44.044 97.024 40.9766 97.2865 38.3247C97.4177 36.9987 97.2095 35.6696 96.3346 34.6834C95.4598 33.6972 94.0771 33.2468 92.3856 33.2468H77.7978H63.2101ZM128.396 40.4066C130.948 40.3874 133.335 41.0364 135.299 42.1941L135.335 42.2165C135.405 42.258 135.472 42.3022 135.541 42.3449C135.653 42.4149 135.765 42.4858 135.875 42.559C135.937 42.6006 135.998 42.6433 136.059 42.6861C136.141 42.7434 136.223 42.8009 136.303 42.86C136.378 42.9151 136.451 42.9723 136.523 43.0291C136.593 43.0834 136.664 43.1371 136.732 43.1927C136.815 43.2606 136.896 43.3307 136.977 43.4007C137.028 43.445 137.08 43.4883 137.13 43.5333C137.398 43.7746 137.653 44.0276 137.893 44.2923L137.894 44.2929C138.016 44.4283 138.135 44.5665 138.25 44.7077C138.257 44.7172 138.264 44.7264 138.271 44.7357C138.372 44.8598 138.469 44.9862 138.563 45.1147C138.591 45.1537 138.618 45.1938 138.646 45.2333C138.719 45.3367 138.792 45.441 138.861 45.5471C138.891 45.5937 138.92 45.6411 138.95 45.6882C139.012 45.7877 139.073 45.8876 139.132 45.9892C139.165 46.0456 139.196 46.1026 139.227 46.1596C139.28 46.2554 139.332 46.352 139.381 46.4497C139.41 46.5066 139.439 46.5637 139.467 46.6212C139.517 46.7257 139.565 46.8316 139.611 46.9381C139.635 46.9915 139.659 47.0447 139.681 47.0986C139.727 47.2097 139.771 47.3224 139.813 47.4356C139.832 47.4884 139.852 47.541 139.871 47.5943C139.913 47.7137 139.951 47.8347 139.988 47.9562C140.003 48.0033 140.019 48.0499 140.033 48.0973C140.082 48.2667 140.126 48.4384 140.166 48.6118C140.205 48.7824 140.238 48.953 140.267 49.1239C140.272 49.1543 140.276 49.1848 140.281 49.2152C141.183 54.8496 136.826 60.6223 130.016 62.1754C124.289 63.4817 118.827 61.3468 116.266 57.3815C116.26 57.3721 116.254 57.362 116.248 57.3523C116.183 57.2516 116.122 57.1482 116.062 57.0452C116.018 56.9722 115.976 56.8988 115.935 56.825C115.873 56.7128 115.812 56.5998 115.754 56.485C115.731 56.4377 115.708 56.3903 115.685 56.3427C115.634 56.2361 115.584 56.1284 115.537 56.0197C115.517 55.9756 115.498 55.9315 115.479 55.8872C115.417 55.7395 115.359 55.5902 115.304 55.4389C115.295 55.4122 115.286 55.3849 115.277 55.3581C115.232 55.2278 115.189 55.0962 115.149 54.9633C115.136 54.922 115.124 54.8807 115.112 54.8393C115.067 54.6796 115.024 54.519 114.986 54.3557C114.986 54.3553 114.986 54.3549 114.986 54.3546C114.985 54.3475 114.984 54.34 114.982 54.3327C114.935 54.1238 114.896 53.9136 114.864 53.7026C114.853 53.6359 114.846 53.5692 114.837 53.5025C114.816 53.3421 114.799 53.1815 114.786 53.0202C114.78 52.9543 114.774 52.8884 114.771 52.8225C114.758 52.6012 114.75 52.3795 114.752 52.1571C114.755 51.9277 114.769 51.6974 114.788 51.4674C114.792 51.4253 114.795 51.383 114.8 51.3409C114.82 51.1409 114.845 50.9411 114.877 50.7412C114.883 50.7073 114.888 50.6734 114.893 50.6397C114.933 50.4066 114.981 50.1736 115.038 49.9414C115.042 49.9272 115.046 49.9131 115.05 49.8988C115.104 49.6826 115.166 49.4672 115.235 49.2523C115.247 49.2154 115.259 49.1784 115.271 49.1416C115.347 48.9141 115.43 48.6875 115.522 48.4622L115.56 48.371C117.058 44.8143 120.539 41.8394 125.139 40.7903C126.241 40.539 127.333 40.4146 128.396 40.4066V40.4066ZM27.2014 40.4077C28.2649 40.416 29.3569 40.5396 30.4589 40.7909C35.0419 41.8362 38.5134 44.7942 40.0204 48.3338L40.0733 48.4622C40.1703 48.6983 40.2573 48.9359 40.3361 49.1744C40.3408 49.1879 40.3455 49.2016 40.3495 49.2151C40.5052 49.6935 40.6249 50.1756 40.7071 50.659C40.7094 50.6729 40.7106 50.687 40.713 50.701C40.7492 50.9199 40.777 51.1388 40.7982 51.3578C40.8017 51.3904 40.8052 51.4231 40.8076 51.4558C40.8474 51.9172 40.8531 52.3784 40.8258 52.8364C40.8223 52.8901 40.8176 52.9439 40.813 52.9976C40.7997 53.1711 40.7812 53.3439 40.7583 53.5164C40.7501 53.577 40.7426 53.6376 40.7333 53.6982C40.6995 53.9184 40.6601 54.1379 40.6105 54.3557C40.5739 54.516 40.5316 54.6738 40.487 54.8307C40.473 54.8797 40.4585 54.9285 40.4438 54.9773C40.4076 55.0973 40.3691 55.2163 40.3282 55.3343C40.315 55.3723 40.3031 55.4108 40.2893 55.4486C40.2388 55.5886 40.1843 55.7265 40.1275 55.8634C40.0959 55.9394 40.0615 56.0149 40.0278 56.0902C39.9999 56.1528 39.9713 56.2151 39.942 56.2769C39.8998 56.366 39.8571 56.4547 39.8119 56.5427C39.8025 56.5612 39.7922 56.5791 39.7826 56.5975C39.6687 56.816 39.5469 57.0314 39.4153 57.2428L39.3064 57.4173C36.7355 61.3596 31.2906 63.4789 25.5805 62.1765C18.7787 60.6251 14.4214 54.863 15.3104 49.2345C15.3163 49.1938 15.3228 49.153 15.3298 49.1123C15.3584 48.9454 15.391 48.7782 15.4289 48.6117C15.4696 48.4333 15.5157 48.2574 15.5663 48.0832C15.5722 48.0624 15.5797 48.0419 15.5858 48.0212C15.629 47.8762 15.6746 47.7325 15.7244 47.5906C15.7431 47.5373 15.7637 47.4848 15.7834 47.4318C15.8239 47.323 15.8655 47.2146 15.9099 47.1077C15.9352 47.0467 15.9618 46.9862 15.9883 46.9258C16.0319 46.8265 16.0769 46.7278 16.124 46.6302C16.1539 46.5681 16.1845 46.5063 16.2158 46.4447C16.2644 46.349 16.3155 46.2546 16.3672 46.1607C16.3992 46.1027 16.4312 46.0448 16.4645 45.9874C16.521 45.8899 16.5799 45.7939 16.6397 45.6985C16.672 45.6468 16.7036 45.5945 16.737 45.5434C16.7995 45.4477 16.8646 45.3535 16.9305 45.2599C16.9669 45.2082 17.0023 45.156 17.0399 45.1049C17.1154 45.0019 17.1945 44.901 17.2741 44.8008C17.3019 44.7657 17.3284 44.7298 17.3568 44.6949C17.5807 44.4206 17.8191 44.1573 18.072 43.9055C18.1065 43.8711 18.1433 43.8385 18.1784 43.8045C18.2731 43.7127 18.3682 43.6212 18.4667 43.5326C18.517 43.4873 18.5698 43.4439 18.6212 43.3994C18.6996 43.3315 18.7778 43.2634 18.8584 43.1975C18.9402 43.1308 19.0247 43.0659 19.1089 43.0011C19.1658 42.9572 19.2219 42.9126 19.2798 42.8697C19.3763 42.7984 19.4754 42.7293 19.5749 42.6605C19.6199 42.6293 19.6643 42.5975 19.7098 42.5668C19.8264 42.4887 19.9452 42.4128 20.0656 42.3381C22.0719 41.0923 24.5461 40.3877 27.2005 40.4077L27.2014 40.4077ZM51.51 46.0415C51.9894 48.4703 52.7165 50.7648 53.6193 52.8048C53.4224 52.88 53.2251 52.958 53.0287 53.0298C49.239 54.4144 45.7459 55.2764 42.5445 56.041C42.636 55.771 42.7204 55.4972 42.7932 55.2175C42.8132 55.1688 42.8279 55.1182 42.8449 55.0685C42.8705 55.0071 42.8909 54.9436 42.9057 54.8787C42.9136 54.8439 42.9199 54.8088 42.9246 54.7735C43.0314 54.2794 43.099 53.7815 43.1296 53.2816C43.2646 51.7506 43.0949 50.2379 42.6654 48.793C45.1727 48.1437 47.8542 47.401 50.6062 46.3955C50.9127 46.2835 51.2091 46.1604 51.51 46.0415ZM104.086 46.0415C104.387 46.1604 104.685 46.2834 104.992 46.3955C107.744 47.4012 110.425 48.143 112.932 48.7924C112.508 50.2214 112.337 51.7173 112.464 53.2311C112.495 53.783 112.566 54.3328 112.69 54.8775C112.692 54.8869 112.697 54.8968 112.699 54.9067C112.711 54.9534 112.726 54.9993 112.743 55.0442C112.763 55.1063 112.783 55.1691 112.808 55.2297C112.88 55.5042 112.963 55.7734 113.053 56.0386C109.852 55.2739 106.356 54.4144 102.567 53.0298C102.37 52.958 102.174 52.88 101.977 52.8048C102.879 50.7648 103.606 48.4703 104.086 46.0415H104.086ZM68.6371 79.34C68.1903 79.3703 67.7393 79.4955 67.3227 79.736C66.5306 80.1933 66.1658 81.0514 66.0607 81.8416C65.9556 82.6318 66.0402 83.4647 66.2146 84.3681C66.5632 86.1749 67.3069 88.2603 68.1407 90.2871C69.8084 94.3408 71.8581 98.1305 71.8581 98.1305C71.9316 98.2665 72.0311 98.3867 72.1511 98.4842C72.271 98.5817 72.409 98.6546 72.5572 98.6988C72.7053 98.743 72.8608 98.7575 73.0145 98.7416C73.1683 98.7257 73.3174 98.6797 73.4534 98.6061C73.5894 98.5326 73.7096 98.433 73.8071 98.3131C73.9046 98.1931 73.9775 98.0551 74.0217 97.907C74.0658 97.7588 74.0804 97.6034 74.0645 97.4497C74.0486 97.2959 74.0025 97.1468 73.929 97.0108C73.929 97.0108 71.923 93.2957 70.3175 89.393C69.5147 87.4417 68.8168 85.4377 68.5245 83.9223C68.3783 83.1646 68.3437 82.5281 68.3937 82.1518C68.4439 81.7755 68.5097 81.7695 68.4996 81.7753C68.9526 81.5138 68.947 81.558 69.3084 81.8093C69.6699 82.0607 70.1866 82.6954 70.697 83.4576C71.2074 84.2197 71.7267 85.0919 72.3519 85.8484C72.977 86.6049 73.8024 87.3817 74.9975 87.3817H77.7977H80.5997C81.7949 87.3817 82.6184 86.6049 83.2436 85.8484C83.8688 85.0919 84.3881 84.2197 84.8985 83.4576C85.4089 82.6954 85.9256 82.0607 86.2871 81.8093C86.6485 81.5579 86.6429 81.5137 87.0959 81.7753C87.0853 81.7694 87.1517 81.7755 87.2017 82.1518C87.2518 82.5281 87.2172 83.1646 87.071 83.9223C86.7786 85.4377 86.0802 87.4417 85.2774 89.393C83.6719 93.2957 81.6665 97.0108 81.6665 97.0108C81.5929 97.1468 81.5469 97.2959 81.531 97.4497C81.5151 97.6034 81.5297 97.7588 81.5738 97.907C81.618 98.0551 81.6909 98.1931 81.7884 98.3131C81.8859 98.433 82.0061 98.5326 82.1421 98.6061C82.2781 98.6797 82.4272 98.7257 82.581 98.7416C82.7347 98.7575 82.8901 98.743 83.0383 98.6988C83.1864 98.6546 83.3244 98.5817 83.4444 98.4842C83.5644 98.3867 83.6639 98.2665 83.7374 98.1305C83.7374 98.1305 85.7871 94.3408 87.4548 90.2871C88.2886 88.2603 89.0324 86.1749 89.3809 84.3681C89.5553 83.4647 89.6399 82.6318 89.5348 81.8416C89.4297 81.0514 89.0648 80.1933 88.2728 79.736C87.1618 79.0946 85.8065 79.2772 84.9422 79.8783C84.078 80.4794 83.4951 81.3216 82.9419 82.1475C82.3888 82.9735 81.8823 83.8024 81.4299 84.3498C80.9774 84.8973 80.6723 85.028 80.5997 85.028H77.7977H74.9975C74.9249 85.028 74.6204 84.8973 74.1679 84.3498C73.7155 83.8024 73.2061 82.9735 72.6529 82.1475C72.0998 81.3216 71.5173 80.4794 70.6531 79.8783C70.221 79.5778 69.6667 79.3814 69.0809 79.3407C68.9345 79.3301 68.7858 79.3301 68.6369 79.34H68.6371Z" fill="#30414D"/>
<path d="M23.3611 14.2568C19.008 14.2179 14.4939 15.3727 10.843 18.5532C6.66911 22.1894 4.39876 26.7713 4.14002 31.2172C3.88402 35.6156 5.37843 39.4433 7.13968 42.458C8.94113 45.5416 11.1469 48.0072 12.886 49.7053C12.3096 56.3985 17.5399 62.7566 25.058 64.4713C31.5152 65.9441 37.9215 63.5899 41.1097 58.916C44.7107 58.109 49.2325 56.9216 53.8382 55.2388C54.1155 55.1374 54.3932 55.0282 54.6708 54.9237C55.4805 56.383 56.382 57.6569 57.3414 58.68C61.3527 62.9579 61.8815 65.3423 61.6402 68.4927C61.3989 71.6432 60.1282 75.6354 60.3277 82.021C60.5272 88.4069 62.1045 92.0206 63.9088 95.1144C65.7131 98.2082 67.6482 100.757 68.9544 105.631C71.5286 115.238 66.6718 122.975 66.6718 122.975C66.5057 123.239 66.4514 123.559 66.5207 123.863C66.5901 124.167 66.7774 124.432 67.0416 124.598C67.1725 124.68 67.3183 124.736 67.4707 124.762C67.6231 124.788 67.7792 124.783 67.9299 124.749C68.0807 124.715 68.2232 124.651 68.3493 124.562C68.4754 124.472 68.5827 124.359 68.6649 124.228C68.6649 124.228 74.0762 115.652 71.2279 105.022C69.8229 99.7785 67.6579 96.8684 65.9432 93.9284C64.2286 90.9884 62.8677 87.9888 62.679 81.9474C62.4902 75.9058 63.7122 72.2622 63.9872 68.6722C64.2622 65.0821 63.3297 61.6235 59.0584 57.0683C55.8113 53.6054 52.8675 45.5129 53.3035 37.7195C53.3095 37.6227 53.3141 37.526 53.3213 37.4294C53.3359 37.2116 53.3518 36.9939 53.3717 36.7768C53.3748 36.747 53.378 36.7171 53.3802 36.6874C53.3982 36.5004 53.4196 36.3141 53.4416 36.1278C53.7114 33.9031 54.2681 31.7278 55.1713 29.7088L55.3282 29.3585C56.4745 26.9238 58.1374 24.7191 60.4445 22.9073C64.2234 19.9394 69.7815 17.9857 77.7977 17.9857V15.6313C77.7975 15.6313 77.7977 15.6313 77.7977 15.6313C69.3964 15.6313 63.26 17.7047 58.9921 21.0565C56.6766 22.875 54.9329 25.0605 53.6654 27.4439C50.7937 25.339 47.1723 22.883 43.1836 20.6569C38.4554 18.0181 33.1819 15.6304 27.6416 14.6594C26.2488 14.4154 24.8137 14.2699 23.3623 14.2568H23.3611ZM23.3386 16.6112C24.6474 16.6229 25.9598 16.7528 27.2372 16.9767C32.3785 17.8777 37.4327 20.142 42.0366 22.7114C46.1445 25.0041 49.7517 27.5307 52.6388 29.6711C52.1091 31.0126 51.7068 32.396 51.4267 33.7984C51.1972 34.9474 51.0437 36.1085 50.9566 37.2706C48.2158 35.0947 43.9235 31.8529 38.5954 28.8792C34.4002 26.5379 29.9012 24.6129 26.0166 23.9321C22.1801 23.2598 19.2306 23.7332 17.0285 25.6515C14.4119 27.931 13.6433 29.9759 13.5393 31.7639C13.4281 33.6745 14.104 35.7121 15.2702 37.7085C16.0162 38.9855 16.9314 40.0312 17.8149 41.0293C15.8277 42.5136 14.2983 44.501 13.4833 46.8729C12.0567 45.3715 10.5061 43.5555 9.17176 41.2714C7.55534 38.5046 6.26847 35.1429 6.48898 31.3546C6.70671 27.6137 8.63256 23.599 12.3873 20.3279C15.5289 17.591 19.4109 16.5759 23.3386 16.6112ZM22.7584 25.9714C23.5844 25.9661 24.5239 26.0586 25.6121 26.2494C29.0462 26.8512 33.4018 28.6773 37.4459 30.9344C43.2866 34.1941 48.4386 38.1752 50.8738 40.1565C50.895 41.3421 50.9828 42.5184 51.1275 43.675C50.6843 43.8503 50.2407 44.0218 49.7967 44.1841C47.0602 45.1839 44.3117 45.9862 41.8025 46.6321C39.8365 42.7357 35.9064 39.6192 30.9825 38.4962C26.972 37.5814 22.9751 38.1411 19.7557 39.8141C18.8845 38.8366 17.9944 37.7073 17.3022 36.5225C16.2962 34.8005 15.8173 33.1302 15.8888 31.902C15.9674 30.5513 16.2611 29.4406 18.5734 27.4262C19.6726 26.4686 20.9412 25.9831 22.7584 25.9714ZM63.21 33.2467C61.5185 33.2467 60.1358 33.6971 59.261 34.6833C58.3862 35.6695 58.1779 36.9987 58.3091 38.3246C58.5715 40.9766 60.0731 44.044 61.9018 47.1332C65.5592 53.3118 70.6763 59.4013 70.6763 59.4013C70.8769 59.6403 71.1641 59.7898 71.4749 59.817C71.7857 59.8443 72.0946 59.7471 72.3337 59.5467C72.5725 59.346 72.722 59.0587 72.7491 58.748C72.7762 58.4372 72.6789 58.1284 72.4784 57.8893C72.4784 57.8893 67.441 51.8678 63.9295 45.9357C62.1738 42.9697 60.8383 39.9818 60.6513 38.0923C60.5578 37.1475 60.7215 36.583 61.0217 36.2446C61.3219 35.9062 61.9163 35.6005 63.21 35.6005H77.7978V33.2467H63.21ZM27.2007 40.4077C28.2643 40.416 29.3563 40.5396 30.4583 40.7909C35.0412 41.8362 38.5129 44.7942 40.0198 48.3338L40.0728 48.4622C40.1697 48.6983 40.2567 48.9359 40.3355 49.1744C40.3402 49.1879 40.3448 49.2016 40.3489 49.2151C40.5046 49.6935 40.6243 50.1756 40.7065 50.659C40.7096 50.6729 40.7102 50.687 40.7127 50.701C40.749 50.9199 40.7767 51.1388 40.7979 51.3578C40.8013 51.3904 40.8048 51.423 40.8069 51.4557C40.8467 51.9172 40.8524 52.3784 40.8253 52.8364C40.8218 52.89 40.8172 52.9438 40.8125 52.9975C40.7991 53.1711 40.7807 53.3439 40.7577 53.5163C40.7496 53.577 40.7422 53.6376 40.7329 53.6982C40.6991 53.9184 40.6597 54.1379 40.61 54.3557C40.5734 54.516 40.5312 54.6738 40.4866 54.8307C40.4725 54.8796 40.4582 54.9285 40.4434 54.9772C40.4071 55.0973 40.3686 55.2163 40.3278 55.3343C40.3147 55.3723 40.3026 55.4108 40.2889 55.4486C40.2384 55.5886 40.1839 55.7266 40.1271 55.8634C40.0955 55.9394 40.061 56.0149 40.0274 56.0903C39.9993 56.1529 39.9709 56.2151 39.9416 56.277C39.8994 56.3661 39.8566 56.4547 39.8115 56.5428C39.8021 56.5612 39.7918 56.5791 39.7822 56.5975C39.6683 56.816 39.5465 57.0315 39.4148 57.2428L39.306 57.4174C36.735 61.3596 31.2901 63.4789 25.58 62.1766C18.7782 60.6252 14.4209 54.8631 15.3099 49.2346C15.3158 49.1939 15.3224 49.153 15.3292 49.1123C15.3579 48.9454 15.3905 48.7783 15.4284 48.6118C15.4691 48.4334 15.5152 48.2574 15.5658 48.0833C15.5717 48.0624 15.5792 48.0419 15.5851 48.0212C15.6283 47.8762 15.674 47.7325 15.7238 47.5906C15.7425 47.5373 15.7631 47.4848 15.7828 47.4319C15.8233 47.323 15.8649 47.2147 15.9093 47.1077C15.9345 47.0467 15.9612 46.9863 15.9877 46.9258C16.0314 46.8265 16.0764 46.7278 16.1234 46.6303C16.1533 46.5681 16.1839 46.5063 16.2152 46.4448C16.2638 46.3491 16.3149 46.2546 16.3667 46.1607C16.3987 46.1027 16.4306 46.0448 16.464 45.9874C16.5205 45.8899 16.5793 45.794 16.6391 45.6985C16.6715 45.6468 16.703 45.5946 16.7364 45.5434C16.7989 45.4477 16.864 45.3535 16.9299 45.26C16.9663 45.2082 17.0018 45.1561 17.0393 45.1049C17.1149 45.0019 17.1939 44.901 17.2735 44.8008C17.3015 44.7657 17.3278 44.7298 17.3562 44.695C17.5801 44.4206 17.8186 44.1573 18.0715 43.9055C18.1059 43.8711 18.1428 43.8386 18.1779 43.8046C18.2726 43.7127 18.3678 43.6212 18.4662 43.5327C18.5166 43.4874 18.5693 43.4439 18.6207 43.3995C18.6991 43.3316 18.7773 43.2634 18.8579 43.1976C18.9396 43.1308 19.0242 43.0659 19.1084 43.0011C19.1653 42.9572 19.2214 42.9126 19.2793 42.8697C19.3758 42.7984 19.4748 42.7293 19.5743 42.6605C19.6194 42.6293 19.6638 42.5976 19.7093 42.5669C19.8259 42.4887 19.9447 42.4129 20.0651 42.3382C22.0714 41.0924 24.5456 40.3877 27.2 40.4077H27.2007ZM51.51 46.0415C51.9895 48.4703 52.7165 50.7648 53.6193 52.8047C53.4224 52.88 53.2251 52.958 53.0287 53.0298C49.239 54.4144 45.7459 55.2764 42.5445 56.041C42.636 55.7709 42.7204 55.4972 42.7933 55.2175C42.8132 55.1688 42.828 55.1182 42.8449 55.0685C42.8705 55.0071 42.8909 54.9436 42.9058 54.8787C42.9137 54.844 42.92 54.8088 42.9248 54.7735C43.0316 54.2794 43.0991 53.7815 43.1297 53.2816C43.2647 51.7506 43.0951 50.2379 42.6656 48.793C45.1729 48.1437 47.8543 47.401 50.6063 46.3955C50.9129 46.2835 51.2092 46.1603 51.5102 46.0415H51.51ZM68.8596 79.3328C68.7856 79.3327 68.7115 79.3349 68.637 79.34C68.1903 79.3703 67.7393 79.4955 67.3227 79.736C66.5307 80.1933 66.1658 81.0514 66.0607 81.8416C65.9556 82.6318 66.0401 83.4647 66.2146 84.3681C66.5632 86.1749 67.3069 88.2603 68.1407 90.2871C69.8084 94.3407 71.8581 98.1305 71.8581 98.1305C71.9316 98.2665 72.0311 98.3867 72.1511 98.4842C72.271 98.5817 72.4091 98.6546 72.5572 98.6988C72.7054 98.7429 72.8607 98.7575 73.0145 98.7416C73.1683 98.7257 73.3174 98.6797 73.4534 98.6061C73.5894 98.5326 73.7096 98.433 73.8071 98.3131C73.9046 98.1931 73.9775 98.0551 74.0217 97.907C74.0658 97.7588 74.0804 97.6034 74.0645 97.4497C74.0486 97.2959 74.0026 97.1468 73.929 97.0108C73.929 97.0108 71.923 93.2957 70.3175 89.3931C69.5147 87.4417 68.8169 85.4376 68.5245 83.9223C68.3783 83.1646 68.3437 82.5281 68.3938 82.1518C68.4439 81.7754 68.5097 81.7695 68.4996 81.7753C68.9526 81.5138 68.9471 81.558 69.3085 81.8093C69.6699 82.0607 70.1866 82.6954 70.697 83.4576C71.2074 84.2197 71.7268 85.0919 72.3519 85.8484C72.9771 86.6049 73.8024 87.3817 74.9976 87.3817H77.7978V85.028H74.9976C74.925 85.028 74.6205 84.8973 74.168 84.3498C73.7156 83.8023 73.2061 82.9735 72.653 82.1475C72.0999 81.3216 71.5175 80.4794 70.6532 79.8783C70.2211 79.5778 69.6667 79.3814 69.081 79.3407C69.0078 79.3354 68.9337 79.3328 68.8596 79.3327V79.3328Z" fill="#608199"/>
<path d="M30.8464 114.054C30.5342 114.054 30.2349 114.178 30.0142 114.398C29.7934 114.619 29.6694 114.919 29.6694 115.231C29.6694 115.543 29.7934 115.842 30.0142 116.063C30.2349 116.284 30.5342 116.408 30.8464 116.408H37.5196C37.8317 116.408 38.1311 116.284 38.3518 116.063C38.5725 115.842 38.6965 115.543 38.6965 115.231C38.6965 114.919 38.5725 114.619 38.3518 114.398C38.1311 114.178 37.8317 114.054 37.5196 114.054H30.8464ZM46.1766 114.054C45.8644 114.054 45.5651 114.178 45.3443 114.398C45.1236 114.619 44.9996 114.919 44.9996 115.231C44.9996 115.543 45.1236 115.842 45.3443 116.063C45.5651 116.284 45.8644 116.408 46.1766 116.408H60.4401C60.7523 116.408 61.0516 116.284 61.2723 116.063C61.493 115.842 61.6171 115.543 61.6171 115.231C61.6171 114.919 61.493 114.619 61.2723 114.398C61.0516 114.178 60.7523 114.054 60.4401 114.054H46.1766Z" fill="#3DADE2"/>
<path d="M21.6125 119.917C21.3003 119.917 21.001 120.041 20.7803 120.262C20.5596 120.482 20.4355 120.782 20.4355 121.094C20.4355 121.406 20.5596 121.705 20.7803 121.926C21.001 122.147 21.3003 122.271 21.6125 122.271H41.3424C41.6546 122.271 41.9539 122.147 42.1746 121.926C42.3953 121.705 42.5194 121.406 42.5194 121.094C42.5194 120.782 42.3953 120.482 42.1746 120.262C41.9539 120.041 41.6546 119.917 41.3424 119.917H21.6125Z" fill="#3DADE2"/>
<path d="M24.4055 81.1543C24.0933 81.1543 23.794 81.2783 23.5733 81.499C23.3525 81.7197 23.2285 82.0191 23.2285 82.3312C23.2285 82.6434 23.3525 82.9427 23.5733 83.1635C23.794 83.3842 24.0933 83.5082 24.4055 83.5082H30.612C30.9242 83.5082 31.2235 83.3842 31.4442 83.1635C31.6649 82.9427 31.789 82.6434 31.789 82.3312C31.789 82.0191 31.6649 81.7197 31.4442 81.499C31.2235 81.2783 30.9242 81.1543 30.612 81.1543H24.4055ZM38.1702 81.1543C37.8581 81.1543 37.5587 81.2783 37.338 81.499C37.1173 81.7197 36.9933 82.0191 36.9933 82.3312C36.9933 82.6434 37.1173 82.9427 37.338 83.1635C37.5587 83.3842 37.8581 83.5082 38.1702 83.5082H54.7647C55.0768 83.5082 55.3762 83.3842 55.5969 83.1635C55.8176 82.9427 55.9416 82.6434 55.9416 82.3312C55.9416 82.0191 55.8176 81.7197 55.5969 81.499C55.3762 81.2783 55.0768 81.1543 54.7647 81.1543H38.1702Z" fill="#3DADE2"/>
<path d="M13.1603 74.3037C12.8482 74.3037 12.5489 74.4277 12.3281 74.6484C12.1074 74.8691 11.9834 75.1685 11.9834 75.4807C11.9834 75.7928 12.1074 76.0922 12.3281 76.3129C12.5489 76.5336 12.8482 76.6576 13.1603 76.6576H31.3088C31.6209 76.6576 31.9202 76.5336 32.141 76.3129C32.3617 76.0922 32.4857 75.7928 32.4857 75.4807C32.4857 75.1685 32.3617 74.8691 32.141 74.6484C31.9202 74.4277 31.6209 74.3037 31.3088 74.3037H13.1603Z" fill="#3DADE2"/>
<path d="M1.17695 94.9883C0.8648 94.9883 0.565457 95.1123 0.344736 95.333C0.124016 95.5537 0 95.8531 0 96.1652C0 96.4774 0.124016 96.7767 0.344736 96.9975C0.565457 97.2182 0.8648 97.3422 1.17695 97.3422H19.0081C19.3203 97.3422 19.6196 97.2182 19.8403 96.9975C20.0611 96.7767 20.1851 96.4774 20.1851 96.1652C20.1851 95.8531 20.0611 95.5537 19.8403 95.333C19.6196 95.1123 19.3203 94.9883 19.0081 94.9883H1.17695ZM25.5457 94.9883C25.2335 94.9883 24.9342 95.1123 24.7135 95.333C24.4928 95.5537 24.3687 95.8531 24.3687 96.1652C24.3687 96.4774 24.4928 96.7767 24.7135 96.9975C24.9342 97.2182 25.2335 97.3422 25.5457 97.3422H34.6325C34.9447 97.3422 35.244 97.2182 35.4647 96.9975C35.6855 96.7767 35.8095 96.4774 35.8095 96.1652C35.8095 95.8531 35.6855 95.5537 35.4647 95.333C35.244 95.1123 34.9447 94.9883 34.6325 94.9883H25.5457Z" fill="#3DADE2"/>
<path d="M5.76972 18.4883C5.45757 18.4883 5.15823 18.6123 4.93751 18.833C4.71679 19.0537 4.59277 19.3531 4.59277 19.6652C4.59277 19.9774 4.71679 20.2767 4.93751 20.4975C5.15823 20.7182 5.45757 20.8422 5.76972 20.8422H21.8263C22.1384 20.8422 22.4378 20.7182 22.6585 20.4975C22.8792 20.2767 23.0032 19.9774 23.0032 19.6652C23.0032 19.3531 22.8792 19.0537 22.6585 18.833C22.4378 18.6123 22.1384 18.4883 21.8263 18.4883H5.76972ZM30.5913 18.4883C30.2792 18.4883 29.9798 18.6123 29.7591 18.833C29.5384 19.0537 29.4144 19.3531 29.4144 19.6652C29.4144 19.9774 29.5384 20.2767 29.7591 20.4975C29.9798 20.7182 30.2792 20.8422 30.5913 20.8422H49.5006C49.8127 20.8422 50.1121 20.7182 50.3328 20.4975C50.5535 20.2767 50.6775 19.9774 50.6775 19.6652C50.6775 19.3531 50.5535 19.0537 50.3328 18.833C50.1121 18.6123 49.8127 18.4883 49.5006 18.4883H30.5913Z" fill="#3DADE2"/>
<path d="M44.9035 12.2773C44.5914 12.2773 44.292 12.4013 44.0713 12.6221C43.8506 12.8428 43.7266 13.1421 43.7266 13.4543C43.7266 13.7664 43.8506 14.0658 44.0713 14.2865C44.292 14.5072 44.5914 14.6312 44.9035 14.6312H60.8038C61.1159 14.6312 61.4153 14.5072 61.636 14.2865C61.8567 14.0658 61.9807 13.7664 61.9807 13.4543C61.9807 13.1421 61.8567 12.8428 61.636 12.6221C61.4153 12.4013 61.1159 12.2773 60.8038 12.2773H44.9035Z" fill="#3DADE2"/>
<path d="M103.418 100.421C103.132 100.306 102.814 100.308 102.53 100.427C102.247 100.545 102.021 100.77 101.902 101.053L100.067 105.405L96.1715 108.079C95.9978 108.198 95.8592 108.361 95.7705 108.552C95.6817 108.743 95.6461 108.954 95.6672 109.164C95.6883 109.373 95.7655 109.573 95.8906 109.742C96.0156 109.911 96.184 110.044 96.3779 110.126L100.732 111.962L103.407 115.855C103.526 116.028 103.689 116.166 103.88 116.254C104.07 116.343 104.281 116.378 104.49 116.357C104.699 116.336 104.899 116.258 105.068 116.134C105.237 116.009 105.369 115.841 105.451 115.647L107.286 111.296L111.181 108.622C111.355 108.503 111.493 108.34 111.582 108.149C111.671 107.958 111.707 107.747 111.686 107.537C111.664 107.328 111.587 107.128 111.462 106.959C111.337 106.789 111.169 106.657 110.975 106.575L106.621 104.739L103.946 100.846C103.816 100.655 103.632 100.507 103.418 100.421ZM103.229 103.937L104.884 106.349C105.011 106.533 105.189 106.677 105.395 106.764L108.091 107.903L105.679 109.558C105.494 109.684 105.35 109.861 105.262 110.068L104.123 112.763L102.468 110.352C102.341 110.168 102.164 110.024 101.958 109.937L99.2639 108.799L101.675 107.144C101.86 107.017 102.004 106.84 102.09 106.633L103.229 103.937Z" fill="#3DADE2"/>
<path d="M160.506 36.3262C158.589 36.3262 157.01 37.9036 157.01 39.8202C157.01 41.7369 158.589 43.3166 160.506 43.3166C162.1 43.3166 163.243 42.1207 163.655 40.6501C163.765 40.5413 163.851 40.4119 163.911 40.2695C163.97 40.1271 164 39.9744 164 39.8202C164 39.666 163.97 39.5133 163.911 39.3709C163.851 39.2285 163.765 39.0992 163.655 38.9904C163.243 37.5197 162.1 36.3262 160.506 36.3262ZM160.506 38.6686C161.157 38.6686 161.658 39.1696 161.658 39.8202C161.658 40.4709 161.157 40.9742 160.506 40.9742C159.855 40.9742 159.352 40.4709 159.352 39.8202C159.352 39.1696 159.855 38.6686 160.506 38.6686Z" fill="#3DADE2"/>
<path d="M147.567 67.2629C147.403 67.0031 147.144 66.818 146.845 66.7478C146.545 66.6775 146.231 66.7276 145.968 66.8872L141.93 69.3372L137.207 69.2203C136.997 69.2147 136.789 69.2659 136.605 69.3685C136.421 69.4711 136.269 69.6214 136.163 69.8034C136.057 69.9854 136.003 70.1926 136.005 70.403C136.007 70.6135 136.066 70.8195 136.175 70.9994L138.626 75.0391L138.511 79.761C138.506 79.9711 138.558 80.1786 138.66 80.3619C138.763 80.5453 138.913 80.6976 139.095 80.8029C139.277 80.9083 139.484 80.9628 139.694 80.9608C139.904 80.9587 140.11 80.9002 140.289 80.7913L144.327 78.3413L149.05 78.4582C149.26 78.4638 149.468 78.4126 149.652 78.31C149.836 78.2074 149.989 78.0572 150.094 77.8751C150.2 77.6931 150.255 77.486 150.252 77.2755C150.25 77.0651 150.192 76.859 150.082 76.6792L147.631 72.6394L147.746 67.9175C147.752 67.6865 147.69 67.4587 147.567 67.2629ZM145.353 70.0018L145.281 72.9257C145.276 73.1495 145.335 73.3701 145.451 73.5613L146.968 76.0643L144.044 75.9916C143.82 75.9857 143.599 76.0442 143.407 76.1601L140.904 77.6768L140.977 74.7529C140.982 74.5291 140.923 74.3085 140.806 74.1172L139.291 71.6163L142.215 71.6889C142.439 71.694 142.659 71.6349 142.85 71.5185L145.353 70.0018Z" fill="#3DADE2"/>
<path d="M107.964 6.5625C106.047 6.56249 104.47 8.13992 104.47 10.0566C104.47 11.9732 106.047 13.5529 107.964 13.5529C109.557 13.5529 110.7 12.358 111.113 10.8887C111.223 10.7798 111.31 10.6502 111.37 10.5074C111.429 10.3645 111.46 10.2113 111.46 10.0566C111.46 9.90273 111.429 9.75048 111.37 9.60849C111.311 9.4665 111.224 9.33756 111.115 9.22902C110.704 7.75716 109.559 6.5625 107.964 6.5625ZM107.964 8.9049C108.614 8.9049 109.118 9.40592 109.118 10.0566C109.118 10.7072 108.614 11.2105 107.964 11.2105C107.313 11.2105 106.812 10.7072 106.812 10.0566C106.812 9.40592 107.313 8.9049 107.964 8.9049Z" fill="#3DADE2"/>
<path d="M106.118 68.6953C104.202 68.6953 102.622 70.2727 102.622 72.1894C102.622 74.106 104.202 75.6857 106.118 75.6857C107.713 75.6857 108.855 74.4899 109.268 73.0192C109.377 72.9104 109.464 72.7811 109.523 72.6387C109.582 72.4963 109.612 72.3436 109.612 72.1894C109.612 72.0352 109.582 71.8825 109.523 71.7401C109.464 71.5977 109.377 71.4683 109.268 71.3595C108.855 69.8889 107.713 68.6953 106.118 68.6953ZM106.118 71.0377C106.769 71.0377 107.27 71.5387 107.27 72.1894C107.27 72.84 106.769 73.3433 106.118 73.3433C105.468 73.3433 104.964 72.84 104.964 72.1894C104.964 71.5387 105.468 71.0377 106.118 71.0377Z" fill="#3DADE2"/>
<path d="M77.7977 0C77.1734 0 76.5748 0.247997 76.1333 0.689437C75.6919 1.13088 75.4438 1.7296 75.4438 2.35389V136.68C75.4438 137.304 75.6919 137.903 76.1333 138.344C76.5748 138.786 77.1734 139.034 77.7977 139.034C78.422 139.034 79.0207 138.786 79.4622 138.344C79.9036 137.903 80.1516 137.304 80.1516 136.68V2.35389C80.1516 1.7296 79.9036 1.13088 79.4622 0.689437C79.0207 0.247997 78.422 0 77.7977 0Z" fill="#3DADE2"/>
</svg>
