<svg width="164" height="152" viewBox="0 0 164 152" fill="none" xmlns="http://www.w3.org/2000/svg">
<path d="M102.181 16.676C94.1859 16.7615 89.0081 19.3697 88.3206 19.7253C87.6996 19.4042 83.6405 17.3188 76.7383 16.7958C74.2609 16.6081 71.4892 16.6451 68.4958 17.0784C56.5222 18.8119 41.0484 26.8916 26.8738 51.4428C19.7213 63.8314 18.5549 75.0006 20.9474 84.6317C23.3399 94.2627 29.221 102.313 35.9298 108.767C36.479 109.296 37.0356 109.81 37.5951 110.317L34.2221 113.654C33.3577 113.31 32.4924 113.061 31.6441 112.917C29.1613 112.494 26.6941 112.976 25.143 114.737C23.5919 116.498 23.423 119.009 24.1555 121.419C24.888 123.828 26.5066 126.269 28.8363 128.321C31.1662 130.373 33.7926 131.671 36.2753 132.093C38.4703 132.467 40.5569 131.971 42.1052 130.671C42.3657 130.611 42.6007 130.471 42.7777 130.271C42.9538 130.071 43.0632 129.821 43.0907 129.556C44.1858 127.855 44.4116 125.723 43.7638 123.592C43.4389 122.523 42.9388 121.448 42.2806 120.404L45.794 116.891C52.087 121.376 58.0988 124.565 61.953 126.416C59.1874 127.33 57.4322 129.244 56.4873 131.109C55.1844 133.68 55.1694 136.215 55.1694 136.215L57.7309 136.25C57.7309 136.25 57.7745 134.241 58.774 132.267C59.774 130.294 61.4882 128.425 65.5384 128.425H79.084C79.4837 128.649 80.171 128.996 81.171 129.328C82.7564 129.854 85.1228 130.361 88.3206 130.361C91.5181 130.361 93.8821 129.854 95.4677 129.328C96.4676 128.996 97.1549 128.649 97.5546 128.425H111.103C115.153 128.425 116.867 130.294 117.867 132.267C118.867 134.241 118.91 136.25 118.91 136.25L121.472 136.215C121.472 136.215 121.454 133.68 120.151 131.109C119.206 129.244 117.452 127.33 114.687 126.416C118.541 124.564 124.552 121.375 130.845 116.89L134.359 120.404C133.701 121.448 133.201 122.523 132.876 123.592C132.228 125.723 132.454 127.855 133.549 129.556C133.576 129.821 133.686 130.071 133.862 130.271C134.039 130.471 134.274 130.611 134.535 130.671C136.083 131.971 138.17 132.467 140.365 132.093C142.847 131.671 145.474 130.373 147.804 128.321C150.133 126.269 151.752 123.828 152.484 121.419C153.217 119.009 153.048 116.498 151.497 114.737C149.946 112.976 147.478 112.494 144.996 112.917C144.147 113.061 143.282 113.31 142.418 113.654L139.044 110.317C139.603 109.809 140.16 109.296 140.709 108.767C147.418 102.313 153.299 94.2627 155.692 84.6317C158.084 75.0006 156.918 63.8314 149.765 51.4428C135.591 26.8916 120.12 18.8119 108.146 17.0784C106.021 16.7708 104.026 16.6562 102.181 16.676ZM73.8273 19.2421C82.2469 19.205 87.7056 22.1968 87.7056 22.1968L88.3206 22.5317L88.9334 22.1968C88.9334 22.1968 96.6014 17.9946 107.779 19.6128C118.956 21.2309 133.651 28.6564 147.547 52.7236C154.429 64.6441 155.441 75.0137 153.205 84.0141C150.969 93.0145 145.416 100.688 138.936 106.921C126.442 118.94 110.794 125.409 109.676 125.863H98.4969V122.466C116.18 119.481 130.29 106.226 134.566 89.0093C135.798 88.4735 137.17 87.846 138.468 87.0012C139.951 86.0359 141.327 84.9029 142.003 83.3337C142.874 81.3112 143.107 78.7021 142.785 76.2621C143.975 75.7698 145.128 75.1492 146.233 74.4102C146.373 74.3167 146.493 74.1965 146.587 74.0566C146.68 73.9167 146.745 73.7597 146.778 73.5946C146.811 73.4296 146.811 73.2598 146.778 73.0948C146.745 72.9298 146.68 72.7728 146.586 72.633C146.397 72.3508 146.104 72.1552 145.771 72.0891C145.438 72.0231 145.092 72.0921 144.81 72.2809C142.138 74.0676 139.274 75.0224 136.272 75.0224C131.095 75.0223 126.179 72.1322 122.171 66.9573C118.164 61.7825 115.143 54.3541 113.914 45.6182L113.655 43.7735L112.025 44.6763C105.575 48.2497 97.1033 50.268 88.3199 50.268C79.5364 50.268 71.0651 48.2497 64.6145 44.6763L62.985 43.7735L62.7255 45.6182C61.4969 54.354 58.4763 61.7825 54.4685 66.9573C50.4609 72.1322 45.545 75.0223 40.3677 75.0224C37.8104 75.0224 35.3556 74.3287 33.0295 73.0189C32.7335 72.8524 32.3834 72.8102 32.0564 72.9017C31.7293 72.9932 31.452 73.2108 31.2854 73.5067C31.1188 73.8026 31.0765 74.1525 31.1678 74.4796C31.2592 74.8066 31.4767 75.084 31.7724 75.2508C32.451 75.6329 33.1454 75.9713 33.8535 76.2641C33.532 78.7035 33.765 81.3119 34.6363 83.3337C35.3123 84.9029 36.6876 86.0359 38.1709 87.0012C39.468 87.8454 40.8418 88.4717 42.0733 89.0074C46.348 106.226 60.459 119.482 78.144 122.466V125.864L66.9635 125.863C65.845 125.409 50.1996 118.94 37.7056 106.921C31.2258 100.688 25.6699 93.0145 23.4341 84.0141C21.1983 75.0137 22.2101 64.6441 29.0924 52.7235C42.9877 28.6563 57.6834 21.2309 68.8605 19.6128C70.6069 19.3599 72.2682 19.249 73.8273 19.2421ZM64.9674 47.7223C71.6315 51.0283 79.8282 52.8294 88.3199 52.8294C96.8114 52.8294 105.008 51.0283 111.672 47.7223C113.094 56.0781 116.079 63.2746 120.146 68.526C121.714 70.5512 123.453 72.2879 125.32 73.6881C124.025 74.5879 122.374 75.2065 120.145 75.6922C119.051 75.0073 117.725 74.3661 116.153 73.8926C114.247 73.3187 111.984 72.991 109.346 73.1327C104.083 73.4155 100.661 75.3062 98.6103 77.1755C96.56 79.0449 96.1248 81.7227 96.1248 81.7227C96.1248 81.7227 98.6835 80.5745 100.335 79.0686C101.987 77.5627 104.761 75.944 109.483 75.6903C114.19 75.4373 117.328 76.8171 119.341 78.2293C121.352 79.6415 125.411 81.7273 125.411 81.7273C125.411 81.7273 125.03 81.057 124.428 80.164C127.392 79.7263 127.718 77.5455 128.426 75.6386C130.896 76.8969 133.535 77.5839 136.272 77.5839C137.637 77.5839 138.978 77.4125 140.283 77.0881C140.438 78.9929 140.199 81.0503 139.652 82.3203C139.336 83.0533 138.35 84.0207 137.072 84.852C135.795 85.6834 134.272 86.4075 133.02 86.931L132.414 87.1832L132.266 87.8213C127.884 106.617 111.104 120.538 90.9152 120.538H85.724C65.5357 120.538 48.7569 106.617 44.3748 87.8213L44.2251 87.1832L43.6196 86.931C42.3672 86.4075 40.8443 85.6834 39.5668 84.852C38.2895 84.0207 37.3059 83.0533 36.9902 82.3203C36.4431 81.0504 36.2023 78.9933 36.3573 77.0888C37.6626 77.4128 39.0031 77.5839 40.3677 77.5839C43.1049 77.5839 45.7438 76.8969 48.2143 75.6386C48.9223 77.5455 49.2477 79.7263 52.2115 80.164C51.6099 81.057 51.2286 81.7273 51.2286 81.7273C51.2286 81.7273 55.2874 79.6415 57.2993 78.2293C59.3114 76.8171 62.4494 75.4373 67.1568 75.6903C71.8784 75.944 74.6531 77.5627 76.3047 79.0686C77.9563 80.5745 80.5151 81.7227 80.5151 81.7227C80.5151 81.7227 80.0799 79.0449 78.0296 77.1755C75.9793 75.3061 72.5563 73.4155 67.2937 73.1327C64.6554 72.991 62.393 73.3187 60.487 73.8926C58.9143 74.3661 57.5889 75.0078 56.4946 75.6929C54.2652 75.2071 52.6149 74.5879 51.3199 73.6881C53.1868 72.2879 54.9255 70.5512 56.494 68.526C60.561 63.2746 63.5463 56.0781 64.9674 47.7223ZM89.193 56.9775C88.9632 57.0181 88.6457 57.0708 88.5085 57.098C87.357 57.3254 86.2235 57.4394 85.1025 57.4587C83.9814 57.4781 82.8722 57.402 81.7792 57.2502C80.6861 57.0985 76.8197 57.0841 76.8197 57.0841C76.8197 57.0841 80.2141 59.6203 81.4264 59.7886C82.6386 59.9569 83.8796 60.0414 85.1441 60.0196C86.4087 59.9978 87.6971 59.8692 89.0036 59.6112C89.0587 59.5997 89.1266 59.577 89.193 59.5556V56.9775ZM69.2853 58.5951C65.9607 58.5437 61.1325 62.1506 61.6915 63.5182C62.2879 64.9771 75.1302 65.273 76.5569 64.6898C77.9836 64.1065 73.228 59.259 69.9281 58.656C69.7219 58.6184 69.507 58.5984 69.2853 58.5951ZM107.354 58.5951C107.133 58.599 106.918 58.6183 106.712 58.6559C103.412 59.2589 98.6563 64.1064 100.083 64.6897C101.51 65.273 114.351 64.977 114.948 63.5182C115.507 62.1505 110.679 58.5438 107.354 58.5951ZM125.842 74.0667C126.6 74.6024 127.377 75.088 128.173 75.5082C126.856 76.5701 125.157 77.2775 122.78 77.8188C124.812 77.2309 125.31 75.6318 125.842 74.0667ZM50.7977 74.0674C51.3296 75.6322 51.828 77.2309 53.8588 77.8189C51.4821 77.2776 49.7842 76.57 48.4665 75.5082C49.2629 75.0881 50.0397 74.6031 50.7977 74.0674ZM83.5683 79.8681C83.5683 79.8681 82.3643 83.9851 81.214 85.281C80.0635 86.5769 76.5503 91.2134 76.5503 91.2134C76.5503 91.2134 81.7069 88.5837 83.13 86.9807C84.553 85.3776 83.5683 79.8681 83.5683 79.8681ZM49.4957 84.9494C49.4957 84.9532 48.5669 89.4912 49.4829 91.596C50.4034 93.7017 51.8346 96.367 53.9598 98.6338C56.1893 101.012 58.9137 101.827 61.0122 102.027C63.1107 102.226 66.2729 99.5829 66.2729 99.5829C66.2729 99.5829 62.9231 99.6339 61.2538 99.4751C59.5845 99.3162 57.5524 98.7192 55.829 96.8812C54.0017 94.9323 52.6761 92.503 51.8305 90.5688C50.9853 88.6352 49.4932 84.9531 49.4921 84.9507L49.4957 84.9494ZM76.5172 105.584C76.5172 105.584 81.8411 108.475 88.3185 108.475C94.796 108.475 100.121 105.584 100.121 105.584C100.121 105.584 94.3567 105.913 88.3185 105.913C82.2805 105.913 76.5172 105.584 76.5172 105.584ZM137.114 112.013L140.007 114.871C139.168 115.388 138.345 115.994 137.556 116.689C136.96 117.214 136.411 117.765 135.911 118.334L132.938 115.361C134.334 114.309 135.731 113.19 137.114 112.013ZM39.5238 112.014C40.9065 113.191 42.3049 114.309 43.7009 115.361L40.7277 118.334C40.2276 117.765 39.6787 117.214 39.0823 116.689C38.2937 115.994 37.4707 115.388 36.6314 114.871L39.5238 112.014ZM29.8743 115.329C30.2893 115.324 30.7362 115.36 31.2132 115.441C33.1215 115.766 35.3803 116.841 37.3892 118.611C39.3979 120.38 40.7499 122.485 41.313 124.337C41.8759 126.189 41.6656 127.657 40.8549 128.577C40.0441 129.498 38.6131 129.894 36.7048 129.569C34.7967 129.244 32.5377 128.169 30.5288 126.399C28.5201 124.63 27.1681 122.525 26.6051 120.673C26.0421 118.821 26.2538 117.351 27.0646 116.43C27.6726 115.74 28.6291 115.346 29.8743 115.329ZM146.764 115.329C148.009 115.346 148.966 115.74 149.574 116.431C150.385 117.351 150.596 118.821 150.033 120.673C149.47 122.525 148.118 124.63 146.11 126.399C144.101 128.169 141.842 129.244 139.934 129.569C138.025 129.894 136.594 129.498 135.784 128.577C134.973 127.657 134.763 126.189 135.326 124.337C135.889 122.485 137.241 120.38 139.249 118.611C141.258 116.841 143.517 115.766 145.425 115.441C145.902 115.36 146.349 115.324 146.764 115.329ZM95.9348 122.822V126.334C95.7072 126.467 95.5936 126.587 94.6615 126.896C93.3305 127.338 91.2476 127.8 88.3199 127.8C85.3921 127.8 83.3094 127.338 81.9783 126.896C81.0481 126.587 80.9331 126.47 80.7049 126.336V122.823C82.3521 123.005 84.0262 123.099 85.7234 123.099H90.9146C92.6124 123.099 94.287 123.004 95.9348 122.822Z" fill="#30414D"/>
<path d="M73.8306 16.6882C72.1507 16.6908 70.3667 16.8072 68.4958 17.0781C56.5222 18.8115 41.0484 26.8912 26.8738 51.4424C19.7213 63.831 18.5549 75.0002 20.9474 84.6313C23.3399 94.2624 29.221 102.313 35.9298 108.767C36.479 109.295 37.0356 109.81 37.5951 110.317L34.2221 113.654C33.3577 113.31 32.4924 113.061 31.6441 112.916C29.1613 112.494 26.6941 112.976 25.143 114.737C23.5919 116.498 23.423 119.009 24.1555 121.418C24.888 123.828 26.5066 126.269 28.8363 128.321C31.1662 130.373 33.7926 131.671 36.2753 132.093C38.4703 132.466 40.5569 131.97 42.1052 130.671C42.3657 130.611 42.6007 130.471 42.7777 130.27C42.9538 130.07 43.0632 129.82 43.0907 129.555C44.1858 127.855 44.4116 125.722 43.7638 123.591C43.4389 122.522 42.9388 121.448 42.2806 120.403L45.794 116.89C52.087 121.375 58.0988 124.564 61.953 126.416C59.1874 127.33 57.4322 129.244 56.4873 131.109C55.1844 133.68 55.1694 136.215 55.1694 136.215L57.7309 136.25C57.7309 136.25 57.7745 134.24 58.774 132.267C59.774 130.294 61.4882 128.425 65.5384 128.425H79.084C79.4837 128.648 80.171 128.996 81.171 129.328C82.7564 129.854 85.1228 130.361 88.3206 130.361C88.5428 130.361 88.7515 130.353 88.9658 130.348V127.787C88.7524 127.792 88.5437 127.799 88.3206 127.799C85.3927 127.799 83.31 127.338 81.979 126.896C81.0487 126.587 80.9339 126.47 80.7057 126.336V122.823C82.3529 123.004 84.0268 123.099 85.724 123.099H88.9658V120.537H85.724C65.5357 120.537 48.7569 106.616 44.3748 87.8209L44.2251 87.1829L43.6196 86.9307C42.3672 86.4071 40.8443 85.6831 39.5668 84.8517C38.2895 84.0203 37.3059 83.0529 36.9902 82.32C36.4431 81.05 36.2023 78.993 36.3573 77.0885C37.6626 77.4124 39.0031 77.5836 40.3677 77.5836C43.1048 77.5835 45.7438 76.8965 48.2143 75.6382C48.9223 77.5451 49.2477 79.7259 52.2115 80.1636C51.6099 81.0566 51.2286 81.7269 51.2286 81.7269C51.2286 81.7269 55.2874 79.6411 57.2993 78.2289C59.3114 76.8167 62.4494 75.437 67.1568 75.6899C71.8784 75.9436 74.6531 77.5623 76.3047 79.0682C77.9563 80.5741 80.5151 81.7223 80.5151 81.7223C80.5151 81.7223 80.0799 79.0446 78.0296 77.1752C75.9793 75.3058 72.5563 73.4151 67.2937 73.1323C64.6554 72.9906 62.393 73.3183 60.487 73.8922C58.9143 74.3657 57.5889 75.0075 56.4946 75.6926C54.2652 75.2068 52.6149 74.5876 51.3199 73.6877C53.1868 72.2876 54.9255 70.5509 56.494 68.5256C60.561 63.2742 63.5463 56.0777 64.9674 47.722C71.6315 51.0279 79.8282 52.8291 88.3199 52.8291C88.5356 52.8291 88.7504 52.8227 88.9658 52.8201V50.258C88.7504 50.2605 88.5358 50.2669 88.3199 50.2669C79.5364 50.2669 71.0651 48.2487 64.6145 44.6753L62.985 43.7725L62.7255 45.6172C61.4969 54.353 58.4763 61.7815 54.4685 66.9563C50.4609 72.1311 45.5449 75.0213 40.3677 75.0214C37.8104 75.0214 35.3556 74.3277 33.0295 73.0179C32.7335 72.8514 32.3834 72.8091 32.0564 72.9006C31.7293 72.9921 31.4521 73.2098 31.2854 73.5057C31.1188 73.8016 31.0765 74.1515 31.1678 74.4786C31.2592 74.8056 31.4766 75.083 31.7724 75.2498C32.451 75.6319 33.1454 75.9703 33.8535 76.2631C33.532 78.7025 33.765 81.3109 34.6363 83.3327C35.3123 84.9019 36.6876 86.0348 38.1709 87.0002C39.468 87.8443 40.8418 88.4707 42.0733 89.0064C46.348 106.225 60.459 119.481 78.144 122.465V125.863L66.9635 125.862C65.845 125.408 50.1996 118.939 37.7056 106.92C31.2258 100.687 25.6699 93.0135 23.4341 84.0131C21.1983 75.0127 22.2101 64.6431 29.0924 52.7225C42.9877 28.6553 57.6834 21.2299 68.8605 19.6118C70.6069 19.3589 72.2682 19.248 73.8273 19.2411C82.2469 19.2039 87.7056 22.1958 87.7056 22.1958L88.3206 22.5307L88.9334 22.1958C88.9334 22.1958 88.9642 22.1803 88.9655 22.1792V19.4145C88.6627 19.5545 88.424 19.6706 88.3201 19.7243C87.6993 19.4032 83.64 17.3177 76.7378 16.7948C75.8087 16.7243 74.8381 16.6856 73.8301 16.6876L73.8306 16.6882ZM88.9658 57.0168C88.7932 57.0465 88.6002 57.0794 88.5085 57.0975C87.357 57.3249 86.2235 57.4389 85.1025 57.4582C83.9814 57.4776 82.8722 57.4015 81.7792 57.2497C80.6861 57.098 76.8197 57.0836 76.8197 57.0836C76.8197 57.0836 80.2141 59.6198 81.4264 59.788C82.6386 59.9563 83.8796 60.0408 85.1441 60.0191C86.3965 59.9975 87.6723 59.8703 88.9658 59.6173V57.0168ZM69.2853 58.5947C65.9607 58.5434 61.1325 62.1502 61.6915 63.5179C62.2879 64.9767 75.1302 65.2727 76.5569 64.6894C77.9836 64.1061 73.228 59.2586 69.9281 58.6556C69.7219 58.618 69.507 58.5981 69.2853 58.5948V58.5947ZM50.7977 74.0669C51.3296 75.6318 51.828 77.2305 53.8588 77.8185C51.4821 77.2772 49.7842 76.5696 48.4665 75.5078C49.2629 75.0877 50.0397 74.6026 50.7977 74.0669ZM83.5683 79.8677C83.5683 79.8677 82.3643 83.9847 81.214 85.2806C80.0635 86.5765 76.5503 91.213 76.5503 91.213C76.5503 91.213 81.7069 88.5833 83.13 86.9803C84.553 85.3773 83.5683 79.8677 83.5683 79.8677ZM49.4957 84.949V84.9502V84.949ZM49.4957 84.9502C49.4957 84.9541 48.5669 89.4908 49.4829 91.5956C50.4034 93.7013 51.8346 96.3666 53.9598 98.6334C56.1893 101.011 58.9137 101.827 61.0122 102.026C63.1107 102.226 66.2729 99.5826 66.2729 99.5826C66.2729 99.5826 62.9231 99.6335 61.2538 99.4747C59.5845 99.3159 57.5524 98.7188 55.829 96.8807C54.0017 94.9318 52.6761 92.5026 51.8305 90.5684C50.9853 88.6348 49.4932 84.9528 49.4921 84.9503L49.4957 84.9502ZM76.5172 105.584C76.5172 105.584 81.8411 108.474 88.3185 108.474C88.5368 108.474 88.7498 108.463 88.9652 108.457V105.909C88.7483 105.909 88.5364 105.913 88.3185 105.913C82.2805 105.913 76.5172 105.584 76.5172 105.584V105.584ZM39.5238 112.013C40.9065 113.191 42.3049 114.309 43.7009 115.361L40.7277 118.334C40.2276 117.764 39.6787 117.214 39.0823 116.688C38.2937 115.994 37.4707 115.388 36.6314 114.871L39.5238 112.013ZM29.8743 115.329C30.2893 115.324 30.7362 115.359 31.2132 115.441C33.1215 115.765 35.3803 116.841 37.3892 118.61C39.3979 120.38 40.7499 122.484 41.313 124.336C41.8759 126.188 41.6656 127.657 40.8549 128.577C40.0441 129.497 38.6131 129.893 36.7048 129.568C34.7967 129.244 32.5377 128.168 30.5288 126.399C28.5201 124.629 27.1681 122.525 26.6051 120.673C26.0421 118.821 26.2538 117.351 27.0646 116.43C27.6726 115.74 28.6291 115.346 29.8743 115.329V115.329Z" fill="#608199"/>
<path d="M25.3839 27.8125C25.0442 27.8125 24.7185 27.9475 24.4783 28.1877C24.2381 28.4279 24.103 28.7536 24.103 29.0933C24.103 29.433 24.2381 29.7588 24.4783 29.999C24.7185 30.2392 25.0442 30.3741 25.3839 30.3741H32.646C32.9857 30.3741 33.3116 30.2392 33.5518 29.999C33.792 29.7588 33.9268 29.433 33.9268 29.0933C33.9268 28.7536 33.792 28.4279 33.5518 28.1877C33.3116 27.9475 32.9857 27.8125 32.646 27.8125H25.3839ZM42.0646 27.8125C41.7249 27.8125 41.399 27.9475 41.1588 28.1877C40.9186 28.4279 40.7838 28.7536 40.7838 29.0933C40.7838 29.433 40.9186 29.7588 41.1588 29.999C41.399 30.2392 41.7249 30.3741 42.0646 30.3741H57.5871C57.9268 30.3741 58.2525 30.2392 58.4927 29.999C58.7329 29.7588 58.8679 29.433 58.8679 29.0933C58.8679 28.7536 58.7329 28.4279 58.4927 28.1877C58.2525 27.9475 57.9268 27.8125 57.5871 27.8125H42.0646Z" fill="#3DADE2"/>
<path d="M13.2359 44.293C12.8962 44.293 12.5705 44.4279 12.3303 44.6681C12.0901 44.9083 11.9551 45.2341 11.9551 45.5738C11.9551 45.9135 12.0901 46.2393 12.3303 46.4795C12.5705 46.7197 12.8962 46.8546 13.2359 46.8546H34.7072C35.0469 46.8546 35.3726 46.7197 35.6128 46.4795C35.853 46.2393 35.988 45.9135 35.988 45.5738C35.988 45.2341 35.853 44.9083 35.6128 44.6681C35.3726 44.4279 35.0469 44.293 34.7072 44.293H13.2359Z" fill="#3DADE2"/>
<path d="M41.419 21.5879C41.0793 21.5879 40.7536 21.7228 40.5134 21.963C40.2732 22.2032 40.1382 22.529 40.1382 22.8687C40.1382 23.2084 40.2732 23.5342 40.5134 23.7744C40.7536 24.0146 41.0793 24.1495 41.419 24.1495H59.4756C59.8153 24.1495 60.141 24.0146 60.3812 23.7744C60.6214 23.5342 60.7565 23.2084 60.7565 22.8687C60.7565 22.529 60.6214 22.2032 60.3812 21.963C60.141 21.7228 59.8153 21.5879 59.4756 21.5879H41.419ZM67.7034 21.5879C67.3637 21.5879 67.038 21.7228 66.7978 21.963C66.5576 22.2032 66.4226 22.529 66.4226 22.8687C66.4226 23.2084 66.5576 23.5342 66.7978 23.7744C67.038 24.0146 67.3637 24.1495 67.7034 24.1495H74.4578C74.7975 24.1495 75.1233 24.0146 75.3635 23.7744C75.6037 23.5342 75.7386 23.2084 75.7386 22.8687C75.7386 22.529 75.6037 22.2032 75.3635 21.963C75.1233 21.7228 74.7975 21.5879 74.4578 21.5879H67.7034Z" fill="#3DADE2"/>
<path d="M5.79352 77.5215C5.45382 77.5215 5.12798 77.6564 4.88778 77.8966C4.64758 78.1368 4.5127 78.4626 4.5127 78.8023C4.5127 79.142 4.64758 79.4678 4.88778 79.708C5.12798 79.9482 5.45382 80.0831 5.79352 80.0831H25.5462C25.8859 80.0831 26.2118 79.9482 26.452 79.708C26.6922 79.4678 26.8271 79.142 26.8271 78.8023C26.8271 78.4626 26.6922 78.1368 26.452 77.8966C26.2118 77.6564 25.8859 77.5215 25.5462 77.5215H5.79352Z" fill="#3DADE2"/>
<path d="M9.38092 68.2129C9.04123 68.2129 8.71538 68.3479 8.47518 68.5881C8.23498 68.8283 8.1001 69.154 8.1001 69.4937C8.1001 69.8334 8.23498 70.1592 8.47518 70.3994C8.71538 70.6396 9.04123 70.7745 9.38092 70.7745H28.7859C29.1256 70.7745 29.4514 70.6396 29.6917 70.3994C29.9319 70.1592 30.0667 69.8334 30.0667 69.4937C30.0667 69.154 29.9319 68.8283 29.6917 68.5881C29.4514 68.3479 29.1256 68.2129 28.7859 68.2129H9.38092ZM35.903 68.2129C35.5633 68.2129 35.2375 68.3479 34.9973 68.5881C34.7571 68.8283 34.6222 69.154 34.6222 69.4937C34.6222 69.8334 34.7571 70.1592 34.9973 70.3994C35.2375 70.6396 35.5633 70.7745 35.903 70.7745H45.7894C46.129 70.7745 46.4549 70.6396 46.6951 70.3994C46.9353 70.1592 47.0702 69.8334 47.0702 69.4937C47.0702 69.154 46.9353 68.8283 46.6951 68.5881C46.4549 68.3479 46.129 68.2129 45.7894 68.2129H35.903Z" fill="#3DADE2"/>
<path d="M1.28082 94.9727C0.941129 94.9727 0.615286 95.1076 0.375085 95.3478C0.134884 95.588 0 95.9138 0 96.2535C0 96.5932 0.134884 96.9189 0.375085 97.1591C0.615286 97.3993 0.941129 97.5343 1.28082 97.5343H18.7546C19.0943 97.5343 19.4201 97.3993 19.6603 97.1591C19.9005 96.9189 20.0354 96.5932 20.0354 96.2535C20.0354 95.9138 19.9005 95.588 19.6603 95.3478C19.4201 95.1076 19.0943 94.9727 18.7546 94.9727H1.28082ZM28.2932 94.9727C27.9535 94.9727 27.6277 95.1076 27.3875 95.3478C27.1473 95.588 27.0124 95.9138 27.0124 96.2535C27.0124 96.5932 27.1473 96.9189 27.3875 97.1591C27.6277 97.3993 27.9535 97.5343 28.2932 97.5343H48.874C49.2136 97.5343 49.5395 97.3993 49.7797 97.1591C50.0199 96.9189 50.1548 96.5932 50.1548 96.2535C50.1548 95.9138 50.0199 95.588 49.7797 95.3478C49.5395 95.1076 49.2136 94.9727 48.874 94.9727H28.2932Z" fill="#3DADE2"/>
<path d="M31.9581 122.708C31.6184 122.708 31.2927 122.843 31.0525 123.083C30.8123 123.323 30.6772 123.649 30.6772 123.989C30.6772 124.329 30.8123 124.654 31.0525 124.894C31.2927 125.135 31.6184 125.27 31.9581 125.27H49.2592C49.5989 125.27 49.9247 125.135 50.1649 124.894C50.4051 124.654 50.54 124.329 50.54 123.989C50.54 123.649 50.4051 123.323 50.1649 123.083C49.9247 122.843 49.5989 122.708 49.2592 122.708H31.9581Z" fill="#3DADE2"/>
<path d="M28.4732 35.3271C28.1335 35.3271 27.8078 35.4621 27.5676 35.7023C27.3274 35.9425 27.1924 36.2683 27.1924 36.608C27.1924 36.9477 27.3274 37.2735 27.5676 37.5137C27.8078 37.7539 28.1335 37.8888 28.4732 37.8888H41.2539C41.5936 37.8888 41.9195 37.7539 42.1597 37.5137C42.3999 37.2735 42.5348 36.9477 42.5348 36.608C42.5348 36.2683 42.3999 35.9425 42.1597 35.7023C41.9195 35.4621 41.5936 35.3271 41.2539 35.3271H28.4732ZM47.9157 35.3271C47.576 35.3271 47.2502 35.4621 47.01 35.7023C46.7698 35.9425 46.6349 36.2683 46.6349 36.608C46.6349 36.9477 46.7698 37.2735 47.01 37.5137C47.2502 37.7539 47.576 37.8888 47.9157 37.8888H56.146C56.4857 37.8888 56.8114 37.7539 57.0516 37.5137C57.2918 37.2735 57.4268 36.9477 57.4268 36.608C57.4268 36.2683 57.2918 35.9425 57.0516 35.7023C56.8114 35.4621 56.4857 35.3271 56.146 35.3271H47.9157Z" fill="#3DADE2"/>
<path d="M157.357 95.976C157.154 95.7104 156.854 95.5354 156.523 95.4887C156.192 95.4419 155.856 95.5272 155.587 95.726L151.452 98.7784L146.321 99.1161C146.093 99.1307 145.872 99.2066 145.683 99.3359C145.494 99.4651 145.343 99.643 145.247 99.8507C145.15 100.058 145.111 100.288 145.134 100.516C145.157 100.744 145.241 100.961 145.377 101.146L148.431 105.283L148.771 110.412C148.786 110.64 148.862 110.86 148.992 111.049C149.121 111.237 149.299 111.387 149.506 111.484C149.713 111.58 149.943 111.619 150.17 111.596C150.398 111.573 150.615 111.489 150.799 111.354L154.934 108.301L160.065 107.964C160.293 107.949 160.514 107.873 160.703 107.744C160.892 107.615 161.043 107.437 161.139 107.229C161.236 107.021 161.275 106.792 161.252 106.564C161.229 106.336 161.145 106.118 161.009 105.934L157.955 101.797L157.615 96.6679C157.599 96.4168 157.51 96.1761 157.357 95.976ZM155.227 99.162L155.436 102.338C155.452 102.581 155.538 102.815 155.683 103.01L157.573 105.574L154.397 105.783C154.153 105.798 153.919 105.883 153.723 106.028L151.159 107.918L150.951 104.742C150.934 104.499 150.848 104.265 150.703 104.069L148.815 101.508L151.991 101.299C152.234 101.283 152.467 101.197 152.663 101.052L155.227 99.162Z" fill="#3DADE2"/>
<path d="M119.347 89.1338C117.261 89.1338 115.542 90.853 115.542 92.9387C115.542 95.0245 117.261 96.7412 119.347 96.7412C121.082 96.7412 122.325 95.442 122.774 93.8418C122.894 93.7236 122.988 93.5829 123.053 93.428C123.118 93.273 123.152 93.1067 123.152 92.9387C123.152 92.7703 123.119 92.6035 123.054 92.4481C122.989 92.2927 122.894 92.1517 122.774 92.0332C122.324 90.4342 121.081 89.1338 119.347 89.1338ZM119.347 91.6829C120.055 91.6829 120.603 92.2307 120.603 92.9387C120.603 93.6468 120.055 94.192 119.347 94.192C118.639 94.192 118.091 93.6468 118.091 92.9387C118.091 92.2307 118.639 91.6829 119.347 91.6829Z" fill="#3DADE2"/>
<path d="M128.933 6.70117C126.847 6.70116 125.128 8.42032 125.128 10.5061C125.128 12.5919 126.847 14.3111 128.933 14.3111C130.668 14.3111 131.911 13.0097 132.36 11.4092C132.479 11.2908 132.573 11.15 132.638 10.9951C132.702 10.8401 132.735 10.6739 132.735 10.5061C132.735 10.3387 132.702 10.173 132.637 10.0185C132.573 9.86398 132.479 9.72366 132.36 9.60554C131.912 8.00393 130.669 6.70116 128.933 6.70117ZM128.933 9.25031C129.641 9.25031 130.186 9.79806 130.186 10.5061C130.186 11.2142 129.641 11.7619 128.933 11.7619C128.225 11.7619 127.677 11.2142 127.677 10.5061C127.677 9.79806 128.225 9.25031 128.933 9.25031Z" fill="#3DADE2"/>
<path d="M159.567 30.4475C159.52 30.1165 159.344 29.8173 159.078 29.6145C158.812 29.4117 158.477 29.3215 158.146 29.3634L153.046 30.0021L148.406 27.7864C148.2 27.6873 147.97 27.6457 147.742 27.6659C147.514 27.6861 147.295 27.7675 147.11 27.9013C146.924 28.0352 146.777 28.2167 146.686 28.4267C146.594 28.6367 146.561 28.8674 146.59 29.0947L147.229 34.1971L145.016 38.8364C144.917 39.0428 144.876 39.2718 144.897 39.4996C144.917 39.7273 144.998 39.9453 145.132 40.1308C145.266 40.3163 145.447 40.4624 145.657 40.5537C145.866 40.6451 146.097 40.6784 146.324 40.6502L151.424 40.0115L156.063 42.2272C156.27 42.3263 156.499 42.3679 156.727 42.3477C156.955 42.3275 157.174 42.2461 157.36 42.1123C157.545 41.9784 157.692 41.7969 157.783 41.5869C157.875 41.3769 157.908 41.1462 157.879 40.9189L157.24 35.8165L159.454 31.1772C159.563 30.9505 159.602 30.6966 159.567 30.4475ZM156.15 32.1838L154.778 35.0559C154.674 35.276 154.634 35.5214 154.665 35.7631L155.059 38.9236L152.187 37.5516C151.967 37.4461 151.721 37.406 151.479 37.4359L148.319 37.8298L149.691 34.9577C149.795 34.7376 149.835 34.4922 149.804 34.2505L149.411 31.0925L152.283 32.4645C152.503 32.5691 152.748 32.6084 152.99 32.5778L156.15 32.1838Z" fill="#3DADE2"/>
<path d="M88.3195 0C87.6401 0 86.9885 0.269885 86.5081 0.750288C86.0277 1.23069 85.7578 1.88226 85.7578 2.56165V148.743C85.7578 149.423 86.0277 150.074 86.5081 150.555C86.9885 151.035 87.6401 151.305 88.3195 151.305C88.9989 151.305 89.6504 151.035 90.1308 150.555C90.6112 150.074 90.8811 149.423 90.8811 148.743V2.56165C90.8811 1.88226 90.6112 1.23069 90.1308 0.750288C89.6504 0.269885 88.9989 0 88.3195 0Z" fill="#3DADE2"/>
</svg>
