<svg width="164" height="160" viewBox="0 0 164 160" fill="none" xmlns="http://www.w3.org/2000/svg">
<path d="M83.7243 17.1367C65.1291 17.1367 54.2991 24.7429 54.2991 24.7429L51.6015 26.6457L59.1629 27.8811C49.3247 32.2648 41.4106 37.63 34.3774 43.9229L31.0093 46.9369L37.9695 45.8944C32.2069 53.1917 27.3211 60.7301 24.5247 68.8224L23.3396 72.2533L29.7977 68.5109C26.0632 77.6016 25.1146 86.3008 23.0177 94.8886L21.8062 99.8503L26.348 95.0416C26.9522 100.726 27.4163 106.581 29.1225 111.891L29.547 113.211L30.8564 112.752C32.3041 112.244 33.2598 111.131 33.8522 109.983C33.9729 109.749 34.0044 109.511 34.105 109.273C35.9642 112.289 37.0757 115.515 38.0456 118.991L38.9402 122.195L43.7523 113.372C46.9 118.043 48.1955 123.859 50.2285 129.625L50.6852 130.915L51.9709 130.443C56.8615 128.644 58.9932 125.301 60.2369 121.924C65.6614 125.547 71.8802 128.078 78.586 129.21V132.794H65.2865C60.1001 132.794 57.1143 135.617 55.7398 138.329C54.3652 141.042 54.3465 143.716 54.3465 143.716L57.0491 143.75C57.0491 143.75 57.0948 141.633 58.1496 139.551C59.2046 137.47 61.0133 135.497 65.2865 135.497H79.5826C80.0047 135.734 80.7293 136.101 81.7822 136.45C83.455 137.005 85.949 137.54 89.3227 137.54C92.6965 137.54 95.1932 137.005 96.866 136.45C97.9187 136.101 98.6428 135.734 99.065 135.497H113.359C117.632 135.497 119.441 137.47 120.496 139.551C121.551 141.633 121.596 143.75 121.596 143.75L124.299 143.716C124.299 143.716 124.28 141.042 122.906 138.329C121.531 135.617 118.545 132.794 113.359 132.794H100.059V129.209C107.208 128.003 113.802 125.205 119.471 121.19C120.383 121.182 121.007 121.609 121.794 122.43C122.69 123.365 123.574 124.782 124.647 126.096L125.592 127.252L126.648 126.199C129.907 122.946 131.998 119.198 133.362 115.18L134.938 117.391L136.065 116.352C139.851 112.861 141.786 109.125 142.927 105.324C144.257 107.016 145.526 108.546 146.561 110.086L148.417 112.844L149.011 109.574C150.691 100.337 153.04 90.8927 150.753 80.4459C151.777 80.5805 152.752 80.6632 154.57 81.2909L158.257 82.5626L156.148 79.2818C151.869 72.6193 151.129 69.1028 143.848 59.5954L146.818 60.6645L145.723 57.8852C143.919 53.3145 140.312 49.5781 136.664 45.8734C133.496 42.656 130.447 39.4058 128.186 35.8887L135.45 34.4768L133.149 32.6528C126.769 27.5948 120.052 26.9618 112.828 26.1842L120.103 23.386L116.622 22.1723C116.622 22.1723 102.201 17.1367 83.7243 17.1367ZM83.7243 19.8392C97.8857 19.8392 107.457 22.3969 111.794 23.6849L102.065 27.4272L107.17 28.1744C115.641 29.413 122.276 29.424 128.58 33.0591L123.814 33.9859L124.682 35.6039C127.195 40.2766 131.115 44.0867 134.74 47.7686C137.38 50.4491 139.592 53.0985 141.333 55.8161L135.854 53.844L138.95 57.6289C147.712 68.3358 149.038 72.174 152.21 77.7748C151.015 77.4913 149.936 77.3357 148.998 77.4159L147.372 77.5534L147.81 79.124C150.432 88.5375 148.58 97.1548 146.871 106.042C145.97 104.912 145.287 104.085 143.592 101.745L141.721 99.1644L141.167 102.302C140.506 106.042 138.624 109.605 135.226 113.134L132.375 109.133L131.705 112.07C130.779 116.125 128.686 119.73 125.696 123.05C125.087 122.209 124.524 121.368 123.747 120.558C123.266 120.056 122.698 119.59 122.054 119.226C129.864 112.851 135.597 104.03 138.11 93.9117C139.411 93.3462 140.863 92.682 142.233 91.7902C143.798 90.7717 145.25 89.5763 145.963 87.9208C146.789 86.0034 147.05 83.5924 146.865 81.2511C146.691 79.0389 146.15 76.8841 144.893 75.3286C145.222 73.5495 145.045 71.3873 145.045 71.3873C145.045 71.3873 143.348 73.9722 142.117 75.4131C139.746 78.1905 137.576 81.0205 135.508 83.8586C134.838 79.1953 134.311 74.445 132.698 69.5772L131.612 66.3021L129.055 71.9264C127.528 66.5978 126.143 61.3882 126.677 56.9348L127.055 53.7938L122.631 57.1115C121.473 51.6552 118.175 47.2971 115.173 43.1129L113.684 41.0382L112.805 43.4376C110.729 49.1061 105.135 53.5844 99.6027 58.2889C99.1079 55.2689 97.9891 52.5708 96.8926 50.1387L95.4407 46.9187L94.3716 50.286C93.7539 52.2321 91.7804 54.853 89.4813 57.5919C88.6525 52.2135 86.1927 46.4804 84.049 40.9139L82.6293 37.2247L81.4946 41.0089C80.0346 45.876 78.2026 50.9766 77.7941 55.5808C75.3319 53.3831 73.0505 51.2299 72.0958 48.3098L71.6098 46.8259L70.2138 47.5152C66.9682 49.1152 63.4888 50.7753 61.4219 53.5647C60.2532 52.1056 59.007 50.9346 57.9143 50.0172L56.3019 48.6632L55.7425 50.6925C53.8559 57.5232 52.3872 64.1407 48.8591 69.6778L46.8004 64.2616L45.5784 67.7693C43.5939 73.4727 42.1095 78.1736 40.5324 83.0563C39.3826 80.517 38.7419 77.8007 38.5128 74.8028C38.358 72.7773 38.0547 70.4013 38.0547 70.4013C38.0547 70.4013 36.5117 72.0288 35.9855 73.749C35.9691 73.7533 35.9528 73.758 35.9366 73.763C34.6805 74.1646 33.7746 75.1254 33.1525 76.2281C32.5303 77.3308 32.1462 78.6181 31.9305 79.9738C31.499 82.6852 31.7078 85.6517 32.6853 87.9207C33.3985 89.5762 34.8473 90.7717 36.4122 91.7901C37.7825 92.6819 39.2339 93.3462 40.5344 93.9117C43.1913 104.608 49.4455 113.855 57.9478 120.294C56.9994 123.205 55.6865 125.589 52.3033 127.252C50.4011 121.425 49.0284 115.052 44.6706 109.891L43.3955 108.381L39.6902 115.177C38.7026 111.814 37.5227 108.394 34.8333 105.237L33.2236 103.347L32.5114 105.725C32.1659 106.876 31.8534 107.96 31.4499 108.742C31.3994 108.84 31.3139 108.837 31.2628 108.924C29.9263 103.66 29.443 97.7369 28.7105 91.8244L28.357 88.9766L26.6337 90.8027C28.3468 82.4631 29.5531 74.3269 33.7621 65.9613L35.797 61.9124L28.5812 66.0933C31.6933 58.7887 36.3248 51.7731 41.9967 44.9446L44.2586 42.2176L39.8668 42.8755C46.7793 37.2276 54.4786 32.3855 64.3312 28.5333L68.9261 26.7379L59.2159 25.152C63.4207 23.0476 71.5782 19.8391 83.7243 19.8391V19.8392ZM82.9408 45.6388C85.0889 51.1518 87.1392 56.5689 87.1587 60.8915L87.1741 64.3936L89.5156 61.7888C91.9967 59.0259 94.0392 56.3563 95.5093 53.7253C96.5508 56.0409 97.453 58.2937 97.3486 60.8279L97.2195 63.9635L99.5868 61.9048C104.934 57.2522 111.008 52.6945 114.196 46.4886C117.192 50.6481 120.003 54.6649 120.414 59.5661L120.617 61.9997L123.967 59.49C124.032 64.9994 125.838 70.7169 127.434 76.2734L128.446 79.7965L130.985 74.212C131.96 78.5223 132.515 82.8901 133.302 87.3956L133.898 90.8132L135.77 87.8942C137.829 84.6839 140.568 81.4034 143.387 78.094C143.776 79.004 144.071 80.1999 144.17 81.462C144.326 83.4302 144.044 85.5415 143.479 86.8516C143.146 87.6249 142.106 88.6484 140.758 89.5255C139.41 90.4027 137.803 91.1659 136.482 91.7182L135.846 91.985L135.688 92.6582C131.065 112.488 113.362 127.176 92.0624 127.176H86.5833C65.2835 127.176 47.5811 112.488 42.9577 92.6582L42.802 91.985L42.163 91.7182C40.8417 91.1659 39.235 90.4027 37.8872 89.5255C36.5394 88.6484 35.4996 87.6249 35.1665 86.8516C34.4987 85.3013 34.2459 82.6339 34.6016 80.3985C34.7795 79.2808 35.1016 78.2704 35.5045 77.5562C35.6621 77.277 35.8244 77.0514 35.9892 76.8705C36.3727 80.494 37.1805 84.1845 39.7084 87.4536L41.2713 89.4752L42.0632 87.0472C43.6333 82.2264 45.207 77.4043 46.9458 72.2533L48.1358 75.3866L49.6113 73.5228C54.3427 67.5599 55.9396 60.4211 57.767 53.4823C58.7107 54.3312 59.6069 55.2433 60.3376 56.5417L61.7021 58.967L62.7628 56.3936C63.7305 54.0476 66.8042 52.3161 70.2216 50.5926C72.0377 54.4669 75.3349 57.0245 78.1266 59.5612L80.6867 61.8887L80.3808 58.439C80.0852 55.1225 81.4693 50.4346 82.9408 45.6388H82.9408ZM68.5539 61.374C67.9615 61.3632 67.345 61.3983 66.7068 61.4906C63.4622 61.9601 60.5275 63.2155 58.3821 64.3454C56.2372 65.4756 54.0135 69.8307 54.0135 69.8307C54.0135 69.8307 57.6707 67.7757 59.6413 66.7379C61.6119 65.7 64.3042 64.5696 67.0937 64.1659C69.7246 63.7853 71.7932 64.6315 73.2739 65.5996C74.7546 66.5677 77.482 68.8154 77.482 68.8154C77.482 68.8154 76.6158 64.5541 74.7543 63.337C73.2419 62.3482 71.1214 61.4224 68.5539 61.374ZM110.092 61.374C107.525 61.4224 105.405 62.3482 103.893 63.337C102.031 64.5541 101.164 68.8154 101.164 68.8154C101.164 68.8154 103.892 66.5677 105.372 65.5996C106.853 64.6315 108.922 63.7853 111.552 64.1659C114.342 64.5696 117.035 65.7 119.006 66.7379C120.976 67.7755 124.631 69.8292 124.633 69.83C124.633 69.83 122.408 65.4754 120.264 64.3454C118.119 63.2155 115.184 61.9601 111.939 61.4906C111.301 61.3983 110.685 61.3628 110.092 61.374ZM59.3661 71.9089C59.3661 71.9089 57.3195 73.7588 57.3912 74.8356C57.4506 75.7256 57.6935 76.4777 57.9778 77.0751C57.7255 76.8708 57.4873 76.6793 57.0805 76.3342C56.4918 75.8344 55.0924 74.3076 55.0924 74.3076C55.0924 74.3076 54.2322 76.9291 54.8284 77.8286C55.1207 78.2696 55.4455 78.6329 55.7746 78.9375C55.2133 79.3751 54.7103 79.8213 54.2691 80.2623C52.0705 82.4594 50.5072 86.9131 50.5072 86.9131C50.5072 86.9131 54.3466 84.0075 56.181 82.1742C56.7643 81.5914 57.4679 80.9915 58.313 80.4249C58.215 81.8186 58.4298 83.2307 58.9597 84.5528C60.8713 89.322 66.3258 91.6555 71.0951 89.7441C75.0607 88.1546 77.3399 84.1155 76.8974 80.0577C78.7726 81.0343 80.9435 81.5863 80.9435 81.5863C80.9435 81.5863 80.0048 78.8829 77.5343 77.3126C76.9838 76.9627 76.3582 76.6259 75.6636 76.3182L75.6541 76.2992L75.1947 76.1148C75.1386 76.092 75.0764 76.0721 75.0193 76.0498C74.8592 75.9876 74.6954 75.9275 74.5284 75.869C74.4037 75.8251 74.2807 75.7808 74.152 75.7392C73.9104 75.6612 73.661 75.587 73.4055 75.5178C72.6717 75.3183 71.8852 75.1545 71.0354 75.0457C70.5478 74.9832 70.0382 74.9403 69.5116 74.9144C69.4912 74.9144 69.4707 74.9103 69.4503 74.9103C68.8873 74.8842 68.3033 74.8799 67.6954 74.9008C67.6291 74.9049 67.5611 74.9076 67.4943 74.9103C67.2794 74.9198 67.0617 74.9321 66.8414 74.948C66.7374 74.9561 66.6337 74.963 66.5285 74.9717C66.2782 74.9928 66.0247 75.0175 65.7673 75.0471C65.7253 75.0525 65.6852 75.0551 65.643 75.0592C65.6017 75.0646 65.5627 75.0714 65.5215 75.0768C65.2564 75.11 64.9959 75.1465 64.7395 75.187C64.6413 75.2027 64.5451 75.2198 64.4482 75.2366C64.2312 75.2736 64.0173 75.3131 63.8065 75.3553C63.7285 75.371 63.6497 75.3857 63.5725 75.4021C62.5349 75.621 61.5738 75.8998 60.687 76.2247C60.5604 75.9129 60.3735 75.4388 60.0879 74.6527C59.8245 73.9269 59.3665 71.9069 59.3665 71.9069L59.3661 71.9089ZM119.281 71.9089C119.281 71.9089 118.822 73.9288 118.559 74.6547C118.273 75.4416 118.087 75.9157 117.96 76.2273C117.071 75.9014 116.106 75.6213 115.065 75.402C114.992 75.3866 114.918 75.3726 114.845 75.358C114.635 75.316 114.423 75.277 114.207 75.2401C114.106 75.2225 114.005 75.2047 113.902 75.1884C113.657 75.1498 113.409 75.1149 113.156 75.083C113.104 75.0763 113.056 75.0676 113.004 75.0613C112.953 75.0545 112.904 75.0518 112.853 75.0458C112.606 75.0176 112.363 74.9936 112.123 74.9733C112.014 74.9639 111.906 74.9566 111.799 74.949C111.582 74.9336 111.368 74.9212 111.157 74.912C111.088 74.9079 111.018 74.9052 110.95 74.9025C110.342 74.881 109.757 74.8857 109.194 74.912C109.175 74.912 109.156 74.916 109.136 74.916C108.609 74.9417 108.099 74.9847 107.61 75.0473C106.759 75.1562 105.972 75.3209 105.237 75.5208C104.98 75.5907 104.729 75.6642 104.485 75.7429C104.36 75.7835 104.241 75.8272 104.119 75.87C103.957 75.9271 103.797 75.9861 103.641 76.0467C103.579 76.071 103.512 76.092 103.451 76.1166L102.994 76.3009L102.985 76.3185C102.289 76.6265 101.663 76.964 101.111 77.3143C98.6409 78.8847 97.7022 81.5881 97.7022 81.5881C97.7022 81.5881 99.8743 81.0358 101.75 80.0587C101.307 84.1168 103.586 88.1562 107.552 89.7458C112.321 91.6572 117.774 89.3237 119.685 84.5545C120.215 83.2321 120.429 81.8199 120.331 80.426C121.177 80.9928 121.881 81.5928 122.465 82.176C124.299 84.0092 128.139 86.9148 128.139 86.9148C128.139 86.9148 126.575 82.4611 124.377 80.264C123.935 79.823 123.433 79.3763 122.872 78.9386C123.201 78.6341 123.525 78.2711 123.817 77.8303C124.414 76.9308 123.553 74.3095 123.553 74.3095C123.553 74.3095 122.154 75.8361 121.565 76.3359C121.158 76.681 120.92 76.8726 120.668 77.0769C120.952 76.4795 121.196 75.7274 121.255 74.8373C121.327 73.7606 119.28 71.9106 119.28 71.9106L119.281 71.9089ZM68.4946 77.5891C69.2812 77.5891 70.012 77.6376 70.6915 77.7246C71.8737 77.8759 72.8374 78.1759 73.7271 78.5032C73.7428 78.5406 73.7614 78.5766 73.7767 78.6143C75.1448 82.0279 73.5031 85.8661 70.0895 87.2343C66.676 88.6024 62.8377 86.9607 61.4694 83.5472C60.8639 82.0364 60.9189 80.3809 61.4641 78.8601C62.5906 78.4315 63.8424 78.0639 65.2971 77.8377C65.3629 77.8283 65.4304 77.8191 65.4969 77.8099C65.6511 77.7877 65.8051 77.7654 65.964 77.7464C66.0863 77.7316 66.2048 77.7207 66.325 77.708C66.365 77.704 66.4047 77.6999 66.4445 77.6958C66.3922 77.7139 66.3402 77.7333 66.2887 77.7538C65.4063 78.1075 64.7006 78.7971 64.3267 79.6712C63.9528 80.5452 63.9414 81.532 64.2951 82.4144C64.4702 82.8514 64.7296 83.2497 65.0587 83.5864C65.3877 83.9231 65.7798 84.1916 66.2127 84.3768C66.6456 84.5619 67.1107 84.66 67.5814 84.6654C68.0522 84.6707 68.5194 84.5833 68.9564 84.4081C69.8388 84.0544 70.5445 83.3647 70.9184 82.4907C71.2923 81.6167 71.3037 80.63 70.95 79.7475C70.7353 79.2119 70.3945 78.736 69.9564 78.3603C69.5184 77.9847 68.9961 77.7203 68.434 77.5897C68.4538 77.5896 68.4744 77.5897 68.494 77.5897L68.4946 77.5891ZM110.151 77.5891C110.171 77.5891 110.192 77.5891 110.212 77.5891C109.649 77.7197 109.127 77.984 108.689 78.3597C108.251 78.7353 107.91 79.2113 107.696 79.7469C107.342 80.6293 107.353 81.616 107.727 82.4901C108.101 83.3641 108.807 84.0538 109.689 84.4075C110.126 84.5827 110.593 84.6701 111.064 84.6647C111.535 84.6593 112 84.5612 112.433 84.3761C112.866 84.191 113.258 83.9224 113.587 83.5857C113.916 83.249 114.175 82.8508 114.351 82.4138C114.704 81.5313 114.693 80.5446 114.319 79.6706C113.945 78.7966 113.239 78.1069 112.357 77.7532C112.305 77.7327 112.253 77.7133 112.201 77.6952C112.236 77.6993 112.27 77.702 112.305 77.706C112.43 77.7195 112.554 77.7307 112.681 77.7459C112.851 77.7663 113.015 77.7895 113.18 77.8136C113.235 77.8217 113.29 77.8286 113.344 77.8364C114.802 78.0624 116.058 78.4301 117.186 78.8594C117.731 80.3801 117.784 82.036 117.178 83.5466C115.81 86.9593 111.971 88.6 108.558 87.2338H108.553C105.141 85.8648 103.499 82.0265 104.866 78.6136C104.882 78.5757 104.904 78.5402 104.919 78.5025C105.809 78.1753 106.77 77.8752 107.952 77.7239C108.632 77.637 109.363 77.5885 110.149 77.5885L110.151 77.5891ZM73.2208 95.4257C72.7227 95.4256 72.2295 95.5237 71.7694 95.7143C71.3092 95.9048 70.8912 96.1842 70.539 96.5364C70.1868 96.8886 69.9074 97.3067 69.7168 97.7668C69.5262 98.227 69.4282 98.7202 69.4282 99.2182C69.4283 100.224 69.828 101.188 70.5392 101.9C71.2505 102.611 72.215 103.01 73.2208 103.01C74.2264 103.01 75.1909 102.61 75.902 101.899C76.6131 101.188 77.0126 100.224 77.0127 99.2182C77.0127 98.2124 76.6133 97.2479 75.9022 96.5367C75.1911 95.8254 74.2265 95.4258 73.2208 95.4257ZM57.3738 98.2378C54.2348 98.2378 51.6622 100.813 51.6622 103.952C51.6622 107.091 54.2348 109.663 57.3738 109.663C60.3293 109.663 62.7054 107.356 62.982 104.469C63.0507 104.305 63.0865 104.13 63.0874 103.952C63.087 103.773 63.0512 103.597 62.982 103.432C62.7044 100.546 60.3286 98.2378 57.3738 98.2378ZM57.3738 100.94C59.052 100.94 60.3849 102.274 60.3849 103.952C60.3849 105.63 59.052 106.961 57.3738 106.961C55.6955 106.961 54.3647 105.63 54.3647 103.952C54.3647 102.274 55.6955 100.94 57.3738 100.94ZM57.3697 102.307C56.9343 102.308 56.517 102.481 56.2095 102.789C55.9019 103.098 55.7292 103.515 55.7294 103.951C55.7294 104.167 55.7719 104.38 55.8546 104.58C55.9372 104.779 56.0582 104.96 56.2109 105.113C56.3635 105.265 56.5448 105.386 56.7442 105.469C56.9436 105.552 57.1573 105.594 57.3732 105.594C57.809 105.594 58.2269 105.421 58.5351 105.113C58.8432 104.804 59.0163 104.387 59.0163 103.951C59.0164 103.735 58.974 103.521 58.8914 103.322C58.8089 103.122 58.6879 102.941 58.5353 102.788C58.3827 102.636 58.2016 102.515 58.0022 102.432C57.8028 102.349 57.589 102.307 57.3732 102.307C57.3718 102.307 57.3705 102.307 57.3691 102.307H57.3697ZM103.625 109.618C103.625 109.618 102.385 110.372 100.266 110.967C98.1461 111.561 94.6864 112.181 89.4576 112.181C84.2287 112.181 80.7663 111.561 78.6469 110.967C76.5275 110.372 75.0191 109.708 75.0191 109.708C75.0191 109.708 75.5293 112.9 77.9157 113.569C80.3023 114.239 84.0154 114.884 89.4576 114.884C94.8998 114.884 98.6102 114.239 100.997 113.569C103.383 112.9 103.625 109.618 103.625 109.618ZM81.2872 129.587C83.0249 129.779 84.7915 129.878 86.582 129.878H92.061C93.8515 129.878 95.6179 129.779 97.3556 129.587V133.294C97.1148 133.435 96.9936 133.559 96.0121 133.884C94.6078 134.351 92.4103 134.838 89.3214 134.838C86.2325 134.838 84.0351 134.351 82.6308 133.884C81.6474 133.558 81.5274 133.432 81.2872 133.291V129.587Z" fill="#608199"/>
<path d="M88.6875 17.257V19.9483C100.135 20.4454 107.985 22.5546 111.794 23.6857L102.065 27.4281L107.169 28.1752C115.64 29.4138 122.276 29.4248 128.58 33.06L123.813 33.9867L124.681 35.6047C127.194 40.2775 131.114 44.0876 134.74 47.7695C137.379 50.4499 139.592 53.0993 141.333 55.8169L135.854 53.8449L138.949 57.6297C147.712 68.3367 149.038 72.1749 152.21 77.7757C151.015 77.4921 149.935 77.3366 148.997 77.4167L147.372 77.5543L147.81 79.1249C150.431 88.5384 148.58 97.1556 146.87 106.043C145.969 104.913 145.287 104.085 143.592 101.746L141.721 99.1653L141.166 102.303C140.505 106.043 138.624 109.605 135.225 113.135L132.375 109.134L131.705 112.071C130.778 116.126 128.686 119.73 125.695 123.051C125.086 122.21 124.523 121.369 123.747 120.559C123.265 120.057 122.697 119.591 122.054 119.227C129.864 112.852 135.596 104.031 138.11 93.9125C139.41 93.347 140.862 92.6829 142.233 91.7911C143.798 90.7726 145.249 89.5772 145.963 87.9217C146.789 86.0042 147.049 83.5932 146.865 81.2519C146.69 79.0397 146.15 76.8849 144.893 75.3294C145.221 73.5503 145.045 71.3882 145.045 71.3882C145.045 71.3882 143.347 73.973 142.117 75.414C139.745 78.1913 137.576 81.0214 135.508 83.8595C134.837 79.1961 134.311 74.4459 132.697 69.5781L131.612 66.3029L129.055 71.9272C127.528 66.5986 126.142 61.389 126.676 56.9357L127.054 53.7946L122.63 57.1124C121.473 51.6561 118.175 47.298 115.172 43.1138L113.683 41.039L112.804 43.4385C110.729 49.107 105.135 53.5852 99.6022 58.2897C99.1074 55.2698 97.9886 52.5717 96.8921 50.1396L95.4402 46.9196L94.3711 50.2869C93.7534 52.233 91.7799 54.8538 89.4808 57.5928C89.2933 56.3764 89.0193 55.1411 88.6875 53.8944V62.71L89.515 61.7897C91.9962 59.0268 94.0386 56.3571 95.5087 53.7262C96.5503 56.0417 97.4525 58.2945 97.348 60.8288L97.2189 63.9643L99.5862 61.9056C104.934 57.2531 111.008 52.6953 114.195 46.4895C117.192 50.649 120.003 54.6658 120.414 59.5669L120.617 62.0006L123.966 59.4908C124.032 65.0002 125.837 70.7177 127.434 76.2743L128.445 79.7973L130.984 74.2128C131.959 78.5231 132.515 82.891 133.301 87.3964L133.898 90.814L135.769 87.8951C137.828 84.6847 140.567 81.4043 143.386 78.0949C143.775 79.0048 144.071 80.2008 144.17 81.4628C144.325 83.431 144.043 85.5423 143.479 86.8525C143.145 87.6257 142.105 88.6492 140.757 89.5264C139.409 90.4035 137.803 91.1667 136.481 91.7191L135.846 91.9859L135.687 92.659C131.064 112.489 113.362 127.176 92.0618 127.176H88.6875V129.879H92.0618C93.8523 129.879 95.6187 129.78 97.3565 129.588V133.294C97.1156 133.436 96.9944 133.559 96.0129 133.885C94.6086 134.351 92.4112 134.838 89.3223 134.838C89.1028 134.838 88.898 134.83 88.6875 134.826V137.529C88.8988 137.533 89.1036 137.541 89.3223 137.541C92.696 137.541 95.1928 137.006 96.8655 136.451C97.9183 136.101 98.6423 135.734 99.0645 135.498H113.359C117.632 135.498 119.44 137.47 120.495 139.552C121.55 141.634 121.596 143.751 121.596 143.751L124.298 143.717C124.298 143.717 124.28 141.043 122.905 138.33C121.531 135.617 118.545 132.795 113.359 132.795H100.059V129.21C107.208 128.003 113.802 125.205 119.471 121.191C120.383 121.183 121.007 121.61 121.794 122.431C122.69 123.365 123.574 124.783 124.647 126.097L125.592 127.252L126.648 126.199C129.907 122.947 131.998 119.198 133.362 115.18L134.937 117.392L136.064 116.352C139.85 112.862 141.786 109.126 142.927 105.325C144.256 107.017 145.525 108.547 146.561 110.086L148.416 112.845L149.011 109.574C150.69 100.338 153.039 90.8934 150.752 80.4467C151.777 80.5813 152.752 80.664 154.569 81.2917L158.257 82.5633L156.148 79.2826C151.869 72.6201 151.129 69.1036 143.848 59.5961L146.817 60.6653L145.722 57.8859C143.919 53.3152 140.312 49.5788 136.664 45.8741C133.495 42.6567 130.447 39.4066 128.186 35.8895L135.45 34.4775L133.148 32.6534C126.768 27.5954 120.051 26.9626 112.828 26.1849L120.102 23.3868L116.621 22.1731C116.621 22.1731 104.719 18.0178 88.6875 17.2568V17.257ZM110.092 61.3749C107.524 61.4233 105.404 62.349 103.892 63.3379C102.031 64.5549 101.164 68.8162 101.164 68.8162C101.164 68.8162 103.891 66.5686 105.372 65.6004C106.852 64.6323 108.921 63.7862 111.552 64.1668C114.342 64.5704 117.035 65.7009 119.005 66.7387C120.975 67.7764 124.631 69.83 124.632 69.8309C124.632 69.8309 122.408 65.4762 120.264 64.3463C118.118 63.2164 115.183 61.961 111.939 61.4915C111.301 61.3992 110.684 61.3637 110.092 61.3749ZM119.28 71.9098C119.28 71.9098 118.822 73.9297 118.558 74.6556C118.272 75.4425 118.086 75.9165 117.96 76.2282C117.07 75.9022 116.106 75.6222 115.064 75.4028C114.992 75.3874 114.918 75.3735 114.845 75.3589C114.635 75.3168 114.422 75.2778 114.206 75.2409C114.105 75.2234 114.004 75.2055 113.902 75.1893C113.657 75.1506 113.408 75.1158 113.155 75.0839C113.104 75.0771 113.055 75.0685 113.004 75.0621C112.952 75.0554 112.903 75.0526 112.852 75.0467C112.606 75.0184 112.362 74.9945 112.122 74.9742C112.014 74.9647 111.906 74.9574 111.798 74.9499C111.582 74.9344 111.368 74.922 111.156 74.9128C111.087 74.9088 111.018 74.906 110.949 74.9033C110.341 74.8818 109.757 74.8866 109.194 74.9128C109.174 74.9128 109.155 74.9169 109.136 74.9169C108.608 74.9425 108.098 74.9856 107.61 75.0482C106.759 75.1571 105.971 75.3218 105.236 75.5217C104.979 75.5915 104.728 75.6651 104.485 75.7437C104.36 75.7844 104.24 75.8281 104.119 75.8709C103.956 75.9279 103.797 75.987 103.641 76.0476C103.579 76.0719 103.511 76.0928 103.451 76.1174L102.994 76.3018L102.984 76.3193C102.289 76.6273 101.662 76.9648 101.111 77.3152C98.6404 78.8855 97.7017 81.5889 97.7017 81.5889C97.7017 81.5889 99.8738 81.0366 101.749 80.0595C101.306 84.1176 103.586 88.1571 107.552 89.7467C112.321 91.658 117.773 89.3246 119.685 84.5554C120.215 83.233 120.429 81.8207 120.331 80.4269C121.177 80.9937 121.881 81.5937 122.464 82.1768C124.299 84.0101 128.138 86.9157 128.138 86.9157C128.138 86.9157 126.575 82.4619 124.376 80.2649C123.935 79.8238 123.433 79.3772 122.871 78.9394C123.2 78.6349 123.525 78.2719 123.817 77.8312C124.413 76.9316 123.553 74.3103 123.553 74.3103C123.553 74.3103 122.153 75.837 121.565 76.3367C121.158 76.6819 120.92 76.8734 120.667 77.0777C120.952 76.4803 121.195 75.7282 121.255 74.8382C121.327 73.7614 119.28 71.9115 119.28 71.9115L119.28 71.9098ZM110.15 77.5899C110.17 77.5899 110.191 77.5899 110.211 77.5899C109.649 77.7205 109.127 77.9849 108.689 78.3605C108.251 78.7362 107.91 79.2121 107.695 79.7477C107.341 80.6302 107.353 81.6169 107.727 82.4909C108.101 83.3649 108.806 84.0547 109.689 84.4084C110.126 84.5836 110.593 84.6709 111.064 84.6656C111.534 84.6602 112 84.5621 112.432 84.377C112.865 84.1918 113.257 83.9233 113.586 83.5866C113.915 83.2499 114.175 82.8516 114.35 82.4146C114.704 81.5322 114.692 80.5455 114.318 79.6714C113.944 78.7974 113.239 78.1077 112.356 77.7541C112.305 77.7335 112.253 77.7142 112.201 77.6961C112.235 77.7001 112.27 77.7028 112.305 77.7069C112.43 77.7204 112.553 77.7316 112.68 77.7467C112.85 77.7671 113.015 77.7904 113.18 77.8144C113.234 77.8225 113.289 77.8294 113.343 77.8373C114.801 78.0633 116.057 78.431 117.185 78.8603C117.731 80.3809 117.783 82.0368 117.177 83.5475C115.809 86.9601 111.97 88.6008 108.557 87.2346H108.553C105.141 85.8656 103.498 82.0273 104.866 78.6145C104.881 78.5765 104.903 78.5411 104.919 78.5034C105.809 78.1761 106.77 77.876 107.952 77.7248C108.631 77.6379 109.362 77.5893 110.149 77.5893L110.15 77.5899ZM103.625 109.619C103.625 109.619 102.386 110.373 100.266 110.968C98.147 111.562 94.6871 112.182 89.4583 112.182C89.1902 112.182 88.9464 112.174 88.6875 112.171V114.873C88.9466 114.877 89.1909 114.885 89.4583 114.885C94.9006 114.885 98.6109 114.24 100.997 113.571C103.384 112.901 103.625 109.62 103.625 109.62V109.619Z" fill="#30414D"/>
<path d="M89.3228 0C88.606 0 87.9186 0.284702 87.4118 0.791551C86.9049 1.2984 86.6201 1.98588 86.6201 2.70267V156.935C86.6201 157.651 86.9049 158.339 87.4118 158.846C87.9186 159.352 88.606 159.637 89.3228 159.637C90.0396 159.637 90.7271 159.352 91.2339 158.846C91.7408 158.339 92.0255 157.651 92.0255 156.935V2.70267C92.0255 1.98588 91.7408 1.2984 91.2339 0.791551C90.7271 0.284702 90.0396 0 89.3228 0Z" fill="#3DADE2"/>
<path d="M22.3948 37.8955C22.0364 37.8955 21.6927 38.0379 21.4393 38.2913C21.1858 38.5447 21.0435 38.8884 21.0435 39.2468C21.0435 39.6052 21.1858 39.9489 21.4393 40.2024C21.6927 40.4558 22.0364 40.5982 22.3948 40.5982H30.0568C30.4152 40.5982 30.7589 40.4558 31.0123 40.2024C31.2657 39.9489 31.4081 39.6052 31.4081 39.2468C31.4081 38.8884 31.2657 38.5447 31.0123 38.2913C30.7589 38.0379 30.4152 37.8955 30.0568 37.8955H22.3948ZM39.9965 37.8955C39.6381 37.8955 39.2944 38.0379 39.041 38.2913C38.7875 38.5447 38.6451 38.8884 38.6451 39.2468C38.6451 39.6052 38.7875 39.9489 39.041 40.2024C39.2944 40.4558 39.6381 40.5982 39.9965 40.5982H56.3709C56.7293 40.5982 57.073 40.4558 57.3264 40.2024C57.5798 39.9489 57.7222 39.6052 57.7222 39.2468C57.7222 38.8884 57.5798 38.5447 57.3264 38.2913C57.073 38.0379 56.7293 37.8955 56.3709 37.8955H39.9965Z" fill="#3DADE2"/>
<path d="M9.88942 58.2842C9.53103 58.2842 9.18733 58.4266 8.9339 58.68C8.68048 58.9334 8.53809 59.2771 8.53809 59.6355C8.53809 59.9939 8.68048 60.3376 8.9339 60.591C9.18733 60.8445 9.53103 60.9869 9.88942 60.9869H44.9318C45.2902 60.9869 45.6339 60.8445 45.8873 60.591C46.1407 60.3376 46.2831 59.9939 46.2831 59.6355C46.2831 59.2771 46.1407 58.9334 45.8873 58.68C45.6339 58.4266 45.2902 58.2842 44.9318 58.2842H9.88942Z" fill="#3DADE2"/>
<path d="M30.8826 20.832C30.5242 20.832 30.1805 20.9744 29.9271 21.2278C29.6736 21.4813 29.5312 21.825 29.5312 22.1834C29.5312 22.5418 29.6736 22.8855 29.9271 23.1389C30.1805 23.3923 30.5242 23.5347 30.8826 23.5347H67.1259C67.4843 23.5347 67.8279 23.3923 68.0814 23.1389C68.3348 22.8855 68.4772 22.5418 68.4772 22.1834C68.4772 21.825 68.3348 21.4813 68.0814 21.2278C67.8279 20.9744 67.4843 20.832 67.1259 20.832H30.8826ZM75.8066 20.832C75.4482 20.832 75.1045 20.9744 74.8511 21.2278C74.5977 21.4813 74.4553 21.825 74.4553 22.1834C74.4553 22.5418 74.5977 22.8855 74.8511 23.1389C75.1045 23.3923 75.4482 23.5347 75.8066 23.5347H82.9328C83.2912 23.5347 83.6349 23.3923 83.8883 23.1389C84.1417 22.8855 84.2841 22.5418 84.2841 22.1834C84.2841 21.825 84.1417 21.4813 83.8883 21.2278C83.6349 20.9744 83.2912 20.832 82.9328 20.832H75.8066Z" fill="#3DADE2"/>
<path d="M2.85817 126.656C2.49978 126.656 2.15608 126.799 1.90265 127.052C1.64923 127.305 1.50684 127.649 1.50684 128.008C1.50684 128.366 1.64923 128.71 1.90265 128.963C2.15608 129.217 2.49978 129.359 2.85817 129.359H23.6983C24.0567 129.359 24.4004 129.217 24.6538 128.963C24.9073 128.71 25.0497 128.366 25.0497 128.008C25.0497 127.649 24.9073 127.305 24.6538 127.052C24.4004 126.799 24.0567 126.656 23.6983 126.656H2.85817Z" fill="#3DADE2"/>
<path d="M1.35134 100.894C0.99294 100.894 0.649242 101.036 0.395817 101.289C0.142392 101.543 0 101.886 0 102.245C0 102.603 0.142392 102.947 0.395817 103.2C0.649242 103.454 0.99294 103.596 1.35134 103.596H26.1241C26.4825 103.596 26.8262 103.454 27.0796 103.2C27.333 102.947 27.4754 102.603 27.4754 102.245C27.4754 101.886 27.333 101.543 27.0796 101.289C26.8262 101.036 26.4825 100.894 26.1241 100.894H1.35134ZM33.6303 100.894C33.2719 100.894 32.9282 101.036 32.6748 101.289C32.4214 101.543 32.279 101.886 32.279 102.245C32.279 102.603 32.4214 102.947 32.6748 103.2C32.9282 103.454 33.2719 103.596 33.6303 103.596H44.0636C44.422 103.596 44.7657 103.454 45.0191 103.2C45.2725 102.947 45.4149 102.603 45.4149 102.245C45.4149 101.886 45.2725 101.543 45.0191 101.289C44.7657 101.036 44.422 100.894 44.0636 100.894H33.6303Z" fill="#3DADE2"/>
<path d="M21.054 111.398C20.6956 111.398 20.3519 111.541 20.0985 111.794C19.845 112.048 19.7026 112.391 19.7026 112.75C19.7026 113.108 19.845 113.452 20.0985 113.705C20.3519 113.959 20.6956 114.101 21.054 114.101H39.4923C39.8507 114.101 40.1944 113.959 40.4478 113.705C40.7013 113.452 40.8437 113.108 40.8437 112.75C40.8437 112.391 40.7013 112.048 40.4478 111.794C40.1944 111.541 39.8507 111.398 39.4923 111.398H21.054ZM49.5561 111.398C49.1977 111.398 48.854 111.541 48.6006 111.794C48.3471 112.048 48.2048 112.391 48.2048 112.75C48.2048 113.108 48.3471 113.452 48.6006 113.705C48.854 113.959 49.1977 114.101 49.5561 114.101H71.2672C71.6256 114.101 71.9693 113.959 72.2227 113.705C72.4762 113.452 72.6185 113.108 72.6185 112.75C72.6185 112.391 72.4762 112.048 72.2227 111.794C71.9693 111.541 71.6256 111.398 71.2672 111.398H49.5561Z" fill="#3DADE2"/>
<path d="M22.5637 134.194C22.2053 134.194 21.8616 134.337 21.6082 134.59C21.3548 134.844 21.2124 135.187 21.2124 135.546C21.2124 135.904 21.3548 136.248 21.6082 136.501C21.8616 136.755 22.2053 136.897 22.5637 136.897H48.4028C48.7612 136.897 49.1049 136.755 49.3583 136.501C49.6117 136.248 49.7541 135.904 49.7541 135.546C49.7541 135.187 49.6117 134.844 49.3583 134.59C49.1049 134.337 48.7612 134.194 48.4028 134.194H22.5637Z" fill="#3DADE2"/>
<path d="M142.651 126.092C142.437 125.812 142.121 125.627 141.772 125.578C141.422 125.529 141.068 125.619 140.784 125.828L136.421 129.049L131.008 129.405C130.767 129.42 130.534 129.501 130.335 129.637C130.135 129.773 129.976 129.961 129.875 130.18C129.773 130.399 129.732 130.642 129.756 130.882C129.78 131.123 129.869 131.352 130.012 131.546L133.234 135.911L133.593 141.323C133.609 141.564 133.689 141.796 133.825 141.994C133.962 142.193 134.149 142.352 134.368 142.454C134.587 142.555 134.829 142.596 135.069 142.572C135.309 142.548 135.538 142.46 135.733 142.317L140.095 139.096L145.508 138.74C145.749 138.724 145.982 138.644 146.181 138.508C146.381 138.371 146.54 138.184 146.642 137.965C146.744 137.746 146.785 137.503 146.761 137.263C146.736 137.022 146.648 136.793 146.504 136.598L143.282 132.233L142.924 126.822C142.907 126.557 142.812 126.303 142.651 126.092ZM140.404 129.454L140.624 132.805C140.642 133.061 140.732 133.307 140.885 133.514L142.879 136.218L139.528 136.439C139.271 136.455 139.025 136.545 138.817 136.697L136.113 138.691L135.892 135.34C135.875 135.084 135.784 134.838 135.631 134.631L133.639 131.929L136.99 131.708C137.246 131.691 137.493 131.6 137.699 131.447L140.404 129.454Z" fill="#3DADE2"/>
<path d="M159.985 95.5039C157.785 95.5039 155.974 97.3151 155.974 99.5157C155.974 101.716 157.785 103.53 159.985 103.53C161.815 103.53 163.127 102.158 163.601 100.471C163.728 100.346 163.828 100.197 163.896 100.033C163.965 99.8693 164 99.6934 164 99.5157C163.999 99.3391 163.964 99.1643 163.896 99.0013C163.828 98.8382 163.729 98.6901 163.604 98.5655C163.131 96.8756 161.817 95.5039 159.985 95.5039ZM159.985 98.1934C160.732 98.1934 161.31 98.7686 161.31 99.5157C161.31 100.263 160.732 100.841 159.985 100.841C159.238 100.841 158.663 100.263 158.663 99.5157C158.663 98.7686 159.238 98.1934 159.985 98.1934Z" fill="#3DADE2"/>
<path d="M145.326 14.1221C145.282 13.7719 145.103 13.4528 144.827 13.2336C144.55 13.0144 144.199 12.9126 143.848 12.9501L138.455 13.5221L133.606 11.0922C133.39 10.9836 133.149 10.9351 132.908 10.9518C132.666 10.9686 132.434 11.0501 132.236 11.1876C132.037 11.3251 131.879 11.5136 131.778 11.7333C131.678 11.9529 131.638 12.1957 131.664 12.436L132.236 17.8311L129.808 22.6807C129.701 22.8965 129.653 23.1373 129.67 23.3779C129.687 23.6186 129.768 23.8502 129.906 24.0485C130.043 24.2468 130.231 24.4045 130.451 24.5051C130.67 24.6057 130.912 24.6454 131.152 24.6202L136.545 24.0482L141.394 26.4781C141.61 26.5867 141.851 26.6352 142.092 26.6184C142.334 26.6016 142.566 26.5202 142.764 26.3827C142.963 26.2452 143.121 26.0567 143.222 25.837C143.322 25.6173 143.362 25.3746 143.336 25.1343L142.764 19.7392L145.192 14.8895C145.311 14.6526 145.358 14.3855 145.326 14.1221ZM141.687 15.8854L140.182 18.8877C140.068 19.1178 140.021 19.3759 140.049 19.6315L140.401 22.9732L137.399 21.4686C137.169 21.353 136.911 21.3057 136.655 21.3324L133.313 21.6849L134.818 18.6825C134.932 18.4525 134.979 18.1944 134.951 17.9388L134.599 14.5997L137.601 16.1043C137.831 16.219 138.09 16.2654 138.345 16.2379L141.687 15.8854Z" fill="#3DADE2"/>
<path d="M147.346 39.6299C145.145 39.6299 143.332 41.4437 143.332 43.6443C143.332 45.8449 145.145 47.6561 147.346 47.6561C149.177 47.6561 150.489 46.2842 150.962 44.5945C151.087 44.4698 151.186 44.3218 151.254 44.1587C151.322 43.9957 151.357 43.8209 151.358 43.6443C151.358 43.4662 151.323 43.2897 151.255 43.1253C151.186 42.9608 151.086 42.8116 150.959 42.6862C150.484 41.0006 149.174 39.6299 147.346 39.6299ZM147.346 42.3194C148.093 42.3194 148.668 42.8973 148.668 43.6443C148.668 44.3913 148.093 44.9666 147.346 44.9666C146.599 44.9666 146.021 44.3913 146.021 43.6443C146.021 42.8973 146.599 42.3194 147.346 42.3194Z" fill="#3DADE2"/>
</svg>
