<svg width="164" height="155" viewBox="0 0 164 155" fill="none" xmlns="http://www.w3.org/2000/svg">
<path d="M83.691 17.0221C82.7919 17.0142 81.8879 17.0354 80.981 17.0918C78.8441 17.225 76.6995 17.5545 74.5917 18.131C66.2472 20.4132 56.8047 26.1975 48.542 33.529C40.2792 40.8605 33.2111 49.7299 29.8457 58.3792C26.4984 66.9817 25.6374 77.0295 26.6239 86.0998C27.6102 95.17 30.3913 103.27 34.7578 108.023C43.5311 117.572 58.9095 112.554 58.9095 112.554V112.543C65.4847 119.088 74.0322 123.648 83.6051 125.263V128.738H70.7119C65.6841 128.738 62.7868 131.474 61.4542 134.104C60.1217 136.734 60.1063 139.326 60.1063 139.326L62.7262 139.359C62.7262 139.359 62.7708 137.307 63.7932 135.289C64.816 133.271 66.5694 131.358 70.7119 131.358H84.5691C84.9785 131.588 85.6805 131.943 86.701 132.282C88.3227 132.821 90.7432 133.339 94.0139 133.339C97.2846 133.339 99.7022 132.821 101.324 132.282C102.344 131.943 103.046 131.588 103.456 131.358H117.316C121.458 131.358 123.209 133.271 124.232 135.289C125.254 137.307 125.301 139.359 125.301 139.359L127.921 139.326C127.921 139.326 127.903 136.734 126.571 134.104C125.238 131.474 122.344 128.738 117.316 128.738H104.422V125.263C114.197 123.612 122.903 118.893 129.531 112.125C130.055 112.191 139.411 113.276 146.582 107.68C153.587 102.214 163.736 91.7182 163.997 75.5405C164.129 67.3196 160.598 57.2713 155.548 48.4184C150.498 39.5656 143.978 31.9218 137.529 28.7574C125.371 22.7918 111.006 24.5169 110.251 24.6101C109.46 24.1521 97.1812 17.1506 83.6953 17.0225L83.691 17.0221ZM82.6188 19.6807C95.9654 19.5225 109.28 27.0558 109.28 27.0558L109.661 27.2757L110.096 27.2217C110.096 27.2217 124.866 25.4637 136.372 31.1089C141.915 33.8286 148.386 41.1577 153.269 49.7179C158.152 58.2781 161.491 68.0815 161.372 75.4996C161.129 90.6002 151.66 100.392 144.966 105.615C140.521 109.084 134.821 109.6 131.822 109.602C136.287 104.311 139.581 97.9927 141.307 91.0433C142.567 90.4951 143.973 89.851 145.301 88.9865C146.818 87.9992 148.225 86.8403 148.917 85.2353C149.653 83.5252 149.923 81.4109 149.827 79.3145C149.732 77.218 149.281 75.151 148.257 73.5547C148.248 73.541 148.239 73.5274 148.229 73.5141C148.261 71.9544 147.596 69.9443 147.596 69.9443C147.596 69.9443 146.252 72.1944 145.639 73.5574C144.595 75.8745 143.225 77.8098 141.036 79.4295C140.442 77.5402 139.325 74.2102 137.188 69.8908C134.271 63.9963 130.035 57.508 123.928 55.8717C121.425 55.201 117.863 54.2136 113.842 53.1239C113.795 53.0071 113.737 52.8566 113.678 52.5964C113.532 51.9495 113.424 50.9969 113.363 50.0503C113.24 48.1571 113.279 46.2768 113.279 46.2768L113.351 42.9244L111.029 45.3398C111.029 45.3398 109.572 46.8526 107.95 48.3003C107.14 49.0242 106.285 49.7296 105.604 50.1938C105.263 50.4259 104.961 50.5951 104.78 50.6725C104.743 50.6879 104.718 50.6933 104.695 50.6981C93.0311 47.6874 80.1167 44.6771 72.9781 44.6771C69.4626 44.6771 66.2849 47.276 63.2883 50.7848C60.2917 54.2936 57.46 58.8726 54.983 63.4377C50.8912 70.9789 48.2991 77.2966 47.34 79.6854C45.543 77.6484 43.7725 75.7147 42.9367 73.688C42.4686 72.5529 40.5246 69.6335 40.5246 69.6335C40.5246 69.6335 40.2278 71.3902 40.2566 72.9507C40.1547 73.0277 40.0645 73.1192 39.9891 73.2222C38.8316 74.7993 38.3315 76.9237 38.2033 79.0917C38.0749 81.2596 38.3382 83.4647 39.1009 85.2353C39.7923 86.8403 41.1996 87.9992 42.7168 88.9865C44.0441 89.8504 45.4509 90.4924 46.7111 91.0405C48.5218 98.3322 52.058 104.928 56.8631 110.373C53.2626 111.187 42.7469 112.847 36.6882 106.252C32.9722 102.208 30.1757 94.5157 29.2299 85.8182C28.284 77.1208 29.1368 67.4256 32.2871 59.3284C35.4194 51.2781 42.2507 42.6134 50.2801 35.489C58.3095 28.3645 67.5527 22.7712 75.2859 20.6562C77.6754 20.0027 80.148 19.7099 82.6197 19.6807H82.6188ZM72.9765 47.2976C79.3777 47.2976 92.5588 50.2694 104.218 53.2822C104.912 53.4616 105.381 53.2645 105.812 53.0798C106.243 52.895 106.651 52.6489 107.076 52.3588C107.928 51.7786 108.837 51.0185 109.694 50.2527C110.246 49.7601 110.265 49.7038 110.73 49.2575C110.744 49.7127 110.717 49.729 110.751 50.2195C110.816 51.239 110.92 52.2761 111.122 53.1718C111.223 53.6197 111.341 54.0311 111.546 54.4365C111.752 54.8418 112.078 55.3613 112.81 55.5596C116.998 56.6927 120.639 57.7053 123.25 58.4049C127.891 59.6484 132.05 65.4148 134.841 71.0552C135.137 71.6546 135.416 72.2477 135.683 72.8336C134.423 74.2519 132.688 75.2553 130.093 76.1427C132.586 75.1218 132.482 72.7553 133.108 70.7904C131.8 72.2981 129.971 73.3404 127.177 74.2661C125.99 73.6869 124.573 73.1766 122.922 72.8641C122.711 72.8241 122.494 72.7896 122.276 72.7564L122.263 72.7433L121.754 72.6796C121.754 72.6796 121.739 72.6757 121.733 72.6757L121.72 72.6678L121.356 72.6326C120.287 72.525 119.135 72.5042 117.904 72.592C117.857 72.5959 117.809 72.5998 117.761 72.6024C117.513 72.6218 117.261 72.6462 117.005 72.6749C116.946 72.6814 116.886 72.688 116.827 72.6946C116.525 72.7308 116.221 72.7716 115.911 72.8212C115.601 72.871 115.3 72.9272 115.003 72.9864C114.95 72.9969 114.898 73.0079 114.845 73.019C114.59 73.0718 114.339 73.1282 114.094 73.1876C114.053 73.1981 114.011 73.2074 113.969 73.2173C113.393 73.3602 112.846 73.5205 112.325 73.696C112.303 73.7038 112.282 73.7109 112.26 73.7181C110.943 74.1668 109.8 74.7112 108.813 75.3063C108.575 75.4496 108.345 75.5952 108.125 75.7436C108.049 75.7953 107.978 75.8479 107.903 75.9C107.733 76.0196 107.567 76.1403 107.407 76.2623C107.369 76.2917 107.326 76.3202 107.288 76.3496L106.91 76.6441V76.6618C106.343 77.1342 105.849 77.6156 105.429 78.0889C103.544 80.2109 103.39 82.9808 103.39 82.9808C103.39 82.9808 105.267 81.8871 106.755 80.4767C107.422 84.3779 110.621 87.5363 114.742 87.9614C119.697 88.4723 124.159 84.8431 124.67 79.8883C124.812 78.5146 124.636 77.1417 124.174 75.869C125.113 76.172 125.929 76.5433 126.628 76.9313C128.826 78.1513 133.179 79.8362 133.179 79.8362C133.179 79.8362 132.719 79.1958 132.011 78.3522C135.189 77.5341 135.075 75.007 135.708 72.8937C137.935 77.7946 139.113 81.9992 139.113 81.9992L139.553 83.5732L140.994 82.8C143.861 81.262 145.598 79.1582 146.848 76.9698C147.04 77.7267 147.168 78.5734 147.207 79.4333C147.288 81.2026 147.012 83.0288 146.508 84.1974C146.186 84.947 145.177 85.9392 143.87 86.7895C142.564 87.6399 141.006 88.3798 139.725 88.9153L139.106 89.1739L138.955 89.8265C134.473 109.051 117.309 123.289 96.6599 123.289H91.3509C70.7018 123.289 53.5403 109.051 49.0582 89.8265L48.9045 89.1739L48.285 88.9153C47.004 88.3798 45.4472 87.6399 44.1405 86.7895C42.834 85.9392 41.828 84.947 41.5049 84.1974C40.9838 82.9875 40.7057 81.0738 40.8138 79.2466C40.8753 78.2064 41.0716 77.1984 41.3487 76.3517C42.8331 78.8768 45.0156 80.912 46.7192 82.972L48.1442 84.6935L48.9499 82.6084C48.9499 82.6084 50.3497 79.0013 52.6042 74.0906C53.0072 75.8803 53.408 77.6849 56.0007 78.3522C55.2928 79.1958 54.8322 79.8362 54.8322 79.8362C54.8322 79.8362 59.1856 78.1513 61.384 76.9313C62.0835 76.5431 62.8993 76.1714 63.8388 75.8684C63.3757 77.1412 63.1989 78.5144 63.3406 79.8883C63.8517 84.8431 68.3136 88.4723 73.2685 87.9614C77.3895 87.5362 80.5885 84.3775 81.2556 80.4759C82.7436 81.8868 84.6216 82.9808 84.6216 82.9808C84.6216 82.9808 84.467 80.2109 82.5826 78.0889C82.162 77.6154 81.6679 77.1337 81.1013 76.6611V76.6441L80.7257 76.3496C80.6746 76.3095 80.6156 76.271 80.5632 76.2311C80.4335 76.1328 80.2996 76.035 80.1624 75.938C80.0642 75.8686 79.9689 75.7994 79.8674 75.7309C79.658 75.5902 79.4399 75.4519 79.2146 75.3159C78.2155 74.7121 77.0584 74.1599 75.7201 73.7067C75.1875 73.5266 74.6273 73.362 74.0371 73.2159C74.0069 73.208 73.9754 73.201 73.944 73.1937C73.688 73.1315 73.4264 73.0727 73.1594 73.0177C73.1149 73.0085 73.0691 72.999 73.024 72.9899C72.7245 72.9301 72.421 72.8729 72.1073 72.8227C71.7952 72.7726 71.4888 72.7318 71.1854 72.6955C71.1291 72.689 71.0739 72.6837 71.0188 72.6771C70.7608 72.648 70.5059 72.6236 70.2545 72.604C70.2074 72.6001 70.1603 72.5962 70.1138 72.5936C68.8821 72.5058 67.729 72.5266 66.6596 72.6342L66.2961 72.6695L66.283 72.6773C66.283 72.6773 66.27 72.6812 66.2647 72.6812L65.753 72.7449L65.7399 72.758C65.5216 72.7912 65.3053 72.8257 65.0946 72.8657C63.4438 73.1782 62.0259 73.6885 60.839 74.2677C58.0451 73.342 56.2167 72.2998 54.908 70.7921C55.5345 72.757 55.4308 75.1234 57.924 76.1443C55.7082 75.3865 54.1166 74.544 52.917 73.4309C54.1655 70.7388 55.6355 67.7249 57.2836 64.6876C59.7104 60.2148 62.4871 55.7579 65.2793 52.4883C68.0717 49.2187 70.862 47.2992 72.9754 47.2992L72.9765 47.2976ZM69.6227 63.2657C65.7611 63.2526 62.9354 64.0226 62.9354 64.0226C62.9354 64.0226 68.7505 65.0475 74.7617 66.4645C80.7728 67.8814 86.4342 69.5617 86.4342 69.5617C86.4342 69.5617 81.8112 65.4343 75.3628 63.9143C73.3477 63.4393 71.3779 63.2716 69.6227 63.2657ZM118.395 63.2657C116.64 63.2709 114.671 63.4393 112.655 63.9143C106.207 65.4343 101.583 69.5617 101.583 69.5617C101.583 69.5617 107.245 67.8814 113.256 66.4645C119.267 65.0475 125.082 64.0226 125.082 64.0226C125.082 64.0226 122.256 63.2528 118.395 63.2657ZM69.3099 75.1874C69.8609 75.2026 70.4357 75.245 71.0376 75.3202C71.1005 75.328 71.1634 75.3378 71.2265 75.3465C71.3782 75.3669 71.5294 75.3872 71.6847 75.4121C71.8363 75.4364 71.9743 75.4679 72.1214 75.4946C72.0755 75.4972 72.0296 75.5007 71.9839 75.5051C71.5299 75.552 71.0897 75.6878 70.6882 75.9048C70.2868 76.1218 69.932 76.4157 69.6441 76.7698C69.3563 77.1239 69.141 77.5313 69.0105 77.9686C68.8801 78.4059 68.8372 78.8647 68.884 79.3186C68.9786 80.2353 69.4335 81.0767 70.1485 81.6581C70.8635 82.2394 71.7801 82.513 72.6968 82.4185C73.6136 82.3241 74.4552 81.8693 75.0367 81.1542C75.6182 80.4392 75.8919 79.5225 75.7975 78.6057C75.7407 78.0552 75.5532 77.5261 75.2507 77.0626C74.9482 76.5992 74.5395 76.2147 74.0583 75.9411C76.052 76.5193 77.5453 77.3302 78.716 78.1853C78.716 78.2248 78.7303 78.2636 78.7342 78.3031C79.0998 81.8494 76.5465 84.9887 73.0002 85.3546C69.4539 85.7202 66.3146 83.1669 65.9487 79.6205C65.7869 78.0516 66.2764 76.5224 67.1895 75.2505C67.8592 75.1933 68.5618 75.1661 69.3073 75.1869L69.3099 75.1874ZM118.707 75.1874C119.453 75.1666 120.155 75.194 120.824 75.2511C121.738 76.523 122.23 78.0521 122.068 79.6211C121.702 83.1674 118.56 85.7208 115.014 85.3552C111.468 84.9893 108.914 81.8501 109.28 78.3037C109.28 78.2643 109.293 78.2253 109.298 78.1859C110.468 77.3313 111.962 76.5211 113.955 75.9431C113.474 76.2167 113.066 76.6011 112.763 77.0643C112.461 77.5275 112.274 78.0561 112.217 78.6063C112.123 79.523 112.397 80.4398 112.978 81.1549C113.56 81.8699 114.401 82.3247 115.318 82.4191C116.235 82.5135 117.151 82.2399 117.866 81.6586C118.581 81.0773 119.036 80.2358 119.131 79.3192C119.178 78.8652 119.135 78.4065 119.004 77.9691C118.874 77.5318 118.658 77.1245 118.371 76.7704C118.083 76.4163 117.728 76.1223 117.326 75.9053C116.925 75.6883 116.485 75.5525 116.031 75.5057C115.985 75.5013 115.94 75.4978 115.894 75.4952C116.041 75.4685 116.179 75.437 116.331 75.4125C117.172 75.2777 117.961 75.2087 118.707 75.1878L118.707 75.1874ZM60.551 94.1201C60.0454 94.1201 59.5606 94.3209 59.2031 94.6784C58.8456 95.0359 58.6446 95.5209 58.6446 96.0265C58.6446 96.5321 58.8456 97.017 59.2031 97.3745C59.5606 97.732 60.0454 97.9328 60.551 97.9328C61.0566 97.9328 61.5415 97.732 61.899 97.3745C62.2565 97.017 62.4574 96.5321 62.4574 96.0265C62.4574 95.5209 62.2565 95.0359 61.899 94.6784C61.5415 94.3209 61.0566 94.1201 60.551 94.1201ZM68.4366 94.4667C67.931 94.4667 67.4461 94.6675 67.0886 95.025C66.7311 95.3826 66.5302 95.8675 66.5302 96.3731C66.5302 96.8787 66.7311 97.3636 67.0886 97.7211C67.4461 98.0786 67.931 98.2795 68.4366 98.2795C68.9422 98.2795 69.4272 98.0786 69.7847 97.7211C70.1422 97.3636 70.343 96.8787 70.343 96.3731C70.343 95.8675 70.1422 95.3826 69.7847 95.025C69.4272 94.6675 68.9422 94.4667 68.4366 94.4667ZM76.7554 94.4667C76.2498 94.4667 75.7649 94.6675 75.4074 95.025C75.0499 95.3826 74.849 95.8675 74.849 96.3731C74.849 96.8787 75.0499 97.3636 75.4074 97.7211C75.7649 98.0786 76.2498 98.2795 76.7554 98.2795C77.261 98.2795 77.746 98.0786 78.1035 97.7211C78.461 97.3636 78.6617 96.8787 78.6617 96.3731C78.6617 95.8675 78.461 95.3826 78.1035 95.025C77.746 94.6675 77.261 94.4667 76.7554 94.4667ZM64.3638 101.052C63.8582 101.052 63.3734 101.253 63.0158 101.611C62.6583 101.968 62.4574 102.453 62.4574 102.959C62.4574 103.464 62.6583 103.949 63.0158 104.307C63.3734 104.664 63.8582 104.865 64.3638 104.865C64.8694 104.865 65.3542 104.664 65.7117 104.307C66.0693 103.949 66.2702 103.464 66.2702 102.959C66.2702 102.453 66.0693 101.968 65.7117 101.611C65.3542 101.253 64.8694 101.052 64.3638 101.052ZM72.7694 101.399C72.2638 101.399 71.7788 101.6 71.4213 101.957C71.0638 102.315 70.863 102.8 70.863 103.305C70.863 103.811 71.0638 104.296 71.4213 104.653C71.7788 105.011 72.2638 105.212 72.7694 105.212C73.275 105.212 73.7598 105.011 74.1174 104.653C74.4749 104.296 74.6758 103.811 74.6758 103.305C74.6758 102.8 74.4749 102.315 74.1174 101.957C73.7598 101.6 73.275 101.399 72.7694 101.399ZM108.48 104.197C108.48 104.197 106.365 105.916 105.024 107.124C103.684 108.333 101.894 109.429 100.119 109.429C98.1112 109.429 96.8797 108.824 96.1098 108.255C95.3397 107.686 95.1119 107.241 95.1119 107.241L94.0755 105.382L92.8805 107.145C92.8805 107.145 91.4393 109.429 87.8147 109.429C86.2537 109.429 84.4177 108.333 83.0222 107.112C81.6266 105.89 79.5378 104.284 79.5378 104.284C79.5378 104.284 79.6743 107.66 81.2972 109.081C82.9202 110.503 85.1589 112.049 87.8147 112.049C91.1217 112.049 92.8772 110.7 93.9171 109.685C94.185 109.98 94.1235 110.047 94.5514 110.363C95.7169 111.224 97.5638 112.049 100.119 112.049C102.906 112.049 105.188 110.503 106.779 109.069C108.371 107.634 108.48 104.197 108.48 104.197ZM101.798 125.628V129.219C101.566 129.356 101.449 129.478 100.496 129.795C99.1346 130.247 97.0044 130.719 94.0099 130.719C91.0153 130.719 88.8849 130.247 87.5234 129.795C86.572 129.479 86.4545 129.359 86.2211 129.222V125.628C87.9058 125.814 89.6182 125.911 91.354 125.911H96.6629C98.3995 125.911 100.113 125.814 101.798 125.628Z" fill="#608199"/>
<path d="M94.0854 18.3522V21.161C102.663 23.315 109.279 27.0549 109.279 27.0549L109.66 27.2748L110.096 27.2208C110.096 27.2208 124.866 25.4628 136.371 31.108C141.914 33.8277 148.386 41.1568 153.268 49.717C158.151 58.2772 161.491 68.0806 161.371 75.4987C161.128 90.5993 151.659 100.391 144.965 105.614C140.52 109.083 134.821 109.599 131.821 109.601C136.286 104.31 139.58 97.9918 141.306 91.0423C142.567 90.4942 143.972 89.8501 145.3 88.9856C146.817 87.9983 148.225 86.8394 148.916 85.2344C149.653 83.5243 149.923 81.41 149.827 79.3135C149.731 77.2171 149.281 75.1501 148.256 73.5538C148.247 73.5401 148.238 73.5265 148.228 73.5132C148.26 71.9534 147.596 69.9434 147.596 69.9434C147.596 69.9434 146.251 72.1935 145.638 73.5565C144.594 75.8736 143.224 77.8089 141.035 79.4286C140.442 77.5393 139.324 74.2093 137.187 69.8899C134.27 63.9954 130.034 57.507 123.927 55.8708C121.424 55.2001 117.862 54.2127 113.841 53.123C113.794 53.0062 113.736 52.8557 113.677 52.5955C113.531 51.9485 113.424 50.996 113.362 50.0494C113.239 48.1562 113.278 46.2759 113.278 46.2759L113.35 42.9235L111.028 45.3389C111.028 45.3389 109.571 46.8517 107.95 48.2994C107.139 49.0233 106.285 49.7287 105.603 50.1929C105.262 50.425 104.96 50.5942 104.779 50.6716C104.743 50.687 104.718 50.6924 104.694 50.6972C101.204 49.7964 97.6123 48.9063 94.0865 48.0861V50.7934C97.4624 51.5771 100.897 52.4233 104.218 53.2813C104.913 53.4608 105.381 53.2636 105.813 53.0789C106.243 52.8941 106.651 52.648 107.077 52.3579C107.928 51.7777 108.837 51.0176 109.694 50.2518C110.246 49.7592 110.265 49.7029 110.73 49.2566C110.745 49.7118 110.717 49.7282 110.751 50.2187C110.817 51.2381 110.92 52.2753 111.122 53.171C111.223 53.6189 111.341 54.0302 111.547 54.4356C111.752 54.8409 112.078 55.3605 112.811 55.5587C116.998 56.6919 120.639 57.7045 123.25 58.4041C127.891 59.6476 132.05 65.4139 134.841 71.0543C135.137 71.6537 135.416 72.2468 135.683 72.8327C134.423 74.251 132.688 75.2544 130.093 76.1418C132.586 75.1209 132.482 72.7545 133.108 70.7896C131.8 72.2973 129.972 73.3396 127.178 74.2653C125.991 73.6861 124.573 73.1757 122.922 72.8632C122.711 72.8232 122.494 72.7887 122.276 72.7555L122.263 72.7424L121.754 72.6787C121.754 72.6787 121.739 72.6748 121.733 72.6748L121.72 72.6669L121.356 72.6317C120.287 72.5241 119.135 72.5033 117.904 72.5911C117.857 72.595 117.809 72.5989 117.761 72.6015C117.513 72.6209 117.261 72.6453 117.005 72.674C116.946 72.6805 116.886 72.6871 116.826 72.6938C116.525 72.73 116.221 72.7707 115.911 72.8203C115.6 72.8701 115.299 72.9263 115.003 72.9855C114.95 72.996 114.898 73.007 114.845 73.0181C114.589 73.0709 114.339 73.1273 114.093 73.1868C114.053 73.1972 114.011 73.2065 113.969 73.2164C113.393 73.3593 112.846 73.5197 112.325 73.6951C112.303 73.703 112.281 73.71 112.26 73.7172C110.943 74.1659 109.8 74.7104 108.813 75.3055C108.575 75.4488 108.346 75.5944 108.125 75.7428C108.049 75.7944 107.978 75.8471 107.903 75.8992C107.733 76.0188 107.567 76.1394 107.407 76.2613C107.369 76.2908 107.326 76.3193 107.288 76.3487L106.909 76.6432V76.6609C106.343 77.1333 105.849 77.6147 105.429 78.088C103.544 80.21 103.39 82.9799 103.39 82.9799C103.39 82.9799 105.267 81.8862 106.755 80.4757C107.422 84.377 110.621 87.5354 114.742 87.9605C119.697 88.4714 124.159 84.8422 124.67 79.8874C124.812 78.5137 124.636 77.1408 124.174 75.8682C125.113 76.1712 125.929 76.5424 126.628 76.9304C128.826 78.1504 133.179 79.8353 133.179 79.8353C133.179 79.8353 132.718 79.195 132.011 78.3514C135.189 77.5332 135.075 75.0062 135.708 72.8928C137.935 77.7938 139.113 81.9983 139.113 81.9983L139.553 83.5723L140.994 82.7992C143.861 81.2612 145.597 79.1574 146.848 76.969C147.04 77.7258 147.168 78.5725 147.207 79.4325C147.288 81.2018 147.012 83.0279 146.508 84.1965C146.185 84.9461 145.177 85.9383 143.87 86.7887C142.564 87.639 141.006 88.3789 139.725 88.9144L139.106 89.173L138.955 89.8256C134.473 109.05 117.309 123.288 96.6598 123.288H94.083V125.908H96.6596C98.3962 125.908 100.11 125.811 101.795 125.625V129.217C101.562 129.354 101.446 129.476 100.493 129.792C99.1433 130.24 97.036 130.707 94.083 130.715V133.335C97.3137 133.327 99.708 132.813 101.317 132.279C102.337 131.941 103.039 131.585 103.448 131.355H117.308C121.451 131.355 123.202 133.268 124.224 135.286C125.247 137.304 125.294 139.357 125.294 139.357L127.914 139.323C127.914 139.323 127.896 136.731 126.564 134.101C125.231 131.471 122.336 128.735 117.308 128.735H104.415V125.26C114.19 123.61 122.896 118.891 129.524 112.122C130.048 112.188 139.404 113.273 146.575 107.678C153.58 102.212 163.729 91.7154 163.989 75.5377C164.122 67.3168 160.59 57.2685 155.541 48.4156C150.491 39.5627 143.971 31.919 137.522 28.7545C125.364 22.789 110.998 24.5141 110.244 24.6073C109.665 24.2722 102.934 20.4365 94.083 18.3506L94.0854 18.3522ZM118.394 63.2648C116.639 63.27 114.67 63.4384 112.655 63.9133C106.206 65.4334 101.582 69.5608 101.582 69.5608C101.582 69.5608 107.244 67.8805 113.255 66.4636C119.266 65.0466 125.081 64.0217 125.081 64.0217C125.081 64.0217 122.256 63.2519 118.394 63.2648ZM118.706 75.1865C119.452 75.1657 120.154 75.1931 120.824 75.2502C121.737 76.5221 122.229 78.0512 122.067 79.6202C121.702 83.1665 118.56 85.7199 115.013 85.3543C111.467 84.9884 108.913 81.8492 109.279 78.3028C109.279 78.2634 109.292 78.2244 109.297 78.185C110.467 77.3304 111.961 76.5202 113.954 75.9422C113.473 76.2158 113.065 76.6002 112.763 77.0634C112.461 77.5266 112.273 78.0552 112.217 78.6053C112.122 79.5221 112.396 80.4389 112.977 81.154C113.559 81.869 114.4 82.3237 115.317 82.4182C116.234 82.5126 117.151 82.239 117.866 81.6577C118.581 81.0764 119.035 80.2349 119.13 79.3183C119.177 78.8643 119.134 78.4056 119.003 77.9682C118.873 77.5309 118.658 77.1236 118.37 76.7695C118.082 76.4154 117.727 76.1214 117.326 75.9044C116.924 75.6874 116.484 75.5516 116.03 75.5048C115.985 75.5004 115.939 75.4969 115.893 75.4943C116.041 75.4676 116.179 75.4361 116.331 75.4116C117.172 75.2768 117.961 75.2078 118.706 75.1869L118.706 75.1865ZM108.48 104.196C108.48 104.196 106.364 105.915 105.023 107.123C103.683 108.332 101.894 109.429 100.118 109.429C98.1105 109.429 96.8789 108.823 96.109 108.254C95.339 107.685 95.1111 107.241 95.1111 107.241L94.0854 105.401V109.894C94.1889 110.038 94.2476 110.138 94.5506 110.362C95.7162 111.223 97.563 112.048 100.118 112.048C102.905 112.048 105.187 110.502 106.778 109.068C108.37 107.633 108.48 104.196 108.48 104.196Z" fill="#30414D"/>
<path d="M94.0088 0C93.3139 0 92.6475 0.276003 92.1561 0.767367C91.6648 1.25873 91.3887 1.92521 91.3887 2.6201V152.14C91.3887 152.835 91.6648 153.501 92.1561 153.992C92.6475 154.484 93.3139 154.76 94.0088 154.76C94.7037 154.76 95.3701 154.484 95.8614 153.992C96.3528 153.501 96.6289 152.835 96.6289 152.14V2.6201C96.6289 1.92521 96.3528 1.25873 95.8614 0.767367C95.3701 0.276003 94.7037 0 94.0088 0Z" fill="#3DADE2"/>
<path d="M48.3642 25.0576C48.0168 25.0576 47.6837 25.1957 47.438 25.4413C47.1923 25.687 47.0542 26.0202 47.0542 26.3677C47.0542 26.7151 47.1923 27.0483 47.438 27.294C47.6837 27.5397 48.0168 27.6777 48.3642 27.6777H55.7921C56.1396 27.6777 56.4729 27.5397 56.7185 27.294C56.9642 27.0483 57.1022 26.7151 57.1022 26.3677C57.1022 26.0202 56.9642 25.687 56.7185 25.4413C56.4729 25.1957 56.1396 25.0576 55.7921 25.0576H48.3642ZM65.4256 25.0576C65.0781 25.0576 64.7449 25.1957 64.4992 25.4413C64.2535 25.687 64.1155 26.0202 64.1155 26.3677C64.1155 26.7151 64.2535 27.0483 64.4992 27.294C64.7449 27.5397 65.0781 27.6777 65.4256 27.6777H81.3023C81.6497 27.6777 81.983 27.5397 82.2287 27.294C82.4744 27.0483 82.6123 26.7151 82.6123 26.3677C82.6123 26.0202 82.4744 25.687 82.2287 25.4413C81.983 25.1957 81.6497 25.0576 81.3023 25.0576H65.4256Z" fill="#3DADE2"/>
<path d="M32.4262 16.7285C32.0787 16.7285 31.7455 16.8666 31.4999 17.1122C31.2542 17.3579 31.1162 17.6911 31.1162 18.0386C31.1162 18.386 31.2542 18.7192 31.4999 18.9649C31.7455 19.2106 32.0787 19.3486 32.4262 19.3486H66.4005C66.7479 19.3486 67.0812 19.2106 67.3269 18.9649C67.5726 18.7192 67.7105 18.386 67.7105 18.0386C67.7105 17.6911 67.5726 17.3579 67.3269 17.1122C67.0812 16.8666 66.7479 16.7285 66.4005 16.7285H32.4262Z" fill="#3DADE2"/>
<path d="M10.8384 58.2383C10.4909 58.2383 10.1577 58.3763 9.91204 58.622C9.66636 58.8677 9.52832 59.2009 9.52832 59.5483C9.52832 59.8958 9.66636 60.229 9.91204 60.4747C10.1577 60.7203 10.4909 60.8584 10.8384 60.8584H17.7469C18.0944 60.8584 18.4276 60.7203 18.6733 60.4747C18.919 60.229 19.057 59.8958 19.057 59.5483C19.057 59.2009 18.919 58.8677 18.6733 58.622C18.4276 58.3763 18.0944 58.2383 17.7469 58.2383H10.8384ZM26.1624 58.2383C25.815 58.2383 25.4818 58.3763 25.2361 58.622C24.9904 58.8677 24.8524 59.2009 24.8524 59.5483C24.8524 59.8958 24.9904 60.229 25.2361 60.4747C25.4818 60.7203 25.815 60.8584 26.1624 60.8584H61.2984C61.6458 60.8584 61.979 60.7203 62.2246 60.4747C62.4703 60.229 62.6084 59.8958 62.6084 59.5483C62.6084 59.2009 62.4703 58.8677 62.2246 58.622C61.979 58.3763 61.6458 58.2383 61.2984 58.2383H26.1624Z" fill="#3DADE2"/>
<path d="M10.7056 95.04C10.3581 95.04 10.0249 95.1781 9.77923 95.4238C9.53355 95.6694 9.39551 96.0026 9.39551 96.3501C9.39551 96.6975 9.53355 97.0307 9.77923 97.2764C10.0249 97.5221 10.3581 97.6601 10.7056 97.6601H30.9091C31.2565 97.6601 31.5897 97.5221 31.8354 97.2764C32.0811 97.0307 32.219 96.6975 32.219 96.3501C32.219 96.0026 32.0811 95.6694 31.8354 95.4238C31.5897 95.1781 31.2565 95.04 30.9091 95.04H10.7056Z" fill="#3DADE2"/>
<path d="M2.31298 122.786C1.96553 122.786 1.63234 122.924 1.38665 123.17C1.14097 123.416 1.00293 123.749 1.00293 124.096C1.00293 124.444 1.14097 124.777 1.38665 125.023C1.63234 125.268 1.96553 125.406 2.31298 125.406H26.329C26.6765 125.406 27.0097 125.268 27.2553 125.023C27.501 124.777 27.6391 124.444 27.6391 124.096C27.6391 123.749 27.501 123.416 27.2553 123.17C27.0097 122.924 26.6765 122.786 26.329 122.786H2.31298ZM33.6058 122.786C33.2584 122.786 32.9251 122.924 32.6794 123.17C32.4338 123.416 32.2958 123.749 32.2958 124.096C32.2958 124.444 32.4338 124.777 32.6794 125.023C32.9251 125.268 33.2584 125.406 33.6058 125.406H43.7203C44.0678 125.406 44.4011 125.268 44.6468 125.023C44.8924 124.777 45.0304 124.444 45.0304 124.096C45.0304 123.749 44.8924 123.416 44.6468 123.17C44.4011 122.924 44.0678 122.786 43.7203 122.786H33.6058Z" fill="#3DADE2"/>
<path d="M1.31005 87.543C0.962605 87.543 0.629403 87.681 0.383724 87.9267C0.138044 88.1724 0 88.5056 0 88.853C0 89.2005 0.138044 89.5337 0.383724 89.7793C0.629403 90.025 0.962605 90.1631 1.31005 90.1631H19.1825C19.5299 90.1631 19.8631 90.025 20.1088 89.7793C20.3545 89.5337 20.4925 89.2005 20.4925 88.853C20.4925 88.5056 20.3545 88.1724 20.1088 87.9267C19.8631 87.681 19.5299 87.543 19.1825 87.543H1.31005ZM28.9389 87.543C28.5914 87.543 28.2582 87.681 28.0125 87.9267C27.7669 88.1724 27.6288 88.5056 27.6288 88.853C27.6288 89.2005 27.7669 89.5337 28.0125 89.7793C28.2582 90.025 28.5914 90.1631 28.9389 90.1631H49.9891C50.3366 90.1631 50.6699 90.025 50.9155 89.7793C51.1612 89.5337 51.2992 89.2005 51.2992 88.853C51.2992 88.5056 51.1612 88.1724 50.9155 87.9267C50.6699 87.681 50.3366 87.543 49.9891 87.543H28.9389Z" fill="#3DADE2"/>
<path d="M32.5825 130.439C32.2351 130.439 31.9019 130.577 31.6562 130.823C31.4105 131.069 31.2725 131.402 31.2725 131.75C31.2725 132.097 31.4105 132.43 31.6562 132.676C31.9019 132.922 32.2351 133.06 32.5825 133.06H57.6321C57.9795 133.06 58.3128 132.922 58.5585 132.676C58.8042 132.43 58.9421 132.097 58.9421 131.75C58.9421 131.402 58.8042 131.069 58.5585 130.823C58.3128 130.577 57.9795 130.439 57.6321 130.439H32.5825Z" fill="#3DADE2"/>
<path d="M143.628 117.387C143.42 117.115 143.114 116.936 142.775 116.888C142.436 116.841 142.092 116.928 141.817 117.131L137.588 120.253L132.34 120.599C132.106 120.614 131.881 120.691 131.688 120.823C131.494 120.956 131.34 121.138 131.241 121.35C131.142 121.562 131.103 121.798 131.126 122.031C131.15 122.264 131.236 122.486 131.375 122.675L134.498 126.906L134.846 132.152C134.861 132.386 134.939 132.611 135.071 132.803C135.204 132.996 135.385 133.15 135.598 133.249C135.81 133.347 136.044 133.387 136.277 133.363C136.51 133.34 136.732 133.254 136.92 133.116L141.15 129.994L146.397 129.648C146.631 129.633 146.857 129.556 147.05 129.423C147.243 129.291 147.398 129.109 147.496 128.897C147.595 128.684 147.635 128.449 147.611 128.216C147.588 127.983 147.502 127.761 147.363 127.572L144.239 123.341L143.892 118.095C143.876 117.838 143.784 117.592 143.628 117.387ZM141.449 120.646L141.662 123.894C141.679 124.143 141.767 124.381 141.915 124.582L143.848 127.204L140.6 127.417C140.351 127.433 140.112 127.52 139.911 127.668L137.289 129.601L137.075 126.353C137.058 126.104 136.971 125.865 136.822 125.665L134.891 123.045L138.139 122.832C138.388 122.815 138.627 122.727 138.827 122.579L141.449 120.646Z" fill="#3DADE2"/>
<path d="M158.355 106.104C156.221 106.104 154.463 107.859 154.463 109.993C154.463 112.126 156.221 113.885 158.355 113.884C160.129 113.885 161.401 112.553 161.86 110.916C161.982 110.795 162.078 110.651 162.144 110.493C162.21 110.334 162.244 110.164 162.244 109.993C162.244 109.822 162.209 109.652 162.144 109.494C162.078 109.336 161.981 109.192 161.86 109.072C161.402 107.433 160.13 106.104 158.355 106.104ZM158.355 108.711C159.079 108.711 159.637 109.269 159.637 109.993C159.637 110.717 159.079 111.277 158.355 111.277C157.63 111.277 157.07 110.717 157.07 109.993C157.07 109.269 157.63 108.711 158.355 108.711Z" fill="#3DADE2"/>
<path d="M124.563 4.38785C124.355 4.11628 124.049 3.93728 123.71 3.88946C123.372 3.84163 123.028 3.92881 122.753 4.1322L118.523 7.25421L113.276 7.59959C113.042 7.61454 112.817 7.6922 112.623 7.82442C112.43 7.95664 112.276 8.13853 112.177 8.35096C112.078 8.56338 112.038 8.7985 112.062 9.03159C112.085 9.26468 112.171 9.48712 112.31 9.67555L115.434 13.9073L115.781 19.1532C115.797 19.3866 115.875 19.6115 116.007 19.8044C116.139 19.9973 116.321 20.151 116.533 20.2495C116.745 20.348 116.98 20.3877 117.213 20.3643C117.445 20.3409 117.668 20.2553 117.856 20.1166L122.085 16.9946L127.333 16.6492C127.567 16.6342 127.792 16.5566 127.986 16.4243C128.179 16.2921 128.333 16.1102 128.432 15.8978C128.531 15.6854 128.57 15.4503 128.547 15.2172C128.523 14.9841 128.438 14.7616 128.298 14.5732L125.175 10.3415L124.827 5.09556C124.811 4.83878 124.719 4.59254 124.563 4.38785ZM122.384 7.64662L122.598 10.8952C122.615 11.1439 122.703 11.3824 122.851 11.5827L124.784 14.2048L121.535 14.4183C121.286 14.4343 121.047 14.5213 120.846 14.6691L118.224 16.6021L118.011 13.3535C117.994 13.1049 117.906 12.8663 117.758 12.666L115.826 10.0461L119.075 9.83255C119.324 9.81569 119.562 9.72794 119.762 9.57968L122.384 7.64662Z" fill="#3DADE2"/>
<path d="M153.155 21.874C151.022 21.874 149.264 23.6324 149.264 25.7658C149.264 27.8992 151.022 29.6576 153.155 29.6576C154.93 29.6575 156.202 28.3264 156.661 26.6895C156.782 26.5684 156.879 26.4244 156.945 26.2659C157.011 26.1074 157.045 25.9374 157.045 25.7658C157.045 25.5941 157.011 25.4242 156.945 25.2656C156.879 25.1071 156.782 24.9632 156.661 24.8421C156.202 23.2052 154.93 21.8741 153.155 21.874ZM153.155 24.4813C153.88 24.4814 154.437 25.0416 154.437 25.7658C154.437 26.49 153.88 27.0502 153.155 27.0503C152.431 27.0503 151.871 26.49 151.871 25.7658C151.871 25.0416 152.431 24.4813 153.155 24.4813Z" fill="#3DADE2"/>
</svg>
