<svg width="172" height="160" viewBox="0 0 172 160" fill="none" xmlns="http://www.w3.org/2000/svg">
<path d="M93.7243 12.4583C58.3608 12.4583 29.6631 41.154 29.6631 76.5176C29.6631 101.622 44.1166 123.369 65.1629 133.871C62.6374 134.91 60.9973 136.764 60.08 138.575C58.703 141.292 58.6864 143.971 58.6864 143.971L61.3935 144.005C61.3935 144.005 61.4397 141.884 62.4963 139.799C63.553 137.713 65.3649 135.737 69.6456 135.737H83.9649C84.3879 135.975 85.1138 136.342 86.1685 136.692C87.8442 137.249 90.3446 137.784 93.7243 137.784C97.1041 137.784 99.6033 137.249 101.279 136.692C102.334 136.342 103.059 135.975 103.482 135.737H117.804C122.085 135.737 123.894 137.713 124.951 139.799C126.007 141.884 126.055 144.005 126.055 144.005L128.763 143.971C128.763 143.971 128.744 141.292 127.367 138.575C126.45 136.765 124.812 134.911 122.288 133.872C143.273 123.398 157.688 101.737 157.768 76.7211C157.768 76.7171 157.768 76.7144 157.768 76.7103C157.777 76.6464 157.781 76.5818 157.781 76.5172C157.781 76.4291 157.772 76.3412 157.754 76.2549C157.609 41.0149 128.995 12.458 93.7214 12.458L93.7243 12.4583ZM93.7243 15.1656C127.625 15.1656 155.076 42.6173 155.076 76.5176C155.076 101.912 139.66 123.685 117.684 133.017C117.675 133.021 117.665 133.026 117.656 133.03H104.481V129.439C123.169 126.283 138.08 112.274 142.599 94.0788C143.902 93.5124 145.354 92.8468 146.727 91.9535C148.294 90.9332 149.748 89.7358 150.462 88.0773C151.828 84.9075 151.815 80.3727 150.357 77.0858C150.287 76.9282 150.187 76.7856 150.063 76.6654C150.252 74.8194 149.666 72.6471 149.666 72.6471C149.666 72.6471 148.18 75.0758 147.274 76.8746C145.702 79.9931 143.907 82.7486 140.818 84.8859C140.49 83.0792 139.868 80.4418 138.184 76.594C135.518 70.5045 130.503 62.583 121.175 55.1967C102.368 40.3042 74.249 40.2157 74.249 40.2157L73.6306 40.2102L73.2234 40.6754C60.876 54.7325 49.6622 69.0615 47.4707 84.7273C43.9255 81.2651 41.9152 78.3167 40.75 75.5715C39.7984 73.3291 38.9367 71.1818 38.9367 71.1818C38.9367 71.1818 37.6872 73.4099 37.979 75.5707C37.9503 75.603 37.9233 75.6366 37.8978 75.6715C36.7049 77.3017 36.189 79.4959 36.0571 81.7346C35.9258 83.9732 36.1979 86.2491 36.9855 88.0774C37.7 89.7359 39.1535 90.9334 40.7211 91.9537C42.0928 92.8463 43.5465 93.5098 44.8486 94.0762C49.3677 112.273 64.2795 126.285 82.9696 129.439V133.03H69.7996C47.8062 123.707 32.3712 101.926 32.3712 76.518C32.3712 42.6176 59.8249 15.166 93.7252 15.166L93.7243 15.1656ZM74.8384 42.9597C76.5667 42.9951 102.315 43.7158 119.493 57.3189C128.454 64.4142 133.191 71.9416 135.703 77.6809C138.216 83.4201 138.485 87.2544 138.485 87.2544L138.638 89.3194L140.468 88.352C144.368 86.2885 146.712 83.3772 148.477 80.3421C148.845 82.6236 148.667 85.406 147.977 87.006C147.644 87.7807 146.601 88.8059 145.251 89.6846C143.901 90.5633 142.291 91.3279 140.968 91.8812L140.327 92.1485L140.172 92.8228C135.54 112.688 117.804 127.401 96.4667 127.401H90.98C69.6425 127.401 51.9089 112.688 47.2774 92.8228L47.1193 92.1485L46.4791 91.8812C45.1554 91.3279 43.546 90.5633 42.1958 89.6846C40.8456 88.8059 39.806 87.7807 39.4723 87.006C38.9342 85.7568 38.6478 83.7792 38.7588 81.8923C38.8224 80.8035 39.0285 79.7495 39.3198 78.868C40.8578 81.7915 43.2132 84.9897 47.5236 88.6906L49.5782 90.4513L49.758 87.7518C50.7852 72.3166 61.9931 57.6257 74.8384 42.9597ZM86.1425 47.3936L84.0475 50.585L79.2597 58.8978L76.581 51.6056C76.581 51.6056 72.1343 57.9355 71.5989 60.2459C71.0635 62.5562 71.7071 64.2998 71.7071 64.2998L73.5799 61.5499L75.9514 57.7394L78.7173 65.2672C78.7173 65.2672 85.2116 54.8199 85.9809 51.5881C86.7501 48.3563 86.1425 47.3936 86.1425 47.3936ZM73.6058 67.7752C70.0918 67.7209 64.9889 71.5331 65.5798 72.9785C66.2101 74.5204 79.7832 74.8331 81.2913 74.2167C82.7992 73.6002 77.7728 68.4769 74.2852 67.8395C74.0672 67.7997 73.84 67.7788 73.6058 67.7752V67.7752ZM113.842 67.7752C113.607 67.7792 113.38 67.7995 113.162 67.8394C109.675 68.4768 104.648 73.6002 106.156 74.2167C107.664 74.8331 121.237 74.5203 121.867 72.9785C122.458 71.533 117.356 67.7209 113.842 67.7752ZM70.8167 77.8124C70.8167 77.8124 70.7816 79.8868 70.6726 80.6527C70.5468 81.5288 70.4612 82.0252 70.4018 82.3484C70.213 82.3097 70.0245 82.2721 69.8386 82.2386C69.7209 82.2175 69.6036 82.1984 69.4868 82.1792C69.2874 82.1463 69.0901 82.1161 68.8944 82.0889C68.8037 82.0767 68.7126 82.0631 68.6229 82.0518C68.5457 82.0423 68.4687 82.0322 68.392 82.0231C68.3663 81.2714 68.2036 80.3098 67.6666 79.3102C67.1549 78.3578 64.434 77.8754 64.434 77.8754C64.434 77.8754 65.1187 79.8341 65.281 80.5904C65.4083 81.1826 65.4777 81.5531 65.54 81.8859C65.3928 81.89 65.245 81.8914 65.1006 81.8982L63.5729 81.9639L63.5864 82.0332C63.5512 82.0373 63.5147 82.04 63.4795 82.0454C61.3937 82.3199 59.6378 82.9116 58.2363 83.5893C55.4331 84.9448 52.4887 88.6443 52.4887 88.6443C52.4887 88.6443 57.0775 87.1583 59.4165 86.0273C60.1698 85.663 61.0466 85.3233 62.0488 85.064C61.4782 86.3509 61.1964 87.7582 61.2633 89.1935C61.5029 94.3351 65.8966 98.3347 71.0382 98.0954C75.3142 97.8962 78.7977 94.8246 79.7126 90.8388C81.1659 92.3807 83.0398 93.6189 83.0398 93.6189C83.0398 93.6189 83.0399 90.7514 81.221 88.4527C80.8151 87.9403 80.3333 87.416 79.7771 86.8961V86.8772L79.4043 86.5491C79.3501 86.5017 79.2879 86.4557 79.2329 86.4085C79.1179 86.3103 78.9978 86.2127 78.8761 86.1154C78.7624 86.0246 78.6507 85.9344 78.5319 85.8447C78.339 85.6991 78.1383 85.5552 77.9311 85.413C77.8268 85.3417 77.7246 85.27 77.6169 85.1997C77.9837 84.7138 78.335 84.1037 78.5732 83.3543C78.9007 82.324 77.3524 80.0341 77.3524 80.0341C77.3524 80.0341 76.4234 81.8895 75.9932 82.533C75.5911 83.1344 75.2993 83.5513 75.0977 83.8327C74.8911 83.7404 74.6795 83.6506 74.4633 83.5627C74.4146 83.5427 74.3645 83.5223 74.3149 83.5026C74.0958 83.4154 73.872 83.3308 73.6427 83.2487C73.6007 83.2332 73.5587 83.2175 73.5168 83.2025C73.3814 83.155 73.2421 83.1089 73.1033 83.0632C73.3371 82.3498 73.5166 81.3963 73.3593 80.2776C73.2089 79.2071 70.822 77.8131 70.822 77.8131L70.8167 77.8124ZM116.631 77.8124C116.631 77.8124 114.244 79.2064 114.093 80.277C113.936 81.3963 114.115 82.3504 114.349 83.064C114.218 83.1074 114.084 83.1497 113.955 83.1948C113.886 83.2192 113.82 83.2449 113.751 83.2696C113.552 83.3418 113.356 83.4162 113.165 83.4922C113.094 83.52 113.025 83.5477 112.956 83.576C112.751 83.6595 112.551 83.7452 112.355 83.8328C112.153 83.5514 111.861 83.1341 111.459 82.5323C111.029 81.8888 110.1 80.0342 110.1 80.0342C110.1 80.0342 108.551 82.324 108.878 83.3543C109.117 84.1041 109.469 84.7144 109.836 85.2004C109.74 85.2632 109.647 85.3269 109.554 85.3906C109.326 85.546 109.107 85.7036 108.896 85.8629C108.807 85.931 108.722 85.9998 108.635 86.0686C108.475 86.195 108.321 86.3218 108.171 86.4498C108.132 86.4831 108.088 86.5158 108.051 86.5492L107.678 86.8773V86.8934C107.12 87.4141 106.638 87.9394 106.231 88.4527C104.41 90.7514 104.412 93.619 104.412 93.619C104.412 93.619 106.285 92.3808 107.739 90.8389C108.654 94.8246 112.14 97.8962 116.416 98.0955C121.558 98.3347 125.949 94.3351 126.188 89.1935C126.254 87.7582 125.973 86.351 125.402 85.0641C126.405 85.3234 127.282 85.663 128.035 86.0273C130.374 87.1583 134.963 88.6437 134.963 88.6437C134.963 88.6437 132.019 84.9441 129.216 83.5887C127.814 82.9109 126.058 82.32 123.973 82.0455C123.937 82.0414 123.901 82.0374 123.866 82.0333L123.879 81.964L122.351 81.8982C122.207 81.8914 122.059 81.8901 121.912 81.886C121.975 81.5532 122.045 81.1826 122.171 80.5904C122.334 79.8341 123.019 77.8755 123.019 77.8755C123.019 77.8755 120.297 78.3579 119.785 79.3103C119.248 80.3099 119.086 81.2714 119.06 82.0231C118.985 82.0312 118.91 82.0418 118.835 82.051C118.74 82.0632 118.644 82.0767 118.548 82.0901C118.36 82.1162 118.17 82.1454 117.979 82.1769C117.855 82.1974 117.73 82.2178 117.605 82.2406C117.422 82.2739 117.236 82.3108 117.051 82.349C116.991 82.026 116.906 81.5297 116.78 80.6526C116.67 79.8868 116.636 77.8123 116.636 77.8123L116.631 77.8124ZM66.569 84.6254C67.4612 84.6466 68.4104 84.7328 69.4301 84.9164C69.6144 84.9504 69.8 84.9863 69.9883 85.0263C70.0357 85.0357 70.0819 85.0445 70.1298 85.0549C70.2862 85.0893 70.4281 85.1297 70.5796 85.1662C70.5311 85.1666 70.4825 85.1679 70.434 85.1703C69.4827 85.2145 68.5879 85.6349 67.9465 86.3388C67.3051 87.0428 66.9696 87.9728 67.0139 88.9241C67.0581 89.8754 67.4785 90.7702 68.1825 91.4116C68.8865 92.053 69.8165 92.3884 70.7678 92.3442C71.7191 92.2999 72.6138 91.8796 73.2552 91.1756C73.8966 90.4716 74.2321 89.5417 74.1878 88.5904C74.1612 88.0181 73.998 87.4604 73.7119 86.964C73.4258 86.4676 73.025 86.0468 72.5431 85.7369C74.5673 86.4489 76.0626 87.3723 77.2212 88.3225C77.2212 88.3649 77.2347 88.4073 77.2347 88.4498C77.4045 92.1286 74.5898 95.2215 70.9106 95.393C67.2306 95.5642 64.139 92.7455 63.9676 89.0655C63.8918 87.4374 64.4879 85.888 65.5036 84.6288C65.8507 84.6193 66.2054 84.6167 66.5698 84.6248L66.569 84.6254ZM120.878 84.6254C121.242 84.6173 121.597 84.6187 121.944 84.6295C122.96 85.8887 123.556 87.4381 123.48 89.0661C123.309 92.7461 120.217 95.562 116.537 95.3908C112.858 95.2194 110.043 92.1293 110.213 88.4505V88.4464C110.213 88.4047 110.227 88.3635 110.227 88.3219C111.385 87.3715 112.881 86.4484 114.906 85.7363C114.424 86.0461 114.023 86.4667 113.737 86.963C113.451 87.4593 113.287 88.0168 113.261 88.5891C113.239 89.0602 113.31 89.5311 113.47 89.9747C113.63 90.4184 113.875 90.8261 114.193 91.1748C114.511 91.5234 114.894 91.8061 115.321 92.0067C115.748 92.2072 116.21 92.3218 116.681 92.3437C117.632 92.3879 118.562 92.0524 119.266 91.411C119.97 90.7696 120.39 89.8748 120.435 88.9235C120.479 87.9722 120.143 87.0423 119.502 86.3383C118.86 85.6344 117.966 85.214 117.014 85.1697C116.966 85.1673 116.917 85.166 116.868 85.1656C117.02 85.1292 117.162 85.0886 117.318 85.0543C117.398 85.0367 117.475 85.0232 117.555 85.0068C117.71 84.9746 117.864 84.9442 118.017 84.9159C119.037 84.7321 119.986 84.646 120.879 84.6249L120.878 84.6254ZM56.5423 94.5893C56.1833 94.5893 55.8389 94.7318 55.585 94.9857C55.3311 95.2396 55.1886 95.5839 55.1886 95.9429V108.015H82.2496V103.452H105.242V108.015H132.306V95.9429C132.306 95.5839 132.163 95.2396 131.909 94.9857C131.655 94.7318 131.311 94.5893 130.952 94.5893C130.593 94.5893 130.249 94.7319 129.995 94.9858C129.741 95.2396 129.598 95.5839 129.598 95.9429V105.308H107.949V98.6026C107.949 98.2436 107.807 97.8993 107.553 97.6455C107.299 97.3916 106.955 97.249 106.596 97.249C106.237 97.249 105.892 97.3915 105.638 97.6454C105.384 97.8992 105.242 98.2436 105.242 98.6026V100.744H82.2496V98.6026C82.2495 98.2436 82.107 97.8993 81.8531 97.6455C81.5993 97.3916 81.255 97.249 80.896 97.249C80.537 97.249 80.1927 97.3916 79.9389 97.6455C79.685 97.8993 79.5423 98.2436 79.5423 98.6026V105.308H57.8959V95.9429C57.8958 95.5839 57.7533 95.2396 57.4994 94.9858C57.2456 94.7319 56.9013 94.5893 56.5423 94.5893ZM81.25 113.581C81.25 113.581 86.8768 116.636 93.723 116.636C100.569 116.636 106.198 113.581 106.198 113.581C106.198 113.581 100.105 113.929 93.723 113.929C87.3411 113.929 81.25 113.581 81.25 113.581ZM101.773 129.816V133.527C101.532 133.669 101.412 133.795 100.427 134.122C99.0202 134.589 96.8188 135.077 93.7243 135.077C90.63 135.077 88.4288 134.589 87.022 134.122C86.0388 133.796 85.9174 133.672 85.676 133.53V129.817C87.4169 130.009 89.1862 130.109 90.98 130.109H96.4667C98.2612 130.109 100.031 130.008 101.773 129.816Z" fill="#608199"/>
<path d="M93.7237 12.4582C93.7101 12.4582 93.7008 12.4589 93.6899 12.4589V15.1662C93.7035 15.1662 93.7128 15.1655 93.7237 15.1655C127.624 15.1655 155.076 42.6171 155.076 76.5175C155.076 101.912 139.659 123.685 117.684 133.016C117.674 133.021 117.665 133.025 117.655 133.03H104.48V129.438C123.168 126.283 138.079 112.273 142.599 94.0786C143.901 93.5122 145.353 92.8467 146.726 91.9534C148.294 90.9331 149.747 89.7356 150.462 88.0772C151.827 84.9074 151.814 80.3725 150.356 77.0857C150.286 76.9281 150.186 76.7854 150.062 76.6653C150.252 74.8193 149.666 72.647 149.666 72.647C149.666 72.647 148.18 75.0757 147.273 76.8744C145.701 79.9929 143.907 82.7484 140.817 84.8857C140.49 83.079 139.868 80.4416 138.183 76.5939C135.517 70.5043 130.502 62.5829 121.174 55.1965C112.758 48.5319 102.481 44.8375 93.6898 42.7836V45.5818C102.009 47.5817 111.643 51.1031 119.493 57.319C128.453 64.4143 133.19 71.9417 135.703 77.681C138.216 83.4202 138.485 87.2545 138.485 87.2545L138.638 89.3195L140.468 88.3521C144.368 86.2886 146.711 83.3773 148.477 80.3422C148.845 82.6236 148.666 85.4061 147.977 87.0061C147.643 87.7807 146.601 88.806 145.251 89.6847C143.9 90.5634 142.291 91.328 140.967 91.8813L140.327 92.1486L140.171 92.8229C135.539 112.688 117.804 127.401 96.4661 127.401H93.6898V130.109H96.4661C98.2606 130.109 100.031 130.008 101.772 129.816V133.527C101.532 133.669 101.411 133.795 100.426 134.122C99.0197 134.589 96.8185 135.077 93.724 135.077C93.7105 135.077 93.7009 135.077 93.6901 135.077V137.784C93.7037 137.784 93.7132 137.784 93.724 137.784C97.1037 137.784 99.6028 137.249 101.279 136.692C102.333 136.342 103.058 135.975 103.481 135.737H117.804C122.084 135.737 123.893 137.713 124.95 139.799C126.007 141.884 126.055 144.005 126.055 144.005L128.763 143.971C128.763 143.971 128.744 141.292 127.366 138.575C126.449 136.765 124.811 134.911 122.288 133.871C143.273 123.398 157.688 101.737 157.767 76.7211C157.767 76.7171 157.767 76.7144 157.767 76.7103C157.776 76.6464 157.781 76.5818 157.781 76.5172C157.78 76.4291 157.771 76.3412 157.754 76.2549C157.609 41.0149 128.995 12.458 93.721 12.458L93.7237 12.4582ZM113.841 67.775C113.607 67.7791 113.38 67.7993 113.162 67.8393C109.674 68.4766 104.648 73.6001 106.156 74.2165C107.664 74.833 121.236 74.5201 121.866 72.9783C122.457 71.5328 117.355 67.7207 113.841 67.775ZM116.63 77.8123C116.63 77.8123 114.243 79.2063 114.093 80.2768C113.936 81.3961 114.114 82.3503 114.348 83.0638C114.217 83.1073 114.083 83.1495 113.954 83.1946C113.885 83.219 113.819 83.2447 113.751 83.2695C113.551 83.3416 113.356 83.4161 113.164 83.492C113.093 83.5199 113.024 83.5476 112.955 83.5759C112.751 83.6594 112.55 83.7451 112.354 83.8326C112.153 83.5512 111.861 83.1339 111.458 82.5321C111.028 81.8887 110.099 80.034 110.099 80.034C110.099 80.034 108.55 82.3238 108.878 83.3541C109.116 84.1039 109.468 84.7143 109.835 85.2003C109.739 85.2631 109.647 85.3268 109.553 85.3905C109.326 85.5458 109.106 85.7034 108.896 85.8627C108.806 85.9308 108.721 85.9997 108.635 86.0684C108.475 86.1948 108.32 86.3216 108.17 86.4496C108.131 86.4829 108.088 86.5156 108.05 86.549L107.677 86.8771V86.8932C107.12 87.414 106.637 87.9393 106.23 88.4525C104.41 90.7512 104.412 93.6188 104.412 93.6188C104.412 93.6188 106.285 92.3807 107.738 90.8388C108.654 94.8245 112.139 97.8961 116.415 98.0953C121.557 98.3346 125.948 94.335 126.187 89.1934C126.254 87.7581 125.972 86.3508 125.402 85.0639C126.404 85.3232 127.281 85.6628 128.035 86.0272C130.374 87.1582 134.963 88.6436 134.963 88.6436C134.963 88.6436 132.018 84.9439 129.215 83.5885C127.813 82.9108 126.058 82.3198 123.972 82.0453C123.937 82.0412 123.9 82.0372 123.865 82.0332L123.878 81.9638L122.351 81.898C122.206 81.8912 122.059 81.8899 121.912 81.8858C121.974 81.553 122.044 81.1825 122.171 80.5903C122.333 79.834 123.018 77.8753 123.018 77.8753C123.018 77.8753 120.296 78.3577 119.785 79.3101C119.247 80.3098 119.085 81.2712 119.059 82.0229C118.985 82.031 118.909 82.0416 118.834 82.0508C118.739 82.063 118.643 82.0765 118.548 82.0899C118.359 82.1161 118.17 82.1452 117.978 82.1768C117.854 82.1972 117.73 82.2176 117.604 82.2404C117.421 82.2737 117.236 82.3106 117.05 82.3488C116.99 82.0258 116.905 81.5296 116.779 80.6524C116.67 79.8866 116.635 77.8122 116.635 77.8122L116.63 77.8123ZM120.877 84.6253C121.242 84.6171 121.596 84.6185 121.943 84.6293C122.959 85.8885 123.555 87.4379 123.479 89.0659C123.308 92.746 120.216 95.5619 116.536 95.3906C112.857 95.2192 110.043 92.1291 110.212 88.4503V88.4463C110.212 88.4046 110.226 88.3633 110.226 88.3217C111.385 87.3714 112.88 86.4482 114.905 85.7362C114.423 86.0459 114.022 86.4665 113.736 86.9628C113.45 87.4591 113.287 88.0167 113.26 88.589C113.238 89.0601 113.309 89.5309 113.469 89.9746C113.629 90.4182 113.875 90.826 114.192 91.1746C114.51 91.5233 114.893 91.8059 115.32 92.0065C115.747 92.207 116.209 92.3216 116.68 92.3435C117.631 92.3877 118.561 92.0522 119.265 91.4108C119.969 90.7695 120.39 89.8746 120.434 88.9233C120.478 87.972 120.143 87.0421 119.501 86.3382C118.86 85.6342 117.965 85.2138 117.014 85.1695C116.965 85.1672 116.916 85.1658 116.868 85.1655C117.019 85.1291 117.161 85.0884 117.317 85.0542C117.397 85.0366 117.475 85.023 117.554 85.0067C117.709 84.9744 117.864 84.944 118.016 84.9157C119.036 84.7319 119.986 84.6459 120.878 84.6247L120.877 84.6253ZM130.951 94.5891C130.592 94.5891 130.248 94.7318 129.994 94.9856C129.74 95.2395 129.598 95.5837 129.598 95.9427V105.308H107.949V98.6024C107.949 98.2434 107.806 97.8992 107.552 97.6453C107.298 97.3915 106.954 97.2488 106.595 97.2488C106.236 97.2488 105.892 97.3914 105.638 97.6452C105.384 97.8991 105.241 98.2434 105.241 98.6024V100.744H93.6895V103.452H105.241V108.015H132.305V95.9427C132.305 95.5837 132.162 95.2394 131.909 94.9855C131.655 94.7317 131.31 94.5891 130.951 94.5891ZM106.197 113.581C106.197 113.581 100.104 113.928 93.7223 113.928C93.7088 113.928 93.7008 113.928 93.6899 113.928V116.636C93.7035 116.636 93.7115 116.636 93.7223 116.636C100.568 116.636 106.197 113.58 106.197 113.58V113.581Z" fill="#30414D"/>
<path d="M93.7241 0C93.006 0 92.3172 0.285205 91.8095 0.792952C91.3017 1.3007 91.0166 1.98939 91.0166 2.70745V157.212C91.0166 157.93 91.3017 158.619 91.8095 159.127C92.3172 159.634 93.006 159.92 93.7241 159.92C94.4421 159.92 95.1307 159.634 95.6385 159.127C96.1462 158.619 96.4315 157.93 96.4315 157.212V2.70745C96.4315 1.98939 96.1462 1.3007 95.6385 0.792952C95.1307 0.285205 94.4421 0 93.7241 0Z" fill="#3DADE2"/>
<path d="M15.634 126.185C15.275 126.185 14.9306 126.327 14.6767 126.581C14.4228 126.835 14.2803 127.179 14.2803 127.538C14.2803 127.897 14.4228 128.242 14.6767 128.496C14.9306 128.749 15.275 128.892 15.634 128.892H32.04C32.399 128.892 32.7433 128.749 32.9971 128.496C33.251 128.242 33.3937 127.897 33.3937 127.538C33.3937 127.179 33.251 126.835 32.9971 126.581C32.7433 126.327 32.399 126.185 32.04 126.185H15.634ZM41.9947 126.185C41.6356 126.185 41.2914 126.327 41.0375 126.581C40.7837 126.835 40.6409 127.179 40.6409 127.538C40.6409 127.897 40.7837 128.242 41.0375 128.496C41.2914 128.749 41.6356 128.892 41.9947 128.892H49.6702C50.0292 128.892 50.3736 128.749 50.6275 128.496C50.8814 128.242 51.0239 127.897 51.0239 127.538C51.0239 127.179 50.8814 126.835 50.6275 126.581C50.3736 126.327 50.0292 126.185 49.6702 126.185H41.9947Z" fill="#3DADE2"/>
<path d="M31.0334 134.789C30.6744 134.789 30.33 134.932 30.0761 135.186C29.8222 135.439 29.6797 135.784 29.6797 136.143C29.6797 136.502 29.8222 136.846 30.0761 137.1C30.33 137.354 30.6744 137.497 31.0334 137.497H66.1378C66.4968 137.497 66.841 137.354 67.0949 137.1C67.3488 136.846 67.4915 136.502 67.4915 136.143C67.4915 135.784 67.3488 135.439 67.0949 135.186C66.841 134.932 66.4968 134.789 66.1378 134.789H31.0334Z" fill="#3DADE2"/>
<path d="M1.35373 91.8955C0.994696 91.8955 0.650473 92.0382 0.3966 92.292C0.142727 92.5459 0 92.8902 0 93.2492C0 93.6083 0.142727 93.9526 0.3966 94.2064C0.650473 94.4603 0.994696 94.603 1.35373 94.603H37.6611C38.0201 94.603 38.3645 94.4603 38.6184 94.2064C38.8723 93.9526 39.0148 93.6083 39.0148 93.2492C39.0148 92.8902 38.8723 92.5459 38.6184 92.292C38.3645 92.0382 38.0201 91.8955 37.6611 91.8955H1.35373ZM46.3546 91.8955C45.9955 91.8955 45.6513 92.0382 45.3974 92.292C45.1436 92.5459 45.0008 92.8902 45.0008 93.2492C45.0008 93.6083 45.1436 93.9526 45.3974 94.2064C45.6513 94.4603 45.9955 94.603 46.3546 94.603H53.4934C53.8524 94.603 54.1968 94.4603 54.4507 94.2064C54.7045 93.9526 54.8471 93.6083 54.8471 93.2492C54.8471 92.8902 54.7045 92.5459 54.4507 92.292C54.1968 92.0382 53.8524 91.8955 53.4934 91.8955H46.3546Z" fill="#3DADE2"/>
<path d="M32.757 53.8662C32.398 53.8662 32.0536 54.0089 31.7998 54.2627C31.5459 54.5166 31.4033 54.8609 31.4033 55.2199C31.4033 55.579 31.5459 55.9233 31.7998 56.1771C32.0536 56.431 32.398 56.5737 32.757 56.5737H53.6341C53.9931 56.5737 54.3375 56.431 54.5913 56.1771C54.8452 55.9233 54.9878 55.579 54.9878 55.2199C54.9878 54.8609 54.8452 54.5166 54.5913 54.2627C54.3375 54.0089 53.9931 53.8662 53.6341 53.8662H32.757Z" fill="#3DADE2"/>
<path d="M27.0403 31.8213C26.6812 31.8213 26.337 31.9639 26.0831 32.2178C25.8293 32.4717 25.6865 32.816 25.6865 33.175C25.6865 33.534 25.8293 33.8784 26.0831 34.1322C26.337 34.3861 26.6812 34.5287 27.0403 34.5287H37.4893C37.8484 34.5287 38.1926 34.3861 38.4465 34.1322C38.7003 33.8784 38.8431 33.534 38.8431 33.175C38.8431 32.816 38.7003 32.4717 38.4465 32.2178C38.1926 31.9639 37.8484 31.8213 37.4893 31.8213H27.0403ZM45.0115 31.8213C44.6525 31.8213 44.3083 31.9639 44.0544 32.2178C43.8005 32.4717 43.6578 32.816 43.6578 33.175C43.6578 33.534 43.8005 33.8784 44.0544 34.1322C44.3083 34.3861 44.6525 34.5287 45.0115 34.5287H69.8254C70.1845 34.5287 70.5287 34.3861 70.7826 34.1322C71.0364 33.8784 71.1792 33.534 71.1792 33.175C71.1792 32.816 71.0364 32.4717 70.7826 32.2178C70.5287 31.9639 70.1845 31.8213 69.8254 31.8213H45.0115Z" fill="#3DADE2"/>
<path d="M13.0403 61.6123C12.6812 61.6123 12.337 61.7549 12.0831 62.0088C11.8293 62.2627 11.6865 62.607 11.6865 62.966C11.6865 63.3251 11.8293 63.6694 12.0831 63.9232C12.337 64.1771 12.6812 64.3198 13.0403 64.3198H34.7898C35.1488 64.3198 35.4932 64.1771 35.7471 63.9232C36.0009 63.6694 36.1435 63.3251 36.1435 62.966C36.1435 62.607 36.0009 62.2627 35.7471 62.0088C35.4932 61.7549 35.1488 61.6123 34.7898 61.6123H13.0403ZM44.8713 61.6123C44.5123 61.6123 44.1681 61.7549 43.9142 62.0088C43.6603 62.2627 43.5176 62.607 43.5176 62.966C43.5176 63.3251 43.6603 63.6694 43.9142 63.9232C44.1681 64.1771 44.5123 64.3198 44.8713 64.3198H63.3397C63.6987 64.3198 64.0429 64.1771 64.2968 63.9232C64.5507 63.6694 64.6934 63.3251 64.6934 62.966C64.6934 62.607 64.5507 62.2627 64.2968 62.0088C64.0429 61.7549 63.6987 61.6123 63.3397 61.6123H44.8713Z" fill="#3DADE2"/>
<path d="M48.301 22.123C47.942 22.123 47.5977 22.2657 47.3439 22.5196C47.09 22.7734 46.9473 23.1177 46.9473 23.4768C46.9473 23.8358 47.09 24.1801 47.3439 24.434C47.5977 24.6879 47.942 24.8305 48.301 24.8305H74.1857C74.5448 24.8305 74.889 24.6879 75.1429 24.434C75.3967 24.1801 75.5395 23.8358 75.5395 23.4768C75.5395 23.1177 75.3967 22.7734 75.1429 22.5196C74.889 22.2657 74.5448 22.123 74.1857 22.123H48.301Z" fill="#3DADE2"/>
<path d="M122.677 27.4574C122.462 27.1768 122.145 26.9919 121.795 26.9424C121.445 26.893 121.09 26.9831 120.806 27.1933L116.435 30.4194L111.013 30.7763C110.771 30.7917 110.538 30.872 110.338 31.0086C110.139 31.1452 109.979 31.3332 109.877 31.5527C109.775 31.7722 109.734 32.0152 109.758 32.256C109.783 32.4969 109.871 32.7267 110.015 32.9215L113.243 37.2943L113.602 42.7151C113.618 42.9563 113.698 43.1887 113.835 43.388C113.972 43.5873 114.16 43.7462 114.379 43.848C114.598 43.9498 114.841 43.9907 115.081 43.9665C115.321 43.9424 115.551 43.854 115.746 43.7106L120.116 40.4845L125.539 40.1276C125.78 40.1121 126.013 40.0319 126.213 39.8952C126.413 39.7586 126.572 39.5707 126.674 39.3512C126.776 39.1316 126.817 38.8887 126.793 38.6479C126.769 38.407 126.68 38.1771 126.536 37.9824L123.309 33.6096L122.95 28.1888C122.933 27.9234 122.838 27.669 122.677 27.4574ZM120.425 30.8249L120.646 34.1818C120.663 34.4387 120.754 34.6852 120.907 34.8922L122.905 37.6017L119.548 37.8223C119.29 37.8388 119.043 37.9288 118.836 38.0815L116.126 40.079L115.906 36.7221C115.888 36.4652 115.798 36.2186 115.644 36.0116L113.648 33.3043L117.005 33.0837C117.262 33.0663 117.509 32.9756 117.716 32.8224L120.425 30.8249Z" fill="#3DADE2"/>
<path d="M152.58 19.0234C150.376 19.0234 148.559 20.8378 148.559 23.0423C148.559 25.2468 150.376 27.0638 152.58 27.0638C154.414 27.0638 155.728 25.6883 156.202 23.9968C156.328 23.8716 156.428 23.7229 156.496 23.5591C156.564 23.3953 156.599 23.2197 156.599 23.0423C156.599 22.8649 156.564 22.6893 156.496 22.5255C156.428 22.3617 156.328 22.213 156.202 22.0878C155.728 20.3963 154.414 19.0234 152.58 19.0234ZM152.58 21.7177C153.328 21.7177 153.905 22.2939 153.905 23.0423C153.905 23.7907 153.328 24.3696 152.58 24.3696C151.832 24.3696 151.253 23.7907 151.253 23.0423C151.253 22.2939 151.832 21.7177 152.58 21.7177Z" fill="#3DADE2"/>
<path d="M149.084 120.424C148.736 120.362 148.378 120.439 148.086 120.638C147.795 120.838 147.593 121.144 147.525 121.491L146.475 126.821L142.713 130.742C142.545 130.916 142.427 131.133 142.371 131.368C142.316 131.604 142.325 131.85 142.398 132.081C142.471 132.312 142.604 132.519 142.785 132.68C142.965 132.842 143.186 132.952 143.423 132.998L148.756 134.049L152.677 137.809C152.852 137.976 153.068 138.093 153.303 138.148C153.539 138.203 153.784 138.194 154.015 138.121C154.245 138.048 154.452 137.915 154.613 137.735C154.775 137.555 154.884 137.335 154.931 137.098L155.982 131.768L159.744 127.847C159.912 127.672 160.03 127.456 160.085 127.22C160.14 126.985 160.131 126.738 160.058 126.508C159.986 126.277 159.852 126.07 159.672 125.908C159.491 125.747 159.271 125.637 159.033 125.59L153.701 124.539L149.779 120.78C149.588 120.595 149.346 120.471 149.084 120.424ZM149.694 124.429L152.121 126.758C152.307 126.936 152.54 127.057 152.793 127.106L156.095 127.759L153.766 130.186C153.587 130.372 153.466 130.605 153.415 130.858L152.763 134.16L150.335 131.831C150.149 131.653 149.916 131.532 149.663 131.483L146.363 130.83L148.693 128.403C148.871 128.217 148.992 127.984 149.041 127.731L149.694 124.429Z" fill="#3DADE2"/>
<path d="M167.981 107.132C165.777 107.132 163.96 108.949 163.96 111.153C163.96 113.358 165.777 115.175 167.981 115.175C169.815 115.175 171.129 113.799 171.604 112.108C171.729 111.983 171.829 111.834 171.897 111.67C171.965 111.506 172 111.331 172 111.153C172 110.976 171.965 110.8 171.897 110.637C171.829 110.473 171.729 110.324 171.604 110.199C171.129 108.507 169.815 107.132 167.981 107.132ZM167.981 109.829C168.73 109.829 169.306 110.405 169.306 111.153C169.306 111.902 168.73 112.481 167.981 112.481C167.233 112.481 166.654 111.902 166.654 111.153C166.654 110.405 167.233 109.829 167.981 109.829Z" fill="#3DADE2"/>
</svg>
