<svg width="164" height="157" viewBox="0 0 164 157" fill="none" xmlns="http://www.w3.org/2000/svg">
<path d="M97.3486 10.6416C92.2299 10.6416 87.2747 12.3475 83.223 15.4454C79.9828 13.1259 76.121 11.8183 72.1185 11.8181C66.0069 11.8181 60.3027 14.7624 56.7104 19.6663C56.0775 19.5616 55.4465 19.4336 54.8041 19.4334C50.6525 19.4336 46.8429 21.6414 44.7293 25.1779C34.1808 27.2026 26.397 36.2018 25.888 46.91C21.6266 48.7641 18.8003 52.9599 18.8002 57.6639V57.6647C18.8002 57.8105 18.8187 57.9555 18.8227 58.1012C12.1338 62.3627 8.02858 69.7304 8.02832 77.6996C8.02845 86.7011 13.2523 94.8215 21.3219 98.6657C21.0592 100.073 20.8908 101.497 20.8907 102.93C20.8907 114.099 28.843 123.63 39.7088 125.75C40.098 131.481 42.9835 136.531 47.3145 139.773C47.2577 140.284 47.2524 140.608 47.2524 140.608L49.8965 140.644C49.8965 140.644 49.9413 138.57 50.9731 136.533C52.0053 134.496 53.7749 132.567 57.9557 132.567H71.9381C72.3506 132.798 73.0602 133.156 74.0922 133.499C75.7289 134.042 78.1715 134.565 81.4723 134.565C84.7731 134.565 87.2134 134.042 88.8499 133.499C89.8821 133.156 90.5916 132.798 91.0041 132.567H104.989C109.17 132.567 110.937 134.496 111.969 136.533C113.001 138.57 113.048 140.644 113.048 140.644L115.693 140.608C115.693 140.608 115.677 139.209 115.149 137.424C117.432 135.673 119.306 133.383 120.631 130.717C131.167 130.701 139.733 122.127 139.732 111.587C139.732 108.495 138.941 105.477 137.517 102.75C146.352 99.2666 152.288 90.7646 152.287 81.1622C152.287 75.687 150.338 70.408 146.831 66.2241C147.21 65.0545 147.453 63.8442 147.453 62.6112C147.453 57.8132 144.515 53.5559 140.132 51.7602C139.788 40.4546 131.339 31.0397 120.167 29.4515C118.042 18.5861 108.511 10.642 97.3486 10.6416ZM97.3486 13.2857C107.557 13.286 116.214 20.7282 117.746 30.8207L117.901 31.8366L118.923 31.9384C129.49 32.985 137.521 41.8509 137.522 52.4694V53.6261L138.444 53.9185C142.239 55.1209 144.809 58.6307 144.809 62.6112C144.809 63.7818 144.583 64.9413 144.145 66.0267L143.836 66.7898L144.385 67.404C147.771 71.1873 149.643 76.0849 149.644 81.1622C149.644 90.1541 143.832 98.1002 135.263 100.825L133.632 101.343L134.545 102.79C136.206 105.424 137.088 108.473 137.089 111.587C137.089 120.708 129.723 128.074 120.602 128.074C120.367 128.074 120.133 128.069 119.899 128.059L118.995 128.02L118.631 128.848C117.583 131.238 116.011 133.286 114.086 134.89C112.648 132.382 109.778 129.922 104.989 129.922H91.977V126.415C110.231 123.334 124.795 109.652 129.208 91.8798C130.48 91.3267 131.897 90.6789 133.236 89.8069C134.768 88.8104 136.188 87.6409 136.886 86.0212C136.932 85.9133 136.972 85.8007 137.015 85.6898C139.105 85.4772 141.423 82.8858 141.423 82.8858C141.423 82.8858 138.615 83.0662 136.749 83.0662C132.758 83.0661 129.64 81.6989 127.233 79.3556C124.825 77.0123 123.141 73.6411 122.312 69.6319L122.121 68.7062L121.183 68.5879C117.25 68.0916 114.319 64.7677 114.319 60.8039V60.8033C114.319 60.3634 114.356 59.9237 114.43 59.4901L114.632 58.3013L113.466 57.9911C111.843 57.5592 110.294 56.8869 108.87 55.9961L108.05 55.4823L107.312 56.1095C105.893 57.3177 104.09 57.9814 102.226 57.9815C99.6899 57.9814 97.3131 56.7577 95.8396 54.6932L95.2944 53.9286L94.3932 54.1917C92.847 54.6432 91.2442 54.8728 89.6333 54.8729C85.6073 54.8728 81.7129 53.443 78.6436 50.8377L77.9153 50.2187L77.0994 50.7168C74.8693 52.0785 72.3069 52.7993 69.6939 52.7993C68.3114 52.7993 66.9366 52.5972 65.6123 52.2001L64.6067 51.8988L64.0853 52.8095C62.6862 55.2527 60.0911 56.7572 57.2756 56.7572C55.4616 56.7571 53.7046 56.1287 52.3017 54.9788L50.6763 53.6471L50.1789 55.6887C49.0382 60.3723 45.9442 64.3398 41.6797 66.5874L41.0975 66.8942L40.9904 67.5433C39.63 75.8519 34.3974 81.5795 26.1418 81.5795C25.1291 81.5795 21.2158 81.7879 21.2158 81.7879C21.2158 81.7879 23.9543 83.5058 25.4498 84.0534C25.5969 84.7472 25.7933 85.4101 26.0565 86.0211C26.7542 87.6409 28.1745 88.8104 29.7056 89.8069C31.0445 90.6783 32.4626 91.3248 33.7339 91.8778C38.1465 109.652 52.7124 123.335 70.9677 126.416V129.922H57.9556C52.8814 129.922 49.9573 132.683 48.6124 135.337C48.3446 135.866 48.1314 136.392 47.9586 136.897C44.5228 133.914 42.3295 129.543 42.2749 124.633L42.2617 123.504L41.1455 123.34C31.0177 121.841 23.5338 113.167 23.5338 102.93C23.5339 101.349 23.7153 99.774 24.075 98.2352L24.3291 97.1488L23.3008 96.7157C15.645 93.4938 10.6715 86.0056 10.6714 77.6994C10.6716 70.3834 14.542 63.6192 20.8495 59.9123L21.5852 59.4805L21.4941 58.632C21.4597 58.3104 21.4425 57.9868 21.4425 57.6632C21.4425 53.7673 23.9075 50.312 27.5909 49.0429L28.4728 48.7389L28.486 47.8063C28.5892 37.7744 35.8716 29.2857 45.7711 27.6586L46.4222 27.5514L46.7275 26.9672C48.3022 23.9595 51.4104 22.0778 54.8054 22.0774C55.5423 22.0776 56.2763 22.1675 56.9917 22.3445L57.8936 22.5672L58.4086 21.7952C61.4683 17.2125 66.6107 14.4622 72.121 14.4621C75.8776 14.4622 79.5213 15.7448 82.4494 18.0982L83.294 18.7774L84.1246 18.0825C87.8355 14.9831 92.5163 13.2856 97.3512 13.2856L97.3486 13.2857ZM77.6854 53.3856C81.1113 56.0257 85.2906 57.517 89.633 57.5171C91.2121 57.517 92.776 57.286 94.3075 56.9097C96.2899 59.2231 99.1495 60.6256 102.226 60.6258C104.406 60.6256 106.503 59.9113 108.27 58.6594C109.371 59.279 110.526 59.7834 111.726 60.1782C111.713 60.387 111.674 60.5934 111.674 60.8027V60.8034C111.674 65.766 115.18 69.9753 119.951 71.0121C120.356 72.7012 120.903 74.305 121.596 75.792C119.519 74.8482 117.469 74.0591 115.584 74.2459C112.421 72.0237 107.688 70.2344 101.841 71.8389C95.9338 73.4595 93.1074 76.9061 91.9646 79.9276C90.8217 82.9491 92.7572 85.5102 92.7572 85.5102C92.7572 85.5102 93.5488 83.2178 94.4384 80.8656C94.4384 80.8616 94.4384 80.859 94.4384 80.855L94.6209 81.9332L94.8416 83.2368L95.1061 83.1917C96.3481 86.6233 99.7884 88.8759 103.508 88.2462C107.688 87.5383 110.526 83.541 109.818 79.3601C109.407 76.9309 107.885 74.9567 105.862 73.8664C109.38 73.7308 112.15 75.0179 114.248 76.5384C116.968 78.5099 119.25 80.221 119.25 80.221C120.156 79.5082 121.893 79.3864 123.672 79.2939C124.196 79.9924 124.765 80.6479 125.384 81.25C127.694 83.4986 130.656 85.0135 134.127 85.5208C133.648 86.1761 132.812 86.9238 131.791 87.5883C130.473 88.4465 128.9 89.1938 127.608 89.7343L126.983 89.9946L126.831 90.6532C122.308 110.055 104.985 124.424 84.1458 124.424H78.7879C57.9485 124.424 40.6287 110.055 36.1054 90.6532L35.9503 89.9946L35.3252 89.7343C34.0323 89.1938 32.4611 88.4465 31.1424 87.5883C29.8238 86.7301 28.8085 85.7314 28.4825 84.9749C28.3714 84.7168 28.272 84.4218 28.1826 84.1072C32.2053 83.6592 35.5866 81.8946 38.1686 79.2318C40.2946 79.3575 42.5913 79.3614 43.6843 80.221C43.6843 80.221 45.9665 78.5099 48.6862 76.5384C50.7845 75.0175 53.5563 73.7298 57.0755 73.8664C55.0512 74.9563 53.527 76.9307 53.1156 79.3609C52.4076 83.5417 55.2484 87.5369 59.4293 88.2449C63.1484 88.8746 66.5855 86.6245 67.8276 83.193L68.0918 83.2375L68.3132 81.9339L68.4958 80.8544C68.4958 80.8584 68.4958 80.861 68.4958 80.865C69.3854 83.2172 70.1765 85.5096 70.1765 85.5096C70.1765 85.5096 72.1126 82.9485 70.9696 79.9269C69.8269 76.9054 66.9996 73.4589 61.0929 71.8382C55.2451 70.2337 50.5134 72.0231 47.3499 74.2452C45.2302 74.0351 42.9017 75.0563 40.562 76.1459C41.9351 73.9356 42.9115 71.3768 43.4411 68.6045C47.5513 66.2655 50.662 62.5301 52.2042 58.0883C53.7466 58.9387 55.4844 59.4007 57.2661 59.4007C60.6913 59.4008 63.8678 57.7151 65.8209 54.9502C67.0888 55.2495 68.3795 55.4428 69.6844 55.4428C72.4848 55.4429 75.2204 54.711 77.6762 53.3849L77.6854 53.3856ZM64.7984 62.9467C60.8613 62.9285 56.4692 65.2539 56.4692 65.2539C56.4692 65.2539 61.8618 64.8469 65.8957 65.6987C69.9295 66.5505 76.5108 69.0963 76.5108 69.0963C76.5108 69.0963 70.6814 64.0061 66.4435 63.1113C65.9139 62.9994 65.3609 62.9492 64.7984 62.9467ZM97.8283 62.9467C97.2659 62.9493 96.7128 62.9994 96.1831 63.1113C91.9453 64.0061 86.1157 69.0963 86.1157 69.0963C86.1157 69.0963 92.6964 66.5505 96.7303 65.6987C100.764 64.8469 106.158 65.2539 106.158 65.2539C106.158 65.2539 101.765 62.9285 97.8283 62.9467ZM102.407 75.5863C104.767 75.6625 106.804 77.3765 107.215 79.8019C107.684 82.5737 105.842 85.17 103.07 85.6393C100.298 86.1087 97.7011 84.264 97.2318 81.4921C96.7624 78.7203 98.6077 76.126 101.38 75.6567C101.726 75.598 102.07 75.5754 102.407 75.5864V75.5863ZM60.5379 75.5877C60.875 75.5771 61.2182 75.5995 61.5646 75.658C64.3365 76.1273 66.1798 78.7209 65.7105 81.4927C65.2411 84.2645 62.6469 86.1072 59.8752 85.6379C57.1033 85.1686 55.2579 82.5743 55.7272 79.8024C56.1379 77.3771 58.1776 75.6637 60.5379 75.5876V75.5877ZM40.3532 76.4833C41.9335 76.5781 43.6103 76.6044 44.8251 76.9589C44.8251 76.9615 44.8251 76.9642 44.8251 76.9681C42.8663 76.8855 40.7408 77.7868 38.6002 78.7787C39.2409 78.0691 39.8271 77.3012 40.3587 76.4837L40.3532 76.4833ZM121.952 76.5196C122.234 77.0709 122.538 77.6043 122.864 78.1177C121.232 77.4241 119.628 76.9042 118.123 76.9678C118.123 76.9652 118.123 76.9625 118.123 76.9585C119.175 76.6516 120.574 76.5907 121.957 76.5192L121.952 76.5196ZM60.7291 78.2297C60.1561 78.2274 59.6009 78.4286 59.1625 78.7974C58.724 79.1663 58.4309 79.6789 58.3352 80.2438C58.228 80.8761 58.3764 81.5251 58.7477 82.048C59.119 82.5708 59.6827 82.9248 60.315 83.0321C60.6281 83.0851 60.9487 83.076 61.2583 83.0052C61.5679 82.9344 61.8606 82.8033 62.1195 82.6194C62.3784 82.4354 62.5985 82.2022 62.7673 81.9332C62.9361 81.6642 63.0503 81.3646 63.1033 81.0514C63.2103 80.4191 63.0618 79.7702 62.6903 79.2475C62.3189 78.7247 61.755 78.3709 61.1227 78.2639C60.9927 78.2418 60.861 78.2304 60.7291 78.2298V78.2297ZM102.214 78.2297C102.082 78.2303 101.95 78.2417 101.82 78.2638C101.188 78.3708 100.624 78.7246 100.253 79.2474C99.8814 79.7702 99.7328 80.4191 99.8397 81.0514C99.8927 81.3645 100.007 81.6641 100.176 81.9331C100.345 82.2021 100.565 82.4353 100.824 82.6192C101.082 82.8031 101.375 82.9343 101.685 83.0051C101.994 83.0759 102.315 83.0851 102.628 83.0321C102.941 82.979 103.241 82.8648 103.51 82.696C103.779 82.5272 104.012 82.3071 104.196 82.0482C104.38 81.7893 104.511 81.4966 104.582 81.187C104.653 80.8774 104.662 80.5569 104.609 80.2438C104.513 79.6787 104.22 79.1661 103.781 78.7972C103.342 78.4283 102.787 78.2272 102.214 78.2297ZM68.2563 80.2739C68.3065 80.3857 68.3554 80.4966 68.4004 80.6073L68.2734 80.5862C68.2734 80.4813 68.2602 80.3781 68.2563 80.2739ZM94.6855 80.2779C94.6855 80.3805 94.6708 80.4821 94.6695 80.5853L94.544 80.6065C94.5889 80.4974 94.6353 80.388 94.6855 80.2779ZM52.9587 93.6028C52.7786 93.6078 52.6013 93.6496 52.4379 93.7256C52.2745 93.8017 52.1282 93.9103 52.0083 94.0449C52.0083 94.0449 51.4054 94.6979 51.1331 95.6997C50.8608 96.7015 51.0697 98.2694 52.3159 99.3748C53.0302 100.008 53.9427 100.25 54.7045 100.24C55.4663 100.229 56.1149 100.038 56.6672 99.8783C57.2196 99.7186 57.6862 99.5887 57.9456 99.5681C58.1948 99.5484 58.1475 99.5548 58.193 99.6015C58.1758 99.7183 58.0602 100.061 57.8883 100.524C57.714 100.993 57.4896 101.61 57.535 102.386C57.5799 103.161 57.9823 104.02 58.6889 104.668C59.4362 105.354 60.4832 105.63 61.3024 105.464C62.1216 105.297 62.6867 104.878 63.1484 104.539C63.3456 104.394 63.418 104.355 63.5748 104.242C63.4941 104.495 63.4438 104.68 63.3219 105.027C63.1132 105.622 62.8744 106.324 62.8826 107.163C62.8958 108.002 63.275 109.003 64.0783 109.67C65.4517 110.811 67.0681 110.854 68.0963 110.476C69.1245 110.097 69.749 109.394 69.749 109.394C69.8662 109.265 69.957 109.115 70.0161 108.952C70.0752 108.788 70.1017 108.615 70.0937 108.441C70.0857 108.267 70.0435 108.097 69.9696 107.94C69.8957 107.782 69.7916 107.641 69.6631 107.524C69.4041 107.288 69.0619 107.164 68.7117 107.18C68.3616 107.196 68.0322 107.351 67.7958 107.61C67.7958 107.61 67.5503 107.859 67.1816 107.994C66.8129 108.13 66.5035 108.247 65.7666 107.635C65.5148 107.426 65.5287 107.393 65.5262 107.137C65.5262 106.881 65.6346 106.426 65.818 105.902C66.0015 105.379 66.2516 104.807 66.3659 104.103C66.4796 103.398 66.309 102.307 65.5344 101.688C64.787 101.091 63.6515 101.155 63.0215 101.45C62.3914 101.746 61.9673 102.127 61.5834 102.409C61.1993 102.691 60.881 102.849 60.7749 102.871C60.6692 102.892 60.7485 102.967 60.4778 102.718C60.1665 102.433 60.1808 102.362 60.1731 102.231C60.1599 102.099 60.2234 101.83 60.3671 101.443C60.5108 101.056 60.7425 100.581 60.8242 99.909C60.9061 99.2371 60.6603 98.2878 60.0288 97.6858C59.3633 97.0512 58.4357 96.8787 57.7353 96.9342C57.035 96.9897 56.4525 97.1871 55.933 97.3373C55.4136 97.4875 54.9656 97.5917 54.6703 97.5956C54.3751 97.5995 54.2702 97.5723 54.0691 97.394C53.485 96.8762 53.5962 96.714 53.6837 96.3918C53.771 96.0696 53.9837 95.8035 53.9837 95.8035C54.0993 95.6738 54.1881 95.5226 54.2452 95.3585C54.3023 95.1945 54.3266 95.0208 54.3165 94.8474C54.3064 94.674 54.2623 94.5042 54.1866 94.3479C54.1109 94.1915 54.005 94.0517 53.8753 93.9363C53.6233 93.7123 53.2954 93.593 52.9584 93.6028H52.9587ZM45.1201 98.878C45.1104 98.8781 45.1007 98.8784 45.091 98.8787C44.9115 98.886 44.7354 98.9299 44.5734 99.0075C44.4115 99.0852 44.2669 99.1951 44.1488 99.3304C44.1488 99.3304 43.5186 100.032 43.26 101.097C43.0013 102.162 43.2283 103.762 44.5178 104.996C45.2722 105.718 46.3094 105.988 47.1441 105.9C47.9787 105.813 48.6473 105.493 49.2149 105.218C49.5453 105.058 49.7246 104.987 49.9665 104.877C49.8726 105.046 49.8435 105.122 49.7212 105.335C49.4368 105.832 49.0855 106.441 49.0133 107.274C48.9419 108.106 49.3366 109.117 50.1032 109.781C50.8281 110.409 51.7243 110.71 52.4999 110.667C53.2753 110.624 53.863 110.331 54.3097 110.104C54.7523 109.88 55.0806 109.722 55.1932 109.694C55.2461 109.735 55.2435 109.687 55.2528 109.939C55.266 110.199 55.1879 110.675 55.0922 111.242C54.997 111.809 54.8788 112.475 54.9555 113.233C55.0322 113.991 55.3758 114.871 56.0863 115.508C57.3265 116.621 58.9078 116.652 59.8721 116.268C60.8363 115.883 61.4161 115.207 61.4161 115.207C61.5319 115.077 61.6209 114.926 61.6782 114.762C61.7356 114.598 61.7601 114.424 61.7502 114.251C61.7404 114.078 61.6964 113.908 61.621 113.751C61.5455 113.595 61.44 113.455 61.3104 113.339C61.0489 113.106 60.7053 112.986 60.3553 113.006C60.0053 113.026 59.6774 113.184 59.4439 113.445C59.4439 113.445 59.2041 113.686 58.8939 113.809C58.5839 113.933 58.4342 114.062 57.8533 113.541C57.6532 113.361 57.6167 113.261 57.587 112.968C57.5566 112.674 57.6081 112.218 57.698 111.684C57.7879 111.151 57.9188 110.55 57.8941 109.848C57.8703 109.146 57.5907 108.245 56.8844 107.656C56.2144 107.097 55.2442 106.961 54.586 107.118C53.9278 107.276 53.4825 107.559 53.1141 107.746C52.7459 107.933 52.4842 108.02 52.3525 108.028C52.2203 108.036 52.1526 108.059 51.8332 107.783C51.5553 107.542 51.638 107.612 51.6474 107.504C51.6606 107.396 51.7805 107.063 52.017 106.649C52.2537 106.235 52.5829 105.769 52.8048 105.11C53.0265 104.45 52.9581 103.316 52.2801 102.641V102.639C51.5767 101.939 50.4749 101.898 49.7882 102.091C49.1016 102.285 48.5625 102.598 48.0632 102.84C47.5641 103.082 47.1249 103.242 46.8702 103.269C46.6157 103.295 46.5827 103.312 46.3462 103.085C45.6542 102.423 45.7369 102.104 45.8297 101.722C45.9223 101.34 46.142 101.069 46.142 101.069C46.3719 100.804 46.4875 100.459 46.4632 100.109C46.4389 99.7599 46.2767 99.4342 46.0124 99.204C45.7656 98.9886 45.4476 98.8725 45.1201 98.8782V98.878ZM98.795 101.806C98.795 101.806 90.9706 107.46 84.0619 107.817C76.6824 108.198 72.292 107.284 72.292 107.284C72.292 107.284 76.2539 110.869 84.1986 110.459C92.6139 110.024 98.795 101.806 98.795 101.806ZM89.3331 126.784V130.408C89.098 130.546 88.9807 130.67 88.0186 130.989C86.6446 131.445 84.4946 131.922 81.4725 131.922C78.4503 131.922 76.3005 131.445 74.9266 130.989C73.9662 130.67 73.8478 130.549 73.6121 130.411V126.784C75.3122 126.972 77.0406 127.069 78.7923 127.069H84.1501C85.903 127.069 87.6319 126.971 89.3331 126.784Z" fill="#30414D"/>
<path d="M72.1185 11.8177C66.0069 11.8177 60.3027 14.762 56.7104 19.6659C56.0775 19.5612 55.4465 19.4331 54.8041 19.4329C50.6525 19.4332 46.8429 21.641 44.7293 25.1775C34.1808 27.2022 26.397 36.2014 25.888 46.9095C21.6266 48.7636 18.8003 52.9594 18.8002 57.6635V57.6642C18.8002 57.81 18.8187 57.9551 18.8227 58.1008C12.1338 62.3622 8.02858 69.7299 8.02832 77.6991C8.02845 86.7007 13.2523 94.8211 21.3219 98.6652C21.0592 100.073 20.8908 101.496 20.8907 102.929C20.8907 114.099 28.843 123.629 39.7088 125.75C40.098 131.481 42.9835 136.531 47.3145 139.772C47.2577 140.284 47.2524 140.607 47.2524 140.607L49.8965 140.643C49.8965 140.643 49.9413 138.569 50.9731 136.532C52.0053 134.496 53.7749 132.566 57.9557 132.566H71.9381C72.3506 132.797 73.0602 133.156 74.0922 133.498C75.5747 133.99 77.7261 134.462 80.57 134.547V131.904C78.0178 131.82 76.1538 131.397 74.9209 130.988C73.9607 130.669 73.8421 130.548 73.6064 130.41V126.783C75.3065 126.971 77.0349 127.068 78.7866 127.068H80.5795V124.424H78.7813C57.9418 124.424 40.6221 110.055 36.0987 90.6531L35.9435 89.9945L35.3184 89.7341C34.0256 89.1937 32.4543 88.4463 31.1358 87.5881C29.8171 86.7299 28.8018 85.7314 28.4759 84.9748C28.3648 84.7168 28.2654 84.4217 28.1759 84.1071C32.1986 83.6591 35.5799 81.8945 38.162 79.2316C40.288 79.3574 42.5849 79.3613 43.6777 80.2209C43.6777 80.2209 45.9598 78.5098 48.6796 76.5383C50.778 75.0173 53.5497 73.7297 57.0689 73.8662C55.0445 74.9562 53.5204 76.9305 53.1088 79.3607C52.401 83.5416 55.2418 87.5368 59.4226 88.2447C63.1418 88.8745 66.5787 86.6243 67.8208 83.1929L68.0852 83.2374L68.3066 81.9338L68.489 80.8543C68.489 80.8582 68.489 80.8609 68.489 80.8648C69.3787 83.217 70.1699 85.5095 70.1699 85.5095C70.1699 85.5095 72.1058 82.9484 70.963 79.9268C69.8201 76.9053 66.993 73.4588 61.0863 71.8381C55.2384 70.2336 50.5067 72.0229 47.3433 74.2451C45.2235 74.0349 42.895 75.0561 40.5553 76.1458C41.9284 73.9355 42.9048 71.3767 43.4343 68.6044C47.5446 66.2654 50.6552 62.53 52.1976 58.0881C53.74 58.9386 55.4778 59.4006 57.2595 59.4006C60.6847 59.4006 63.8611 57.715 65.8142 54.9501C67.082 55.2494 68.3727 55.4427 69.6778 55.4427C72.4781 55.4428 75.2138 54.7109 77.6696 53.3848C78.6291 54.1242 79.6494 54.7701 80.7141 55.3218V52.3504C79.9836 51.901 79.2823 51.3981 78.6213 50.8371L77.893 50.2181L77.0773 50.7162C74.8473 52.0779 72.2847 52.7986 69.6718 52.7986C68.2893 52.7986 66.9143 52.5965 65.5901 52.1994L64.5846 51.8981L64.0631 52.8089C62.6639 55.252 60.069 56.7566 57.2535 56.7565C55.4394 56.7565 53.6826 56.128 52.2796 54.9781L50.6542 53.6465L50.1568 55.688C49.0161 60.3717 45.9219 64.3392 41.6574 66.5868L41.0753 66.8935L40.9683 67.5427C39.6079 75.8513 34.3752 81.5789 26.1197 81.5788C25.1068 81.5788 21.1936 81.7872 21.1936 81.7872C21.1936 81.7872 23.9323 83.5052 25.4276 84.0528C25.5749 84.7466 25.7711 85.4095 26.0343 86.0205C26.732 87.6403 28.1523 88.8098 29.6834 89.8063C31.0223 90.6777 32.4404 91.3241 33.7116 91.8771C38.1243 109.651 52.6902 123.335 70.9455 126.415V129.921H57.9335C52.8592 129.921 49.9352 132.682 48.5903 135.336C48.3225 135.865 48.1093 136.391 47.9365 136.896C44.5007 133.913 42.3072 129.543 42.2526 124.632L42.2394 123.504L41.123 123.339C30.9954 121.84 23.5115 113.167 23.5115 102.929C23.5116 101.349 23.693 99.7733 24.0526 98.2345L24.3067 97.1482L23.2785 96.7151C15.6226 93.4932 10.6491 86.005 10.649 77.6988C10.6493 70.3828 14.5197 63.6185 20.8271 59.9117L21.5629 59.4799L21.4717 58.6313C21.4373 58.3098 21.4201 57.9862 21.4201 57.6625C21.4201 53.7667 23.8851 50.3113 27.5685 49.0422L28.4505 48.7382L28.4637 47.8056C28.5668 37.7738 35.8492 29.285 45.7487 27.6579L46.3998 27.5507L46.7053 26.9666C48.2799 23.9589 51.388 22.0772 54.7829 22.0767C55.5198 22.077 56.2539 22.1669 56.9692 22.3439L57.871 22.5666L58.3863 21.7946C61.4459 17.2118 66.5883 14.4615 72.0985 14.4615C75.1822 14.4616 78.1891 15.3275 80.7872 16.9388V13.9682C78.1126 12.5793 75.1438 11.8175 72.0926 11.8174L72.1185 11.8177ZM64.7984 62.9462C60.8613 62.9281 56.4692 65.2535 56.4692 65.2535C56.4692 65.2535 61.8618 64.8465 65.8957 65.6983C69.9295 66.5501 76.5108 69.0959 76.5108 69.0959C76.5108 69.0959 70.6814 64.0057 66.4435 63.1108C65.9139 62.999 65.3609 62.9488 64.7984 62.9462ZM60.5379 75.5872C60.875 75.5767 61.2182 75.5992 61.5646 75.6576C64.3365 76.1269 66.1798 78.7205 65.7105 81.4923C65.2411 84.2642 62.6469 86.1069 59.8752 85.6375C57.1033 85.1682 55.2579 82.5739 55.7272 79.8021C56.1379 77.3767 58.1776 75.6634 60.5379 75.5872ZM40.3532 76.483C41.9335 76.5778 43.6103 76.6041 44.8251 76.9585C44.8251 76.9612 44.8251 76.9637 44.8251 76.9677C42.8663 76.8851 40.7408 77.7863 38.6002 78.7783C39.2409 78.0687 39.8271 77.3008 40.3587 76.4834L40.3532 76.483ZM60.7291 78.2293C60.1561 78.227 59.6009 78.4282 59.1625 78.7971C58.724 79.166 58.4309 79.6786 58.3352 80.2435C58.228 80.8758 58.3764 81.5247 58.7477 82.0476C59.119 82.5705 59.6827 82.9245 60.315 83.0317C60.6281 83.0848 60.9487 83.0756 61.2583 83.0048C61.5679 82.934 61.8606 82.8029 62.1195 82.6189C62.3784 82.435 62.5985 82.2019 62.7673 81.9328C62.9361 81.6638 63.0503 81.3642 63.1033 81.051C63.2103 80.4187 63.0618 79.7698 62.6903 79.247C62.3189 78.7243 61.755 78.3705 61.1227 78.2634C60.9927 78.2414 60.861 78.2299 60.7291 78.2293ZM68.2563 80.2735C68.3065 80.3852 68.3554 80.4962 68.4004 80.6069L68.2734 80.5858C68.2734 80.4809 68.2602 80.3777 68.2563 80.2735ZM52.986 93.6012C52.9767 93.6013 52.9675 93.6016 52.9582 93.6019C52.7781 93.6069 52.6009 93.6487 52.4374 93.7247C52.274 93.8007 52.1279 93.9094 52.008 94.0439C52.008 94.0439 51.405 94.6969 51.1327 95.6987C50.8604 96.7005 51.068 98.2684 52.3154 99.3738C53.0298 100.007 53.942 100.249 54.7039 100.239C55.4657 100.228 56.1145 100.037 56.6669 99.8773C57.2192 99.7176 57.6857 99.5877 57.9451 99.5672C58.1943 99.5475 58.147 99.5539 58.1925 99.6006C58.1766 99.7173 58.0595 100.06 57.8876 100.523C57.7134 100.993 57.489 101.609 57.5345 102.385C57.5795 103.16 57.9817 104.019 58.6885 104.667C59.4356 105.353 60.4827 105.629 61.3019 105.463C62.1211 105.296 62.6863 104.878 63.1479 104.538C63.3451 104.393 63.4174 104.354 63.5741 104.241C63.4935 104.494 63.4433 104.679 63.3215 105.026C63.1129 105.621 62.8739 106.323 62.8822 107.162C62.8955 108.001 63.2745 109.002 64.0778 109.669C65.4512 110.81 67.0676 110.853 68.0958 110.475C69.1241 110.097 69.7485 109.393 69.7485 109.393C69.8658 109.264 69.9567 109.114 70.0159 108.951C70.0752 108.787 70.1016 108.614 70.0937 108.44C70.0859 108.267 70.0438 108.096 69.9701 107.939C69.8963 107.782 69.7923 107.64 69.6639 107.523C69.4049 107.287 69.0627 107.163 68.7125 107.179C68.3623 107.195 68.0328 107.35 67.7965 107.609C67.7965 107.609 67.5511 107.858 67.1824 107.993C66.8136 108.129 66.5041 108.246 65.7673 107.634C65.5155 107.425 65.5293 107.392 65.5268 107.136C65.5268 106.88 65.6352 106.425 65.8186 105.901C66.0021 105.378 66.2524 104.806 66.3665 104.102C66.4816 103.398 66.3097 102.306 65.5352 101.687C64.7878 101.09 63.6522 101.154 63.0222 101.449C62.3922 101.745 61.9681 102.126 61.584 102.408C61.2001 102.69 60.8816 102.848 60.7757 102.87C60.67 102.891 60.7494 102.966 60.4786 102.717C60.1673 102.432 60.1816 102.361 60.1738 102.23C60.1605 102.098 60.2241 101.829 60.3679 101.442C60.5116 101.055 60.7431 100.58 60.825 99.908C60.9069 99.2361 60.6609 98.2869 60.0296 97.6849C59.3641 97.0503 58.4364 96.8777 57.7361 96.9333C57.0356 96.9888 56.4533 97.1862 55.9338 97.3364C55.4144 97.4866 54.9663 97.5907 54.6711 97.5947C54.3759 97.5986 54.271 97.5714 54.0697 97.3931C53.4858 96.8753 53.5968 96.713 53.6845 96.3908C53.7718 96.0686 53.9844 95.8026 53.9844 95.8026C54.0999 95.6729 54.1887 95.5216 54.2458 95.3576C54.3029 95.1935 54.3272 95.0199 54.3172 94.8465C54.3071 94.6731 54.2629 94.5033 54.1872 94.347C54.1116 94.1906 54.0057 94.0508 53.8759 93.9353C53.631 93.7176 53.314 93.5984 52.9863 93.6012H52.986ZM45.1201 98.8771C45.1104 98.8772 45.1007 98.8775 45.091 98.8778C44.9115 98.8851 44.7354 98.9289 44.5734 99.0066C44.4115 99.0842 44.2669 99.194 44.1488 99.3294C44.1488 99.3294 43.5186 100.032 43.26 101.096C43.0013 102.161 43.2283 103.761 44.5178 104.995C45.2722 105.717 46.3094 105.987 47.1441 105.899C47.9787 105.812 48.6473 105.492 49.2149 105.217C49.5453 105.057 49.7246 104.986 49.9665 104.876C49.8726 105.045 49.8435 105.121 49.7212 105.334C49.4368 105.831 49.0855 106.44 49.0133 107.273C48.9419 108.105 49.3366 109.116 50.1032 109.78C50.8281 110.408 51.7243 110.709 52.4999 110.666C53.2753 110.623 53.863 110.33 54.3097 110.103C54.7523 109.879 55.0806 109.721 55.1932 109.693C55.2461 109.734 55.2435 109.686 55.2528 109.938C55.266 110.198 55.1879 110.674 55.0922 111.241C54.997 111.808 54.8788 112.474 54.9555 113.232C55.0322 113.99 55.3758 114.87 56.0863 115.507C57.3265 116.62 58.9078 116.651 59.8721 116.267C60.8363 115.882 61.4161 115.206 61.4161 115.206C61.5319 115.076 61.6209 114.925 61.6782 114.761C61.7356 114.597 61.7601 114.423 61.7502 114.25C61.7404 114.077 61.6964 113.907 61.621 113.75C61.5455 113.594 61.44 113.454 61.3104 113.338C61.0489 113.105 60.7053 112.985 60.3553 113.005C60.0053 113.025 59.6774 113.183 59.4439 113.444C59.4439 113.444 59.2041 113.685 58.8939 113.808C58.5839 113.932 58.4342 114.061 57.8533 113.54C57.6532 113.36 57.6167 113.26 57.587 112.967C57.5566 112.673 57.6081 112.217 57.698 111.683C57.7879 111.15 57.9188 110.549 57.8941 109.847C57.8703 109.145 57.5907 108.244 56.8844 107.655C56.2144 107.096 55.2442 106.96 54.586 107.118C53.9278 107.275 53.4825 107.558 53.1141 107.745C52.7459 107.932 52.4842 108.02 52.3525 108.027C52.2203 108.035 52.1526 108.058 51.8332 107.782C51.5553 107.541 51.638 107.611 51.6474 107.503C51.6606 107.395 51.7805 107.062 52.017 106.648C52.2537 106.234 52.5829 105.768 52.8048 105.109C53.0265 104.449 52.9581 103.315 52.2801 102.64V102.638C51.5767 101.938 50.4749 101.897 49.7882 102.09C49.1016 102.284 48.5625 102.597 48.0632 102.839C47.5641 103.081 47.1249 103.241 46.8702 103.268C46.6157 103.294 46.5827 103.311 46.3462 103.084C45.6542 102.422 45.7369 102.103 45.8297 101.721C45.9223 101.339 46.142 101.068 46.142 101.068C46.3719 100.803 46.4875 100.458 46.4632 100.108C46.4389 99.7589 46.2767 99.4332 46.0124 99.2031C45.7656 98.9877 45.4476 98.8715 45.1201 98.8772V98.8771ZM72.292 107.283C72.292 107.283 75.0648 109.789 80.6184 110.37V107.906C75.3394 107.914 72.2872 107.283 72.2872 107.283H72.292Z" fill="#608199"/>
<path d="M81.4709 0C80.7696 0 80.0971 0.278587 79.6012 0.77448C79.1053 1.27037 78.8267 1.94295 78.8267 2.64425V153.539C78.8267 154.241 79.1053 154.913 79.6012 155.409C80.0971 155.905 80.7696 156.184 81.4709 156.184C82.1722 156.184 82.8447 155.905 83.3406 155.409C83.8365 154.913 84.1152 154.241 84.1152 153.539V2.64425C84.1152 1.94295 83.8365 1.27037 83.3406 0.77448C82.8447 0.278587 82.1722 0 81.4709 0Z" fill="#3DADE2"/>
<path d="M12.2733 119.368C11.9226 119.368 11.5864 119.507 11.3384 119.755C11.0905 120.003 10.9512 120.34 10.9512 120.69C10.9512 121.041 11.0905 121.377 11.3384 121.625C11.5864 121.873 11.9226 122.012 12.2733 122.012H19.7698C20.1204 122.012 20.4567 121.873 20.7047 121.625C20.9526 121.377 21.0919 121.041 21.0919 120.69C21.0919 120.34 20.9526 120.003 20.7047 119.755C20.4567 119.507 20.1204 119.368 19.7698 119.368H12.2733ZM29.492 119.368C29.1414 119.368 28.805 119.507 28.5571 119.755C28.3092 120.003 28.1699 120.34 28.1699 120.69C28.1699 121.041 28.3092 121.377 28.5571 121.625C28.805 121.873 29.1414 122.012 29.492 122.012H45.515C45.8656 122.012 46.202 121.873 46.4499 121.625C46.6979 121.377 46.8371 121.041 46.8371 120.69C46.8371 120.34 46.6979 120.003 46.4499 119.755C46.202 119.507 45.8656 119.368 45.515 119.368H29.492Z" fill="#3DADE2"/>
<path d="M7.95347 95.7119C7.60282 95.7119 7.26655 95.8512 7.01861 96.0992C6.77066 96.3471 6.63135 96.6834 6.63135 97.034C6.63135 97.3847 6.77066 97.721 7.01861 97.9689C7.26655 98.2168 7.60282 98.3562 7.95347 98.3562H30.117C30.4677 98.3562 30.8039 98.2168 31.0518 97.9689C31.2998 97.721 31.4392 97.3847 31.4392 97.034C31.4392 96.6834 31.2998 96.3471 31.0518 96.0992C30.8039 95.8512 30.4677 95.7119 30.117 95.7119H7.95347Z" fill="#3DADE2"/>
<path d="M30.2254 126.666C29.8748 126.666 29.5384 126.805 29.2905 127.053C29.0426 127.301 28.9033 127.637 28.9033 127.988C28.9033 128.339 29.0426 128.675 29.2905 128.923C29.5384 129.171 29.8748 129.31 30.2254 129.31H48.8642C49.2149 129.31 49.5512 129.171 49.7991 128.923C50.0471 128.675 50.1863 128.339 50.1863 127.988C50.1863 127.637 50.0471 127.301 49.7991 127.053C49.5512 126.805 49.2149 126.666 48.8642 126.666H30.2254ZM57.3573 126.666C57.0066 126.666 56.6703 126.805 56.4224 127.053C56.1744 127.301 56.0352 127.637 56.0352 127.988C56.0352 128.339 56.1744 128.675 56.4224 128.923C56.6703 129.171 57.0066 129.31 57.3573 129.31H64.3294C64.6801 129.31 65.0164 129.171 65.2644 128.923C65.5123 128.675 65.6516 128.339 65.6516 127.988C65.6516 127.637 65.5123 127.301 65.2644 127.053C65.0164 126.805 64.6801 126.666 64.3294 126.666H57.3573Z" fill="#3DADE2"/>
<path d="M1.32212 86.9453C0.971474 86.9453 0.635126 87.0846 0.387179 87.3326C0.139233 87.5805 0 87.9168 0 88.2674C0 88.6181 0.139233 88.9544 0.387179 89.2023C0.635126 89.4502 0.971474 89.5896 1.32212 89.5896H21.7092C22.0599 89.5896 22.3962 89.4502 22.6441 89.2023C22.8921 88.9544 23.0314 88.6181 23.0314 88.2674C23.0314 87.9168 22.8921 87.5805 22.6441 87.3326C22.3962 87.0846 22.0599 86.9453 21.7092 86.9453H1.32212Z" fill="#3DADE2"/>
<path d="M6.7733 53.5283C6.42265 53.5283 6.08638 53.6676 5.83843 53.9155C5.59049 54.1635 5.45117 54.4998 5.45117 54.8504C5.45117 55.2011 5.59049 55.5374 5.83843 55.7853C6.08638 56.0333 6.42265 56.1726 6.7733 56.1726H26.8041C27.1547 56.1726 27.491 56.0333 27.7389 55.7853C27.9869 55.5374 28.1262 55.2011 28.1262 54.8504C28.1262 54.4998 27.9869 54.1635 27.7389 53.9155C27.491 53.6676 27.1547 53.5283 26.8041 53.5283H6.7733ZM34.1505 53.5283C33.7999 53.5283 33.4635 53.6676 33.2156 53.9155C32.9677 54.1635 32.8284 54.4998 32.8284 54.8504C32.8284 55.2011 32.9677 55.5374 33.2156 55.7853C33.4635 56.0333 33.7999 56.1726 34.1505 56.1726H44.3557C44.7063 56.1726 45.0427 56.0333 45.2906 55.7853C45.5386 55.5374 45.6778 55.2011 45.6778 54.8504C45.6778 54.4998 45.5386 54.1635 45.2906 53.9155C45.0427 53.6676 44.7063 53.5283 44.3557 53.5283H34.1505Z" fill="#3DADE2"/>
<path d="M18.8763 43.7461C18.5257 43.7461 18.1894 43.8854 17.9415 44.1334C17.6935 44.3813 17.5542 44.7176 17.5542 45.0682C17.5542 45.4189 17.6935 45.7552 17.9415 46.0031C18.1894 46.2511 18.5257 46.3903 18.8763 46.3903H36.9135C37.2641 46.3903 37.6005 46.2511 37.8484 46.0031C38.0964 45.7552 38.2356 45.4189 38.2356 45.0682C38.2356 44.7176 38.0964 44.3813 37.8484 44.1334C37.6005 43.8854 37.2641 43.7461 36.9135 43.7461H18.8763ZM46.7623 43.7461C46.4116 43.7461 46.0754 43.8854 45.8275 44.1334C45.5795 44.3813 45.4402 44.7176 45.4402 45.0682C45.4402 45.4189 45.5795 45.7552 45.8275 46.0031C46.0754 46.2511 46.4116 46.3903 46.7623 46.3903H68.004C68.3547 46.3903 68.691 46.2511 68.939 46.0031C69.1869 45.7552 69.3262 45.4189 69.3262 45.0682C69.3262 44.7176 69.1869 44.3813 68.939 44.1334C68.691 43.8854 68.3547 43.7461 68.004 43.7461H46.7623Z" fill="#3DADE2"/>
<path d="M27.2792 14.7656C26.9285 14.7656 26.5922 14.9049 26.3443 15.1528C26.0963 15.4008 25.957 15.7371 25.957 16.0877C25.957 16.4384 26.0963 16.7747 26.3443 17.0226C26.5922 17.2706 26.9285 17.4099 27.2792 17.4099H45.1408C45.4915 17.4099 45.8278 17.2706 46.0758 17.0226C46.3237 16.7747 46.4629 16.4384 46.4629 16.0877C46.4629 15.7371 46.3237 15.4008 46.0758 15.1528C45.8278 14.9049 45.4915 14.7656 45.1408 14.7656H27.2792Z" fill="#3DADE2"/>
<path d="M44.9574 21.3584C44.6067 21.3584 44.2704 21.4977 44.0224 21.7456C43.7745 21.9936 43.6353 22.3299 43.6353 22.6805C43.6353 23.0312 43.7745 23.3674 44.0224 23.6154C44.2704 23.8633 44.6067 24.0026 44.9574 24.0026H58.1476C58.4983 24.0026 58.8346 23.8633 59.0826 23.6154C59.3305 23.3674 59.4697 23.0312 59.4697 22.6805C59.4697 22.3299 59.3305 21.9936 59.0826 21.7456C58.8346 21.4977 58.4983 21.3584 58.1476 21.3584H44.9574ZM65.0242 21.3584C64.6736 21.3584 64.3374 21.4977 64.0894 21.7456C63.8415 21.9936 63.7021 22.3299 63.7021 22.6805C63.7021 23.0312 63.8415 23.3674 64.0894 23.6154C64.3374 23.8633 64.6736 24.0026 65.0242 24.0026H73.5225C73.8731 24.0026 74.2095 23.8633 74.4574 23.6154C74.7054 23.3674 74.8446 23.0312 74.8446 22.6805C74.8446 22.3299 74.7054 21.9936 74.4574 21.7456C74.2095 21.4977 73.8731 21.3584 73.5225 21.3584H65.0242Z" fill="#3DADE2"/>
<path d="M116.157 89.6723C115.947 89.3983 115.638 89.2176 115.296 89.1693C114.954 89.1211 114.607 89.2091 114.329 89.4143L110.061 92.5651L104.765 92.9137C104.529 92.9288 104.302 93.0072 104.106 93.1406C103.911 93.274 103.756 93.4576 103.656 93.672C103.556 93.8864 103.516 94.1236 103.54 94.3589C103.564 94.5941 103.65 94.8186 103.791 95.0088L106.943 99.2795L107.294 104.574C107.309 104.809 107.388 105.036 107.521 105.231C107.655 105.426 107.838 105.581 108.052 105.68C108.266 105.78 108.503 105.82 108.738 105.796C108.973 105.772 109.197 105.686 109.387 105.546L113.656 102.395L118.952 102.047C119.188 102.032 119.415 101.953 119.61 101.82C119.805 101.686 119.961 101.503 120.061 101.288C120.161 101.074 120.201 100.837 120.177 100.601C120.153 100.366 120.067 100.142 119.926 99.9516L116.774 95.6809L116.423 90.3866C116.407 90.1274 116.314 89.8789 116.157 89.6723ZM113.958 92.9611L114.173 96.2397C114.19 96.4906 114.279 96.7314 114.428 96.9335L116.379 99.5798L113.101 99.7953C112.849 99.8114 112.608 99.8992 112.405 100.048L109.759 101.999L109.544 98.7207C109.527 98.4698 109.438 98.229 109.288 98.0268L107.339 95.3827L110.618 95.1672C110.868 95.1502 111.109 95.0616 111.311 94.912L113.958 92.9611Z" fill="#3DADE2"/>
<path d="M148.158 104.871C146.005 104.871 144.233 106.646 144.233 108.799C144.233 110.952 146.005 112.724 148.158 112.724C149.949 112.724 151.232 111.383 151.696 109.731C151.819 109.609 151.917 109.464 151.984 109.304C152.051 109.144 152.085 108.972 152.086 108.799C152.086 108.625 152.051 108.453 151.984 108.292C151.917 108.132 151.819 107.986 151.696 107.864C151.231 106.213 149.948 104.871 148.158 104.871ZM148.158 107.502C148.889 107.502 149.454 108.068 149.454 108.799C149.454 109.53 148.889 110.092 148.158 110.092C147.427 110.092 146.864 109.53 146.864 108.799C146.864 108.068 147.427 107.502 148.158 107.502Z" fill="#3DADE2"/>
<path d="M153.123 37.3704C152.802 37.2419 152.444 37.2444 152.126 37.3774C151.807 37.5104 151.554 37.7633 151.42 38.0815L149.358 42.97L144.983 45.9736C144.788 46.107 144.632 46.2906 144.532 46.505C144.433 46.7194 144.393 46.9567 144.416 47.1919C144.44 47.4272 144.527 47.6516 144.667 47.8418C144.808 48.0319 144.997 48.1807 145.215 48.2725L150.106 50.3352L153.11 54.7084C153.244 54.9029 153.428 55.0579 153.642 55.1572C153.856 55.2564 154.093 55.2962 154.328 55.2723C154.562 55.2485 154.787 55.1619 154.976 55.0217C155.166 54.8815 155.315 54.6928 155.407 54.4754L157.469 49.5868L161.844 46.5833C162.039 46.4498 162.195 46.2663 162.295 46.0519C162.394 45.8375 162.434 45.6002 162.411 45.365C162.387 45.1297 162.3 44.9052 162.16 44.7151C162.019 44.5249 161.83 44.3761 161.612 44.2844L156.721 42.2217L153.717 37.8485C153.57 37.634 153.364 37.4677 153.123 37.3704ZM152.911 41.321L154.77 44.03C154.913 44.237 155.112 44.3989 155.344 44.4963L158.373 45.7756L155.664 47.6348C155.456 47.7769 155.293 47.9756 155.195 48.2074L153.916 51.2359L152.057 48.5269C151.914 48.3198 151.715 48.158 151.483 48.0606L148.457 46.7824L151.166 44.9232C151.373 44.7804 151.535 44.5813 151.632 44.3495L152.911 41.321Z" fill="#3DADE2"/>
<path d="M127.877 17.5547C125.724 17.5547 123.949 19.3293 123.949 21.4823C123.949 23.6354 125.724 25.41 127.877 25.41C129.668 25.41 130.951 24.0666 131.415 22.4145C131.537 22.2923 131.635 22.147 131.701 21.987C131.768 21.8271 131.802 21.6556 131.802 21.4823C131.802 21.3085 131.767 21.1364 131.701 20.9759C131.634 20.8155 131.536 20.6699 131.412 20.5475C130.947 18.8972 129.667 17.5547 127.877 17.5547ZM127.877 20.186C128.608 20.186 129.171 20.7514 129.171 21.4823C129.171 22.2132 128.608 22.7786 127.877 22.7786C127.146 22.7786 126.581 22.2132 126.581 21.4823C126.581 20.7514 127.146 20.186 127.877 20.186Z" fill="#3DADE2"/>
</svg>
