<svg width="164" height="160" viewBox="0 0 164 160" fill="none" xmlns="http://www.w3.org/2000/svg">
<g clip-path="url(#clip0)">
<path d="M104.417 12.8633L101.892 13.8532C99.7984 14.6744 97.495 14.984 95.0403 15.8206C92.7632 16.5966 90.404 18.0244 88.241 20.5996C72.4878 21.3339 56.4031 21.9624 40.998 31.6213L37.3919 33.8826L41.6419 34.1118C44.7729 34.2798 47.4958 34.5314 50.2881 34.7702C41.8648 39.6267 19.9751 54.9806 19.9751 85.4766C19.9751 104.316 31.448 115.233 42.719 121.199C53.9901 127.165 65.2238 128.431 65.2238 128.431L65.237 128.318C69.2186 130.18 73.5094 131.494 78.0178 132.157V136.204H64.7746C59.6102 136.204 56.6377 139.02 55.2689 141.726C53.9002 144.432 53.881 147.1 53.881 147.1L56.5721 147.137C56.5721 147.137 56.6203 145.022 57.6707 142.945C58.7212 140.868 60.5195 138.901 64.7746 138.901H79.008C79.4278 139.136 80.15 139.502 81.2004 139.851C82.8661 140.405 85.3495 140.938 88.709 140.938C92.0684 140.938 94.5546 140.405 96.2203 139.851C97.2708 139.502 97.9929 139.136 98.4128 138.901H112.643C116.898 138.901 118.7 140.868 119.75 142.945C120.8 145.022 120.846 147.137 120.846 147.137L123.538 147.1C123.538 147.1 123.521 144.432 122.152 141.726C120.784 139.02 117.808 136.204 112.643 136.204H99.4002V132.157C104.458 131.413 109.242 129.851 113.622 127.613L113.671 127.921C113.671 127.921 124.213 126.246 134.736 119.068C145.259 111.891 155.842 99.0278 155.842 77.1538C155.842 55.3171 146.152 43.0969 135.661 36.4108C130.415 33.0677 124.99 31.0723 120.465 29.8121C115.94 28.5519 112.235 28.008 110.738 27.6664C104.958 26.3478 102.402 19.9894 103.679 15.4778L104.417 12.8633ZM100.93 16.9262C100.444 22.5319 103.597 28.8038 110.141 30.297C111.939 30.707 115.389 31.1992 119.742 32.4113C124.095 33.6235 129.271 35.5339 134.216 38.6854C144.105 44.9882 153.151 56.1037 153.151 77.1538C153.151 98.1663 143.216 110.021 133.222 116.838C128.704 119.92 124.199 121.928 120.607 123.212C126.981 118.351 132.055 111.871 135.217 104.368C138.33 102.403 142.624 99.2626 144.468 94.9741C146.059 91.2745 147.091 85.929 146.764 81.3288C148.752 76.9819 149.999 73.4538 149.999 73.4538C149.999 73.0363 140.277 84.9457 137.028 91.5117C133.534 67.0066 131.634 64.7906 129.585 58.9279L128.134 54.7836L127.014 59.0283C126.607 60.5722 126.273 62.5922 125.903 64.5652C125.742 65.4238 125.544 65.9757 125.366 66.7562C122.148 62.2399 119.739 57.1562 118.021 51.5372L116.883 47.8191L115.479 51.4452C114.695 53.4726 113.82 56.4022 113.387 59.844C104.046 58.0542 96.5731 52.3048 89.3216 45.6421L88.412 44.8075L87.5025 45.6421C80.2515 52.3043 72.7775 58.0538 63.4367 59.844C63.0038 56.4022 62.1294 53.4726 61.345 51.4452L59.9418 47.8191L58.8035 51.5372C57.085 57.1552 54.6748 62.2377 51.4577 66.7534C51.2804 65.9737 51.0824 65.4228 50.9215 64.5652C50.5515 62.5922 50.2175 60.5722 49.8097 59.0283L48.688 54.7836L47.2396 58.9279C45.1896 64.7906 43.2898 67.0066 39.7964 91.5117C34.746 86.6094 29.2119 75.319 29.3521 75.3752C29.4574 78.5456 29.8896 81.2028 30.6009 83.5023C30.6728 87.5383 31.608 91.8452 32.9534 94.9741C34.7974 99.2626 39.091 102.403 42.2038 104.368C45.6048 112.438 51.2153 119.324 58.2771 124.285C54.2953 123.248 49.1391 121.547 43.9783 118.816C33.2214 113.122 22.6662 103.232 22.6662 85.4766C22.6662 49.7066 55.3552 35.0022 55.3552 35.0022L59.1317 33.2982L55.077 32.4531C52.7153 31.9608 49.6517 31.7837 46.522 31.6422C60.1683 24.5454 74.374 23.9443 88.8508 23.2664L89.4767 23.2378L89.8577 22.7397C91.8314 20.1624 93.7742 19.1014 95.9074 18.3745C97.4451 17.8504 99.1984 17.4208 100.93 16.9261V16.9262ZM88.412 48.4197C95.849 55.1689 103.856 61.3233 114.273 62.8536L115.716 63.0647L115.811 61.6087C115.953 59.4463 116.356 57.5889 116.83 55.9184C118.777 61.354 121.17 66.5534 124.896 70.9633L126.35 72.6854L127.174 70.5871C127.772 69.0646 128.17 67.0704 128.546 65.0627C128.588 64.8411 128.624 64.6941 128.665 64.4733C130.281 68.7059 131.932 73.7907 134.786 94.6132L135.138 97.1804C138.241 95.8935 141.276 91.7378 143.785 87.2559C143.41 89.726 142.762 92.1238 141.995 93.9075C140.543 97.2846 136.383 100.511 133.448 102.336L133.08 102.565L132.915 102.968C126.395 118.839 110.849 129.961 92.5801 129.961H84.8379C66.5691 129.961 51.0254 118.839 44.5061 102.968L44.3406 102.565L43.9728 102.336C41.038 100.511 36.8754 97.2846 35.4233 93.9075C34.9968 92.9157 34.6072 91.7308 34.2787 90.4528C36.2724 92.9396 38.79 95.0121 41.6864 97.1804L42.0383 94.6132C44.8934 73.7827 46.5426 68.701 48.1596 64.4677C48.2007 64.6904 48.2359 64.8392 48.2778 65.0627C48.6544 67.0704 49.0522 69.0646 49.6497 70.5871L50.4723 72.6854L51.9284 70.9633C55.6537 66.5543 58.0446 61.3555 59.9912 55.9212C60.4648 57.5911 60.8721 59.4474 61.014 61.6087L61.1086 63.0647L62.5515 62.8536C72.9686 61.3233 80.9751 55.1689 88.412 48.4197ZM87.4017 61.725C80.8324 61.6255 74.9491 65.2549 74.9491 65.2549C74.9491 65.2549 82.3747 63.344 88.7104 64.4392V61.7995C88.2722 61.7584 87.8354 61.7316 87.4017 61.725ZM70.2492 71.1813C65.9175 71.1219 60.2033 73.0533 60.2033 73.0533C60.2033 73.0533 67.3828 73.2212 71.5078 73.9916C75.6327 74.7621 80.5461 77.2485 80.5461 77.2485C80.5461 77.2485 76.3337 72.1496 72.0001 71.3402C71.4584 71.239 70.868 71.1898 70.2492 71.1813ZM107.171 71.1813C106.552 71.1898 105.962 71.239 105.42 71.3402C101.086 72.1496 96.8739 77.2485 96.8739 77.2485C96.8739 77.2485 101.787 74.7621 105.912 73.9916C110.037 73.2212 117.217 73.0533 117.217 73.0533C117.217 73.0533 111.503 71.1219 107.171 71.1813ZM112.337 76.9879C111.779 76.9915 111.206 77.0208 110.617 77.0799C104.414 77.7037 100.992 80.6877 99.3313 83.5309C97.6711 86.374 99.1784 89.2776 99.1784 89.2776C99.1784 89.2776 100.363 87.1075 101.655 84.8942C102.884 82.7901 105.167 80.551 110.101 79.8609C107.126 82.2407 106.242 86.5307 108.201 89.9296C110.359 93.674 115.177 94.9672 118.914 92.8054C122.016 91.0113 123.296 87.4073 122.437 84.0875C124.746 86.4489 126.666 88.4715 126.666 88.4715C128.005 87.7412 130.582 88.2516 132.869 88.4715C130.607 86.9079 128.346 85.2935 126.084 85.0078C126.083 85.0042 126.082 85.0014 126.08 84.9982C127.481 84.8344 129.376 85.1663 131.105 85.3326C128.737 83.6948 126.368 82.0027 123.999 81.8388C121.471 79.3322 117.595 76.963 112.337 76.9881L112.337 76.9879ZM114.859 80.8348C116.684 80.7838 118.47 81.7141 119.454 83.4208C120.884 85.9033 120.046 89.037 117.568 90.4702C115.09 91.9035 111.962 91.0634 110.532 88.5809C109.101 86.0984 109.939 82.9648 112.417 81.5315C113.192 81.0836 114.029 80.858 114.859 80.8348ZM114.984 83.5351C113.628 83.5401 112.532 84.6429 112.532 86.0012C112.532 87.2125 113.405 88.2178 114.554 88.4256C114.475 88.1983 114.434 87.9593 114.434 87.7185C114.434 87.1509 114.659 86.6065 115.06 86.2051C115.46 85.8038 116.004 85.5783 116.57 85.5783C116.871 85.5784 117.168 85.6421 117.442 85.765C117.324 84.514 116.273 83.5352 114.993 83.5351C114.99 83.5351 114.987 83.5351 114.984 83.5351ZM78.5553 93.7271C78.5553 93.7271 75.1561 96.1594 73.3171 97.4012C71.4781 98.643 68.9348 100.054 66.2168 100.756C63.6533 101.417 61.5146 100.801 59.9446 100C58.3746 99.2 55.4317 97.2647 55.4317 97.2647C55.4317 97.2647 56.7484 101.398 58.7221 102.404C60.6959 103.41 63.571 104.222 66.8871 103.367C70.0485 102.551 72.8184 100.99 74.8205 99.6382C76.8226 98.2862 78.5553 93.7271 78.5553 93.7271ZM84.6091 103.351C83.4878 103.318 78.6599 103.466 73.1843 107.969C66.5558 113.421 66.4615 123.906 66.4615 123.906C66.4615 123.906 69.451 114.53 74.8928 110.054C80.7053 105.273 84.8539 103.365 84.8539 103.365C84.8539 103.365 84.7693 103.356 84.6091 103.351V103.351ZM76.3113 114.86C76.3113 114.86 81.9046 117.902 88.7097 117.902C95.5147 117.902 101.109 114.86 101.109 114.86C101.109 114.86 95.0532 115.206 88.7097 115.206C82.3661 115.206 76.3113 114.86 76.3113 114.86ZM80.7088 132.47C82.0694 132.59 83.4453 132.657 84.8379 132.657H92.5801C93.9725 132.657 95.3486 132.59 96.7091 132.47V136.702C96.4693 136.843 96.3486 136.966 95.3712 137.291C93.9729 137.757 91.7848 138.242 88.709 138.242C85.6331 138.242 83.4478 137.757 82.0495 137.291C81.0698 136.966 80.9478 136.84 80.7088 136.699V132.47Z" fill="#30414D"/>
<path d="M88.7104 20.0645C88.553 20.2378 88.3964 20.4151 88.241 20.6002C72.4878 21.3345 56.4031 21.963 40.998 31.6219L37.3919 33.8832L41.6419 34.1124C44.7729 34.2804 47.4958 34.532 50.2881 34.7708C41.8648 39.6273 19.9751 54.9812 19.9751 85.4772C19.9751 104.316 31.448 115.234 42.719 121.199C53.9901 127.165 65.2238 128.432 65.2238 128.432L65.237 128.318C69.2186 130.181 73.5094 131.494 78.0178 132.158V136.205H64.7746C59.6102 136.205 56.6377 139.02 55.269 141.726C53.9002 144.432 53.881 147.1 53.881 147.1L56.5721 147.137C56.5721 147.137 56.6203 145.022 57.6707 142.945C58.7212 140.869 60.5195 138.901 64.7746 138.901H79.008C79.4279 139.137 80.15 139.502 81.2004 139.852C82.8661 140.406 85.3495 140.939 88.709 140.939H88.7104V138.243H88.709C85.6331 138.243 83.4478 137.757 82.0495 137.292C81.0698 136.966 80.9478 136.841 80.7088 136.7V132.471C82.0694 132.59 83.4453 132.658 84.8379 132.658H88.7104V129.962H84.8379C66.5691 129.962 51.0254 118.84 44.5061 102.969L44.3406 102.565L43.9728 102.336C41.038 100.511 36.8754 97.2852 35.4233 93.9081C34.9968 92.9163 34.6072 91.7314 34.2787 90.4534C36.2724 92.9402 38.79 95.0127 41.6864 97.1809L42.0383 94.6138C44.8934 73.7833 46.5426 68.7016 48.1596 64.4683C48.2007 64.691 48.2359 64.8398 48.2778 65.0632C48.6544 67.071 49.0522 69.0651 49.6497 70.5877L50.4723 72.686L51.9284 70.9639C55.6537 66.5549 58.0446 61.3561 59.9912 55.9218C60.4648 57.5917 60.8721 59.448 61.014 61.6092L61.1086 63.0652L62.5515 62.8542C72.9686 61.3238 80.9751 55.1695 88.4121 48.4202C88.511 48.51 88.6113 48.5982 88.7104 48.6878V45.0819L88.4121 44.8081L87.5025 45.6427C80.2515 52.3049 72.7775 58.0543 63.4367 59.8446C63.0038 56.4028 62.1294 53.4732 61.345 51.4458L59.9418 47.8197L58.8035 51.5378C57.085 57.1557 54.6748 62.2383 51.4577 66.754C51.2804 65.9742 51.0824 65.4234 50.9215 64.5658C50.5515 62.5928 50.2175 60.5728 49.8097 59.0288L48.688 54.7842L47.2396 58.9285C45.1896 64.7911 43.2898 67.0072 39.7964 91.5123C34.746 86.61 29.2119 75.3196 29.3521 75.3758C29.4574 78.5462 29.8896 81.2034 30.6009 83.5029C30.6728 87.5389 31.608 91.8457 32.9534 94.9746C34.7974 99.2632 39.091 102.403 42.2038 104.369C45.6048 112.438 51.2153 119.325 58.2771 124.286C54.2953 123.248 49.1391 121.548 43.9783 118.816C33.2214 113.123 22.6661 103.232 22.6661 85.4772C22.6661 49.7072 55.3552 35.0027 55.3552 35.0027L59.1317 33.2987L55.077 32.4537C52.7153 31.9614 49.6517 31.7842 46.522 31.6428C60.1241 24.569 74.2822 23.9492 88.7104 23.2739V20.0645ZM87.4017 61.7256C80.8324 61.626 74.9491 65.2555 74.9491 65.2555C74.9491 65.2555 82.3747 63.3446 88.7104 64.4397V61.8001C88.2722 61.7589 87.8354 61.7322 87.4017 61.7256ZM70.2492 71.1819C65.9175 71.1224 60.2033 73.0538 60.2033 73.0538C60.2033 73.0538 67.3828 73.2218 71.5078 73.9922C75.6327 74.7627 80.5461 77.2491 80.5461 77.2491C80.5461 77.2491 76.3337 72.1502 72.0001 71.3408C71.4584 71.2396 70.868 71.1904 70.2492 71.1819ZM65.0833 76.9885C59.8245 76.9634 55.9501 79.3326 53.4214 81.8393C51.0527 82.0031 48.6841 83.6953 46.3155 85.333C48.045 85.1667 49.9393 84.8349 51.3395 84.9986C51.3384 85.0018 51.3373 85.0051 51.3359 85.0083C49.0746 85.2943 46.8133 86.9086 44.5519 88.4721C46.8389 88.2522 49.4154 87.7417 50.7539 88.4721C50.7539 88.4721 52.7536 86.363 55.1479 83.9181C56.9948 82.0321 59.5567 80.2659 63.1105 79.8037C61.2654 81.2441 60.0724 83.4882 60.0724 86.0011C60.0725 90.3247 63.5998 93.8579 67.9154 93.8579C73.1866 93.8579 75.7598 89.754 75.7598 84.8857C75.7616 84.8886 75.7637 84.8918 75.7654 84.8948C77.0579 87.1081 78.2416 89.2781 78.2416 89.2781C78.2416 89.2781 79.7489 86.3746 78.0886 83.5314C76.4284 80.6883 73.0062 77.7043 66.8036 77.0805C66.2146 77.0212 65.6411 76.9912 65.0832 76.9885L65.0833 76.9885ZM67.9155 80.8403C70.7768 80.8403 73.0689 83.1346 73.0689 86.0011C73.0689 88.8676 70.7768 91.1619 67.9155 91.1619C65.0543 91.1619 62.7643 88.8676 62.7643 86.0011C62.7643 83.1346 65.0543 80.8403 67.9155 80.8403ZM67.9072 83.5356C66.5511 83.5404 65.4544 84.6432 65.4546 86.0018C65.4548 87.3636 66.5569 88.4675 67.9162 88.4672C69.2753 88.4671 70.377 87.3633 70.3771 86.0018C70.3774 84.6399 69.2756 83.5358 67.9162 83.5356C67.9134 83.5356 67.9102 83.5356 67.9072 83.5356ZM78.5553 93.7276C78.5553 93.7276 75.1561 96.16 73.3171 97.4018C71.4781 98.6436 68.9348 100.055 66.2168 100.756C63.6533 101.417 61.5146 100.801 59.9446 100.001C58.3746 99.2006 55.4317 97.2652 55.4317 97.2652C55.4317 97.2652 56.7484 101.398 58.7221 102.404C60.6959 103.411 63.571 104.223 66.8871 103.367C70.0485 102.552 72.8184 100.991 74.8205 99.6387C76.8226 98.2868 78.5553 93.7276 78.5553 93.7276ZM84.6091 103.352C83.4878 103.318 78.6599 103.466 73.1843 107.97C66.5558 113.422 66.4615 123.907 66.4615 123.907C66.4615 123.907 69.451 114.53 74.8928 110.054C80.7054 105.273 84.8539 103.365 84.8539 103.365C84.8539 103.365 84.7693 103.357 84.6091 103.352ZM76.3114 114.861C76.3114 114.861 81.9046 117.903 88.7097 117.903H88.7104V115.207H88.7097C82.3661 115.207 76.3114 114.861 76.3114 114.861Z" fill="#608199"/>
<path d="M87.9075 -0.000976562C87.1938 -0.000976562 86.5092 0.283085 86.0045 0.788721C85.4998 1.29436 85.2163 1.98015 85.2163 2.69523V157.303C85.2163 158.018 85.4998 158.704 86.0045 159.21C86.5092 159.715 87.1938 159.999 87.9075 159.999C88.6213 159.999 89.3058 159.715 89.8105 159.21C90.3152 158.704 90.5987 158.018 90.5987 157.303V2.69523C90.5987 1.98015 90.3152 1.29436 89.8105 0.788721C89.3058 0.283085 88.6213 -0.000976562 87.9075 -0.000976562Z" fill="#3DADE2"/>
<path d="M2.38125 42.5615C2.02438 42.5615 1.68211 42.7035 1.42976 42.9564C1.17741 43.2092 1.03564 43.5521 1.03564 43.9096C1.03564 44.2672 1.17741 44.61 1.42976 44.8629C1.68211 45.1157 2.02438 45.2577 2.38125 45.2577H18.2658C18.6226 45.2577 18.9649 45.1157 19.2172 44.8629C19.4696 44.61 19.6114 44.2672 19.6114 43.9096C19.6114 43.5521 19.4696 43.2092 19.2172 42.9564C18.9649 42.7035 18.6226 42.5615 18.2658 42.5615H2.38125ZM26.9518 42.5615C26.5949 42.5615 26.2526 42.7035 26.0003 42.9564C25.7479 43.2092 25.6062 43.5521 25.6062 43.9096C25.6062 44.2672 25.7479 44.61 26.0003 44.8629C26.2526 45.1157 26.5949 45.2577 26.9518 45.2577H54.7786C55.1354 45.2577 55.4777 45.1157 55.7301 44.8629C55.9824 44.61 56.1242 44.2672 56.1242 43.9096C56.1242 43.5521 55.9824 43.2092 55.7301 42.9564C55.4777 42.7035 55.1354 42.5615 54.7786 42.5615H26.9518Z" fill="#3DADE2"/>
<path d="M37.4457 36.8867C37.0888 36.8867 36.7466 37.0288 36.4942 37.2816C36.2419 37.5344 36.1001 37.8773 36.1001 38.2348C36.1001 38.5924 36.2419 38.9353 36.4942 39.1881C36.7466 39.4409 37.0888 39.5829 37.4457 39.5829H66.7364C67.0933 39.5829 67.4355 39.4409 67.6879 39.1881C67.9402 38.9353 68.082 38.5924 68.082 38.2348C68.082 37.8773 67.9402 37.5344 67.6879 37.2816C67.4355 37.0288 67.0933 36.8867 66.7364 36.8867H37.4457Z" fill="#3DADE2"/>
<path d="M27.2484 17.7178C26.8916 17.7178 26.5493 17.8598 26.297 18.1126C26.0446 18.3655 25.9028 18.7083 25.9028 19.0659C25.9028 19.4234 26.0446 19.7663 26.297 20.0191C26.5493 20.272 26.8916 20.414 27.2484 20.414H54.1501C54.507 20.414 54.8493 20.272 55.1016 20.0191C55.354 19.7663 55.4957 19.4234 55.4957 19.0659C55.4957 18.7083 55.354 18.3655 55.1016 18.1126C54.8493 17.8598 54.507 17.7178 54.1501 17.7178H27.2484Z" fill="#3DADE2"/>
<path d="M53.935 12.1709C53.5781 12.1709 53.2358 12.3129 52.9835 12.5657C52.7311 12.8185 52.5894 13.1615 52.5894 13.519C52.5894 13.8765 52.7311 14.2194 52.9835 14.4722C53.2358 14.7251 53.5781 14.8671 53.935 14.8671H66.4765C66.8333 14.8671 67.1756 14.7251 67.4279 14.4722C67.6803 14.2194 67.8221 13.8765 67.8221 13.519C67.8221 13.1615 67.6803 12.8185 67.4279 12.5657C67.1756 12.3129 66.8333 12.1709 66.4765 12.1709H53.935ZM78.4345 12.1709C78.0776 12.1709 77.7354 12.3129 77.483 12.5657C77.2307 12.8185 77.0889 13.1615 77.0889 13.519C77.0889 13.8765 77.2307 14.2194 77.483 14.4722C77.7354 14.7251 78.0776 14.8671 78.4345 14.8671H87.7565C88.1134 14.8671 88.4557 14.7251 88.708 14.4722C88.9604 14.2194 89.1021 13.8765 89.1021 13.519C89.1021 13.1615 88.9604 12.8185 88.708 12.5657C88.4557 12.3129 88.1134 12.1709 87.7565 12.1709H78.4345Z" fill="#3DADE2"/>
<path d="M12.6493 69.1699C12.2924 69.1699 11.9502 69.3119 11.6978 69.5648C11.4455 69.8176 11.3037 70.1605 11.3037 70.518C11.3037 70.8756 11.4455 71.2184 11.6978 71.4713C11.9502 71.7241 12.2924 71.8661 12.6493 71.8661H30.2737C30.6305 71.8661 30.9728 71.7241 31.2251 71.4713C31.4775 71.2184 31.6193 70.8756 31.6193 70.518C31.6193 70.1605 31.4775 69.8176 31.2251 69.5648C30.9728 69.3119 30.6305 69.1699 30.2737 69.1699H12.6493Z" fill="#3DADE2"/>
<path d="M15.932 104.481C15.5752 104.481 15.2329 104.623 14.9805 104.876C14.7282 105.129 14.5864 105.472 14.5864 105.83C14.5864 106.187 14.7282 106.53 14.9805 106.783C15.2329 107.036 15.5752 107.178 15.932 107.178H38.5498C38.9067 107.178 39.249 107.036 39.5013 106.783C39.7537 106.53 39.8955 106.187 39.8955 105.83C39.8955 105.472 39.7537 105.129 39.5013 104.876C39.249 104.623 38.9067 104.481 38.5498 104.481H15.932Z" fill="#3DADE2"/>
<path d="M1.34561 111.616C0.988732 111.616 0.64647 111.758 0.394119 112.011C0.141768 112.264 0 112.607 0 112.964C0 113.322 0.141768 113.665 0.394119 113.918C0.64647 114.17 0.988732 114.312 1.34561 114.312H43.7139C44.0708 114.312 44.4131 114.17 44.6654 113.918C44.9178 113.665 45.0595 113.322 45.0595 112.964C45.0595 112.607 44.9178 112.264 44.6654 112.011C44.4131 111.758 44.0708 111.616 43.7139 111.616H1.34561Z" fill="#3DADE2"/>
<path d="M28.0478 130.698C27.6909 130.698 27.3486 130.84 27.0963 131.093C26.8439 131.346 26.7021 131.689 26.7021 132.046C26.7021 132.404 26.8439 132.747 27.0963 133C27.3486 133.252 27.6909 133.394 28.0478 133.394H45.5801C45.937 133.394 46.2792 133.252 46.5316 133C46.784 132.747 46.9257 132.404 46.9257 132.046C46.9257 131.689 46.784 131.346 46.5316 131.093C46.2792 130.84 45.937 130.698 45.5801 130.698H28.0478ZM55.7773 130.698C55.4204 130.698 55.0782 130.84 54.8258 131.093C54.5735 131.346 54.4317 131.689 54.4317 132.046C54.4317 132.404 54.5735 132.747 54.8258 133C55.0782 133.252 55.4204 133.394 55.7773 133.394H61.8693C62.2262 133.394 62.5685 133.252 62.8208 133C63.0732 132.747 63.215 132.404 63.215 132.046C63.215 131.689 63.0732 131.346 62.8208 131.093C62.5685 130.84 62.2262 130.698 61.8693 130.698H55.7773Z" fill="#3DADE2"/>
<path d="M13.309 136.049C12.9521 136.049 12.6098 136.191 12.3575 136.444C12.1051 136.697 11.9634 137.039 11.9634 137.397C11.9634 137.754 12.1051 138.097 12.3575 138.35C12.6098 138.603 12.9521 138.745 13.309 138.745H38.1949C38.5518 138.745 38.894 138.603 39.1464 138.35C39.3987 138.097 39.5405 137.754 39.5405 137.397C39.5405 137.039 39.3987 136.697 39.1464 136.444C38.894 136.191 38.5518 136.049 38.1949 136.049H13.309Z" fill="#3DADE2"/>
<path d="M133.78 17.3948C133.428 17.4099 133.096 17.5629 132.855 17.8209C132.614 18.079 132.484 18.4214 132.493 18.7745L132.616 24.209L129.796 28.8537C129.671 29.0603 129.603 29.2969 129.6 29.5388C129.597 29.7806 129.66 30.0187 129.78 30.2282C129.901 30.4377 130.076 30.6107 130.286 30.7293C130.496 30.8479 130.735 30.9076 130.976 30.9022L136.401 30.7784L141.039 33.6036C141.246 33.7293 141.482 33.7971 141.723 33.7999C141.964 33.8027 142.202 33.7403 142.411 33.6194C142.62 33.4985 142.793 33.3236 142.911 33.1128C143.03 32.902 143.089 32.6632 143.084 32.4214L142.958 26.9842L145.78 22.3396C145.906 22.1328 145.974 21.8959 145.976 21.6538C145.979 21.4118 145.917 21.1734 145.796 20.9639C145.675 20.7543 145.5 20.5813 145.289 20.4629C145.078 20.3445 144.839 20.2852 144.598 20.2911L139.173 20.4175L134.537 17.5896C134.31 17.4511 134.046 17.3833 133.78 17.3948ZM135.239 21.1758L138.109 22.9268C138.329 23.0603 138.582 23.1279 138.839 23.1216L142.201 23.0453L140.453 25.9205C140.32 26.1409 140.252 26.3949 140.259 26.6525L140.335 30.0201L137.465 28.2691C137.245 28.1347 136.992 28.0661 136.734 28.0717L133.373 28.1507L135.121 25.2728C135.255 25.0527 135.323 24.7987 135.318 24.5408L135.239 21.1758Z" fill="#3DADE2"/>
<path d="M151.931 123.569C151.683 123.318 151.347 123.175 150.995 123.17C150.643 123.165 150.303 123.298 150.048 123.542L146.119 127.294L140.79 128.329C140.553 128.375 140.333 128.484 140.153 128.645C139.972 128.806 139.838 129.012 139.765 129.242C139.691 129.473 139.681 129.719 139.735 129.954C139.789 130.19 139.906 130.407 140.072 130.582L143.818 134.518L144.851 139.857C144.897 140.094 145.006 140.315 145.166 140.496C145.326 140.676 145.532 140.811 145.762 140.884C145.992 140.958 146.238 140.968 146.473 140.914C146.708 140.86 146.925 140.743 147.1 140.576L151.029 136.823L156.357 135.789C156.594 135.743 156.814 135.634 156.995 135.473C157.175 135.312 157.309 135.106 157.383 134.875C157.456 134.645 157.466 134.399 157.412 134.163C157.358 133.928 157.242 133.711 157.075 133.536L153.329 129.599L152.297 124.261C152.246 123.999 152.119 123.758 151.931 123.569ZM150.123 127.197L150.762 130.502C150.812 130.754 150.932 130.988 151.11 131.174L153.429 133.613L150.13 134.253C149.877 134.302 149.644 134.422 149.457 134.6L147.022 136.923L146.383 133.618C146.335 133.365 146.215 133.131 146.037 132.944L143.72 130.506L147.017 129.864C147.27 129.816 147.504 129.695 147.69 129.518L150.123 127.197Z" fill="#3DADE2"/>
<path d="M159.983 28.1162C157.781 28.1162 155.967 29.9334 155.967 32.1395C155.967 34.3455 157.781 36.1627 159.983 36.1627C161.814 36.1627 163.128 34.7874 163.602 33.0952C163.728 32.97 163.828 32.8211 163.896 32.657C163.964 32.493 163.999 32.3171 163.999 32.1395C163.999 31.9618 163.964 31.7859 163.896 31.6219C163.828 31.4578 163.728 31.3089 163.602 31.1837C163.128 29.4915 161.814 28.1162 159.983 28.1162ZM159.983 30.8124C160.731 30.8124 161.308 31.3906 161.308 32.1395C161.308 32.8883 160.731 33.4665 159.983 33.4665C159.236 33.4665 158.659 32.8883 158.659 32.1395C158.659 31.3906 159.236 30.8124 159.983 30.8124Z" fill="#3DADE2"/>
<path d="M125.449 127.989C123.247 127.989 121.434 129.806 121.434 132.013C121.434 134.219 123.247 136.036 125.449 136.036C127.28 136.036 128.591 134.66 129.066 132.968C129.192 132.843 129.292 132.694 129.361 132.53C129.429 132.366 129.465 132.19 129.465 132.013C129.465 131.834 129.43 131.658 129.361 131.493C129.293 131.329 129.192 131.179 129.066 131.054C128.59 129.363 127.28 127.989 125.449 127.989ZM125.449 130.685C126.197 130.685 126.774 131.264 126.774 132.013C126.774 132.761 126.197 133.34 125.449 133.34C124.702 133.34 124.125 132.761 124.125 132.013C124.125 131.264 124.702 130.685 125.449 130.685Z" fill="#3DADE2"/>
</g>
<defs>
<clipPath id="clip0">
<rect width="164" height="160" fill="white"/>
</clipPath>
</defs>
</svg>
