<svg width="164" height="159" viewBox="0 0 164 159" fill="none" xmlns="http://www.w3.org/2000/svg">
<path d="M76.9538 10.7139C72.8152 10.7179 68.5333 11.0474 64.115 11.7381C56.3056 12.9589 52.6892 17.0118 51.3401 20.7441C50.3526 23.4757 50.483 25.5412 50.6258 26.7132C49.1216 27.1449 41.9469 29.34 34.2099 36.5352C25.6274 44.5167 17.3389 58.3224 18.3454 81.0071C19.3519 103.691 28.7768 114.253 38.0182 118.828C47.2598 123.403 56.2393 122.126 56.2393 122.126V122.091C61.1263 125.011 66.5917 127.069 72.4304 128.054V131.605H59.2498C54.1098 131.605 51.1507 134.402 49.7884 137.091C48.4262 139.779 48.4078 142.429 48.4078 142.429L51.086 142.466C51.086 142.466 51.1314 140.365 52.1766 138.302C53.2223 136.239 55.0147 134.284 59.2498 134.284H73.415C73.8322 134.518 74.5499 134.881 75.5951 135.228C77.2529 135.779 79.7273 136.309 83.0709 136.309C86.4144 136.309 88.8888 135.779 90.5467 135.228C91.5919 134.881 92.3095 134.518 92.7267 134.284H106.892C111.127 134.284 112.92 136.239 113.965 138.302C115.011 140.365 115.056 142.466 115.056 142.466L117.734 142.429C117.734 142.429 117.715 139.779 116.353 137.091C114.991 134.402 112.032 131.605 106.892 131.605H93.7117V128.053C98.5621 127.235 103.154 125.677 107.372 123.499C127.269 129.188 140.95 124.244 148.171 113.609C155.462 102.871 156.254 86.7876 151.66 70.5292C147.066 54.2709 137.029 37.77 122.194 26.2033C111.068 17.5282 97.2186 11.6565 81.0487 10.8171C79.7013 10.7471 78.3381 10.7127 76.9585 10.7139H76.9538ZM76.9538 13.3845C94.287 13.3564 108.899 19.2441 120.535 28.3168C134.857 39.4831 144.628 55.5254 149.073 71.2558C153.518 86.9862 152.578 102.334 145.944 112.105C139.672 121.343 128.385 125.991 110.674 121.614C120.877 115.246 128.443 105.07 131.422 93.0472C134.169 91.8287 137.245 90.0079 138.482 87.1361C139.451 84.8874 139.657 81.9475 139.23 79.2604C139.016 77.9168 138.638 76.6389 138.021 75.546C137.404 74.4531 136.504 73.501 135.259 73.103C135.259 73.1026 135.259 73.1021 135.259 73.1016C134.877 71.6437 134.31 70.5091 134.31 70.5091C134.31 70.5091 133.32 73.8261 132.876 76.0111C132.503 77.8444 131.582 79.4711 129.575 81.5726C122.926 72.0403 116.398 62.2141 106.826 54.7146C96.7912 46.8524 83.4371 41.645 63.5437 42.0385L62.6203 42.0565L62.3091 42.9251C55.4421 62.0945 46.1426 71.6674 36.6677 81.6092C35.2756 80.5438 34.4677 79.0489 33.9395 76.8588C33.7859 76.2221 33.6498 75.4682 33.5318 74.694C33.532 74.5664 33.5141 74.4394 33.4783 74.3169C33.1512 72.0461 32.9764 69.7277 32.9764 69.7277C32.9764 69.7277 32.1516 71.4661 31.6284 73.4753C29.3306 74.2951 27.9114 76.6514 27.0551 79.2001C26.179 81.8079 25.9044 84.7509 26.9319 87.1361C27.6387 88.7768 29.0773 89.9616 30.6282 90.9709C31.9854 91.8543 33.4233 92.5104 34.7116 93.0707C37.3976 103.888 43.7962 113.209 52.4867 119.603C49.3132 119.535 44.3083 118.953 39.2051 116.427C30.7573 112.245 21.9961 102.884 21.0202 80.8895C20.0443 58.8967 27.9385 46.0232 36.0319 38.4965C44.1255 30.9697 52.3726 28.8919 52.3726 28.8919L53.6232 28.5756L53.3532 27.3119C53.3532 27.3119 52.7914 24.6062 53.8583 21.6542C54.9256 18.7022 57.4474 15.4893 64.5275 14.3825C68.8142 13.7124 72.9592 13.391 76.9592 13.3845H76.9538ZM66.1685 44.7536C84.0896 44.8512 96.0265 49.6602 105.168 56.8226C114.753 64.3321 121.337 74.4734 128.364 84.4862L129.241 85.7368L130.365 84.7063C133.7 81.6509 134.962 79.1534 135.493 76.5502C135.558 76.6466 135.624 76.7482 135.688 76.8616C136.087 77.5693 136.409 78.5734 136.585 79.6811C136.937 81.8965 136.686 84.5401 136.023 86.0766C135.275 87.813 132.34 89.8348 129.798 90.8976L129.165 91.1612L129.01 91.8284C124.428 111.481 106.884 126.037 85.7749 126.037H80.345C59.2359 126.037 41.6917 111.481 37.1098 91.8284L36.9553 91.1612L36.3221 90.8976C35.0126 90.3502 33.4208 89.5931 32.0851 88.7238C30.7494 87.8545 29.7183 86.843 29.3882 86.0766C28.7851 84.6766 28.8712 82.191 29.5896 80.0528C29.9991 78.8335 30.6203 77.7833 31.2493 77.0415C31.2693 77.1939 31.2947 77.3435 31.3282 77.4866C32.0186 80.3495 33.218 83.1729 36.1465 84.6613L37.0359 85.1139L37.7238 84.3893C47.3003 74.3177 57.193 64.3071 64.4144 44.759C65.005 44.7523 65.5899 44.7511 66.168 44.7537L66.1685 44.7536ZM64.5157 63.0471C62.7214 63.0982 61.2685 63.5263 61.1143 64.2306C60.7621 65.8404 71.641 73.7163 73.2151 74.0608C74.7895 74.4054 73.5727 67.4105 71.0898 64.9331C69.6931 63.5395 66.8228 62.9816 64.5157 63.0471ZM101.603 63.0471C99.2965 62.9816 96.4261 63.5395 95.0295 64.9331C92.5465 67.4105 91.3303 74.4054 92.9047 74.0608C94.479 73.7163 105.358 65.8404 105.006 64.2306C104.852 63.5263 103.398 63.0981 101.603 63.0471ZM54.0372 72.5521C54.0372 72.5521 51.716 73.9986 51.5982 75.0615C51.5004 75.9392 51.6116 76.7146 51.7782 77.3467C51.5679 77.1034 51.3689 76.8759 51.0329 76.4685C50.5462 75.8779 49.4486 74.1432 49.4486 74.1432C49.4486 74.1432 48.1505 76.5504 48.5746 77.5322C48.7823 78.0132 49.0351 78.424 49.3026 78.7787C48.6784 79.1073 48.1106 79.4549 47.6029 79.8078C45.0736 81.566 42.7687 85.6364 42.7687 85.6364C42.7687 85.6364 47.0227 83.4749 49.133 82.0079C49.8045 81.5411 50.5964 81.0791 51.5207 80.6743C51.1807 82.0171 51.1425 83.4326 51.4283 84.8156C52.4581 89.8026 57.3697 93.033 62.3568 92.0035C66.5038 91.1472 69.4332 87.6061 69.7115 83.5699C71.3696 84.8511 73.3912 85.77 73.3912 85.77C73.3912 85.77 72.9489 82.9688 70.814 81.0044C70.3375 80.5661 69.7855 80.127 69.1606 79.7047V79.6867L68.7475 79.4272C68.7059 79.4014 68.659 79.3775 68.6175 79.3518C68.4445 79.2454 68.266 79.1405 68.0824 79.0376C67.9954 78.9888 67.9114 78.9401 67.8223 78.8922C67.5867 78.7661 67.3427 78.6434 67.0901 78.5241C66.0259 78.0207 64.8102 77.5848 63.4261 77.2638C63.398 77.2571 63.3699 77.2504 63.3418 77.2444C63.0694 77.1825 62.7923 77.1241 62.507 77.0714C62.507 77.0706 62.4936 77.07 62.4936 77.0687C62.2127 77.0168 61.9243 76.9704 61.6306 76.9282C61.5797 76.9215 61.5276 76.9144 61.4764 76.9074C61.2419 76.8754 61.0034 76.8465 60.7607 76.8209C60.683 76.8129 60.6046 76.8043 60.5255 76.7966C60.226 76.7681 59.923 76.7429 59.6113 76.7248C59.4274 76.7141 59.2468 76.708 59.07 76.7053C57.8558 76.6622 56.7178 76.7107 55.6588 76.8389V76.7641L54.5701 76.9856C54.5005 76.6573 54.4029 76.1596 54.2643 75.3564C54.1344 74.6023 54.0408 72.5515 54.0408 72.5515L54.0372 72.5521ZM112.083 72.5521C112.083 72.5521 111.989 74.6029 111.859 75.3571C111.721 76.1603 111.622 76.6579 111.553 76.9862L110.465 76.7647V76.8395C109.373 76.7077 108.197 76.6594 106.941 76.7101C106.799 76.7141 106.658 76.7168 106.512 76.7253C106.201 76.7436 105.898 76.7688 105.598 76.7973C105.519 76.8053 105.441 76.8133 105.363 76.8216C105.119 76.8473 104.879 76.8764 104.643 76.9087C104.593 76.9154 104.544 76.9208 104.496 76.9282C104.201 76.9705 103.912 77.0173 103.63 77.0693C103.615 77.072 103.599 77.076 103.584 77.0787C103.311 77.1297 103.045 77.1853 102.783 77.2448C102.755 77.2515 102.727 77.2582 102.699 77.2642C101.315 77.5852 100.099 78.0211 99.0355 78.5245C98.7829 78.6438 98.5388 78.7664 98.3032 78.8926C98.2148 78.9404 98.1294 78.9892 98.0428 79.038C97.8592 79.141 97.6811 79.2459 97.508 79.3522C97.4665 79.3779 97.4196 79.4018 97.3781 79.4276L96.965 79.6871V79.7051C96.3401 80.1274 95.788 80.5664 95.3117 81.0047C93.1768 82.9691 92.7342 85.7704 92.7342 85.7704C92.7342 85.7704 94.7558 84.8515 96.414 83.5703C96.6922 87.6064 99.6219 91.1476 103.769 92.0039C108.756 93.0334 113.668 89.803 114.697 84.816C114.983 83.433 114.945 82.0176 114.605 80.6747C115.529 81.0796 116.321 81.5415 116.992 82.0083C119.103 83.4753 123.357 85.6368 123.357 85.6368C123.357 85.6368 121.052 81.5664 118.523 79.8082C118.015 79.4553 117.447 79.1077 116.822 78.7791C117.09 78.4244 117.343 78.0137 117.551 77.5326C117.975 76.5508 116.677 74.1436 116.677 74.1436C116.677 74.1436 115.579 75.8783 115.093 76.4689C114.756 76.8767 114.557 77.1044 114.347 77.3479C114.519 76.7156 114.625 75.9399 114.527 75.0619C114.409 73.999 112.089 72.5525 112.089 72.5525L112.083 72.5521ZM58.1922 79.3697C58.3854 79.3683 58.5819 79.3699 58.7813 79.3751C58.8563 79.3777 58.9327 79.3804 59.0083 79.3831C59.1557 79.3884 59.3025 79.3925 59.4533 79.4019C59.6103 79.4113 59.754 79.4291 59.9067 79.4412C59.8601 79.4486 59.8138 79.4569 59.7676 79.4661C58.8449 79.6567 58.0356 80.2059 57.5179 80.993C57.0001 81.7802 56.8163 82.7408 57.0068 83.6635C57.1974 84.5862 57.7466 85.3955 58.5338 85.9132C59.3209 86.4309 60.2815 86.6148 61.2042 86.4243C62.1269 86.2337 62.9362 85.6845 63.4539 84.8973C63.9716 84.1102 64.1555 83.1496 63.965 82.2269C63.8505 81.6727 63.6054 81.1539 63.2499 80.7137C62.8944 80.2734 62.4389 79.9245 61.9213 79.6959C64.0079 80.079 65.6112 80.7504 66.8897 81.4994C66.903 81.5391 66.9124 81.5774 66.9204 81.6171C67.6571 85.1865 65.3844 88.6439 61.815 89.3808C58.2457 90.1177 54.7884 87.8441 54.0514 84.2747C53.7254 82.6954 54.0661 81.0878 54.8646 79.7002C55.8773 79.5096 56.9736 79.3801 58.1921 79.37L58.1922 79.3697ZM107.928 79.3697C109.146 79.3804 110.242 79.5093 111.254 79.6998C112.052 81.0875 112.394 82.6951 112.068 84.2745C111.331 87.8438 107.874 90.1174 104.304 89.3806C100.735 88.6436 98.4624 85.1863 99.1991 81.6169C99.2125 81.5771 99.222 81.5387 99.23 81.4991C100.508 80.75 102.111 80.0786 104.198 79.6956C103.68 79.9243 103.225 80.2733 102.869 80.7135C102.514 81.1537 102.269 81.6725 102.155 82.2265C101.964 83.1492 102.148 84.1098 102.666 84.897C103.183 85.6842 103.993 86.2334 104.915 86.4239C105.838 86.6144 106.799 86.4306 107.586 85.9129C108.373 85.3952 108.922 84.586 109.113 83.6633C109.303 82.7406 109.119 81.78 108.602 80.9928C108.084 80.2056 107.275 79.6564 106.352 79.4658C106.306 79.4566 106.26 79.4483 106.213 79.441C106.366 79.4289 106.509 79.4106 106.666 79.4014C106.816 79.392 106.961 79.3879 107.106 79.3828C107.184 79.3802 107.262 79.3761 107.338 79.3747C107.537 79.3707 107.734 79.3681 107.927 79.3694L107.928 79.3697ZM76.8181 87.6254C76.4245 87.6331 76.0496 87.7948 75.7739 88.0759C75.4983 88.357 75.3439 88.735 75.344 89.1287C75.344 89.5273 75.5025 89.9096 75.7844 90.1915C76.0663 90.4734 76.4485 90.6317 76.8472 90.6318C77.0446 90.6319 77.2402 90.5931 77.4226 90.5176C77.6051 90.4421 77.7708 90.3314 77.9105 90.1918C78.0501 90.0522 78.161 89.8865 78.2366 89.704C78.3122 89.5216 78.3512 89.3261 78.3512 89.1287C78.3512 88.9312 78.3122 88.7356 78.2366 88.5532C78.161 88.3708 78.0501 88.2051 77.9105 88.0655C77.7708 87.9259 77.6051 87.8152 77.4226 87.7397C77.2402 87.6642 77.0446 87.6254 76.8472 87.6254C76.8374 87.6253 76.8276 87.6253 76.8178 87.6254H76.8181ZM70.3036 93.2001C69.9101 93.2078 69.5351 93.3695 69.2595 93.6506C68.9839 93.9316 68.8295 94.3096 68.8295 94.7033C68.8296 95.102 68.9879 95.4843 69.2698 95.7662C69.5517 96.0481 69.9341 96.2064 70.3328 96.2065C70.5302 96.2065 70.7258 96.1678 70.9082 96.0923C71.0907 96.0168 71.2564 95.906 71.396 95.7664C71.5357 95.6268 71.6466 95.4611 71.7222 95.2787C71.7978 95.0963 71.8366 94.9008 71.8366 94.7033C71.8366 94.5059 71.7978 94.3103 71.7222 94.1279C71.6466 93.9454 71.5357 93.7798 71.396 93.6402C71.2564 93.5006 71.0907 93.3899 70.9082 93.3144C70.7257 93.2389 70.5302 93.2 70.3328 93.2001C70.3229 93.2 70.313 93.2 70.3032 93.2001H70.3036ZM77.3823 94.641C76.9887 94.6487 76.6137 94.8104 76.3381 95.0915C76.0625 95.3726 75.9081 95.7505 75.9081 96.1442C75.9082 96.5428 76.0665 96.9251 76.3484 97.207C76.6303 97.4889 77.0125 97.6473 77.4112 97.6474C77.8099 97.6473 78.1923 97.4889 78.4742 97.207C78.756 96.9251 78.9144 96.5428 78.9144 96.1442C78.9144 95.7455 78.756 95.3633 78.4742 95.0814C78.1923 94.7995 77.8099 94.6411 77.4112 94.641C77.4014 94.6409 77.3916 94.6409 77.3818 94.641H77.3823ZM67.7353 99.8398C67.3418 99.8475 66.9668 100.009 66.6912 100.29C66.4156 100.571 66.2612 100.949 66.2612 101.343C66.2613 101.541 66.3002 101.736 66.3758 101.918C66.4514 102.101 66.5622 102.267 66.7018 102.406C66.8415 102.546 67.0072 102.656 67.1896 102.732C67.3721 102.807 67.5677 102.846 67.7651 102.846C68.1638 102.846 68.546 102.688 68.8279 102.406C69.1098 102.124 69.2683 101.742 69.2683 101.343C69.2683 100.944 69.1098 100.562 68.8279 100.28C68.546 99.9983 68.1638 99.8399 67.7651 99.8398C67.7553 99.8397 67.7455 99.8397 67.7357 99.8398H67.7353ZM75.5032 102.032C75.1096 102.04 74.7348 102.202 74.4592 102.483C74.1836 102.764 74.029 103.142 74.0291 103.536C74.0291 103.934 74.1876 104.317 74.4695 104.598C74.7514 104.88 75.1336 105.039 75.5323 105.039C75.931 105.039 76.3132 104.88 76.5951 104.598C76.877 104.317 77.0355 103.934 77.0355 103.536C77.0355 103.137 76.877 102.755 76.5951 102.473C76.3132 102.191 75.931 102.032 75.5323 102.032C75.5225 102.032 75.5127 102.032 75.5029 102.032H75.5032ZM70.7196 110.402C70.7196 110.402 76.2864 113.424 83.0593 113.424C89.8322 113.424 95.4004 110.402 95.4004 110.402C95.4004 110.402 89.3728 110.746 83.0593 110.746C76.7457 110.746 70.7196 110.402 70.7196 110.402ZM75.0976 128.427C76.82 128.617 78.5704 128.715 80.345 128.715H85.7749C87.5494 128.715 89.3 128.617 91.0222 128.427V132.1C90.7834 132.24 90.6636 132.363 89.6907 132.686C88.2989 133.148 86.1212 133.63 83.06 133.63C79.9986 133.63 77.8209 133.148 76.4292 132.686C75.4565 132.363 75.3364 132.24 75.0976 132.1V128.427Z" fill="#608199"/>
<path d="M82.918 10.9404V13.616C97.6628 14.7785 110.263 20.3038 120.541 28.317C134.862 39.4833 144.633 55.5257 149.078 71.2561C153.523 86.9865 152.584 102.334 145.949 112.106C139.678 121.343 128.39 125.992 110.68 121.614C120.882 115.246 128.449 105.071 131.428 93.0474C134.175 91.829 137.25 90.0081 138.487 87.1364C139.456 84.8877 139.663 81.9478 139.236 79.2607C139.022 77.9171 138.643 76.6391 138.026 75.5463C137.41 74.4534 136.51 73.5013 135.264 73.1033C135.264 73.1028 135.264 73.1023 135.264 73.1019C134.882 71.6439 134.315 70.5094 134.315 70.5094C134.315 70.5094 133.326 73.8263 132.881 76.0114C132.508 77.8447 131.587 79.4714 129.58 81.5729C122.932 72.0406 116.403 62.2144 106.831 54.7149C100.47 49.731 92.772 45.8169 82.923 43.7171V46.4861C92.1069 48.5051 99.2347 52.1659 105.179 56.8229C114.763 64.3324 121.347 74.4737 128.374 84.4865L129.251 85.7371L130.376 84.7066C133.71 81.6512 134.973 79.1537 135.503 76.5505C135.569 76.647 135.634 76.7486 135.698 76.862C136.098 77.5697 136.419 78.5738 136.595 79.6815C136.948 81.8968 136.696 84.5404 136.033 86.0769C135.285 87.8133 132.351 89.8351 129.808 90.8979L129.175 91.1616L129.021 91.8288C124.438 111.482 106.894 126.037 85.7853 126.037H82.923V128.716H85.7854C87.5599 128.716 89.3105 128.617 91.0327 128.427V132.101C90.7939 132.241 90.674 132.363 89.7012 132.686C88.3094 133.148 86.1317 133.631 83.0705 133.631C83.0196 133.631 82.9741 133.628 82.923 133.628V136.306C82.9739 136.307 83.0195 136.309 83.0705 136.309C86.4139 136.309 88.8884 135.779 90.5462 135.229C91.5915 134.882 92.3091 134.519 92.7262 134.285H106.892C111.127 134.285 112.919 136.239 113.965 138.302C115.01 140.365 115.055 142.466 115.055 142.466L117.734 142.43C117.734 142.43 117.715 139.779 116.353 137.091C114.991 134.403 112.032 131.606 106.892 131.606H93.7112V128.053C98.5617 127.235 103.154 125.677 107.372 123.499C127.268 129.189 140.95 124.245 148.17 113.61C155.461 102.872 156.254 86.7878 151.66 70.5295C147.066 54.2711 137.028 37.7703 122.193 26.2035C111.5 17.8658 98.2901 12.1203 82.923 10.9405L82.918 10.9404ZM101.609 63.0474C99.3019 62.9819 96.4315 63.5398 95.0349 64.9333C92.552 67.4107 91.3359 74.4057 92.9103 74.0611C94.4846 73.7165 105.363 65.8407 105.011 64.2309C104.857 63.5266 103.403 63.0984 101.609 63.0474ZM112.088 72.5523C112.088 72.5523 111.995 74.6032 111.865 75.3574C111.726 76.1606 111.628 76.6582 111.559 76.9865L110.47 76.765V76.8397C109.378 76.708 108.203 76.6597 106.946 76.7103C106.805 76.7144 106.663 76.7171 106.518 76.7256C106.206 76.7438 105.903 76.769 105.604 76.7976C105.525 76.8056 105.447 76.8135 105.368 76.8218C105.124 76.8475 104.884 76.8767 104.648 76.909C104.599 76.9157 104.549 76.9211 104.501 76.9284C104.206 76.9707 103.917 77.0176 103.635 77.0696C103.621 77.0723 103.605 77.0763 103.59 77.079C103.317 77.13 103.05 77.1856 102.789 77.2451C102.761 77.2518 102.733 77.2584 102.705 77.2645C101.321 77.5855 100.105 78.0214 99.0409 78.5247C98.7883 78.6441 98.5443 78.7667 98.3088 78.8929C98.2204 78.9407 98.135 78.9895 98.0484 79.0382C97.8648 79.1412 97.6865 79.2461 97.5135 79.3525C97.472 79.3782 97.4252 79.4021 97.3837 79.4279L96.9704 79.6873V79.7053C96.3455 80.1277 95.7935 80.5666 95.3171 81.005C93.1822 82.9694 92.7398 85.7707 92.7398 85.7707C92.7398 85.7707 94.7614 84.8517 96.4196 83.5705C96.6978 87.6067 99.6274 91.1479 103.774 92.0042C108.761 93.0336 113.673 89.8032 114.703 84.8163C114.988 83.4332 114.95 82.0178 114.61 80.6749C115.535 81.0798 116.327 81.5418 116.998 82.0085C119.108 83.4756 123.362 85.6371 123.362 85.6371C123.362 85.6371 121.057 81.5667 118.528 79.8085C118.02 79.4556 117.452 79.108 116.828 78.7794C117.095 78.4247 117.349 78.014 117.557 77.5329C117.981 76.551 116.682 74.1438 116.682 74.1438C116.682 74.1438 115.585 75.8786 115.098 76.4692C114.762 76.877 114.563 77.1047 114.352 77.3482C114.525 76.7159 114.631 75.9402 114.533 75.0622C114.415 73.9993 112.094 72.5527 112.094 72.5527L112.088 72.5523ZM107.933 79.3699C109.152 79.3807 110.247 79.5095 111.26 79.7001C112.058 81.0878 112.4 82.6954 112.074 84.2747C111.337 87.8441 107.88 90.1177 104.31 89.3809C100.741 88.6439 98.468 85.1865 99.2047 81.6172C99.2181 81.5774 99.2276 81.539 99.2356 81.4994C100.514 80.7503 102.117 80.0789 104.203 79.6958C103.686 79.9246 103.231 80.2736 102.875 80.7138C102.52 81.154 102.275 81.6727 102.16 82.2268C101.97 83.1495 102.154 84.1101 102.671 84.8973C103.189 85.6844 103.998 86.2337 104.921 86.4242C105.844 86.6147 106.804 86.4309 107.592 85.9132C108.379 85.3954 108.928 84.5862 109.118 83.6636C109.309 82.7409 109.125 81.7802 108.607 80.9931C108.09 80.2059 107.28 79.6566 106.358 79.4661C106.311 79.4568 106.265 79.4486 106.219 79.4412C106.371 79.4292 106.515 79.4109 106.672 79.4017C106.821 79.3923 106.966 79.3882 107.112 79.3831C107.19 79.3804 107.268 79.3764 107.344 79.375C107.543 79.371 107.74 79.3684 107.933 79.3697L107.933 79.3699ZM95.4059 110.402C95.4059 110.402 89.3782 110.746 83.0648 110.746C83.0152 110.746 82.967 110.745 82.918 110.745V113.42C82.9675 113.42 83.0158 113.424 83.0648 113.424C89.8376 113.424 95.4059 110.402 95.4059 110.402V110.402Z" fill="#30414D"/>
<path d="M83.0647 0C82.3543 0 81.6731 0.282154 81.1708 0.784469C80.6685 1.28678 80.3862 1.96811 80.3862 2.67849V155.528C80.3862 156.238 80.6685 156.919 81.1708 157.422C81.6731 157.924 82.3543 158.206 83.0647 158.206C83.7751 158.206 84.4563 157.924 84.9587 157.422C85.461 156.919 85.7432 156.238 85.7432 155.528V2.67849C85.7432 1.96811 85.461 1.28678 84.9587 0.784469C84.4563 0.282154 83.7751 0 83.0647 0Z" fill="#3DADE2"/>
<path d="M9.83778 57.8438C9.48259 57.8438 9.14205 57.9849 8.89089 58.236C8.63973 58.4872 8.49854 58.8278 8.49854 59.183C8.49854 59.5382 8.63973 59.8788 8.89089 60.13C9.14205 60.3811 9.48259 60.5222 9.83778 60.5222H23.4421C23.7973 60.5222 24.138 60.3811 24.3892 60.13C24.6403 59.8788 24.7814 59.5382 24.7814 59.183C24.7814 58.8278 24.6403 58.4872 24.3892 58.236C24.138 57.9849 23.7973 57.8438 23.4421 57.8438H9.83778ZM33.2929 57.8438C32.9377 57.8438 32.597 57.9849 32.3458 58.236C32.0947 58.4872 31.9536 58.8278 31.9536 59.183C31.9536 59.5382 32.0947 59.8788 32.3458 60.13C32.597 60.3811 32.9377 60.5222 33.2929 60.5222H49.5234C49.8786 60.5222 50.2193 60.3811 50.4704 60.13C50.7216 59.8788 50.8626 59.5382 50.8626 59.183C50.8626 58.8278 50.7216 58.4872 50.4704 58.236C50.2193 57.9849 49.8786 57.8438 49.5234 57.8438H33.2929Z" fill="#3DADE2"/>
<path d="M14.2894 48.7803C13.9343 48.7803 13.5937 48.9214 13.3426 49.1725C13.0914 49.4237 12.9502 49.7643 12.9502 50.1195C12.9502 50.4747 13.0914 50.8153 13.3426 51.0665C13.5937 51.3176 13.9343 51.4588 14.2894 51.4588H44.5088C44.864 51.4588 45.2045 51.3176 45.4557 51.0665C45.7068 50.8153 45.848 50.4747 45.848 50.1195C45.848 49.7643 45.7068 49.4237 45.4557 49.1725C45.2045 48.9214 44.864 48.7803 44.5088 48.7803H14.2894Z" fill="#3DADE2"/>
<path d="M22.4584 13.8057C22.1032 13.8057 21.7627 13.9468 21.5115 14.1979C21.2603 14.4491 21.1191 14.7897 21.1191 15.1449C21.1191 15.5001 21.2603 15.8407 21.5115 16.0919C21.7627 16.343 22.1032 16.4842 22.4584 16.4842H33.8237C34.1789 16.4842 34.5196 16.343 34.7707 16.0919C35.0219 15.8407 35.1629 15.5001 35.1629 15.1449C35.1629 14.7897 35.0219 14.4491 34.7707 14.1979C34.5196 13.9468 34.1789 13.8057 33.8237 13.8057H22.4584ZM42.4267 13.8057C42.0716 13.8057 41.7308 13.9468 41.4797 14.1979C41.2285 14.4491 41.0875 14.7897 41.0875 15.1449C41.0875 15.5001 41.2285 15.8407 41.4797 16.0919C41.7308 16.343 42.0716 16.4842 42.4267 16.4842H49.4892C49.8444 16.4842 50.1851 16.343 50.4362 16.0919C50.6874 15.8407 50.8284 15.5001 50.8284 15.1449C50.8284 14.7897 50.6874 14.4491 50.4362 14.1979C50.1851 13.9468 49.8444 13.8057 49.4892 13.8057H42.4267Z" fill="#3DADE2"/>
<path d="M16.9945 107.979C16.6393 107.979 16.2986 108.121 16.0475 108.372C15.7963 108.623 15.6553 108.964 15.6553 109.319C15.6553 109.674 15.7963 110.015 16.0475 110.266C16.2986 110.517 16.6393 110.658 16.9945 110.658H48.9219C49.2771 110.658 49.6176 110.517 49.8688 110.266C50.12 110.015 50.2612 109.674 50.2612 109.319C50.2612 108.964 50.12 108.623 49.8688 108.372C49.6176 108.121 49.2771 107.979 48.9219 107.979H16.9945Z" fill="#3DADE2"/>
<path d="M1.33925 98.0762C0.984055 98.0762 0.643351 98.2173 0.392194 98.4684C0.141036 98.7196 0 99.0602 0 99.4154C0 99.7706 0.141036 100.111 0.392194 100.362C0.643351 100.614 0.984055 100.755 1.33925 100.755H19.61C19.9652 100.755 20.3057 100.614 20.5569 100.362C20.8081 100.111 20.9492 99.7706 20.9492 99.4154C20.9492 99.0602 20.8081 98.7196 20.5569 98.4684C20.3057 98.2173 19.9652 98.0762 19.61 98.0762H1.33925ZM29.5837 98.0762C29.2285 98.0762 28.8878 98.2173 28.6367 98.4684C28.3855 98.7196 28.2445 99.0602 28.2445 99.4154C28.2445 99.7706 28.3855 100.111 28.6367 100.362C28.8878 100.614 29.2285 100.755 29.5837 100.755H51.1006C51.4558 100.755 51.7965 100.614 52.0476 100.362C52.2988 100.111 52.4398 99.7706 52.4398 99.4154C52.4398 99.0602 52.2988 98.7196 52.0476 98.4684C51.7965 98.2173 51.4558 98.0762 51.1006 98.0762H29.5837Z" fill="#3DADE2"/>
<path d="M34.6268 126.027C34.2717 126.027 33.9309 126.168 33.6798 126.42C33.4286 126.671 33.2876 127.011 33.2876 127.367C33.2876 127.722 33.4286 128.062 33.6798 128.314C33.9309 128.565 34.2717 128.706 34.6268 128.706H52.7197C53.0749 128.706 53.4156 128.565 53.6668 128.314C53.9179 128.062 54.059 127.722 54.059 127.367C54.059 127.011 53.9179 126.671 53.6668 126.42C53.4156 126.168 53.0749 126.027 52.7197 126.027H34.6268Z" fill="#3DADE2"/>
<path d="M8.58729 24.7002C8.2321 24.7002 7.89156 24.8413 7.6404 25.0925C7.38925 25.3436 7.24805 25.6843 7.24805 26.0394C7.24805 26.3946 7.38925 26.7353 7.6404 26.9864C7.89156 27.2376 8.2321 27.3787 8.58729 27.3787H21.9484C22.3035 27.3787 22.6441 27.2376 22.8952 26.9864C23.1464 26.7353 23.2876 26.3946 23.2876 26.0394C23.2876 25.6843 23.1464 25.3436 22.8952 25.0925C22.6441 24.8413 22.3035 24.7002 21.9484 24.7002H8.58729ZM28.914 24.7002C28.5588 24.7002 28.2181 24.8413 27.9669 25.0925C27.7158 25.3436 27.5748 25.6843 27.5748 26.0394C27.5748 26.3946 27.7158 26.7353 27.9669 26.9864C28.2181 27.2376 28.5588 27.3787 28.914 27.3787H37.5223C37.8775 27.3787 38.218 27.2376 38.4692 26.9864C38.7204 26.7353 38.8616 26.3946 38.8616 26.0394C38.8616 25.6843 38.7204 25.3436 38.4692 25.0925C38.218 24.8413 37.8775 24.7002 37.5223 24.7002H28.914Z" fill="#3DADE2"/>
<path d="M108.762 27.4051C108.55 27.1275 108.237 26.9445 107.89 26.8956C107.544 26.8468 107.193 26.9359 106.911 27.1438L102.588 30.3354L97.2232 30.6885C96.9842 30.7038 96.7537 30.7831 96.556 30.9183C96.3583 31.0535 96.2006 31.2394 96.0996 31.4566C95.9987 31.6737 95.9581 31.9141 95.9821 32.1524C96.0061 32.3907 96.0939 32.6181 96.2362 32.8107L99.4293 37.1367L99.7845 42.4996C99.8003 42.7382 99.88 42.9681 100.015 43.1653C100.15 43.3624 100.336 43.5196 100.553 43.6203C100.77 43.721 101.01 43.7615 101.248 43.7376C101.486 43.7137 101.713 43.6263 101.905 43.4844L106.229 40.2928L111.594 39.9397C111.833 39.9245 112.063 39.8451 112.261 39.7099C112.458 39.5747 112.616 39.3888 112.717 39.1716C112.818 38.9545 112.859 38.7141 112.835 38.4758C112.811 38.2375 112.723 38.0101 112.58 37.8175L109.387 33.4915L109.032 28.1286C109.016 27.8661 108.922 27.6144 108.762 27.4051ZM106.535 30.7365L106.753 34.0576C106.77 34.3117 106.86 34.5556 107.012 34.7604L108.988 37.4409L105.667 37.6591C105.412 37.6755 105.168 37.7645 104.962 37.9155L102.282 39.8917L102.064 36.5707C102.046 36.3165 101.957 36.0726 101.805 35.8678L99.8305 33.1895L103.152 32.9712C103.406 32.954 103.65 32.8642 103.854 32.7127L106.535 30.7365Z" fill="#3DADE2"/>
<path d="M126.806 128.134C126.495 128.294 126.259 128.57 126.15 128.902C126.04 129.234 126.066 129.596 126.221 129.91L128.595 134.731L127.992 140.073C127.965 140.311 128.002 140.551 128.1 140.77C128.198 140.989 128.353 141.177 128.549 141.315C128.745 141.452 128.974 141.535 129.213 141.554C129.452 141.572 129.691 141.526 129.906 141.42L134.729 139.044L140.07 139.645C140.308 139.672 140.548 139.634 140.766 139.536C140.984 139.438 141.172 139.283 141.31 139.087C141.447 138.892 141.529 138.663 141.548 138.424C141.567 138.186 141.521 137.947 141.415 137.733L139.041 132.911L139.644 127.569C139.671 127.331 139.634 127.091 139.536 126.872C139.438 126.654 139.283 126.465 139.087 126.328C138.891 126.19 138.662 126.107 138.423 126.089C138.184 126.07 137.945 126.116 137.73 126.222L132.907 128.598L127.566 127.997C127.304 127.967 127.04 128.015 126.806 128.134ZM129.69 130.917L132.997 131.291C133.25 131.319 133.506 131.274 133.734 131.161L136.723 129.691L136.349 132.998C136.32 133.252 136.364 133.508 136.476 133.737L137.946 136.725L134.639 136.351C134.386 136.323 134.13 136.368 133.902 136.481L130.916 137.95L131.289 134.643C131.318 134.39 131.272 134.134 131.16 133.905L129.69 130.917Z" fill="#3DADE2"/>
<path d="M141.95 23.1992C139.769 23.1992 137.974 24.9942 137.974 27.1751C137.974 29.356 139.769 31.1536 141.95 31.1536C143.763 31.1536 145.063 29.7939 145.533 28.122C145.658 27.9981 145.757 27.8506 145.825 27.6881C145.893 27.5256 145.928 27.3512 145.928 27.1751C145.928 27.0001 145.893 26.8269 145.826 26.6653C145.758 26.5037 145.66 26.357 145.536 26.2334C145.067 24.5586 143.765 23.1992 141.95 23.1992ZM141.95 25.8646C142.69 25.8646 143.263 26.4347 143.263 27.1751C143.263 27.9155 142.69 28.4882 141.95 28.4882C141.209 28.4882 140.639 27.9155 140.639 27.1751C140.639 26.4347 141.209 25.8646 141.95 25.8646Z" fill="#3DADE2"/>
<path d="M160.021 100.446C157.841 100.446 156.043 102.241 156.043 104.422C156.043 106.603 157.841 108.401 160.021 108.401C161.835 108.401 163.135 107.04 163.605 105.366C163.73 105.243 163.829 105.096 163.897 104.934C163.965 104.772 164 104.598 164 104.422C164 104.247 163.965 104.074 163.897 103.912C163.83 103.751 163.732 103.604 163.608 103.481C163.139 101.806 161.837 100.446 160.021 100.446ZM160.021 103.112C160.762 103.112 161.332 103.682 161.332 104.422C161.332 105.163 160.762 105.735 160.021 105.735C159.281 105.735 158.708 105.163 158.708 104.422C158.708 103.682 159.281 103.112 160.021 103.112Z" fill="#3DADE2"/>
</svg>
